<?xml version="1.0" encoding="utf-8"?>
<!-- Generator: Adobe Illustrator 17.1.0, SVG Export Plug-In . SVG Version: 6.00 Build 0)  -->
<!DOCTYPE svg PUBLIC "-//W3C//DTD SVG 1.1//EN" "http://www.w3.org/Graphics/SVG/1.1/DTD/svg11.dtd">
<svg version="1.1" id="Layer_1" xmlns="http://www.w3.org/2000/svg" xmlns:xlink="http://www.w3.org/1999/xlink" x="0px" y="0px"
	 viewBox="44.6 58.1 102 102" enable-background="new 44.6 58.1 102 102" xml:space="preserve">
<path fill="#220370" d="M144.8,130l-20.1-10.2l19-9.8c0.6-0.3,0.6-0.8,0-1.1l-21.5-10.9l22.6-11.7c1.1-0.6,1.7-1.6,1.7-2.7
	c0-1.1-0.7-2.1-1.8-2.7l-44-22.3c-0.8-0.4-1.7-0.5-2.2-0.5c-0.5,0-1.3,0.1-2.1,0.4L46.4,81.9c-1.1,0.5-1.8,1.5-1.8,2.7
	c0,1.1,0.7,2.1,1.8,2.7l24.1,11.8l-23,10.8c-0.6,0.3-0.6,0.8,0,1.1l20.4,10l-21.4,10c-1.1,0.5-1.8,1.5-1.8,2.7
	c0,1.1,0.7,2.1,1.8,2.7l47.2,23.2c0.8,0.4,1.6,0.5,2.1,0.5c0.6,0,1.4-0.1,2.2-0.5l46.9-24.3c1.1-0.6,1.7-1.6,1.7-2.7
	C146.6,131.5,145.9,130.5,144.8,130z M98.4,62.8c0,0,0.1,0,0.1,0c0.1,0,0.1,0,0.1,0l41,20.7l-43.8,22.6c0,0-0.1,0-0.1,0l0,0
	L51.8,84.7L98.4,62.8z M95.8,155.3c0,0-0.1,0-0.1,0l0,0l-43.9-21.6l20.8-9.7l21,10.3c0.8,0.4,1.6,0.5,2.1,0.5c0.6,0,1.4-0.1,2.2-0.5
	l22.3-11.5l19.4,9.8L95.8,155.3z"/>
</svg>
