<?xml version="1.0" encoding="utf-8"?>
<!-- Generator: Adobe Illustrator 17.1.0, SVG Export Plug-In . SVG Version: 6.00 Build 0)  -->
<!DOCTYPE svg PUBLIC "-//W3C//DTD SVG 1.1//EN" "http://www.w3.org/Graphics/SVG/1.1/DTD/svg11.dtd" [
	<!ENTITY ns_extend "http://ns.adobe.com/Extensibility/1.0/">
	<!ENTITY ns_ai "http://ns.adobe.com/AdobeIllustrator/10.0/">
	<!ENTITY ns_graphs "http://ns.adobe.com/Graphs/1.0/">
	<!ENTITY ns_vars "http://ns.adobe.com/Variables/1.0/">
	<!ENTITY ns_imrep "http://ns.adobe.com/ImageReplacement/1.0/">
	<!ENTITY ns_sfw "http://ns.adobe.com/SaveForWeb/1.0/">
	<!ENTITY ns_custom "http://ns.adobe.com/GenericCustomNamespace/1.0/">
	<!ENTITY ns_adobe_xpath "http://ns.adobe.com/XPath/1.0/">
]>
<svg version="1.1" id="Layer_1" xmlns:x="&ns_extend;" xmlns:i="&ns_ai;" xmlns:graph="&ns_graphs;"
	 xmlns="http://www.w3.org/2000/svg" xmlns:xlink="http://www.w3.org/1999/xlink" x="0px" y="0px" viewBox="0 0 216 216"
	 enable-background="new 0 0 216 216" xml:space="preserve">
<metadata>
	<sfw  xmlns="&ns_sfw;">
		<slices></slices>
		<sliceSourceBounds  width="215.9" height="196.1" x="0.1" y="14.5" bottomLeftOrigin="true"></sliceSourceBounds>
	</sfw>
</metadata>
<path fill="#310472" d="M92,70l11.6,11.6l11.6,11.6c2,2,3.2,2,5.3,0l34.2-34.2c2-2,2-3.2,0-5.3l-11.6-11.6l-11.6-11.6
	c-2-2-3.2-2-5.3,0L92,64.8C90,66.9,90,68.1,92,70z"/>
<path fill="#310472" d="M125.7,115.1c4.6,4.6,9.4,4.6,14,0l36.8-36.8c4.6-4.6,4.6-9.4,0-14c-4.6-4.6-9.4-4.6-14,0l-36.8,36.8
	C121,105.7,121,110.5,125.7,115.1z"/>
<path fill="#310472" d="M84.2,59.7l36.8-36.8c4.6-4.6,4.6-9.4,0-14s-9.4-4.6-14,0L70.2,45.7c-4.6,4.6-4.6,9.4,0,14
	C74.9,64.3,79.5,64.3,84.2,59.7z"/>
<path fill="#310472" d="M79.2,119.3c2.9,2.9,5.9,2.9,8.8,0c2.9-2.9,2.9-5.9,0-8.8l-0.9-0.9c10.1-7.2,17.9-5.7,18.5-15.8l-7-7l-7-7
	c-10.2,0.6-8.6,8.4-15.8,18.5L75,97.4c-2.9-2.9-5.9-2.9-8.8,0c-2.9,2.9-2.9,5.9,0,8.8l0.9,0.9L4.7,158.3c-7.2,5.9-5.4,14,1.5,20.9
	c6.8,6.8,15,8.6,20.9,1.5l51.2-62.3L79.2,119.3z"/>
<path fill="#310472" d="M204,171.3h-3.3v-4.1c0-6.8-2.7-9.5-9.5-9.5H96.1c-6.8,0-9.5,2.7-9.5,9.5v4.1h-3.3
	c-8.6,0-12.1,3.4-12.1,12.1v14.4c0,2.7,1.1,3.8,3.8,3.8h137.2c2.7,0,3.8-1.1,3.8-3.8v-14.4C216.1,174.7,212.7,171.3,204,171.3z"/>
</svg>
