<?xml version="1.0" encoding="utf-8"?>
<!-- Generator: Adobe Illustrator 17.1.0, SVG Export Plug-In . SVG Version: 6.00 Build 0)  -->
<!DOCTYPE svg PUBLIC "-//W3C//DTD SVG 1.1//EN" "http://www.w3.org/Graphics/SVG/1.1/DTD/svg11.dtd">
<svg version="1.1" id="Layer_1" xmlns="http://www.w3.org/2000/svg" xmlns:xlink="http://www.w3.org/1999/xlink" x="0px" y="0px"
	 viewBox="30.6 69.4 200.4 181.9" enable-background="new 30.6 69.4 200.4 181.9" xml:space="preserve">
<path fill="#FFFFFF" d="M115.9,129.4l10.8,10.8l10.8,10.8c1.9,1.9,3,1.9,4.9,0l31.7-31.7c1.9-1.9,1.9-3,0-4.9l-10.8-10.8l-10.8-10.8
	c-1.9-1.9-3-1.9-4.9,0l-31.7,31.7C114,126.5,114,127.6,115.9,129.4z"/>
<path fill="#FFFFFF" d="M147.1,171.2c4.3,4.3,8.7,4.3,13,0l34.1-34.1c4.3-4.3,4.3-8.7,0-13c-4.3-4.3-8.7-4.3-13,0l-34.1,34.1
	C142.8,162.5,142.8,166.9,147.1,171.2z"/>
<path fill="#FFFFFF" d="M108.6,119.8l34.1-34.1c4.3-4.3,4.3-8.7,0-13c-4.3-4.3-8.7-4.3-13,0l-34.1,34.1c-4.3,4.3-4.3,8.7,0,13
	C100,124.1,104.3,124.1,108.6,119.8z"/>
<path fill="#FFFFFF" d="M104,175.1c2.7,2.7,5.5,2.7,8.2,0c2.7-2.7,2.7-5.5,0-8.2l-0.8-0.8c9.4-6.7,16.6-5.3,17.2-14.7l-6.5-6.5
	l-6.5-6.5c-9.5,0.6-8,7.8-14.7,17.2l-0.8-0.8c-2.7-2.7-5.5-2.7-8.2,0s-2.7,5.5,0,8.2l0.8,0.8l-57.8,47.5c-6.7,5.5-5,13,1.4,19.4
	c6.3,6.3,13.9,8,19.4,1.4l47.5-57.8L104,175.1z"/>
<path fill="#FFFFFF" d="M219.8,223.3h-3.1v-3.8c0-6.3-2.5-8.8-8.8-8.8h-88.2c-6.3,0-8.8,2.5-8.8,8.8v3.8h-3.1
	c-8,0-11.2,3.2-11.2,11.2v13.4c0,2.5,1,3.5,3.5,3.5h127.3c2.5,0,3.5-1,3.5-3.5v-13.4C231,226.5,227.8,223.3,219.8,223.3z"/>
</svg>
