<?xml version="1.0" encoding="utf-8"?>
<!-- Generator: Adobe Illustrator 17.1.0, SVG Export Plug-In . SVG Version: 6.00 Build 0)  -->
<!DOCTYPE svg PUBLIC "-//W3C//DTD SVG 1.1//EN" "http://www.w3.org/Graphics/SVG/1.1/DTD/svg11.dtd">
<svg version="1.1" id="Layer_1" xmlns="http://www.w3.org/2000/svg" xmlns:xlink="http://www.w3.org/1999/xlink" x="0px" y="0px"
	 viewBox="81.4 47.8 127.2 139.6" enable-background="new 81.4 47.8 127.2 139.6" xml:space="preserve">
<path fill="#FFFFFF" d="M205.4,151.4l-10.2-16.6l0,0c-2.2-3.4-4.7-3.9-6.3-3.9c-2.5,0.2-4.4,2-5.2,3.8c-0.2,0.2-0.2,0.3-0.2,0.6
	l-0.2-0.2c0-32.7,0-76.7,0-76.7c0-6-4.9-10.6-10.6-10.6H92c-6,0-10.6,4.9-10.6,10.6v111.3c0,6,4.9,10.6,10.6,10.6h72.2
	c8,7.8,20.4,9.2,30.1,3.3c0.2,0,0.2-0.2,0.3-0.2l4.2-2.7c4.7-3.1,8-7.8,9.2-13.3S208.4,156.3,205.4,151.4z M132,53.3
	c0.6,0,1.3,0.6,1.3,1.3s-0.6,1.3-1.3,1.3s-1.3-0.6-1.3-1.3S131.3,53.3,132,53.3z M93.6,61.1H171v77.2c-1.1,0-2,0.3-3.1,1.1
	c-1.3,0.8-2,1.9-2.3,3.1l-5.3-8.6c-1.9-2.8-5.6-3.8-8.5-1.9c-2.8,1.7-3.8,5.6-1.9,8.5l13.5,21.3c-2.7-1.7-5-2.3-7.2-2.2
	c-2.5,0.2-4.5,1.6-6.3,4.1c-0.3,0.5-0.3,1.1,0.2,1.6l1.9,2H93.6V61.1z M134.8,174.3c-0.3,1.1-1.1,1.9-2.2,2.2
	c-2.3,0.6-4.4-1.6-3.8-3.8c0.3-1.1,1.1-1.9,2.2-2.2C133.4,169.9,135.4,171.9,134.8,174.3z M197.3,178.7l-4.2,2.7l-0.2,0.2
	c-7.8,4.9-17.7,4.4-24.9-1.1c-0.5-0.3-0.9-0.8-1.4-1.1c0,0-0.2,0-0.2-0.2c-0.2-0.2-0.3-0.3-0.5-0.5c-0.2-0.2-0.5-0.5-0.6-0.6
	l-13-13.9c1.1-1.3,2.3-2,3.8-2.2c3.4-0.3,7.4,3,9.7,5.2c0.3,0.3,0.6,0.5,0.8,0.8l0,0l0.2,0.2c0.3,0.3,0.6,0.6,0.9,0.8
	c0.5,0.5,1.1,0.5,1.6,0s0.6-1.1,0.3-1.6l-17.9-28.2c-1.1-1.7-0.6-3.9,1.1-5c1.7-1.1,3.9-0.5,5,1.1l9.1,14.4c0.9,1.9,2.2,3.6,3.1,4.9
	c0,0.2,0.2,0.2,0.2,0.3l0.6,1.1l0,0l0.5,0.8c0.3,0.6,1.1,0.8,1.7,0.5s0.8-1.1,0.6-1.6s-0.6-1.1-1.3-2l-1.4-2.3l0,0l-1.7-2.7
	c-0.9-1.9-1.6-3.8-1.4-5.2c0.2-0.8,0.6-1.4,1.3-1.9c0.6-0.5,1.3-0.6,1.7-0.6h0.2h0.2l0,0c0.2,0,0.2,0,0.2,0c1.4,0.3,2.7,1.9,3.4,3.3
	l5,8c0.3,0.6,1.1,0.8,1.7,0.5l0,0c0.6-0.3,0.8-1.1,0.5-1.7l-5.5-8.6c-1.1-1.7-0.6-3.9,1.1-5l0,0c0.8-0.6,1.4-0.8,2.2-0.6h0.2l0,0
	h0.2c0,0,0,0,0.2,0h0.2c0,0,0,0,0.2,0c0,0,0,0,0.2,0c0,0,0,0,0.2,0c0,0,0,0,0.2,0s0.2,0.2,0.3,0.2l0,0c0,0,0.2,0,0.2,0.2l0,0
	l0.2,0.2l0,0l0.2,0.2l0,0c0.3,0.3,0.6,0.6,0.9,1.1l0,0c0,0.2,0.2,0.2,0.2,0.3c0.2,0.3,0.5,0.6,0.6,0.9l4.7,7.5
	c0.3,0.6,1.1,0.8,1.7,0.5s0.8-1.1,0.5-1.7c-1.4-2.2-4.9-8.3-4.9-8.3s0-0.2-0.2-0.2c-0.3-0.3-0.2-0.9,0.2-1.7
	c0.5-1.1,1.7-2.2,3.1-2.3s2.8,0.8,4.1,2.7l10.2,16.6C208.7,161.6,206,173,197.3,178.7z"/>
<path fill="#FFFFFF" d="M159.7,89.6h-54.2c-1.6,0-2.8-1.3-2.8-2.8l0,0c0-1.6,1.3-2.8,2.8-2.8h54.2c1.6,0,2.8,1.3,2.8,2.8l0,0
	C162.5,88.2,161.3,89.6,159.7,89.6z"/>
<path fill="#FFFFFF" d="M159.7,100.1h-54.2c-1.6,0-2.8-1.3-2.8-2.8l0,0c0-1.6,1.3-2.8,2.8-2.8h54.2c1.6,0,2.8,1.3,2.8,2.8l0,0
	C162.5,98.8,161.3,100.1,159.7,100.1z"/>
<path fill="#FFFFFF" d="M159.7,110.7h-54.2c-1.6,0-2.8-1.3-2.8-2.8l0,0c0-1.6,1.3-2.8,2.8-2.8h54.2c1.6,0,2.8,1.3,2.8,2.8l0,0
	C162.5,109.5,161.3,110.7,159.7,110.7z"/>
<path fill="#FFFFFF" d="M121,127c-4.1-9.4-15.5-7.2-15.7,3.8c0,6,5.5,8.3,9.1,10.6c3.6,2.3,6.1,5.5,6.4,6.9c0.3-1.3,3.1-4.5,6.4-6.9
	c3.6-2.5,9.2-4.7,9.1-10.6C136.5,119.8,124.8,118.1,121,127z"/>
</svg>
