<?xml version="1.0" encoding="utf-8"?>
<!-- Generator: Adobe Illustrator 17.1.0, SVG Export Plug-In . SVG Version: 6.00 Build 0)  -->
<!DOCTYPE svg PUBLIC "-//W3C//DTD SVG 1.1//EN" "http://www.w3.org/Graphics/SVG/1.1/DTD/svg11.dtd" [
	<!ENTITY ns_extend "http://ns.adobe.com/Extensibility/1.0/">
	<!ENTITY ns_ai "http://ns.adobe.com/AdobeIllustrator/10.0/">
	<!ENTITY ns_graphs "http://ns.adobe.com/Graphs/1.0/">
	<!ENTITY ns_vars "http://ns.adobe.com/Variables/1.0/">
	<!ENTITY ns_imrep "http://ns.adobe.com/ImageReplacement/1.0/">
	<!ENTITY ns_sfw "http://ns.adobe.com/SaveForWeb/1.0/">
	<!ENTITY ns_custom "http://ns.adobe.com/GenericCustomNamespace/1.0/">
	<!ENTITY ns_adobe_xpath "http://ns.adobe.com/XPath/1.0/">
]>
<svg version="1.1" id="Layer_1" xmlns:x="&ns_extend;" xmlns:i="&ns_ai;" xmlns:graph="&ns_graphs;"
	 xmlns="http://www.w3.org/2000/svg" xmlns:xlink="http://www.w3.org/1999/xlink" x="0px" y="0px" viewBox="0 0 216 216"
	 enable-background="new 0 0 216 216" xml:space="preserve">
<metadata>
	<sfw  xmlns="&ns_sfw;">
		<slices></slices>
		<sliceSourceBounds  height="161.6" width="217.8" bottomLeftOrigin="true" y="26.8" x="-1.8"></sliceSourceBounds>
	</sfw>
</metadata>
<g>
	<path fill="#310472" d="M216,108l-6.3,15.3l-17.5,0.3C190.9,119,187,108,176,99.2c-12.9-10.4-17.3-15.8-16.6-20.1
		c0.3-1.2-0.5-2.3-1.6-2.7c-1.2-0.4-2.3,0.1-2.8,1.3c-0.1,0.3-3.4,7.2-4,19.5c-0.6,11.3,1,29.2,11.8,51.5
		c6.7,13.8,8.2,24.2,4.4,30.9c-4.5,8-15.8,8.9-20.6,9.3c-0.4,0-0.6,0-0.9,0.1H19.8l17.9-16.8h42.6h0.1c0.1,0,0.1,0,0.3,0
		s0.1,0,0.3,0s0.1,0,0.3-0.1c0.1,0,0.1-0.1,0.3-0.1c0,0,0.1,0,0.1-0.1l0,0c0.1,0,0.1-0.1,0.3-0.1l0.1-0.1l0.1-0.1l0.1-0.1
		c0,0,0.1-0.1,0.1-0.3s0.1-0.1,0.1-0.3s0-0.1,0.1-0.3c0-0.1,0-0.1,0.1-0.3v-0.1c0-0.1,0-0.1,0-0.3l0,0v-0.1c0-0.1,0-0.1,0-0.3
		s0-0.1,0-0.3s0-0.1-0.1-0.3c0-0.1-0.1-0.1-0.1-0.3c0,0,0-0.1-0.1-0.1l-11.6-18.4l-16.3-26.8c1.9-7.5,16.4-58.1,53.8-81
		c18.6-11.4,40.1-14.2,64.1-8.4c0.6,0.1,1.4,0,1.9-0.4c0.1-0.1,12.8-9.4,24.2-4.9l-10.9,10.5c-0.9,0.9-1,2.3-0.1,3.2l16.2,18.1
		C204.1,65.6,207.7,92.2,216,108z"/>
	<path fill="#310472" d="M27.8,170c0-1.3-1-2.3-2.3-2.3H2.3c-1.3,0-2.3,1-2.3,2.3s1,2.3,2.3,2.3h23.2
		C26.8,172.3,27.8,171.3,27.8,170z"/>
	<path fill="#310472" d="M31.8,150.8h21.7c1.3,0,2.3-1,2.3-2.3s-1-2.3-2.3-2.3H31.8c-1.3,0-2.3,1-2.3,2.3S30.5,150.8,31.8,150.8z"/>
	<path fill="#310472" d="M44.9,126.9c0-1.3-1-2.3-2.3-2.3h-33c-1.3,0-2.3,1-2.3,2.3c0,1.3,1,2.3,2.3,2.3h33
		C43.7,129.2,44.9,128.2,44.9,126.9z"/>
	<path fill="#310472" d="M47,103H5.6c-1.3,0-2.3,1-2.3,2.3c0,1.3,1,2.3,2.3,2.3H47c1.3,0,2.3-1,2.3-2.3C49.3,104,48.4,103,47,103z"
		/>
	<path fill="#310472" d="M59.5,83.8c0-1.3-1-2.3-2.3-2.3H22.5c-1.3,0-2.3,1-2.3,2.3s1,2.3,2.3,2.3h34.7
		C58.5,86.3,59.5,85.1,59.5,83.8z"/>
	<path fill="#310472" d="M12.4,86.3c1.3,0,2.3-1,2.3-2.3s-1-2.3-2.3-2.3H0.5c-1.3,0-2.3,1-2.3,2.3s1,2.3,2.3,2.3H12.4z"/>
	<path fill="#310472" d="M71.8,62.3c0-1.3-1-2.3-2.3-2.3h-47c-1.3,0-2.3,1-2.3,2.3c0,1.3,1,2.3,2.3,2.3h46.8
		C70.7,64.7,71.8,63.6,71.8,62.3z"/>
	<path fill="#310472" d="M13.7,43.2h76.4c1.3,0,2.3-1,2.3-2.3c0-1.3-1-2.3-2.3-2.3H13.7c-1.3,0-2.3,1-2.3,2.3
		C11.4,42.1,12.4,43.2,13.7,43.2z"/>
</g>
</svg>
