<?xml version="1.0" encoding="utf-8"?>
<!-- Generator: Adobe Illustrator 17.1.0, SVG Export Plug-In . SVG Version: 6.00 Build 0)  -->
<!DOCTYPE svg PUBLIC "-//W3C//DTD SVG 1.1//EN" "http://www.w3.org/Graphics/SVG/1.1/DTD/svg11.dtd">
<svg version="1.1" id="Layer_1" xmlns="http://www.w3.org/2000/svg" xmlns:xlink="http://www.w3.org/1999/xlink" x="0px" y="0px"
	 viewBox="46.5 164.4 166.9 124.8" enable-background="new 46.5 164.4 166.9 124.8" xml:space="preserve">
<g>
	<path fill="#FFFFFF" d="M213.4,226.5l-4.9,11.8l-13.5,0.2c-1-3.5-4-12-12.5-18.8c-10-8-13.4-12.2-12.8-15.5
		c0.2-0.9-0.4-1.8-1.2-2.1c-0.9-0.3-1.8,0.1-2.2,1c-0.1,0.2-2.6,5.6-3.1,15.1c-0.5,8.7,0.8,22.6,9.1,39.8
		c5.2,10.7,6.3,18.7,3.4,23.9c-3.5,6.2-12.2,6.9-15.9,7.2c-0.3,0-0.5,0-0.7,0.1H61.8l13.8-13h32.9c0,0,0.1,0,0.1,0
		c0.1,0,0.1,0,0.2,0c0.1,0,0.1,0,0.2,0c0.1,0,0.1,0,0.2-0.1c0.1,0,0.1-0.1,0.2-0.1c0,0,0.1,0,0.1-0.1c0,0,0,0,0,0
		c0.1,0,0.1-0.1,0.2-0.1c0,0,0.1-0.1,0.1-0.1c0,0,0.1-0.1,0.1-0.1c0,0,0.1-0.1,0.1-0.1c0,0,0.1-0.1,0.1-0.2c0-0.1,0.1-0.1,0.1-0.2
		c0-0.1,0-0.1,0.1-0.2c0-0.1,0-0.1,0.1-0.2c0,0,0-0.1,0-0.1c0-0.1,0-0.1,0-0.2c0,0,0,0,0,0c0,0,0-0.1,0-0.1c0-0.1,0-0.1,0-0.2
		c0-0.1,0-0.1,0-0.2c0-0.1,0-0.1-0.1-0.2c0-0.1-0.1-0.1-0.1-0.2c0,0,0-0.1-0.1-0.1l-9-14.2l-12.6-20.7c1.5-5.8,12.7-44.9,41.6-62.6
		c14.4-8.8,31-11,49.5-6.5c0.5,0.1,1.1,0,1.5-0.3c0.1-0.1,9.9-7.3,18.7-3.8l-8.4,8.1c-0.7,0.7-0.8,1.8-0.1,2.5l12.5,14
		C204.2,193.7,207,214.3,213.4,226.5z"/>
	<path fill="#FFFFFF" d="M68,274.4c0-1-0.8-1.8-1.8-1.8H48.3c-1,0-1.8,0.8-1.8,1.8s0.8,1.8,1.8,1.8h17.9
		C67.2,276.2,68,275.4,68,274.4z"/>
	<path fill="#FFFFFF" d="M71.1,259.6h16.8c1,0,1.8-0.8,1.8-1.8s-0.8-1.8-1.8-1.8H71.1c-1,0-1.8,0.8-1.8,1.8S70.1,259.6,71.1,259.6z"
		/>
	<path fill="#FFFFFF" d="M81.2,241.1c0-1-0.8-1.8-1.8-1.8H53.9c-1,0-1.8,0.8-1.8,1.8s0.8,1.8,1.8,1.8h25.5
		C80.3,242.9,81.2,242.1,81.2,241.1z"/>
	<path fill="#FFFFFF" d="M82.8,222.6h-32c-1,0-1.8,0.8-1.8,1.8s0.8,1.8,1.8,1.8h32c1,0,1.8-0.8,1.8-1.8S83.9,222.6,82.8,222.6z"/>
	<path fill="#FFFFFF" d="M92.5,207.8c0-1-0.8-1.8-1.8-1.8H63.9c-1,0-1.8,0.8-1.8,1.8s0.8,1.8,1.8,1.8h26.8
		C91.7,209.7,92.5,208.8,92.5,207.8z"/>
	<path fill="#FFFFFF" d="M56.1,209.7c1,0,1.8-0.8,1.8-1.8s-0.8-1.8-1.8-1.8h-9.2c-1,0-1.8,0.8-1.8,1.8s0.8,1.8,1.8,1.8H56.1z"/>
	<path fill="#FFFFFF" d="M102,191.2c0-1-0.8-1.8-1.8-1.8H63.9c-1,0-1.8,0.8-1.8,1.8c0,1,0.8,1.8,1.8,1.8h36.2
		C101.1,193,102,192.2,102,191.2z"/>
	<path fill="#FFFFFF" d="M57.1,176.4h59c1,0,1.8-0.8,1.8-1.8s-0.8-1.8-1.8-1.8h-59c-1,0-1.8,0.8-1.8,1.8S56.1,176.4,57.1,176.4z"/>
</g>
</svg>
