<?xml version="1.0" encoding="utf-8"?>
<!-- Generator: Adobe Illustrator 17.1.0, SVG Export Plug-In . SVG Version: 6.00 Build 0)  -->
<!DOCTYPE svg PUBLIC "-//W3C//DTD SVG 1.1//EN" "http://www.w3.org/Graphics/SVG/1.1/DTD/svg11.dtd" [
	<!ENTITY ns_extend "http://ns.adobe.com/Extensibility/1.0/">
	<!ENTITY ns_ai "http://ns.adobe.com/AdobeIllustrator/10.0/">
	<!ENTITY ns_graphs "http://ns.adobe.com/Graphs/1.0/">
	<!ENTITY ns_vars "http://ns.adobe.com/Variables/1.0/">
	<!ENTITY ns_imrep "http://ns.adobe.com/ImageReplacement/1.0/">
	<!ENTITY ns_sfw "http://ns.adobe.com/SaveForWeb/1.0/">
	<!ENTITY ns_custom "http://ns.adobe.com/GenericCustomNamespace/1.0/">
	<!ENTITY ns_adobe_xpath "http://ns.adobe.com/XPath/1.0/">
]>
<svg version="1.1" id="Layer_1" xmlns:x="&ns_extend;" xmlns:i="&ns_ai;" xmlns:graph="&ns_graphs;"
	 xmlns="http://www.w3.org/2000/svg" xmlns:xlink="http://www.w3.org/1999/xlink" x="0px" y="0px" viewBox="0 0 100 100"
	 enable-background="new 0 0 100 100" xml:space="preserve">
<metadata>
	<sfw  xmlns="&ns_sfw;">
		<slices></slices>
		<sliceSourceBounds  x="73.8" y="51.5" width="84.4" height="78.9" bottomLeftOrigin="true"></sliceSourceBounds>
	</sfw>
</metadata>
<path fill="#40308E" d="M50.6,89.5H13.1c-2.9,0-5.3-2.4-5.3-5.3v-51c0-2.9,2.4-5.3,5.3-5.3h37.5c2.9,0,5.3,2.4,5.3,5.3v51
	C55.9,87.1,53.6,89.5,50.6,89.5z M13.1,31c-1.2,0-2.2,1-2.2,2.2v51c0,1.2,1,2.2,2.2,2.2h37.5c1.2,0,2.2-1,2.2-2.2v-51
	c0-1.2-1-2.2-2.2-2.2C50.6,31,13.1,31,13.1,31z"/>
<path fill="#40308E" d="M66.9,82.8c-0.7,0-1.4-0.1-2.1-0.4l-11.1-4.7c-0.8-0.3-1.2-1.3-0.8-2.1c0.3-0.8,1.3-1.2,2.1-0.8l11.1,4.7
	c0.5,0.2,1.1,0.2,1.7,0c0.5-0.2,1-0.6,1.2-1.2l19.9-46.9c0.5-1.1,0-2.4-1.2-2.9L53.2,13.8c-0.5-0.2-1.1-0.2-1.7,0
	c-0.5,0.2-1,0.6-1.2,1.2l-3.7,8.8c-0.3,0.8-1.3,1.2-2,0.8c-0.8-0.3-1.2-1.3-0.8-2.1l3.7-8.8c0.6-1.3,1.6-2.3,2.9-2.8
	c1.3-0.5,2.8-0.5,4.1,0L89,25.6c2.7,1.1,4,4.3,2.8,7L71.8,79.5c-0.6,1.3-1.6,2.3-2.9,2.9C68.3,82.6,67.6,82.8,66.9,82.8z"/>
<path fill="#40308E" d="M44.3,56.5c-0.9,0-1.6-0.7-1.6-1.6c0-2.7-1.8-4.5-3.5-5.2c-1.7-0.7-4.2-0.9-6.2,1c-0.6,0.6-1.6,0.6-2.2-0.1
	c-0.6-0.6-0.6-1.6,0.1-2.2c2.6-2.4,6.3-3,9.6-1.6c3.3,1.5,5.4,4.6,5.4,8.1C45.8,55.8,45.1,56.5,44.3,56.5z"/>
<path fill="#40308E" d="M19.5,56.5c-0.9,0-1.6-0.7-1.6-1.6c0-3.6,2.1-6.7,5.4-8.1c3.3-1.4,7-0.8,9.6,1.6c0.6,0.6,0.7,1.6,0.1,2.2
	c-0.6,0.6-1.6,0.7-2.2,0.1c-2-1.9-4.5-1.7-6.2-1c-1.7,0.7-3.5,2.5-3.5,5.2C21,55.8,20.3,56.5,19.5,56.5z"/>
<path fill="#40308E" d="M31.9,71.3c-0.2,0-0.4,0-0.7-0.1c-4-1.9-13.3-7.2-13.3-16.2c0-0.9,0.7-1.6,1.6-1.6l0,0
	c0.9,0,1.6,0.7,1.6,1.6c0,7.3,8,11.8,11.5,13.4c0.8,0.4,1.1,1.3,0.8,2.1C33,71,32.5,71.3,31.9,71.3z"/>
<path fill="#40308E" d="M31.9,71.3c-0.6,0-1.2-0.3-1.4-0.9c-0.4-0.8,0-1.7,0.8-2.1c3.5-1.6,11.5-6.1,11.5-13.4
	c0-0.9,0.7-1.6,1.6-1.6c0,0,0,0,0,0c0.9,0,1.6,0.7,1.6,1.6c0,9.1-9.3,14.4-13.3,16.2C32.3,71.3,32.1,71.3,31.9,71.3z"/>
<path fill="#40308E" d="M48.1,83.2c-0.9,0-1.6-0.7-1.6-1.6V77c0-0.9,0.7-1.6,1.6-1.6c0.9,0,1.6,0.7,1.6,1.6v4.7
	C49.7,82.5,49,83.2,48.1,83.2z"/>
<path fill="#40308E" d="M15.6,41.9c-0.9,0-1.6-0.7-1.6-1.6v-4.7c0-0.9,0.7-1.6,1.6-1.6s1.6,0.7,1.6,1.6v4.7
	C17.2,41.2,16.5,41.9,15.6,41.9z"/>
<path fill="#40308E" d="M65.6,75.7c-0.2,0-0.4,0-0.6-0.1c-0.8-0.3-1.2-1.3-0.8-2.1l1.8-4.3c0.3-0.8,1.3-1.2,2-0.8
	c0.8,0.3,1.2,1.3,0.8,2.1l-1.8,4.3C66.8,75.4,66.2,75.7,65.6,75.7z"/>
<path fill="#40308E" d="M51.8,25c-0.2,0-0.4,0-0.6-0.1c-0.8-0.3-1.2-1.3-0.8-2.1l1.8-4.3c0.3-0.8,1.3-1.2,2-0.8
	c0.8,0.3,1.2,1.3,0.8,2l-1.8,4.3C53,24.6,52.5,25,51.8,25z"/>
<path fill="#40308E" d="M54.8,59.6c-0.2,0-0.4,0-0.6-0.1c-0.4-0.2-0.7-0.5-0.9-1l-0.4-1.4c-0.2-0.8,0.2-1.7,1-1.9
	c0.7-0.2,1.4,0.1,1.8,0.7l11.6-5.9l-3.7-12.4l-8.5,4.3c-0.8,0.4-1.7,0.1-2.1-0.7c-0.4-0.8-0.1-1.7,0.7-2.1l10.1-5.2
	c0.4-0.2,0.9-0.2,1.3,0c0.4,0.2,0.8,0.5,0.9,1l4.7,15.4c0.2,0.7-0.1,1.5-0.8,1.8l-14.3,7.4C55.3,59.6,55.1,59.6,54.8,59.6z"/>
</svg>
