<?xml version="1.0" encoding="utf-8"?>
<!-- Generator: Adobe Illustrator 17.1.0, SVG Export Plug-In . SVG Version: 6.00 Build 0)  -->
<!DOCTYPE svg PUBLIC "-//W3C//DTD SVG 1.1//EN" "http://www.w3.org/Graphics/SVG/1.1/DTD/svg11.dtd" [
	<!ENTITY ns_extend "http://ns.adobe.com/Extensibility/1.0/">
	<!ENTITY ns_ai "http://ns.adobe.com/AdobeIllustrator/10.0/">
	<!ENTITY ns_graphs "http://ns.adobe.com/Graphs/1.0/">
	<!ENTITY ns_vars "http://ns.adobe.com/Variables/1.0/">
	<!ENTITY ns_imrep "http://ns.adobe.com/ImageReplacement/1.0/">
	<!ENTITY ns_sfw "http://ns.adobe.com/SaveForWeb/1.0/">
	<!ENTITY ns_custom "http://ns.adobe.com/GenericCustomNamespace/1.0/">
	<!ENTITY ns_adobe_xpath "http://ns.adobe.com/XPath/1.0/">
]>
<svg version="1.1" id="Layer_1" xmlns:x="&ns_extend;" xmlns:i="&ns_ai;" xmlns:graph="&ns_graphs;"
	 xmlns="http://www.w3.org/2000/svg" xmlns:xlink="http://www.w3.org/1999/xlink" x="0px" y="0px" viewBox="0 -11 100 111"
	 style="enable-background:new 0 -11 100 111;" xml:space="preserve">
<metadata>
	<sfw  xmlns="&ns_sfw;">
		<slices></slices>
		<sliceSourceBounds  width="93.8" height="93.8" bottomLeftOrigin="true" x="60.1" y="62.1"></sliceSourceBounds>
	</sfw>
</metadata>
<g style="display:none;">
	<g style="display:inline;">
		<rect x="3.1" y="3.1" style="fill:none;stroke:#000000;stroke-width:0.1;stroke-miterlimit:10;" width="93.8" height="93.8"/>
		<line style="fill:none;stroke:#000000;stroke-width:0.1;stroke-miterlimit:10;" x1="50" y1="3.1" x2="50" y2="96.9"/>
		<line style="fill:none;stroke:#000000;stroke-width:0.1;stroke-miterlimit:10;" x1="96.9" y1="50" x2="3.1" y2="50"/>
		<line style="fill:none;stroke:#000000;stroke-width:0.1;stroke-miterlimit:10;" x1="3.1" y1="3.1" x2="96.9" y2="96.9"/>
		<rect x="15.6" y="15.6" style="fill:none;stroke:#000000;stroke-width:0.1;stroke-miterlimit:10;" width="68.8" height="68.8"/>
		<line style="fill:none;stroke:#000000;stroke-width:0.1;stroke-miterlimit:10;" x1="96.9" y1="3.1" x2="3.1" y2="96.9"/>
		<line style="fill:none;stroke:#000000;stroke-width:0.1;stroke-miterlimit:10;" x1="3.1" y1="50" x2="50" y2="3.1"/>
		<line style="fill:none;stroke:#000000;stroke-width:0.1;stroke-miterlimit:10;" x1="50" y1="3.1" x2="96.9" y2="50"/>
		<line style="fill:none;stroke:#000000;stroke-width:0.1;stroke-miterlimit:10;" x1="96.9" y1="50" x2="50" y2="96.9"/>
		<line style="fill:none;stroke:#000000;stroke-width:0.1;stroke-miterlimit:10;" x1="50" y1="96.9" x2="3.1" y2="50"/>
		<circle style="fill:none;stroke:#000000;stroke-width:0.1;stroke-miterlimit:10;" cx="50" cy="50" r="32.8"/>
	</g>
</g>
<path style="fill:#666666;" d="M57.8,87.5l-0.6,1.4c-0.5,1.1-1.6,1.7-2.8,1.7h-8.6c-1.2,0-2.3-0.6-2.8-1.7l-0.8-1.4H3.1v3.1
	c0,3.4,2.8,6.2,6.2,6.2h81.2c3.4,0,6.2-2.8,6.2-6.2v-3.1H57.8z"/>
<path style="fill:#666666;" d="M84.4,31.2h-6.2v3.1h6.2V75H15.6V34.4h6.2v-3.1h-6.2c-1.7,0-3.1,1.4-3.1,3.1v50h75v-50
	C87.5,32.7,86.1,31.2,84.4,31.2z M50,81.2c-0.9,0-1.6-0.6-1.6-1.6s0.6-1.6,1.6-1.6c0.9,0,1.6,0.6,1.6,1.6S50.9,81.2,50,81.2z"/>
<polygon style="fill:#666666;" points="37.5,23.4 37.5,45.3 62.5,34.4 "/>
<path style="fill:#666666;" d="M25,3.1v68.8h50V3.1H25z M40.6,6.2h3.1v3.1h-3.1V6.2z M34.4,6.2h3.1v3.1h-3.1V6.2z M28.1,6.2h3.1v3.1
	h-3.1V6.2z M31.2,65.6v-3.1h6.2v3.1H31.2z M68.8,65.6h-25v3.1h-3.1v-9.4h3.1v3.1h25V65.6z M71.9,56.2H28.1V12.5h43.8V56.2z"/>
</svg>
