<?xml version="1.0" encoding="utf-8"?>
<!-- Generator: Adobe Illustrator 17.1.0, SVG Export Plug-In . SVG Version: 6.00 Build 0)  -->
<!DOCTYPE svg PUBLIC "-//W3C//DTD SVG 1.1//EN" "http://www.w3.org/Graphics/SVG/1.1/DTD/svg11.dtd" [
	<!ENTITY ns_extend "http://ns.adobe.com/Extensibility/1.0/">
	<!ENTITY ns_ai "http://ns.adobe.com/AdobeIllustrator/10.0/">
	<!ENTITY ns_graphs "http://ns.adobe.com/Graphs/1.0/">
	<!ENTITY ns_vars "http://ns.adobe.com/Variables/1.0/">
	<!ENTITY ns_imrep "http://ns.adobe.com/ImageReplacement/1.0/">
	<!ENTITY ns_sfw "http://ns.adobe.com/SaveForWeb/1.0/">
	<!ENTITY ns_custom "http://ns.adobe.com/GenericCustomNamespace/1.0/">
	<!ENTITY ns_adobe_xpath "http://ns.adobe.com/XPath/1.0/">
]>
<svg version="1.1" id="Layer_1" xmlns:x="&ns_extend;" xmlns:i="&ns_ai;" xmlns:graph="&ns_graphs;"
	 xmlns="http://www.w3.org/2000/svg" xmlns:xlink="http://www.w3.org/1999/xlink" x="0px" y="0px" viewBox="0 0 432 432"
	 enable-background="new 0 0 432 432" xml:space="preserve">
<metadata>
	<sfw  xmlns="&ns_sfw;">
		<slices></slices>
		<sliceSourceBounds  width="414.9" height="346.1" bottomLeftOrigin="true" y="85.9" x="7.1"></sliceSourceBounds>
	</sfw>
</metadata>
<g>
	<path fill="#FFFFFF" d="M242.7,132.3c8.6,3.8,11.3,8.6,3.2,13l-7,3.8c-9.2,4.9-17.3,11.3-23.8,20l-7,8.6c-5.9,7.6-9.2,17.3-9.2,27
		v109.6c0,1.1,0.5,2.7,1.6,3.2c2.2,1.6,2.2,4.9-0.5,5.9l-11.9,5.9c-3.8,1.6-2.2,7.6,1.6,7.6h34h185.8c1.1,0,2.2-0.5,2.7-1.1l8.6-8.6
		c1.1-1.1,1.1-2.2,1.1-3.2l-30.2-147.4c-0.5-2.2,1.1-4.9,3.8-4.9l0,0c2.7,0,4.3-2.7,3.8-4.9l-9.7-28.1c-1.1-2.7-3.8-3.2-5.9-1.6
		l-0.5,0.5c-1.1,1.1-2.7,1.1-3.8,0.5l-7-2.7c-2.2-1.1-4.9-1.6-7.6-1.6h-6.5c-2.7,0-4.9-2.7-3.2-5.4l7.6-16.2
		c7.6-16.2,5.4-34.6-4.9-49.1l-0.5-0.5c-4.9-7-13-10.8-21.1-10.8H114.7c-3.2,0-5.4,4.3-2.7,6.5l1.6,2.2c3.2,4.3,7,7.6,11.9,10.3
		L242.7,132.3z M344.8,108l-2.7,7c-1.1,2.7-3.8,4.9-7,4.9l-61-0.5c-5.4,0-10.8-1.1-15.7-3.2l-43.7-20c-5.4-2.2-43.7-20.5-38.9-23.8
		l0,0c1.1-1.1,2.7-1.6,4.3-1.6l153.4,0.5c2.2,0,3.8,1.1,5.4,2.2l0,0C350.2,84.8,350.7,92.9,344.8,108z"/>
	<path fill="#FFFFFF" d="M175.2,42.7H25.1c-3.8,0-7.6-1.1-10.3-3.8l0,0C5.1,31.3,4.6,15.1,13.2,5.9l1.1-1.1C17.5,1.6,21.9,0,26.2,0
		h149c10.3,0,18.4,9.2,18.4,20.5v1.6C193,33.5,184.9,42.7,175.2,42.7z"/>
	<path fill="#FFFFFF" d="M187.6,197.1h-40.5v-7.6c0-4.3-3.2-7.6-7.6-7.6h-37.3v-7.6c0-4.3-3.2-7.6-7.6-7.6H49.9
		c-4.3,0-7.6,3.2-7.6,7.6v164.2c0,4.3,3.2,7.6,7.6,7.6h44.8c4.3,0,7.6-3.2,7.6-7.6V331h37.3c4.3,0,7.6-3.2,7.6-7.6v-7.6h40.5
		c2.7,0,4.9-2.2,4.9-4.9V201.4C193,199.3,190.3,197.1,187.6,197.1z"/>
</g>
</svg>
