<?xml version="1.0" encoding="utf-8"?>
<!-- Generator: Adobe Illustrator 17.1.0, SVG Export Plug-In . SVG Version: 6.00 Build 0)  -->
<!DOCTYPE svg PUBLIC "-//W3C//DTD SVG 1.1//EN" "http://www.w3.org/Graphics/SVG/1.1/DTD/svg11.dtd" [
	<!ENTITY ns_extend "http://ns.adobe.com/Extensibility/1.0/">
	<!ENTITY ns_ai "http://ns.adobe.com/AdobeIllustrator/10.0/">
	<!ENTITY ns_graphs "http://ns.adobe.com/Graphs/1.0/">
	<!ENTITY ns_vars "http://ns.adobe.com/Variables/1.0/">
	<!ENTITY ns_imrep "http://ns.adobe.com/ImageReplacement/1.0/">
	<!ENTITY ns_sfw "http://ns.adobe.com/SaveForWeb/1.0/">
	<!ENTITY ns_custom "http://ns.adobe.com/GenericCustomNamespace/1.0/">
	<!ENTITY ns_adobe_xpath "http://ns.adobe.com/XPath/1.0/">
]>
<svg version="1.1" id="Layer_1" xmlns:x="&ns_extend;" xmlns:i="&ns_ai;" xmlns:graph="&ns_graphs;"
	 xmlns="http://www.w3.org/2000/svg" xmlns:xlink="http://www.w3.org/1999/xlink" x="0px" y="0px" viewBox="10 5 80 77"
	 style="enable-background:new 10 5 80 77;" xml:space="preserve">
<metadata>
	<sfw  xmlns="&ns_sfw;">
		<slices></slices>
		<sliceSourceBounds  width="76.8" height="64.1" bottomLeftOrigin="true" x="68.6" y="79"></sliceSourceBounds>
	</sfw>
</metadata>
<path style="fill:#666666;" d="M55.2,40.4c1.6,0.7,2.1,1.6,0.6,2.4l-1.3,0.7c-1.7,0.9-3.2,2.1-4.4,3.7l-1.3,1.6
	c-1.1,1.4-1.7,3.2-1.7,5v20.3c0,0.2,0.1,0.5,0.3,0.6c0.4,0.3,0.4,0.9-0.1,1.1l-2.2,1.1c-0.7,0.3-0.4,1.4,0.3,1.4h6.3h34.4
	c0.2,0,0.4-0.1,0.5-0.2l1.6-1.6c0.2-0.2,0.2-0.4,0.2-0.6l-5.6-27.3c-0.1-0.4,0.2-0.9,0.7-0.9l0,0c0.5,0,0.8-0.5,0.7-0.9l-1.8-5.2
	c-0.2-0.5-0.7-0.6-1.1-0.3l-0.1,0.1c-0.2,0.2-0.5,0.2-0.7,0.1L79.2,41c-0.4-0.2-0.9-0.3-1.4-0.3h-1.2c-0.5,0-0.9-0.5-0.6-1l1.4-3
	c1.4-3,1-6.4-0.9-9.1l-0.1-0.1c-0.9-1.3-2.4-2-3.9-2h-41c-0.6,0-1,0.8-0.5,1.2l0.3,0.4c0.6,0.8,1.3,1.4,2.2,1.9L55.2,40.4z
	 M74.1,35.9l-0.5,1.3c-0.2,0.5-0.7,0.9-1.3,0.9L61,38c-1,0-2-0.2-2.9-0.6L50,33.7c-1-0.4-8.1-3.8-7.2-4.4l0,0
	c0.2-0.2,0.5-0.3,0.8-0.3L72,29.1c0.4,0,0.7,0.2,1,0.4l0,0C75.1,31.6,75.2,33.1,74.1,35.9z"/>
<path style="fill:#666666;" d="M42.7,23.8H14.9c-0.7,0-1.4-0.2-1.9-0.7l0,0c-1.8-1.4-1.9-4.4-0.3-6.1l0.2-0.2
	c0.6-0.6,1.4-0.9,2.2-0.9h27.6c1.9,0,3.4,1.7,3.4,3.8V20C46,22.1,44.5,23.8,42.7,23.8z"/>
<path style="fill:#666666;" d="M45,52.4h-7.5V51c0-0.8-0.6-1.4-1.4-1.4h-6.9v-1.4c0-0.8-0.6-1.4-1.4-1.4h-8.3
	c-0.8,0-1.4,0.6-1.4,1.4v30.4c0,0.8,0.6,1.4,1.4,1.4h8.3c0.8,0,1.4-0.6,1.4-1.4v-1.4h6.9c0.8,0,1.4-0.6,1.4-1.4v-1.4H45
	c0.5,0,0.9-0.4,0.9-0.9V53.2C46,52.8,45.5,52.4,45,52.4z"/>
</svg>
