<?xml version="1.0" encoding="utf-8"?>
<!-- Generator: Adobe Illustrator 17.1.0, SVG Export Plug-In . SVG Version: 6.00 Build 0)  -->
<!DOCTYPE svg PUBLIC "-//W3C//DTD SVG 1.1//EN" "http://www.w3.org/Graphics/SVG/1.1/DTD/svg11.dtd">
<svg version="1.1" id="Layer_1" xmlns="http://www.w3.org/2000/svg" xmlns:xlink="http://www.w3.org/1999/xlink" x="0px" y="0px"
	 viewBox="11 48 124.7 115.9" enable-background="new 11 48 124.7 115.9" xml:space="preserve">
<g>
	<g>
		<g>
			<path fill="#FFFFFF" d="M92.7,80.6H80.9c-1.3,0-2.4-1.1-2.4-2.4c0-1.3,1.1-2.4,2.4-2.4h11.9c1.3,0,2.4,1.1,2.4,2.4
				C95.2,79.5,94.1,80.6,92.7,80.6z"/>
		</g>
		<g>
			<path fill="#FFFFFF" d="M120.8,80.6H104c-1.3,0-2.4-1.1-2.4-2.4c0-1.3,1.1-2.4,2.4-2.4h16.8c1.3,0,2.4,1.1,2.4,2.4
				C123.2,79.5,122.1,80.6,120.8,80.6z"/>
		</g>
		<g>
			<path fill="#FFFFFF" d="M117.1,91.3H81c-1.2,0-2.3-0.8-2.5-2c-0.2-1.5,0.9-2.8,2.4-2.8h36.2h3.7c1.3,0,2.4,1.1,2.4,2.4l0,0
				c0,1.3-1.1,2.4-2.4,2.4L117.1,91.3L117.1,91.3z"/>
		</g>
		<g>
			<path fill="#FFFFFF" d="M117.1,112.6H81c-1.2,0-2.3-0.8-2.5-2c-0.2-1.5,0.9-2.8,2.4-2.8h36.2h3.7c1.3,0,2.4,1.1,2.4,2.4l0,0
				c0,1.3-1.1,2.4-2.4,2.4L117.1,112.6L117.1,112.6z"/>
		</g>
		<g>
			<path fill="#FFFFFF" d="M92.7,101.9H80.9c-1.3,0-2.4-1.1-2.4-2.4s1.1-2.4,2.4-2.4h11.9c1.3,0,2.4,1.1,2.4,2.4
				S94.1,101.9,92.7,101.9z"/>
		</g>
		<g>
			<path fill="#FFFFFF" d="M120.8,101.9H104c-1.3,0-2.4-1.1-2.4-2.4s1.1-2.4,2.4-2.4h16.8c1.3,0,2.4,1.1,2.4,2.4
				S122.1,101.9,120.8,101.9z"/>
		</g>
	</g>
	<path fill="#FFFFFF" d="M28.1,70c5.3,0,9.5-5.4,9.5-12.3s-4.3-9.2-9.5-9.2s-9.5,2.6-9.5,9.2S22.8,70,28.1,70z"/>
	<path fill="#FFFFFF" d="M34.9,74.1c2.9,0,6.5,0.7,7.8,1.6c0.4,0.2,0.7,0.5,1,0.8c0.4,0.4,0.8,0.9,1.2,1.3l6.1,6.1l10-6
		c2-1.2,4.6-0.8,6,1c1.6,2.1,1,5.1-1.3,6.4l-13.2,7.9c-0.7,0.4-1.5,0.6-2.3,0.6c-1.1,0-2.3-0.4-3.1-1.3L42,88v21.2v49.9
		c0,2.3-1.6,4.4-3.9,4.8c-2.7,0.4-5.1-1.4-5.4-4l-3-33.3c0-0.8-0.8-1.4-1.5-1.4c-0.8,0-1.4,0.6-1.5,1.4l-2.5,33.2
		c-0.3,2.4-2.3,4.1-4.6,4.1h-0.7c-2.6,0-4.7-2.1-4.7-4.7v-48c0-0.1-0.1-0.2-0.2-0.3c-1.8-0.9-3-2.8-3-4.9V80.7
		c0-2.2,1.2-4.2,3.1-5.2c1.3-0.7,4.7-1.2,7.3-1.2l6.7,6.2L34.9,74.1z"/>
	<path fill="#FFFFFF" d="M135.4,121.3L135.4,121.3v-50c0-5.5-4.5-10-10-10H95.4H91H79.9h-4.4H44.2c-1.2,0-2.2,1-2.2,2.2
		c0,1.1,0.9,2.1,2,2.2l3.2,0h76.2c4.1,0,7.4,3.3,7.4,7.4v48.1H46.4v6.6h7.5l63.1,0l18.7,0"/>
	<path fill="#FFFFFF" d="M95.7,60.5"/>
	<line fill="#FFFFFF" x1="67.2" y1="127.9" x2="108.9" y2="127.9"/>
</g>
</svg>
