<?xml version="1.0" encoding="utf-8"?>
<!-- Generator: Adobe Illustrator 17.1.0, SVG Export Plug-In . SVG Version: 6.00 Build 0)  -->
<!DOCTYPE svg PUBLIC "-//W3C//DTD SVG 1.1//EN" "http://www.w3.org/Graphics/SVG/1.1/DTD/svg11.dtd">
<svg version="1.1" id="Layer_1" xmlns:sketch="http://www.bohemiancoding.com/sketch/ns"
	 xmlns="http://www.w3.org/2000/svg" xmlns:xlink="http://www.w3.org/1999/xlink" x="0px" y="0px" viewBox="27.8 248.2 612 489.5"
	 enable-background="new 27.8 248.2 612 489.5" xml:space="preserve">
<title>business_coins_money_stack_salary_outline_stroke</title>
<description>Created with Sketch.</description>
<g sketch:type="MSPage">
	<g>
		<g sketch:type="MSShapeGroup">
			<path id="a" fill="#CCCCCC" d="M433.1,269.1c85.7,38.1,145.5,124,145.5,223.8s-59.8,185.8-145.5,223.8
				c69.6-49.9,114.9-131.6,114.9-223.8S502.6,319.2,433.1,269.1L433.1,269.1z M494.3,269.1c85.7,38.1,145.5,124,145.5,223.8
				S580,678.7,494.3,716.8c69.6-49.9,114.9-131.6,114.9-223.8S563.9,319.2,494.3,269.1L494.3,269.1z M517.4,492.9
				c0-135.2-109.6-244.7-244.7-244.7S27.8,357.8,27.8,492.9s109.7,244.7,244.8,244.7S517.4,628.1,517.4,492.9z M58.4,492.9
				c0-118.2,95.9-214.2,214.2-214.2s214.3,95.9,214.3,214.2s-95.9,214.2-214.2,214.2S58.4,611.2,58.4,492.9z M284.3,385.8v21.1
				c7.3,1.3,13.2,4.2,17.7,8.4c4.6,4.3,9,10.8,13.2,19.5l-17.9,11.8c-5.4-11.5-12.4-17.3-21.1-17.3c-5.4,0-9.9,1.9-13.4,5.6
				c-3.5,3.7-5.4,8.4-5.4,14c0,5.1,1.4,9.3,4.3,12.8c2.9,3.3,8.5,7.3,17.2,11.8c7.4,4,13.5,7.7,18.4,11.1c4.8,3.5,8.5,6.8,11,10.1
				c6.9,8.8,10.3,19.4,10.3,31.8c0,12.2-3.1,23-9.3,32.3c-6.2,9.2-14.5,15.5-24.9,18.8v22.3h-16.1v-21.7c-12-2.3-21.2-7.1-27.5-14.5
				c-6.3-7.4-11-18.8-14-34.3l20.2-4.9c2.7,10.9,6.2,18.7,10.1,23.4c4.2,4.5,9.7,6.7,16.6,6.7c6.7,0,12.4-2.5,16.9-7.7
				c4.5-5.1,6.7-11.5,6.7-19.5c0-7.1-1.9-12.9-5.6-17.2c-1.9-2.1-4.7-4.4-8.5-7c-3.7-2.6-8.5-5.5-14.2-8.6
				c-11.9-6.3-19.7-12-23.4-17.3c-5.9-7.8-8.9-17.3-8.9-28.2c0-5.2,0.7-10,2.1-14.4c1.4-4.5,3.4-8.5,6.2-12.1
				c2.6-3.6,5.9-6.8,9.9-9.5c4-2.6,8.4-4.7,13.3-6.3v-21.1L284.3,385.8L284.3,385.8z"/>
		</g>
		<g>
			<path id="a_1_" fill="#CCCCCC" d="M433.1,269.1c85.7,38.1,145.5,124,145.5,223.8s-59.8,185.8-145.5,223.8
				c69.6-49.9,114.9-131.6,114.9-223.8S502.6,319.2,433.1,269.1L433.1,269.1z M494.3,269.1c85.7,38.1,145.5,124,145.5,223.8
				S580,678.7,494.3,716.8c69.6-49.9,114.9-131.6,114.9-223.8S563.9,319.2,494.3,269.1L494.3,269.1z M517.4,492.9
				c0-135.2-109.6-244.7-244.7-244.7S27.8,357.8,27.8,492.9s109.7,244.7,244.8,244.7S517.4,628.1,517.4,492.9z M58.4,492.9
				c0-118.2,95.9-214.2,214.2-214.2s214.3,95.9,214.3,214.2s-95.9,214.2-214.2,214.2S58.4,611.2,58.4,492.9z M284.3,385.8v21.1
				c7.3,1.3,13.2,4.2,17.7,8.4c4.6,4.3,9,10.8,13.2,19.5l-17.9,11.8c-5.4-11.5-12.4-17.3-21.1-17.3c-5.4,0-9.9,1.9-13.4,5.6
				c-3.5,3.7-5.4,8.4-5.4,14c0,5.1,1.4,9.3,4.3,12.8c2.9,3.3,8.5,7.3,17.2,11.8c7.4,4,13.5,7.7,18.4,11.1c4.8,3.5,8.5,6.8,11,10.1
				c6.9,8.8,10.3,19.4,10.3,31.8c0,12.2-3.1,23-9.3,32.3c-6.2,9.2-14.5,15.5-24.9,18.8v22.3h-16.1v-21.7c-12-2.3-21.2-7.1-27.5-14.5
				c-6.3-7.4-11-18.8-14-34.3l20.2-4.9c2.7,10.9,6.2,18.7,10.1,23.4c4.2,4.5,9.7,6.7,16.6,6.7c6.7,0,12.4-2.5,16.9-7.7
				c4.5-5.1,6.7-11.5,6.7-19.5c0-7.1-1.9-12.9-5.6-17.2c-1.9-2.1-4.7-4.4-8.5-7c-3.7-2.6-8.5-5.5-14.2-8.6
				c-11.9-6.3-19.7-12-23.4-17.3c-5.9-7.8-8.9-17.3-8.9-28.2c0-5.2,0.7-10,2.1-14.4c1.4-4.5,3.4-8.5,6.2-12.1
				c2.6-3.6,5.9-6.8,9.9-9.5c4-2.6,8.4-4.7,13.3-6.3v-21.1L284.3,385.8L284.3,385.8z"/>
		</g>
	</g>
</g>
</svg>
