<?xml version="1.0" encoding="utf-8"?>
<!-- Generator: Adobe Illustrator 17.1.0, SVG Export Plug-In . SVG Version: 6.00 Build 0)  -->
<!DOCTYPE svg PUBLIC "-//W3C//DTD SVG 1.1//EN" "http://www.w3.org/Graphics/SVG/1.1/DTD/svg11.dtd" [
	<!ENTITY ns_extend "http://ns.adobe.com/Extensibility/1.0/">
	<!ENTITY ns_ai "http://ns.adobe.com/AdobeIllustrator/10.0/">
	<!ENTITY ns_graphs "http://ns.adobe.com/Graphs/1.0/">
	<!ENTITY ns_vars "http://ns.adobe.com/Variables/1.0/">
	<!ENTITY ns_imrep "http://ns.adobe.com/ImageReplacement/1.0/">
	<!ENTITY ns_sfw "http://ns.adobe.com/SaveForWeb/1.0/">
	<!ENTITY ns_custom "http://ns.adobe.com/GenericCustomNamespace/1.0/">
	<!ENTITY ns_adobe_xpath "http://ns.adobe.com/XPath/1.0/">
]>
<svg version="1.1" id="Layer_1" xmlns:x="&ns_extend;" xmlns:i="&ns_ai;" xmlns:graph="&ns_graphs;"
	 xmlns="http://www.w3.org/2000/svg" xmlns:xlink="http://www.w3.org/1999/xlink" x="0px" y="0px" viewBox="-39 0 505 432"
	 enable-background="new -39 0 505 432" xml:space="preserve">
<metadata>
	<sfw  xmlns="&ns_sfw;">
		<slices></slices>
		<sliceSourceBounds  width="496.8" height="315.3" bottomLeftOrigin="true" y="60.9" x="-34.9"></sliceSourceBounds>
	</sfw>
</metadata>
<path fill="#B2B2B2" d="M449.9,371.1H328.7h-36.4h-48.4c-6.8,0-12.1-5.4-12.1-12.1v-36.4h-54.4v12h39.3c1.7,0,3.1,1.4,3.1,3.1v6.1
	c0,1.7-1.4,3.1-3.1,3.1h-91c-1.7,0-3.1-1.4-3.1-3.1v-6.1c0-1.7,1.4-3.1,3.1-3.1h39.5v-12H-22.8c-6.8,0-12.1-5.4-12.1-12.1V67.9
	c0-6.7,5.4-12.1,12.1-12.1h387.9c6.8,0,12.1,5.4,12.1,12.1v54.5h72.7c6.8,0,12.1,5.4,12.1,12.1v224.3
	C462.1,365.6,456.6,371.1,449.9,371.1z M244.1,358.8h84.7V201.2h-84.7V358.8z M365.2,67.9H-22.6v242.4h254.2V201.1
	c0-6.7,5.4-12.1,12.1-12.1h36.4v-54.5c0-6.8,5.4-12.1,12.1-12.1h72.9L365.2,67.9L365.2,67.9z M450.1,134.6H292.5v54.5h36.1
	c6.8,0,12.1,5.4,12.1,12.1v157.6h109.2L450.1,134.6L450.1,134.6z M368.2,334.6h6.1c1.7,0,3.1,1.4,3.1,3.1v6.1c0,1.7-1.4,3.1-3.1,3.1
	h-6.1c-1.7,0-3.1-1.4-3.1-3.1v-6.1C365.1,335.9,366.5,334.6,368.2,334.6z M289.4,346.7h-6.1c-1.7,0-3.1-1.4-3.1-3.1v-6.1
	c0-1.7,1.4-3.1,3.1-3.1h6.1c1.7,0,3.1,1.4,3.1,3.1v6.1C292.5,345.4,291.1,346.7,289.4,346.7z"/>
</svg>
