<?xml version="1.0" encoding="utf-8"?>
<!-- Generator: Adobe Illustrator 17.1.0, SVG Export Plug-In . SVG Version: 6.00 Build 0)  -->
<!DOCTYPE svg PUBLIC "-//W3C//DTD SVG 1.1//EN" "http://www.w3.org/Graphics/SVG/1.1/DTD/svg11.dtd" [
	<!ENTITY ns_extend "http://ns.adobe.com/Extensibility/1.0/">
	<!ENTITY ns_ai "http://ns.adobe.com/AdobeIllustrator/10.0/">
	<!ENTITY ns_graphs "http://ns.adobe.com/Graphs/1.0/">
	<!ENTITY ns_vars "http://ns.adobe.com/Variables/1.0/">
	<!ENTITY ns_imrep "http://ns.adobe.com/ImageReplacement/1.0/">
	<!ENTITY ns_sfw "http://ns.adobe.com/SaveForWeb/1.0/">
	<!ENTITY ns_custom "http://ns.adobe.com/GenericCustomNamespace/1.0/">
	<!ENTITY ns_adobe_xpath "http://ns.adobe.com/XPath/1.0/">
]>
<svg version="1.1" id="Layer_1" xmlns:x="&ns_extend;" xmlns:i="&ns_ai;" xmlns:graph="&ns_graphs;"
	 xmlns="http://www.w3.org/2000/svg" xmlns:xlink="http://www.w3.org/1999/xlink" x="0px" y="0px" viewBox="0 0 100 100"
	 enable-background="new 0 0 100 100" xml:space="preserve">
<metadata>
	<sfw  xmlns="&ns_sfw;">
		<slices></slices>
		<sliceSourceBounds  x="67.6" y="42.6" width="96.9" height="96.9" bottomLeftOrigin="true"></sliceSourceBounds>
	</sfw>
</metadata>
<g>
	<g>
		<path fill="white" d="M50,98.4C23.3,98.4,1.6,76.7,1.6,50S23.3,1.6,50,1.6S98.4,23.3,98.4,50S76.7,98.4,50,98.4z M50,3.9
			C24.6,3.9,3.9,24.6,3.9,50S24.6,96.1,50,96.1S96.1,75.4,96.1,50S75.4,3.9,50,3.9z"/>
		<g>
			<path fill="white" d="M38.3,39.5c0.5-0.2,1-0.5,1.5-0.7c0.1-0.1,0.3-0.1,0.4-0.2c0.4-0.2,0.9-0.4,1.4-0.5
				c0.1,0,0.2-0.1,0.3-0.1c0.6-0.2,1.1-0.4,1.7-0.5c0.1,0,0.2,0,0.2-0.1c0.6-0.1,1.1-0.3,1.7-0.4c0,0,0,0,0.1,0l2.8-5.1l-11.8-21
				l-10.9,6.5l12.4,22.1C38.2,39.5,38.3,39.5,38.3,39.5z"/>
			<path fill="white" d="M50,46.9c-9.2,0-16.8,7.8-16.8,17.4c0,9.6,7.5,17.4,16.8,17.4s16.8-7.8,16.8-17.4
				C66.8,54.7,59.2,46.9,50,46.9z M60.8,62.8L56.5,67c0,0,0,0,0,0c0,0-0.1,0.1,0,0.2l1,5.9c0.1,0.5-0.1,1-0.5,1.3
				c-0.4,0.3-1,0.3-1.4,0.1l-5.4-2.8c-0.1,0-0.1-0.1-0.3,0l-5.4,2.8c-0.2,0.1-0.4,0.2-0.6,0.2c-0.3,0-0.6-0.1-0.8-0.3
				c-0.4-0.3-0.6-0.8-0.5-1.3l1-6c0,0,0-0.1,0-0.1l-4.4-4.2c-0.4-0.4-0.5-0.9-0.4-1.4c0.2-0.5,0.6-0.9,1.1-0.9l6-0.9
				c0.1,0,0.1,0,0.2-0.1l2.7-5.5c0.2-0.5,0.7-0.7,1.2-0.7h0c0.5,0,1,0.3,1.2,0.7l2.7,5.4c0,0,0.1,0.1,0.2,0.1l6,0.9
				c0.5,0.1,0.9,0.4,1.1,0.9C61.3,61.9,61.2,62.4,60.8,62.8z"/>
			<path fill="white" d="M51.5,60.8L50,57.7l-1.5,3.1c-0.4,0.8-1.2,1.4-2.2,1.6L43,62.8l2.4,2.3c0.7,0.6,1,1.6,0.9,2.6l-0.6,3.3
				l3-1.6c0.9-0.4,1.8-0.4,2.7,0l3,1.6l-0.6-3.3c-0.2-1,0.2-1.9,0.9-2.6l2.4-2.3l-3.3-0.5C52.8,62.2,52,61.6,51.5,60.8z"/>
			<path fill="white" d="M51.5,36.7c0.1,0,0.2,0,0.3,0c0.4,0,0.8,0.1,1.1,0.1c0.1,0,0.2,0,0.3,0c0.4,0,0.8,0.1,1.1,0.2
				c0.1,0,0.2,0,0.3,0.1c0.4,0.1,0.8,0.2,1.2,0.2c0.1,0,0.2,0,0.3,0.1c0.4,0.1,0.8,0.2,1.2,0.3c0.1,0,0.1,0,0.2,0.1
				c0.4,0.1,0.9,0.3,1.3,0.4c0,0,0.1,0,0.1,0c0.5,0.2,0.9,0.4,1.4,0.6c0.1,0,0.2,0.1,0.3,0.1c0.3,0.1,0.6,0.3,1,0.5
				c0.1,0,0.1,0.1,0.2,0.1l12.4-22.1l-10.9-6.5L48.9,36.7c0.4,0,0.7,0,1.1,0C50.5,36.7,51,36.7,51.5,36.7z"/>
			<path fill="white" d="M61.5,42.5c-0.4-0.2-0.8-0.4-1.2-0.6c-0.1,0-0.1-0.1-0.2-0.1c-0.4-0.2-0.7-0.3-1.1-0.5
				c-0.1,0-0.2-0.1-0.3-0.1c-0.4-0.1-0.7-0.3-1.1-0.4c-0.1,0-0.2-0.1-0.3-0.1c-0.9-0.3-1.9-0.6-2.8-0.8c0,0-0.1,0-0.1,0
				c-0.4-0.1-0.8-0.1-1.2-0.2c-0.1,0-0.2,0-0.3,0c-0.4,0-0.7-0.1-1.1-0.1c-0.1,0-0.2,0-0.4,0c-0.5,0-0.9,0-1.4,0c-0.5,0-1,0-1.6,0.1
				c-0.1,0-0.2,0-0.2,0c-0.5,0-1,0.1-1.5,0.2c0,0-0.1,0-0.1,0c-0.3,0-0.6,0.1-0.9,0.1c-0.1,0-0.2,0-0.3,0c-0.3,0.1-0.5,0.1-0.8,0.2
				c-0.1,0-0.3,0.1-0.4,0.1c-0.2,0.1-0.4,0.1-0.6,0.2c-0.2,0-0.3,0.1-0.5,0.1c-0.2,0.1-0.4,0.1-0.5,0.2c-0.2,0.1-0.4,0.1-0.6,0.2
				c-0.2,0.1-0.3,0.1-0.5,0.2c-0.2,0.1-0.4,0.2-0.7,0.3c-0.1,0.1-0.3,0.1-0.4,0.2c-0.2,0.1-0.5,0.2-0.7,0.3
				c-0.1,0.1-0.2,0.1-0.3,0.2c-0.2,0.1-0.5,0.3-0.7,0.4c-0.1,0-0.2,0.1-0.3,0.1C31.1,46.7,26,54.8,26,64.2c0,13.7,10.8,24.8,24,24.8
				s24-11.1,24-24.8C74,54.9,69,46.7,61.5,42.5z M50,84.3c-10.7,0-19.4-9-19.4-20.1c0-11.1,8.7-20.1,19.4-20.1s19.4,9,19.4,20.1
				S60.7,84.3,50,84.3z"/>
		</g>
	</g>
</g>
</svg>
