<?xml version="1.0" encoding="utf-8"?>
<!-- Generator: Adobe Illustrator 17.1.0, SVG Export Plug-In . SVG Version: 6.00 Build 0)  -->
<!DOCTYPE svg PUBLIC "-//W3C//DTD SVG 1.1//EN" "http://www.w3.org/Graphics/SVG/1.1/DTD/svg11.dtd">
<svg version="1.1" id="Layer_1" xmlns="http://www.w3.org/2000/svg" xmlns:xlink="http://www.w3.org/1999/xlink" x="0px" y="0px"
	 viewBox="125 269.1 114.6 126.2" enable-background="new 125 269.1 114.6 126.2" xml:space="preserve">
<path fill="#220370" d="M157,317.3c0.5,1.3,1.5,2.4,2.7,3c0,0,0.5,0.3,0.9,0.4c0,0,0.1,0,0.1,0.1l0,0c0,0,0,0.1,0,0.1
	c0.1,7.8,8.4,22.3,21.5,22.3s21.4-14.6,21.5-22.3c0,0,0-0.1,0-0.1c0,0,0,0,0,0c0,0,0.1-0.1,0.1-0.1c0.5-0.1,0.9-0.4,0.9-0.4
	c1.3-0.6,2.2-1.7,2.7-3c0.8-2,1.3-6.5,1.5-8c0.5-4.9,0.1-7.5-1.3-8.9l-0.6-0.6l0-0.9c0-1.1,0-2.1,0.1-3.1c0.2-7.3,0.4-13.5-7.2-17.5
	l-0.7-0.4l-0.3-0.7c-2.9-7.2-12.4-7.8-15.5-8l-0.6,0c-0.4,0-1.5-0.1-1.5-0.1c-8.8,0.3-15.1,2.4-19.1,6.7c-5.6,6-5.3,14.2-5.1,21.4
	l0.1,2.6l-0.6,0.6c-1.3,1.4-1.7,4.1-1.2,8.9C155.6,310.5,156.2,315.3,157,317.3z M159.1,303.5c0.1-0.5,0.6-1.4,1.4-1.4
	c1.2,0.1,2,2.9,2.3,3.6c0.2,0.4,0.6,0.2,0.6-0.1c0,0-0.7-10.6-0.1-12.9c0.6-2.6,1.1-3.7,3.1-5.8c1.7-2,4.9-2.7,7.1-1.6l4,2
	c2.5,1.5,6.7,1.5,9.2,0c0,0,1.7-0.9,3.9-2c2.2-1.1,5.4-0.4,7.2,1.6c0,0,2,2,3.3,5.8c1.1,3.1,0.3,12.9,0.3,12.9
	c0,0.3,0.4,0.5,0.6,0.1c0.3-0.7,1.1-3.5,2.3-3.6c0.8,0,1.3,0.9,1.4,1.4c0.2,0.8,0.4,2.3,0.1,5.6c-0.3,2.8-0.8,6-1.2,7
	c-0.3,0.7-0.7,1.1-1.4,1.3c-2,0.6-2.4,1.8-2.5,2.5c0,0.1,0,0.3-0.1,0.5c0,0.2,0,0.5-0.1,0.7c-0.3,6.6-7.8,18.7-18,18.7
	s-17.7-12.1-18-18.7c0-0.2,0-0.5,0-0.7c0-0.2-0.1-0.4-0.1-0.5c-0.1-0.7-0.5-2-2.5-2.5c-0.7-0.2-1.2-0.6-1.4-1.3
	c-0.4-1.1-1-4.2-1.2-7C158.7,305.8,158.9,304.2,159.1,303.5z"/>
<path fill="#220370" d="M239.5,386.4c0,0-5-34.7-12-38.7c-3.9-2.5-13.8-2-24.3-8.7c0,0-0.1-0.1-0.1-0.1c-1.1-0.8-2.8-1-2.7,0.5
	c0.5,3.8-3.8,18.4-9.4,30.5c-1.4-4.9-4.1-13.4-4.6-14.6c-0.1-0.2-0.1-0.6,0.1-0.8c0.8-0.9,2.8-3.4,3.1-4.7c0.4-1.7-0.5-2.8-1.8-3.9
	c-0.6-0.4-1.5-0.6-2.1-0.3l-2.3,1c-0.6,0.3-1.7,0.3-2.3,0l-2.3-1c-0.6-0.3-1.5-0.1-2.1,0.3c-1.3,1.1-2.2,2.2-1.8,3.9
	c0.3,1.3,2.3,3.8,3.1,4.7c0.2,0.2,0.2,0.5,0.1,0.8c-0.5,1.2-3.2,9.7-4.6,14.6c-5.7-12.2-10-26.8-9.4-30.5c0.1-1.5-1.6-1.3-2.7-0.5
	c0,0-0.1,0.1-0.1,0.1c-10.5,6.7-20.4,6.2-24.3,8.7c-7.1,4-12,38.7-12,38.7c-0.5,3.3,1.1,8.9,8.8,8.9h96.8
	C238.5,395.3,240,389.7,239.5,386.4z"/>
<path fill="#220370" d="M172.7,318.2c4.3,0,7.9-3.5,7.9-7.8c0-0.4,0-0.7-0.1-1.1c0.6-0.1,1.2-0.2,1.8-0.2c0.6,0,1.3,0.1,1.9,0.2
	c0,0.3-0.1,0.7-0.1,1.1c0,4.3,3.5,7.8,7.8,7.8c4.3,0,7.9-3.5,7.9-7.8c0-4.3-3.5-7.8-7.9-7.8c-3,0-5.6,1.7-6.9,4.1
	c-0.9-0.2-1.8-0.3-2.7-0.3c-0.9,0-1.8,0.1-2.7,0.3c-1.3-2.5-3.9-4.1-6.9-4.1c-4.3,0-7.8,3.5-7.8,7.8
	C164.8,314.7,168.4,318.2,172.7,318.2z M191.9,305.3c2.8,0,5.1,2.3,5.1,5.1s-2.3,5.1-5.1,5.1c-2.8,0-5.1-2.3-5.1-5.1
	C186.9,307.6,189.1,305.3,191.9,305.3z M172.7,305.3c2.8,0,5.1,2.3,5.1,5.1s-2.3,5.1-5.1,5.1c-2.8,0-5.1-2.3-5.1-5.1
	C167.6,307.6,169.9,305.3,172.7,305.3z"/>
</svg>
