<?xml version="1.0" encoding="utf-8"?>
<!-- Generator: Adobe Illustrator 17.1.0, SVG Export Plug-In . SVG Version: 6.00 Build 0)  -->
<!DOCTYPE svg PUBLIC "-//W3C//DTD SVG 1.1//EN" "http://www.w3.org/Graphics/SVG/1.1/DTD/svg11.dtd">
<svg version="1.1" id="Layer_1" xmlns="http://www.w3.org/2000/svg" xmlns:xlink="http://www.w3.org/1999/xlink" x="0px" y="0px"
	 viewBox="30.6 84.1 135.1 125.7" enable-background="new 30.6 84.1 135.1 125.7" xml:space="preserve">
<title>tool-1</title>
<desc>Created with Sketch.</desc>
<g>
	<path fill="#FFFFFF" d="M64.4,151.8c18.7,0,33.8-15.2,33.8-33.8c0-18.7-15.2-33.8-33.8-33.8S30.6,99.3,30.6,118
		C30.6,136.7,45.8,151.8,64.4,151.8L64.4,151.8z M156.6,200.8h-117v-7.5l19.2-15.3l13.6,13.6l38.3-29.9l17.4,17.4l28.5-55.3V200.8z
		 M156.5,104.4l-30.6,59.5l-14.3-14.3l-38.3,29.9l-13.7-13.7l-28.9,23.1v20.9h135.1V104.4H156.5z M64.7,138.7v-5.3
		c-3.1-0.1-6.2-1-8-2.3l1.3-3.5c1.9,1.3,4.6,2.3,7.6,2.3c3.7,0,6.3-2.2,6.3-5.2c0-2.9-2.1-4.7-5.9-6.3c-5.4-2.1-8.7-4.5-8.7-9.1
		c0-4.4,3.1-7.7,7.9-8.5v-5.3h3.3v5.1c3.2,0.1,5.3,0.9,6.8,1.8l-1.3,3.5c-1.1-0.6-3.3-1.8-6.6-1.8c-4,0-5.6,2.4-5.6,4.5
		c0,2.7,1.9,4.1,6.5,6c5.4,2.2,8.2,4.9,8.2,9.6c0,4.2-2.9,8-8.3,8.9v5.5H64.7z"/>
</g>
</svg>
