<?xml version="1.0" encoding="UTF-8"?><svg xmlns="http://www.w3.org/2000/svg" xmlns:xlink="http://www.w3.org/1999/xlink" viewBox="0 0 80 80"><defs><style>.at{fill:#fff;}.au{fill:url(#aq);opacity:.5;}.av{fill:url(#ar);opacity:.55;}</style><linearGradient id="aq" x1="46.84" y1="19.41" x2="-2.26" y2="61.46" gradientTransform="matrix(1, 0, 0, 1, 0, 0)" gradientUnits="userSpaceOnUse"><stop offset="0" stop-color="#ff5898"/><stop offset="1" stop-color="#7d33ff"/></linearGradient><linearGradient id="ar" x1="76.43" y1="39.45" x2="58.47" y2="54.83" gradientTransform="matrix(1, 0, 0, 1, 0, 0)" gradientUnits="userSpaceOnUse"><stop offset="0" stop-color="#00eb81"/><stop offset="1" stop-color="#35c8ff"/></linearGradient></defs><g id="a"/><g id="b"/><g id="c"><g id="d"/><g id="e"/><g id="f"/><g id="g"/><g id="h"/><g id="i"/><g id="j"/><g id="k"/><g id="l"/><g id="m"/><g id="n"/><g id="o"/><g id="p"/><g id="q"/><g id="r"/><g id="s"/><g id="t"/><g id="u"/><g id="v"/><g id="w"/><g id="x"/><g id="y"/><g id="a`"/><g id="aa"/><g id="ab"/><g id="ac"/><g id="ad"/><g id="ae"/><g id="af"/><g id="ag"/><g id="ah"/><g id="ai"/><g id="aj"/><g id="ak"/><g id="al"/><g id="am"/><g id="an"/><g id="ao"/><g id="ap"/><g><circle class="au" cx="26.76" cy="36.61" r="24.98"/><circle class="av" cx="69.08" cy="45.74" r="9.13"/><g><path class="at" d="M39.46,33.66l2.9,2.9c.12,.12,.28,.18,.44,.18s.33-.07,.44-.18l8.9-8.9c.42-.42,.65-.97,.65-1.56s-.23-1.14-.64-1.56l-.67-.67c-.86-.86-2.25-.85-3.11,0l-8.9,8.9c-.24,.24-.24,.64,0,.88Z"/><path class="at" d="M46.41,40.6l2.9,2.9c.12,.12,.28,.18,.44,.18s.32-.06,.44-.18l8.9-8.9c.86-.86,.86-2.25,0-3.11l-.67-.67c-.86-.86-2.25-.86-3.11,0l-8.9,8.9c-.24,.24-.24,.64,0,.88Z"/><path class="at" d="M42.34,12.25c-15.64,0-28.37,12.73-28.37,28.37s12.73,28.37,28.37,28.37,28.37-12.73,28.37-28.37-12.73-28.37-28.37-28.37Zm27.12,28.37c0,7.25-2.87,13.85-7.52,18.72L23.62,21.02c4.87-4.65,11.46-7.52,18.72-7.52,14.96,0,27.12,12.17,27.12,27.12Zm-38.95,9.2l1.31,1.31,1.31,1.31-1.84,1.84-2.62-2.62,1.84-1.84Zm-15.3-9.2c0-7.25,2.87-13.85,7.52-18.72l10.82,10.82-2.23,2.23c-4.07,4.07-4.72,10.13-1.65,13.95l-2.32,2.32c-.12,.12-.18,.28-.18,.44s.07,.33,.18,.44l3.5,3.5c.12,.12,.28,.18,.44,.18s.32-.06,.44-.18l2.32-2.32c1.6,1.29,3.6,1.92,5.68,1.92,2.88,0,5.91-1.21,8.28-3.58l2.23-2.23,10.82,10.82c-4.87,4.65-11.46,7.52-18.72,7.52-14.96,0-27.12-12.17-27.12-27.12Z"/></g></g></g><g id="as"/></svg>