<?xml version="1.0" encoding="UTF-8"?><svg xmlns="http://www.w3.org/2000/svg" viewBox="0 0 48 48"><defs><style>.j{fill:none;stroke:#fff;stroke-linecap:round;stroke-linejoin:round;stroke-width:2px;}</style></defs><g id="a"/><g id="b"/><g id="c"/><g id="d"/><g id="e"/><g id="f"/><g id="g"/><g id="h"/><g id="i"><g><path class="j" d="M35.03,17.05c1.27,2.01,2,4.39,2,6.95,0,7.2-5.83,13.03-13.03,13.03s-13.03-5.83-13.03-13.03,5.83-13.03,13.03-13.03c3.31,0,6.32,1.23,8.62,3.26"/><path class="j" d="M38,38c-1.83,1.83-4.76,1.96-7.01,2.89s-4.52,2.91-7,2.91c-2.48,0-4.67-1.95-7-2.91s-5.18-1.06-7.01-2.89-1.96-4.76-2.89-7.01-2.91-4.52-2.91-7,1.95-4.67,2.91-7,1.06-5.18,2.89-7.01,4.76-1.96,7.01-2.89,4.52-2.91,7-2.91,4.67,1.95,7,2.91,5.18,1.06,7.01,2.89,1.96,4.76,2.89,7.01,2.91,4.52,2.91,7-1.95,4.67-2.91,7-1.06,5.18-2.89,7.01Z"/><polyline class="j" points="20.02 22.55 24.65 27.05 31.89 18.04"/></g></g></svg>