<?xml version="1.0" encoding="UTF-8"?><svg xmlns="http://www.w3.org/2000/svg" xmlns:xlink="http://www.w3.org/1999/xlink" viewBox="0 0 80 80"><defs><style>.at{fill:#fff;}.au{fill:url(#aq);opacity:.5;}.av{fill:url(#ar);opacity:.55;}</style><linearGradient id="aq" x1="4.65" y1="36.25" x2="41.63" y2="36.25" gradientTransform="matrix(1, 0, 0, 1, 0, 0)" gradientUnits="userSpaceOnUse"><stop offset="0" stop-color="#975cff"/><stop offset="1" stop-color="#3e44fe"/></linearGradient><linearGradient id="ar" x1="73.48" y1="43.12" x2="54.75" y2="59.16" gradientTransform="matrix(1, 0, 0, 1, 0, 0)" gradientUnits="userSpaceOnUse"><stop offset="0" stop-color="#00eb81"/><stop offset="1" stop-color="#35c8ff"/></linearGradient></defs><g id="a"/><g id="b"/><g id="c"><g id="d"/><g id="e"/><g id="f"/><g id="g"/><g id="h"/><g id="i"/><g id="j"/><g id="k"/><g id="l"/><g id="m"/><g id="n"/><g id="o"/><g id="p"/><g id="q"/><g id="r"/><g id="s"/><g id="t"/><g id="u"/><g id="v"/><g id="w"/><g id="x"/><g id="y"/><g id="a`"/><g id="aa"/><g id="ab"/><g id="ac"/><g id="ad"/><g id="ae"/><g id="af"/><g id="ag"/><g id="ah"/><g id="ai"/><g id="aj"/><g id="ak"/><g id="al"/><g id="am"/><g id="an"/><g id="ao"/><g id="ap"/><g><rect class="au" x="4.65" y="16.19" width="36.98" height="40.12" rx="2.11" ry="2.11"/><circle class="av" cx="65.82" cy="49.68" r="9.53"/><g><path class="at" d="M52.31,61.62c.34,0,.62-.28,.62-.62v-13c0-.54,.44-.97,.97-.97h10.32c.54,0,.97,.44,.97,.97v13c0,.34,.28,.62,.62,.62s.62-.28,.62-.62v-13c0-1.23-1-2.22-2.22-2.22h-10.32c-1.23,0-2.22,1-2.22,2.22v13c0,.34,.28,.62,.62,.62Z"/><path class="at" d="M34.34,61.62c.34,0,.62-.28,.62-.62v-24.71c0-.54,.44-.97,.97-.97h10.32c.54,0,.97,.44,.97,.97v24.71c0,.34,.28,.62,.62,.62s.62-.28,.62-.62v-24.71c0-1.23-1-2.22-2.22-2.22h-10.32c-1.23,0-2.22,1-2.22,2.22v24.71c0,.34,.28,.62,.62,.62Z"/><path class="at" d="M16.38,61.62c.34,0,.62-.28,.62-.62V24.57c0-.54,.44-.97,.97-.97h10.32c.54,0,.97,.44,.97,.97V60.99c0,.34,.28,.62,.62,.62s.62-.28,.62-.62V24.57c0-1.23-1-2.22-2.22-2.22h-10.32c-1.23,0-2.22,1-2.22,2.22V60.99c0,.34,.28,.62,.62,.62Z"/><path class="at" d="M71.17,63.18H11.03c-.34,0-.62,.28-.62,.62s.28,.62,.62,.62h60.14c.34,0,.62-.28,.62-.62s-.28-.62-.62-.62Z"/></g></g></g><g id="as"/></svg>