<?xml version="1.0" encoding="UTF-8"?><svg xmlns="http://www.w3.org/2000/svg" xmlns:xlink="http://www.w3.org/1999/xlink" viewBox="0 0 80 80"><defs><style>.at{fill:#fff;}.au{fill:url(#aq);opacity:.5;}.av{fill:url(#ar);opacity:.55;}</style><linearGradient id="aq" x1="75.4" y1="35.57" x2="62.76" y2="46.4" gradientTransform="matrix(1, 0, 0, 1, 0, 0)" gradientUnits="userSpaceOnUse"><stop offset="0" stop-color="#975cff"/><stop offset="1" stop-color="#3e44fe"/></linearGradient><linearGradient id="ar" x1="50.39" y1="22.05" x2="-.89" y2="65.96" gradientTransform="matrix(1, 0, 0, 1, 0, 0)" gradientUnits="userSpaceOnUse"><stop offset="0" stop-color="#00eb81"/><stop offset="1" stop-color="#35c8ff"/></linearGradient></defs><g id="a"/><g id="b"/><g id="c"><g id="d"/><g id="e"/><g id="f"/><g id="g"/><g id="h"/><g id="i"/><g id="j"/><g id="k"/><g id="l"/><g id="m"/><g id="n"/><g id="o"/><g id="p"/><g id="q"/><g id="r"/><g id="s"/><g id="t"/><g id="u"/><g id="v"/><g id="w"/><g id="x"/><g id="y"/><g id="a`"/><g id="aa"/><g id="ab"/><g id="ac"/><g id="ad"/><g id="ae"/><g id="af"/><g id="ag"/><g id="ah"/><g id="ai"/><g id="aj"/><g id="ak"/><g id="al"/><g id="am"/><g id="an"/><g id="ao"/><g id="ap"/><g><circle class="au" cx="70.24" cy="40" r="6.43"/><circle class="av" cx="29.42" cy="40" r="26.09"/><g><path class="at" d="M33.86,41.47c2.13-2.23,3.69-4.68,5.33-6.9,1.6-2.24,3.28-4.25,5.31-5.68,6.7-4.45,16.15-2.82,22.15,2.32-4.94-7.67-16.39-10.35-24.25-5.48-2.62,1.67-4.67,4.05-6.44,6.49-1.71,2.36-3.17,4.73-4.88,6.69-5.43,7.02-14.75,4.53-22.12,2.37,7.56,5.05,17.97,7.99,24.91,.19Z"/><path class="at" d="M37.45,47.81c2.13-2.23,3.69-4.68,5.33-6.9,1.6-2.24,3.28-4.25,5.31-5.68,6.7-4.45,16.15-2.82,22.15,2.32-4.94-7.67-16.39-10.35-24.25-5.48-2.62,1.67-4.67,4.05-6.44,6.49-1.71,2.36-3.17,4.73-4.88,6.69-5.43,7.02-14.75,4.53-22.12,2.37,7.56,5.05,17.97,7.99,24.91,.19Z"/><path class="at" d="M50.09,38.48c-2.62,1.67-4.67,4.05-6.44,6.49-1.71,2.36-3.17,4.73-4.88,6.69-5.43,7.02-14.75,4.53-22.12,2.37,7.56,5.05,17.97,7.99,24.91,.19,2.13-2.23,3.69-4.68,5.33-6.9,1.6-2.24,3.28-4.25,5.31-5.68,6.7-4.45,16.15-2.82,22.15,2.32-4.94-7.67-16.39-10.35-24.25-5.48Z"/></g></g></g><g id="as"/></svg>