<?xml version="1.0" encoding="utf-8"?>
<!-- Generator: Adobe Illustrator 26.2.1, SVG Export Plug-In . SVG Version: 6.00 Build 0)  -->
<svg version="1.1" id="Layer_1" xmlns="http://www.w3.org/2000/svg" xmlns:xlink="http://www.w3.org/1999/xlink" x="0px" y="0px"
	 viewBox="0 0 48 48" style="enable-background:new 0 0 48 48;" xml:space="preserve">
<style type="text/css">
	.st0{fill:#FFFFFF;}
</style>
<g id="a">
</g>
<g id="b">
</g>
<g id="c">
</g>
<g id="d">
</g>
<g id="e">
</g>
<g id="f">
</g>
<g id="g">
</g>
<g id="i">
</g>
<g>
	<path class="st0" d="M19.8,22.5c0.1,0.4,0.5,0.6,0.9,0.6c0,0,0,0,0,0c0.4,0,0.8-0.3,0.9-0.6l1.7-4.4h2.8c0.1,0,0.2,0.1,0.2,0.2
		s-0.1,0.2-0.2,0.2h-1.6c-0.4,0-0.7,0.2-0.9,0.6s-0.1,0.8,0.1,1.1l2.2,2.6c0.4,0.4,1,0.5,1.4,0.1c0.4-0.4,0.5-1,0.1-1.4l-0.8-1
		c1-0.2,1.7-1.1,1.7-2.2c0-1.2-1-2.2-2.2-2.2h-3.5c-0.4,0-0.8,0.3-0.9,0.6l-1,2.6l-1-2.5c-0.2-0.5-0.8-0.8-1.3-0.6
		c-0.5,0.2-0.8,0.8-0.6,1.3L19.8,22.5z"/>
	<path class="st0" d="M40.3,14.2h-0.6v-0.1c0-0.6-0.4-1-1-1h-1.1c-0.5-2.6-3-10.8-13.8-11.1c0,0-0.1,0-0.1,0c-0.1,0-0.2,0-0.3,0
		c-0.1,0-0.2,0-0.2,0c0,0-0.1,0-0.1,0C12.5,2.3,9.9,10.6,9.4,13.1H9c-0.6,0-1,0.4-1,1v0.1H7.7c-1.4,0-2.5,1.1-2.5,2.5v7
		c0,1.4,1.1,2.5,2.5,2.5H8v0.2c0,0.6,0.4,1,1,1h1.2c0.2,4,1.8,7.1,5,9.8c0.4,0.3,0.8,0.6,1.1,1c0.1,0.1,0.1,0.1,0.2,0.2v2.9
		c0,1.1-0.7,2.1-1.8,2.5l-0.6,0.2c-0.5,0.2-0.8,0.7-0.6,1.3c0.1,0.4,0.5,0.7,0.9,0.7c0.1,0,0.2,0,0.3-0.1l0.6-0.2
		c1.9-0.6,3.1-2.4,3.1-4.4v-1.3c1.7,1.3,3.3,2.2,5.4,2.2c0,0,0,0,0,0c0,0,0,0,0,0s0,0,0,0c0,0,0,0,0,0c2.1,0,3.7-0.9,5.4-2.2v1.3
		c0,2,1.3,3.7,3.1,4.4l0.6,0.2c0.1,0,0.2,0.1,0.3,0.1c0.4,0,0.8-0.3,0.9-0.7c0.2-0.5-0.1-1.1-0.6-1.3l-0.6-0.2
		c-1.1-0.4-1.8-1.4-1.8-2.5v-2.9c0.1-0.1,0.1-0.1,0.2-0.2c0.4-0.3,0.7-0.6,1.1-1c3.2-2.7,4.8-5.9,5-9.8h1c0.6,0,1-0.4,1-1v-0.3h0.6
		c1.4,0,2.5-1.1,2.5-2.5v-7C42.8,15.3,41.7,14.2,40.3,14.2z M23.6,4c9.2,0.1,11.5,6.6,12.1,9.1H11.5C12,10.7,14.4,4.1,23.6,4z
		 M7.7,24.2c-0.3,0-0.5-0.2-0.5-0.5v-7c0-0.3,0.2-0.5,0.5-0.5H8v8H7.7z M31.4,35.7c-0.4,0.3-0.8,0.7-1.1,1c-2.4,2-4.1,3.5-6.3,3.5
		c-2.3,0-4-1.5-6.3-3.5c-0.4-0.3-0.7-0.6-1.1-1c-2.8-2.3-4.1-4.9-4.3-8.3h2c0.6,0,1-0.4,1-1s-0.4-1-1-1H10v-0.2v-10v-0.1h27.7v10.3
		H28l-1.5-1.1c-1.6-1.2-3.8-1.2-5.4,0l-1.5,1.1h-1.2c-0.6,0-1,0.4-1,1s0.4,1,1,1H20c0.2,0,0.4-0.1,0.6-0.2l1.8-1.3
		c0.9-0.7,2.1-0.6,3.1,0l1.7,1.3c0.2,0.1,0.4,0.2,0.6,0.2h8C35.5,30.8,34.2,33.4,31.4,35.7z M40.8,23.7c0,0.3-0.2,0.5-0.5,0.5H40v-8
		h0.4c0.3,0,0.5,0.2,0.5,0.5V23.7z"/>
	<path class="st0" d="M31.3,10c-4.6-1.9-10.4-1.8-14.9,0c-0.5,0.2-0.8,0.8-0.5,1.3c0.2,0.5,0.8,0.8,1.3,0.5c4-1.6,9.3-1.7,13.4,0
		c0.1,0,0.2,0.1,0.4,0.1c0.4,0,0.8-0.2,0.9-0.6C32,10.8,31.8,10.2,31.3,10z"/>
	<path class="st0" d="M17.6,28.7c-0.5-0.2-1.1,0.1-1.3,0.6c-0.2,0.5,0.1,1.1,0.6,1.3c2.2,0.8,4.5,1.2,6.9,1.2c2.4,0,4.8-0.4,6.9-1.2
		c0.5-0.2,0.8-0.8,0.6-1.3c-0.2-0.5-0.8-0.8-1.3-0.6c-1.9,0.7-4.1,1.1-6.3,1.1C21.6,29.8,19.5,29.4,17.6,28.7z"/>
</g>
<g id="j">
</g>
</svg>
