<?xml version="1.0" encoding="utf-8"?>
<!-- Generator: Adobe Illustrator 26.2.1, SVG Export Plug-In . SVG Version: 6.00 Build 0)  -->
<svg version="1.1" id="Layer_1" xmlns="http://www.w3.org/2000/svg" xmlns:xlink="http://www.w3.org/1999/xlink" x="0px" y="0px"
	 viewBox="0 0 110.5 110.5" style="enable-background:new 0 0 110.5 110.5;" xml:space="preserve">
<style type="text/css">
	.st0{fill:#3E44FE;}
	.st1{fill:#FFFFFF;}
</style>
<circle class="st0" cx="55.5" cy="55.2" r="53.5"/>
<g>
	<path class="st1" d="M38.9,73l19.1-18.8c1.5-1.5,2.8-3,3.7-4.5c0.9-1.5,1.4-3.3,1.4-5.2c0-2.3-0.8-4.2-2.3-5.6
		c-1.5-1.4-3.4-2.1-5.6-2.1c-2.4,0-4.3,0.8-5.7,2.4c-1.4,1.6-2.3,3.6-2.7,6.1l-8.2-1.3c0.2-2.1,0.8-3.9,1.8-5.7
		c0.9-1.7,2.1-3.2,3.6-4.5c1.4-1.3,3.1-2.3,5.1-3c1.9-0.7,4-1.1,6.3-1.1c2.1,0,4.2,0.3,6.2,0.9c2,0.6,3.7,1.5,5.3,2.8
		c1.5,1.2,2.8,2.8,3.7,4.5c0.9,1.8,1.4,3.9,1.4,6.3c0,1.6-0.2,3.1-0.6,4.4c-0.4,1.4-1,2.7-1.7,3.9c-0.7,1.2-1.6,2.4-2.5,3.5
		c-1,1.1-2,2.2-3.1,3.2L49.6,73h22.3v7.7h-33V73z"/>
</g>
</svg>
