<?xml version="1.0" encoding="UTF-8"?><svg xmlns="http://www.w3.org/2000/svg" xmlns:xlink="http://www.w3.org/1999/xlink" viewBox="0 0 80 80"><defs><style>.at{fill:#fff;}.au{fill:url(#ar);opacity:.6;}.av{fill:url(#aq);opacity:.5;}</style><linearGradient id="aq" x1="45.16" y1="15.47" x2="1.96" y2="52.46" gradientTransform="matrix(1, 0, 0, 1, 0, 0)" gradientUnits="userSpaceOnUse"><stop offset="0" stop-color="#ff5898"/><stop offset="1" stop-color="#7d33ff"/></linearGradient><linearGradient id="ar" x1="72.56" y1="54.93" x2="53.41" y2="71.33" gradientTransform="matrix(1, 0, 0, 1, 0, 0)" gradientUnits="userSpaceOnUse"><stop offset="0" stop-color="#35c8ff"/><stop offset="1" stop-color="#3e44fe"/></linearGradient></defs><g id="a"/><g id="b"/><g id="c"><g id="d"/><g id="e"/><g id="f"/><g id="g"/><g id="h"/><g id="i"/><g id="j"/><g id="k"/><g id="l"/><g id="m"/><g id="n"/><g id="o"/><g id="p"/><g id="q"/><g id="r"/><g id="s"/><g id="t"/><g id="u"/><g id="v"/><g id="w"/><g id="x"/><g id="y"/><g id="a`"/><g id="aa"/><g id="ab"/><g id="ac"/><g id="ad"/><g id="ae"/><g id="af"/><g id="ag"/><g id="ah"/><g id="ai"/><g id="aj"/><g id="ak"/><g id="al"/><g id="am"/><g id="an"/><g id="ao"/><g id="ap"/><g><circle class="av" cx="27.5" cy="30.59" r="21.97"/><circle class="au" cx="64.73" cy="61.64" r="9.74"/><g><path class="at" d="M59.58,30.04c-.85-.45-1.39-.64-1.87-.64-1.12,0-1.65,1.04-2.02,2.06-1.51,4.13-5.9,7.13-10.43,7.13-.39,0-.78-.02-1.16-.07-5.33-.64-9.25-4.28-10.23-9.49-.82-4.33,1.07-7.54,4.16-11.03l1.57-1.77-2.16,.99c-.16,.07-.33,.14-.49,.21-.39,.16-.79,.32-1.16,.57-5.4,3.6-8.1,8.92-8.04,15.83v.09c.02,2.5,.03,3.43,2.25,3.43,.36,0,.78-.02,1.3-.04,.18,0,.35-.01,.53-.01,6.03,0,10.7,4.22,11.36,10.26,.6,5.52-3.53,10.75-9.42,11.92-.59,.12-1.19,.18-1.78,.18-2.47,0-4.69-.97-7.03-2l-.27-.12-1.91-.84,1.32,1.61s4.42,4.8,12.09,4.8c2.48,0,5.03-.51,7.58-1.51,1.42-.55,2.74-1.37,4.02-2.15,.58-.35,1.18-.72,1.77-1.06l.46-.26-.29-.45c-4.43-6.88-4.95-11.03-1.91-15.3,2.37-3.33,5.63-5.09,9.41-5.09,.92,0,1.88,.11,2.86,.31,4.93,1.05,7.86,4.59,8.96,10.81l.54,3.05,.45-3.06c1-6.85-3.4-14.57-10.46-18.36Zm7.8,8.2c-.91-1.58-2.07-3.06-3.42-4.38,1.35,1.32,2.51,2.8,3.42,4.38Zm-2.99,.66c-.31-.22-.64-.42-.99-.61,.35,.19,.67,.39,.99,.61Zm-1.69-.96c-.36-.16-.73-.31-1.13-.44,.39,.13,.77,.28,1.13,.44Zm-3.36-7.46c-.19-.1-.37-.19-.54-.27,.17,.08,.35,.17,.54,.27Zm-.69-.33c-.12-.05-.23-.09-.33-.13,.11,.03,.22,.08,.33,.13Zm-.49-.17c-.1-.03-.2-.04-.29-.05,.09,.01,.19,.03,.29,.05Zm-.41-.07c-.12,0-.23,0-.33,.04,.09-.02,.19-.04,.29-.04,.01,0,.03,0,.05,0Zm-.71,.22c.1-.08,.2-.13,.31-.16-.11,.04-.21,.09-.31,.16Zm1.52,6.74c-.43-.04-.86-.07-1.28-.07,.42,0,.85,.03,1.28,.07Zm-1.53-6.74c-.1,.08-.19,.18-.28,.3,.09-.12,.18-.22,.28-.3Zm-.33,.36c-.09,.12-.17,.27-.25,.43,.08-.17,.17-.31,.25-.43Zm.4,6.31c-.39,0-.78,.03-1.16,.07,.38-.04,.77-.06,1.16-.07Zm-.96-5.17c.08-.23,.17-.43,.25-.61-.09,.18-.17,.38-.25,.61Zm-.36,.86c-.04,.09-.09,.18-.14,.27,.05-.09,.1-.18,.14-.27Zm-.07,4.4c-.41,.05-.81,.12-1.21,.22,.4-.09,.8-.17,1.21-.22Zm-1.46,.28c-.39,.1-.78,.22-1.16,.36,.38-.14,.76-.26,1.16-.36Zm-.23-2.07c.09-.1,.18-.2,.26-.3-.09,.1-.17,.2-.26,.3Zm.59-.72c.08-.1,.16-.2,.23-.31-.07,.11-.15,.21-.23,.31Zm.54-.78c.06-.1,.13-.2,.19-.31-.06,.1-.13,.2-.19,.31Zm-1.49,1.87c-.09,.1-.19,.19-.29,.28,.1-.09,.19-.19,.29-.28Zm-4.27,4.35c-.32,.29-.63,.6-.92,.94,.3-.33,.61-.65,.92-.94Zm3.59-3.72c-.1,.09-.2,.18-.31,.26,.1-.08,.21-.17,.31-.26Zm-.72,.58c-.11,.08-.21,.16-.32,.23,.11-.08,.22-.16,.32-.23Zm-.77,.53c-.11,.07-.22,.14-.33,.21,.11-.07,.22-.14,.33-.21Zm-.81,.47c-.11,.06-.22,.12-.33,.17,.11-.05,.22-.12,.33-.17Zm-.87,.42c-.1,.04-.2,.09-.3,.13,.1-.04,.2-.09,.3-.13Zm-1.02,.39s-.09,.04-.14,.05c.05-.02,.09-.03,.14-.05Zm-1.02,.29c-.09,.02-.17,.03-.26,.05,.09-.02,.17-.03,.26-.05Zm-.89,.17c-.11,.02-.23,.03-.34,.04,.11-.01,.23-.02,.34-.04Zm-.9,.1c-.12,0-.25,.01-.37,.02,.12,0,.25,0,.37-.02Zm-.86,.02c-.37,0-.73-.02-1.1-.06,.36,.04,.73,.06,1.1,.06Zm-1.73,6.88c.03,.12,.07,.24,.09,.37-.03-.12-.06-.24-.09-.37Zm-2.2-4.68c-.1-.13-.21-.25-.32-.38,.11,.13,.22,.25,.32,.38Zm-1.06-3.34c-.89-.4-1.71-.91-2.45-1.49,.74,.59,1.56,1.09,2.45,1.49Zm-6.96-10.54c-.02-.55,0-1.09,.08-1.61-.07,.52-.09,1.06-.08,1.61Zm.67,9.56c-.18-.03-.36-.05-.54-.07,.18,.02,.36,.04,.54,.07Zm5.87,2.75c-.13-.11-.26-.21-.39-.32,.13,.1,.26,.21,.39,.32Zm-.84-.67c-.14-.1-.28-.19-.42-.28,.14,.09,.28,.18,.42,.28Zm-.9-.59c-.15-.09-.3-.17-.45-.25,.15,.08,.3,.16,.45,.25Zm-.96-.51c-.16-.07-.32-.14-.47-.21,.16,.07,.32,.13,.47,.21Zm-1.64-3.95c.47,.67,.99,1.29,1.59,1.85-.59-.55-1.12-1.18-1.59-1.85Zm.63,3.54c-.16-.06-.33-.11-.5-.16,.17,.05,.34,.1,.5,.16Zm-1.06-.33c-.17-.04-.35-.08-.52-.12,.18,.04,.35,.08,.52,.12Zm2.69-19.52h0c-.18,.2-.36,.41-.54,.61,.18-.21,.35-.41,.53-.61Zm-3.5,2.19c.59-.51,1.23-.99,1.92-1.45,.24-.16,.5-.28,.77-.4-.27,.11-.53,.24-.77,.4-.69,.46-1.33,.94-1.92,1.45-.89,.76-1.67,1.57-2.34,2.44,.68-.87,1.46-1.68,2.34-2.44Zm-1.43,16.97c-.19-.01-.37-.02-.56-.03,.19,0,.38,.01,.56,.03Zm-4.43-1.4s0-.06,0-.1c0,.03,0,.06,0,.1Zm-.03-.7s0-.11,0-.16c0,.05,0,.11,0,.16Zm.21,1.54s.02,.04,.03,.06c0-.02-.02-.04-.03-.06Zm.21,.29s.03,.02,.04,.03c-.01-.01-.03-.02-.04-.03Zm.32,.18h0Zm.39,.08s.05,0,.08,0c-.03,0-.06,0-.08,0Zm.58,.03s.1,0,.15,0c-.04,0-.08,0-.11,0h-.03Zm.71-.02c-.06,0-.12,0-.18,0,.06,0,.12,0,.18,0Zm9.47,3.29c.12,.12,.24,.23,.35,.35-.11-.12-.23-.23-.35-.35Zm2.92,4.67c.05,.14,.1,.28,.15,.43-.04-.15-.1-.28-.15-.43Zm-1.52-3.01c.09,.13,.19,.26,.28,.4-.09-.14-.19-.27-.28-.4Zm.59,.93c.08,.14,.16,.28,.24,.42-.07-.14-.16-.28-.24-.42Zm.51,1c.06,.14,.14,.28,.2,.43-.06-.15-.13-.29-.2-.43Zm-7.66,15.98c.74-.22,1.44-.49,2.11-.82,2.44-1.21,4.38-3.16,5.52-5.47-1.14,2.31-3.07,4.26-5.52,5.47-.67,.33-1.37,.61-2.11,.82-.37,.11-.74,.2-1.13,.28h0c.38-.08,.76-.17,1.13-.28Zm6.16,2.24c-.2,.05-.41,.11-.61,.16,.2-.05,.4-.1,.61-.16Zm-1.01,.24c-.19,.04-.38,.08-.56,.12,.19-.03,.38-.08,.56-.12Zm-.97,.18c-.18,.03-.36,.06-.53,.08,.18-.02,.35-.05,.53-.08Zm-.94,.13c-.17,.02-.34,.04-.5,.05,.17-.01,.33-.03,.5-.05Zm-.91,.08c-.16,.01-.32,.02-.48,.03,.16,0,.32-.02,.48-.03Zm-4.8-.35c-.05-.01-.1-.02-.15-.04,.05,.01,.1,.02,.15,.04Zm-.15-2.09c.11,0,.22,0,.33-.02-.11,0-.22,.01-.33,.02Zm2.54,2.43s-.09,0-.14-.01c.05,0,.09,0,.14,.01Zm-1.13-.12c-.08-.01-.16-.02-.24-.03,.08,.01,.16,.02,.24,.03Zm-2.21-2.31c-.13,0-.26,0-.39-.02,.13,.01,.26,.01,.39,.02Zm-1.21-.12c-.09-.01-.19-.02-.28-.04,.09,.02,.19,.03,.28,.04Zm-1.35-.28c-.08-.02-.16-.05-.24-.07,.08,.02,.16,.05,.24,.07Zm-1.06-.33c-.13-.04-.25-.09-.37-.13,.12,.05,.25,.09,.37,.13Zm-1.07-.39c-.13-.05-.26-.1-.38-.15,.13,.05,.25,.1,.38,.15Zm-1.11-.46c-.11-.05-.22-.09-.33-.14,.11,.05,.22,.09,.33,.14Zm-1.22-.47l.03,.03-.03-.03Zm6.95,3.88c-.07-.02-.13-.04-.2-.06,.07,.02,.13,.04,.2,.06Zm-1.1-.34c-.05-.02-.1-.04-.15-.06,.05,.02,.1,.04,.15,.06Zm-.89-.34c-.05-.02-.1-.04-.15-.06,.05,.02,.1,.04,.15,.06Zm-.92-.41s-.09-.05-.14-.07c.05,.02,.09,.05,.14,.07Zm-.76-.4s-.07-.04-.11-.06c.03,.02,.07,.04,.11,.06Zm-.74-.43s-.08-.05-.12-.07c.04,.02,.08,.05,.12,.07Zm-.63-.4s-.04-.03-.07-.04c.02,.01,.04,.03,.07,.04Zm-.55-.39s-.06-.05-.09-.07c.03,.02,.06,.05,.09,.07Zm-.47-.36l-.04-.03,.04,.03Zm-.37-.31l-.06-.06,.06,.06Zm-.3-.27h0Zm11.27,4.3c.13,0,.26,0,.4,0-.09,0-.18,0-.27,0-.04,0-.08,0-.13,0Zm7.53-1.47c-.35,.14-.69,.26-1.04,.38,.34-.12,.69-.24,1.04-.38,2.01-.79,3.81-2.09,5.73-3.17h0c-1.92,1.08-3.72,2.39-5.73,3.17Zm-2.05,.69c.23-.06,.46-.14,.69-.21-.23,.07-.46,.15-.69,.21Zm5.89-19.73c-.8,1.12-1.36,2.24-1.69,3.39-.24,.86-.35,1.74-.33,2.66-.02-.92,.09-1.8,.33-2.66,.33-1.15,.89-2.26,1.69-3.39,.28-.39,.57-.76,.88-1.11-.3,.35-.6,.71-.88,1.11Zm2.15-2.4c.3-.26,.6-.51,.92-.74-.31,.23-.62,.47-.92,.74Zm3.49-2.15c-.39,.15-.76,.33-1.13,.52,.37-.19,.75-.37,1.13-.52Zm-1.37,.64c-.36,.2-.71,.41-1.05,.65,.34-.24,.69-.46,1.05-.65Zm7.17-1.29c.44,.05,.88,.12,1.34,.22-.45-.1-.9-.16-1.34-.22Zm10.81,8.87c-.06-1.29-.29-2.58-.68-3.84-.26-.84-.59-1.67-.98-2.49,.39,.81,.72,1.64,.98,2.49,.39,1.26,.62,2.55,.68,3.84Z"/><path class="at" d="M44.81,13.23c-15.94,0-28.92,12.97-28.92,28.92s12.97,28.92,28.92,28.92,28.92-12.97,28.92-28.92-12.97-28.92-28.92-28.92Zm0,56.58c-15.25,0-27.67-12.41-27.67-27.67S29.55,14.48,44.81,14.48s27.67,12.41,27.67,27.67-12.41,27.67-27.67,27.67Z"/></g></g></g><g id="as"/></svg>