<?xml version="1.0" encoding="utf-8"?>
<!-- Generator: Adobe Illustrator 26.2.1, SVG Export Plug-In . SVG Version: 6.00 Build 0)  -->
<svg version="1.1" id="Layer_1" xmlns="http://www.w3.org/2000/svg" xmlns:xlink="http://www.w3.org/1999/xlink" x="0px" y="0px"
	 viewBox="0 0 48 48" style="enable-background:new 0 0 48 48;" xml:space="preserve">
<style type="text/css">
	.st0{fill:#FFFFFF;}
</style>
<g id="a">
</g>
<g id="b">
</g>
<g id="c">
</g>
<g id="d">
</g>
<g id="e">
</g>
<g id="f">
</g>
<g id="g">
</g>
<g id="h">
	<g id="i">
	</g>
	<g>
		<path class="st0" d="M14.9,37.9c2.1-1.5,2.8-2.6,2.9-3.6v-0.3c-0.1-1-0.7-1.5-1.3-1.6c-0.1,0-0.2,0-0.3,0c-0.6,0-1,0.6-1.3,1
			c-0.4-0.4-0.7-1-1.3-1c-0.1,0-0.2,0-0.3,0c-0.6,0.1-1.2,0.6-1.3,1.6v0.3C12.1,35.3,12.8,36.5,14.9,37.9z"/>
		<path class="st0" d="M42,6.3H6c-2.2,0-4,1.8-4,4v21.8c0,2.2,1.8,4,4,4h2.4c0.5,3.2,3.2,5.6,6.6,5.6c3.7,0,6.6-3,6.6-6.6
			s-3-6.6-6.6-6.6c-3.3,0-6.1,2.5-6.6,5.6H6c-1.1,0-2-0.9-2-2V10.3c0-1.1,0.9-2,2-2h36c1.1,0,2,0.9,2,2v21.8c0,1.1-0.9,2-2,2h-6.8
			c-0.6,0-1,0.4-1,1s0.4,1,1,1H42c2.2,0,4-1.8,4-4V10.3C46,8.1,44.2,6.3,42,6.3z M14.9,30.4c2.6,0,4.6,2.1,4.6,4.6
			c0,2.6-2.1,4.6-4.6,4.6c-2.6,0-4.6-2.1-4.6-4.6C10.3,32.5,12.4,30.4,14.9,30.4z"/>
		<path class="st0" d="M25.2,33.1c-1.1,0-2,0.9-2,2s0.9,2,2,2s2-0.9,2-2S26.4,33.1,25.2,33.1z"/>
		<path class="st0" d="M30.7,33.1c-1.1,0-2,0.9-2,2s0.9,2,2,2s2-0.9,2-2S31.8,33.1,30.7,33.1z"/>
		<path class="st0" d="M30.7,19.3c0-0.4-0.2-0.7-0.5-0.9l-9.9-5.7c-0.3-0.2-0.7-0.2-1,0c-0.3,0.2-0.5,0.5-0.5,0.9V25
			c0,0.4,0.2,0.7,0.5,0.9c0.2,0.1,0.3,0.1,0.5,0.1s0.3,0,0.5-0.1l9.9-5.7C30.5,20,30.7,19.6,30.7,19.3z M20.8,23.3v-7.9l6.9,4
			L20.8,23.3z"/>
	</g>
</g>
<g id="j">
</g>
</svg>
