<?xml version="1.0" encoding="UTF-8"?><svg xmlns="http://www.w3.org/2000/svg" xmlns:xlink="http://www.w3.org/1999/xlink" viewBox="0 0 80 80"><defs><style>.at{fill:#fff;}.au{fill:url(#ar);opacity:.5;}.av{fill:url(#aq);opacity:.55;}</style><linearGradient id="aq" x1="9.35" y1="43.91" x2="70.65" y2="43.91" gradientTransform="matrix(1, 0, 0, 1, 0, 0)" gradientUnits="userSpaceOnUse"><stop offset="0" stop-color="#00eb81"/><stop offset="1" stop-color="#35c8ff"/></linearGradient><linearGradient id="ar" x1="64.63" y1="10.73" x2="46.48" y2="26.27" gradientTransform="matrix(1, 0, 0, 1, 0, 0)" gradientUnits="userSpaceOnUse"><stop offset="0" stop-color="#ff5898"/><stop offset="1" stop-color="#7d33ff"/></linearGradient></defs><g id="a"/><g id="b"/><g id="c"><g id="d"/><g id="e"/><g id="f"/><g id="g"/><g id="h"/><g id="i"/><g id="j"/><g id="k"/><g id="l"/><g id="m"/><g id="n"/><g id="o"/><g id="p"/><g id="q"/><g id="r"/><g id="s"/><g id="t"/><g id="u"/><g id="v"/><g id="w"/><g id="x"/><g id="y"/><g id="a`"/><g id="aa"/><g id="ab"/><g id="ac"/><g id="ad"/><g id="ae"/><g id="af"/><g id="ag"/><g id="ah"/><g id="ai"/><g id="aj"/><g id="ak"/><g id="al"/><g id="am"/><g id="an"/><g id="ao"/><g id="ap"/><g><path class="av" d="M24.2,32.09l-14.41,7.21c-.57,.29-.57,1.1,0,1.39l29.87,14.95c.22,.11,.48,.11,.7,0l29.87-14.95c.57-.29,.57-1.1,0-1.39l-14.41-7.21-16.15,7.73-15.46-7.73Z"/><circle class="au" cx="57.21" cy="17.09" r="9.23"/><path class="at" d="M71.27,40c0-.53-.3-1.01-.77-1.25l-13.3-6.66,13.3-6.66c.48-.24,.77-.72,.77-1.25s-.3-1.01-.77-1.25L40.63,7.98h0c-.39-.2-.86-.2-1.25,0L9.5,22.93c-.48,.24-.77,.72-.77,1.25s.3,1.01,.77,1.25l13.3,6.66-13.3,6.66c-.48,.24-.77,.72-.77,1.25s.3,1.01,.77,1.25l13.3,6.66-13.3,6.66c-.48,.24-.77,.72-.77,1.25s.3,1.01,.77,1.25l29.87,14.95c.2,.1,.41,.15,.63,.15s.43-.05,.63-.15l29.87-14.95c.48-.24,.77-.72,.77-1.25s-.3-1.01-.77-1.25l-13.3-6.66,13.3-6.66c.48-.24,.77-.72,.77-1.25ZM9.98,24.18s.01-.1,.08-.14l29.87-14.95s.04-.02,.07-.02,.05,0,.07,.02l29.87,14.95c.07,.04,.08,.09,.08,.14s-.01,.1-.08,.14l-29.87,14.95s-.09,.02-.14,0L10.06,24.32c-.07-.04-.08-.09-.08-.14Zm59.96,31.5c.07,.04,.08,.09,.08,.14s-.01,.1-.08,.14l-29.87,14.95s-.09,.02-.14,0l-29.87-14.95c-.07-.04-.08-.09-.08-.14s.01-.1,.08-.14l14.14-7.07,15.18,7.59c.2,.1,.41,.15,.63,.15s.43-.05,.63-.15l15.18-7.59,14.14,7.07Zm0-15.54l-29.87,14.95s-.09,.02-.14,0l-29.87-14.95c-.07-.04-.08-.09-.08-.14s.01-.1,.08-.14l14.14-7.07,15.18,7.59c.2,.1,.41,.15,.63,.15s.43-.05,.63-.15l15.18-7.59,14.14,7.07c.07,.04,.08,.09,.08,.14s-.01,.1-.08,.14Z"/></g></g><g id="as"/></svg>