<?xml version="1.0" encoding="UTF-8"?><svg xmlns="http://www.w3.org/2000/svg" xmlns:xlink="http://www.w3.org/1999/xlink" viewBox="0 0 80 80"><defs><style>.at{fill:#fff;}.au{fill:url(#aq);opacity:.6;}.av{fill:url(#ar);opacity:.5;}</style><linearGradient id="aq" x1="75.61" y1="25.8" x2="25.47" y2="73" gradientTransform="matrix(1, 0, 0, 1, 0, 0)" gradientUnits="userSpaceOnUse"><stop offset="0" stop-color="#35c8ff"/><stop offset="1" stop-color="#3e44fe"/></linearGradient><linearGradient id="ar" x1="20.48" y1="19.1" x2="2.34" y2="34.63" gradientTransform="matrix(1, 0, 0, 1, 0, 0)" gradientUnits="userSpaceOnUse"><stop offset="0" stop-color="#ff5898"/><stop offset="1" stop-color="#7d33ff"/></linearGradient></defs><g id="a"/><g id="b"/><g id="c"><g id="d"/><g id="e"/><g id="f"/><g id="g"/><g id="h"/><g id="i"/><g id="j"/><g id="k"/><g id="l"/><g id="m"/><g id="n"/><g id="o"/><g id="p"/><g id="q"/><g id="r"/><g id="s"/><g id="t"/><g id="u"/><g id="v"/><g id="w"/><g id="x"/><g id="y"/><g id="a`"/><g id="aa"/><g id="ab"/><g id="ac"/><g id="ad"/><g id="ae"/><g id="af"/><g id="ag"/><g id="ah"/><g id="ai"/><g id="aj"/><g id="ak"/><g id="al"/><g id="am"/><g id="an"/><g id="ao"/><g id="ap"/><g><path class="au" d="M71.95,25.45c2.33,0,4.22,1.85,4.22,4.13v39.19c0,2.27-1.9,4.13-4.22,4.13H29.02c-2,0-3.61-1.74-3.61-3.89V29.57c0-2.28,1.89-4.13,4.22-4.13h42.32Z"/><circle class="av" cx="13.06" cy="25.45" r="9.23"/><g><path class="at" d="M64.48,20.1H15.4c-2.67,0-4.85,2.13-4.85,4.75v39.42c0,2.49,1.9,4.52,4.24,4.52h49.69c2.67,0,4.85-2.13,4.85-4.75V24.85c0-2.62-2.17-4.75-4.85-4.75ZM19.26,43.82h-7.46v-12.33h7.46v12.33Zm-7.46,1.25h7.46v12.33h-7.46v-12.33Zm8.71-23.72H59.37v46.19H20.51V21.35Zm40.11,10.14h7.46v12.33h-7.46v-12.33Zm0,13.58h7.46v12.33h-7.46v-12.33Zm7.46-20.22v5.39h-7.46v-8.89h3.86c1.98,0,3.6,1.57,3.6,3.5Zm-52.68-3.5h3.86v8.89h-7.46v-5.39c0-1.93,1.61-3.5,3.6-3.5Zm-3.6,42.92v-5.62h7.46v8.89h-4.47c-1.65,0-2.99-1.47-2.99-3.27Zm52.68,3.27h-3.86v-8.89h7.46v5.39c0,1.93-1.61,3.5-3.6,3.5Z"/><path class="at" d="M47.75,43.9l-14.99-8.65c-.19-.11-.43-.11-.62,0s-.31,.32-.31,.54v17.3c0,.22,.12,.43,.31,.54,.1,.06,.2,.08,.31,.08s.22-.03,.31-.08l14.99-8.65c.19-.11,.31-.32,.31-.54s-.12-.43-.31-.54Z"/><path class="at" d="M15.24,18.71c.35,0,.62-.28,.62-.62,0-1.93,1.61-3.5,3.6-3.5H60.42c1.98,0,3.6,1.57,3.6,3.5,0,.34,.28,.62,.62,.62s.62-.28,.62-.62c0-2.62-2.17-4.75-4.85-4.75H19.46c-2.67,0-4.85,2.13-4.85,4.75,0,.34,.28,.62,.62,.62Z"/><path class="at" d="M18.62,11.86c.35,0,.62-.28,.62-.62,0-1.93,1.61-3.5,3.6-3.5H57.04c1.98,0,3.6,1.57,3.6,3.5,0,.34,.28,.62,.62,.62s.62-.28,.62-.62c0-2.62-2.17-4.75-4.85-4.75H22.85c-2.67,0-4.85,2.13-4.85,4.75,0,.34,.28,.62,.62,.62Z"/></g></g></g><g id="as"/></svg>