<?xml version="1.0" encoding="utf-8"?>
<!-- Generator: Adobe Illustrator 26.2.1, SVG Export Plug-In . SVG Version: 6.00 Build 0)  -->
<svg version="1.1" id="Layer_1" xmlns="http://www.w3.org/2000/svg" xmlns:xlink="http://www.w3.org/1999/xlink" x="0px" y="0px"
	 viewBox="0 0 48 48" style="enable-background:new 0 0 48 48;" xml:space="preserve">
<style type="text/css">
	.st0{fill:#FFFFFF;}
</style>
<g id="a">
</g>
<g id="b">
</g>
<g id="c">
</g>
<g id="d">
</g>
<g id="e">
</g>
<g id="f">
</g>
<g id="g">
</g>
<g id="h">
	<g id="i">
	</g>
</g>
<g>
	<path class="st0" d="M47.4,26.6c0.1-0.8,0.2-1.7,0.2-2.6c0-2.2-0.4-4.2-1.2-6.1c0,0,0,0,0-0.1c-1.6-3.9-4.8-7.1-8.7-8.7
		c0,0,0,0-0.1,0c-1.9-0.8-3.9-1.2-6.1-1.2c-0.9,0-1.7,0.1-2.6,0.2c0,0-0.1,0-0.1,0C21.1,9.4,15.3,16,15.3,24c0,3.4,1.1,6.6,2.9,9.2
		c0,0,0,0.1,0.1,0.1c1.1,1.5,2.4,2.8,3.9,3.9c0,0,0.1,0.1,0.1,0.1c2.6,1.8,5.8,2.9,9.2,2.9c8,0,14.6-5.8,15.9-13.4
		C47.4,26.7,47.4,26.6,47.4,26.6z M27.2,37.1l0.8,0.6c-0.6-0.1-1.1-0.3-1.7-0.5L27.2,37.1z M31.7,38.1l-2.9-2.4l2-4.2l5.9-3l4.4,2.5
		l-0.6,3.9C38.1,36.9,35,38.1,31.7,38.1z M24,24.7l-4.3,2l-2.4-2.9c0.1-3.3,1.3-6.4,3.2-8.8l3.9-0.6l2.5,4.4L24,24.7z M18.3,29.1
		c-0.2-0.5-0.4-1.1-0.5-1.6l0.6,0.7L18.3,29.1z M24.5,12.4l-1.3,0.2c0.8-0.6,1.6-1.1,2.5-1.5L24.5,12.4z M28.7,19.8l6,0.9l0.9,6
		l-5.4,2.8l-4.3-4.3L28.7,19.8z M40.3,16.6l4.4,2.3c0.6,1.6,1,3.3,1,5.1c0,0.7-0.1,1.4-0.2,2.1L42,29.2l-4.4-2.5l-1-6.5L40.3,16.6z
		 M43.1,31l1.3-1.2c-0.4,0.9-0.9,1.7-1.5,2.5L43.1,31z M42.9,15.8l-2.1-1.1l-1.1-2.1C41,13.4,42,14.5,42.9,15.8z M36.6,10.8l2.3,4.4
		l-3.6,3.6l-6.5-1l-2.5-4.4l3.1-3.4c0.7-0.1,1.4-0.2,2.1-0.2C33.3,9.9,35,10.2,36.6,10.8z M20,32.3l0.3-3.7l4.1-1.9l4.3,4.3
		l-1.9,4.1l-3.7,0.3C22,34.5,20.9,33.5,20,32.3z"/>
	<path class="st0" d="M13.9,16.7H5.5c-0.6,0-1,0.4-1,1s0.4,1,1,1h8.4c0.6,0,1-0.4,1-1S14.5,16.7,13.9,16.7z"/>
	<path class="st0" d="M2.9,22.8H1.4c-0.6,0-1,0.4-1,1s0.4,1,1,1h1.5c0.6,0,1-0.4,1-1S3.5,22.8,2.9,22.8z"/>
	<path class="st0" d="M13.8,23.8c0-0.6-0.4-1-1-1H7c-0.6,0-1,0.4-1,1s0.4,1,1,1h5.8C13.4,24.8,13.8,24.3,13.8,23.8z"/>
	<path class="st0" d="M13.8,28.9H9.5c-0.6,0-1,0.4-1,1s0.4,1,1,1h4.3c0.6,0,1-0.4,1-1S14.4,28.9,13.8,28.9z"/>
</g>
</svg>
