<?xml version="1.0" encoding="utf-8"?>
<!-- Generator: Adobe Illustrator 26.2.1, SVG Export Plug-In . SVG Version: 6.00 Build 0)  -->
<svg version="1.1" id="Layer_1" xmlns="http://www.w3.org/2000/svg" xmlns:xlink="http://www.w3.org/1999/xlink" x="0px" y="0px"
	 width="24" height="19" viewBox="0 0 24 24" style="enable-background:new 0 0 24 24;" xml:space="preserve">
<style type="text/css">
	.st0{fill:#FFFFFF;}
</style>
<path class="st0" d="M21.4,2.9H2.6c-1.2,0-2.1,1-2.1,2.1v14c0,1.2,1,2.1,2.1,2.1h18.7c1.2,0,2.1-1,2.1-2.1V5
	C23.5,3.8,22.5,2.9,21.4,2.9z M21.4,19.1H2.6c-0.1,0-0.1-0.1-0.1-0.1V9.7l7.2,5.9c0.7,0.5,1.5,0.8,2.3,0.8c0.8,0,1.6-0.3,2.3-0.8
	l7.2-5.9V19C21.5,19.1,21.4,19.1,21.4,19.1z M20.7,7.8L13,14c-0.6,0.5-1.5,0.5-2,0L3.3,7.8c-0.5-0.4-0.8-1-0.8-1.7V5
	c0-0.1,0.1-0.1,0.1-0.1h18.7c0.1,0,0.1,0.1,0.1,0.1v1.1C21.5,6.8,21.2,7.4,20.7,7.8z"/>
</svg>
