<?xml version="1.0" encoding="UTF-8"?><svg xmlns="http://www.w3.org/2000/svg" viewBox="0 0 48 48"><defs><style>.j{fill:none;stroke:#fff;stroke-linecap:round;stroke-linejoin:round;stroke-width:2px;}</style></defs><g id="a"/><g id="b"/><g id="c"/><g id="d"/><g id="e"/><g id="f"/><g id="g"/><g id="h"/><g id="i"><g><path class="j" d="M25.23,29.65s1.4,1.77,4.03,1.77,4.19-1.61,4.19-3.59-1.78-3.26-4.12-4.02-3.95-1.82-3.95-3.68c0-1.69,1.54-3.55,3.95-3.55s3.48,1.34,3.48,1.34"/><circle class="j" cx="29.33" cy="24" r="16.94"/><path class="j" d="M26.66,40.78c-1.04,.16-1.93,.16-2.68,.16-9.36,0-16.94-7.58-16.94-16.94S14.62,7.06,23.98,7.06c.65,0,1.56,0,2.59,.18"/><path class="j" d="M21.35,40.78c-1.04,.16-1.93,.16-2.68,.16-9.36,0-16.94-7.58-16.94-16.94S9.31,7.06,18.67,7.06c.65,0,1.56,0,2.59,.18"/><line class="j" x1="29.33" y1="31.42" x2="29.33" y2="34.28"/><line class="j" x1="29.33" y1="13.72" x2="29.33" y2="16.58"/></g></g></svg>