<?xml version="1.0" encoding="UTF-8"?><svg xmlns="http://www.w3.org/2000/svg" xmlns:xlink="http://www.w3.org/1999/xlink" viewBox="0 0 80 80"><defs><style>.at{fill:#fff;}.au{fill:url(#ar);opacity:.5;}.av{fill:url(#aq);opacity:.55;}</style><linearGradient id="aq" x1="22.69" y1="17.13" x2=".1" y2="36.48" gradientTransform="matrix(1, 0, 0, 1, 0, 0)" gradientUnits="userSpaceOnUse"><stop offset="0" stop-color="#00eb81"/><stop offset="1" stop-color="#35c8ff"/></linearGradient><linearGradient id="ar" x1="72.86" y1="23.87" x2="21" y2="68.28" gradientTransform="matrix(1, 0, 0, 1, 0, 0)" gradientUnits="userSpaceOnUse"><stop offset="0" stop-color="#3e44fe"/><stop offset=".32" stop-color="#7051fe"/><stop offset=".55" stop-color="#975cff"/><stop offset="1" stop-color="#b85cff"/></linearGradient></defs><g id="a"/><g id="b"/><g id="c"><g id="d"/><g id="e"/><g id="f"/><g id="g"/><g id="h"/><g id="i"/><g id="j"/><g id="k"/><g id="l"/><g id="m"/><g id="n"/><g id="o"/><g id="p"/><g id="q"/><g id="r"/><g id="s"/><g id="t"/><g id="u"/><g id="v"/><g id="w"/><g id="x"/><g id="y"/><g id="a`"/><g id="aa"/><g id="ab"/><g id="ac"/><g id="ad"/><g id="ae"/><g id="af"/><g id="ag"/><g id="ah"/><g id="ai"/><g id="aj"/><g id="ak"/><g id="al"/><g id="am"/><g id="an"/><g id="ao"/><g id="ap"/><g><circle class="av" cx="13.45" cy="25.05" r="11.5"/><circle class="au" cx="51.66" cy="42.03" r="26.38"/><g><path class="at" d="M45.21,33.35c.34,0,.62-.28,.62-.62v-2.01c0-3.36-2.74-6.1-6.1-6.1s-6.1,2.74-6.1,6.1v5.79h-1.05c-1.53,0-2.77,1.24-2.77,2.77v12.3c0,1.53,1.24,2.77,2.77,2.77h14.31c1.53,0,2.77-1.24,2.77-2.77v-12.3c0-1.53-1.24-2.77-2.77-2.77h-12.01v-5.79c0-2.67,2.18-4.85,4.85-4.85s4.85,2.18,4.85,4.85v2.01c0,.34,.28,.62,.62,.62Zm-7.16,10.25c0-.93,.75-1.69,1.69-1.69s1.69,.76,1.69,1.69c0,.46-.19,.88-.49,1.19l.77,4.14h-3.93l.77-4.14c-.3-.3-.49-.73-.49-1.19Z"/><path class="at" d="M39.73,10.96c-15.9,0-28.83,12.93-28.83,28.83s12.93,28.83,28.83,28.83,28.83-12.93,28.83-28.83-12.93-28.83-28.83-28.83Zm0,56.41c-15.21,0-27.58-12.37-27.58-27.58S24.52,12.21,39.73,12.21s27.58,12.37,27.58,27.58-12.37,27.58-27.58,27.58Z"/><path class="at" d="M62.15,29.03c-.15-.31-.52-.44-.83-.29-.31,.15-.44,.52-.29,.83,1.54,3.2,2.32,6.64,2.32,10.22,0,13.02-10.59,23.61-23.61,23.61s-23.61-10.59-23.61-23.61,10.59-23.61,23.61-23.61c6.31,0,12.24,2.46,16.7,6.92,.24,.24,.64,.24,.88,0,.24-.24,.24-.64,0-.88-4.7-4.7-10.94-7.28-17.58-7.28-13.71,0-24.86,11.15-24.86,24.86s11.15,24.86,24.86,24.86,24.86-11.15,24.86-24.86c0-3.77-.82-7.39-2.44-10.76Z"/></g></g></g><g id="as"/></svg>