<?xml version="1.0" encoding="utf-8"?>
<!-- Generator: Adobe Illustrator 26.2.1, SVG Export Plug-In . SVG Version: 6.00 Build 0)  -->
<svg version="1.1" id="Layer_1" xmlns="http://www.w3.org/2000/svg" xmlns:xlink="http://www.w3.org/1999/xlink" x="0px" y="0px"
	 viewBox="0 0 48 48" style="enable-background:new 0 0 48 48;" xml:space="preserve">
<style type="text/css">
	.st0{fill:#FFFFFF;}
</style>
<g id="a">
</g>
<g id="b">
</g>
<g id="c">
</g>
<g id="d">
</g>
<g id="e">
</g>
<g id="f">
</g>
<g id="g">
</g>
<g id="h">
	<g id="i">
	</g>
</g>
<g>
	<path class="st0" d="M24,4.8c-12.7,0-23,10.3-23,23c0,0.6,0.4,1,1,1s1-0.4,1-1c0-11.6,9.4-21,21-21c11.6,0,21,9.4,21,21
		c0,0.6,0.4,1,1,1s1-0.4,1-1C47,15.2,36.7,4.8,24,4.8z"/>
	<path class="st0" d="M24,9.2c-10.3,0-18.6,8.4-18.6,18.6c0,0.6,0.4,1,1,1s1-0.4,1-1c0-9.2,7.5-16.6,16.6-16.6s16.7,7.5,16.7,16.6
		c0,0.6,0.4,1,1,1s1-0.4,1-1C42.7,17.6,34.3,9.2,24,9.2z"/>
	<path class="st0" d="M24,13.6c-7.9,0-14.3,6.4-14.3,14.3c0,0.6,0.4,1,1,1s1-0.4,1-1c0-6.8,5.5-12.3,12.3-12.3s12.3,5.5,12.3,12.3
		c0,0.6,0.4,1,1,1s1-0.4,1-1C38.3,20,31.9,13.6,24,13.6z"/>
	<path class="st0" d="M24,17.9c-5.5,0-9.9,4.4-9.9,9.9c0,0.6,0.4,1,1,1s1-0.4,1-1c0-4.4,3.5-7.9,7.9-7.9c4.4,0,7.9,3.5,7.9,7.9
		c0,0.6,0.4,1,1,1s1-0.4,1-1C33.9,22.4,29.5,17.9,24,17.9z"/>
	<path class="st0" d="M28.6,41.2H25V27.8c0-0.6-0.4-1-1-1c-0.6,0-1,0.4-1,1v13.3h-3.6c-0.6,0-1,0.4-1,1s0.4,1,1,1h9.2
		c0.6,0,1-0.4,1-1S29.2,41.2,28.6,41.2z"/>
</g>
</svg>
