<?xml version="1.0" encoding="utf-8"?>
<!-- Generator: Adobe Illustrator 26.2.1, SVG Export Plug-In . SVG Version: 6.00 Build 0)  -->
<svg version="1.1" id="Layer_1" xmlns="http://www.w3.org/2000/svg" xmlns:xlink="http://www.w3.org/1999/xlink" x="0px" y="0px"
	 viewBox="0 0 110.5 110.5" style="enable-background:new 0 0 110.5 110.5;" xml:space="preserve">
<style type="text/css">
	.st0{fill:#3E44FE;}
	.st1{fill:#FFFFFF;}
</style>
<circle class="st0" cx="55.5" cy="55.2" r="53.5"/>
<g>
	<path class="st1" d="M50.3,50.8h2.2c1.3,0,2.5-0.1,3.7-0.3c1.2-0.2,2.4-0.6,3.4-1.2c1-0.6,1.9-1.3,2.5-2.3c0.6-1,0.9-2.2,0.9-3.7
		c0-1.1-0.2-2.1-0.6-3c-0.4-0.9-1-1.6-1.7-2.2c-0.7-0.6-1.6-1.1-2.5-1.4c-1-0.3-1.9-0.5-3-0.5c-2.1,0-3.8,0.6-5.1,1.8
		c-1.4,1.2-2.3,2.7-2.8,4.6l-7.9-2c0.4-1.7,1.1-3.2,2.1-4.6c1-1.4,2.2-2.6,3.6-3.6c1.4-1,3-1.8,4.8-2.3c1.8-0.6,3.6-0.8,5.6-0.8
		c2.1,0,4.2,0.3,6.1,0.9c1.9,0.6,3.6,1.4,5.1,2.6c1.5,1.1,2.6,2.6,3.5,4.2c0.8,1.7,1.3,3.6,1.3,5.9c0,2.7-0.8,5-2.4,7.1
		c-1.6,2.1-3.8,3.4-6.5,4.1v0.1c3,0.6,5.5,2,7.4,4.1c1.9,2.1,2.8,4.7,2.8,7.8c0,2.6-0.5,4.8-1.5,6.7c-1,1.9-2.3,3.5-4,4.8
		c-1.7,1.3-3.5,2.2-5.6,2.8c-2.1,0.6-4.1,0.9-6.2,0.9s-4.1-0.2-5.9-0.7c-1.9-0.4-3.6-1.1-5.1-2.1c-1.6-0.9-2.9-2.1-4.1-3.6
		c-1.2-1.5-2.1-3.3-2.8-5.3l7.8-2.5c0.6,2,1.7,3.6,3.4,5c1.7,1.4,3.8,2,6.5,2c1.1,0,2.2-0.2,3.3-0.5c1.1-0.3,2.1-0.8,2.9-1.4
		c0.9-0.7,1.6-1.5,2.1-2.5c0.5-1,0.8-2.3,0.8-3.8c0-1.6-0.4-2.9-1.2-4c-0.8-1.1-1.7-2-2.9-2.6c-1.2-0.6-2.5-1.1-3.9-1.4
		c-1.4-0.3-2.8-0.4-4.1-0.4h-2.1V50.8z"/>
</g>
</svg>
