<?xml version="1.0" encoding="UTF-8"?><svg xmlns="http://www.w3.org/2000/svg" viewBox="0 0 48 48"><defs><style>.j{fill:none;stroke:#fff;stroke-linecap:round;stroke-linejoin:round;stroke-width:2px;}</style></defs><g id="a"/><g id="b"/><g id="c"/><g id="d"/><g id="e"/><g id="f"/><g id="g"/><g id="h"/><g id="i"><g><path class="j" d="M29.29,22.06v-2.29c0-.33,.27-.61,.61-.61h14.89c.33,0,.61,.27,.61,.61v17.36c0,.33-.27,.61-.61,.61h-8.86"/><path class="j" d="M25.11,25.77h6.04c.49,0,.88,.39,.88,.88v10.14c0,.52-.43,.95-.95,.95h-5.97c-.49,0-.88-.39-.88-.88v-10.2c0-.49,.39-.88,.88-.88Z"/><g><path class="j" d="M24.01,32.66H3.21c-.33,0-.61-.27-.61-.61V10.86c0-.33,.27-.61,.61-.61h30.99c.33,0,.61,.27,.61,.61v4.43"/><line class="j" x1="18.71" y1="32.66" x2="18.71" y2="37.49"/><line class="j" x1="20.95" y1="37.74" x2="16.46" y2="37.74"/></g></g></g></svg>