<?xml version="1.0" encoding="UTF-8"?><svg xmlns="http://www.w3.org/2000/svg" xmlns:xlink="http://www.w3.org/1999/xlink" viewBox="0 0 80 80"><defs><style>.at{fill:#fff;}.au{fill:url(#aq);opacity:.6;}.av{fill:url(#ar);opacity:.5;}</style><linearGradient id="aq" x1="74.8" y1="48.11" x2="56.22" y2="64.02" gradientTransform="matrix(1, 0, 0, 1, 0, 0)" gradientUnits="userSpaceOnUse"><stop offset="0" stop-color="#35c8ff"/><stop offset="1" stop-color="#3e44fe"/></linearGradient><linearGradient id="ar" x1="49.65" y1="19.85" x2="-.82" y2="63.06" gradientTransform="matrix(1, 0, 0, 1, 0, 0)" gradientUnits="userSpaceOnUse"><stop offset="0" stop-color="#ff5898"/><stop offset="1" stop-color="#7d33ff"/></linearGradient></defs><g id="a"/><g id="b"/><g id="c"><g id="d"/><g id="e"/><g id="f"/><g id="g"/><g id="h"/><g id="i"/><g id="j"/><g id="k"/><g id="l"/><g id="m"/><g id="n"/><g id="o"/><g id="p"/><g id="q"/><g id="r"/><g id="s"/><g id="t"/><g id="u"/><g id="v"/><g id="w"/><g id="x"/><g id="y"/><g id="a`"/><g id="aa"/><g id="ab"/><g id="ac"/><g id="ad"/><g id="ae"/><g id="af"/><g id="ag"/><g id="ah"/><g id="ai"/><g id="aj"/><g id="ak"/><g id="al"/><g id="am"/><g id="an"/><g id="ao"/><g id="ap"/><g><circle class="au" cx="67.21" cy="54.62" r="9.45"/><circle class="av" cx="29.01" cy="37.52" r="25.67"/><g><path class="at" d="M45.17,12.64c-15.48,0-28.07,12.59-28.07,28.07s12.59,28.07,28.07,28.07,28.07-12.59,28.07-28.07-12.59-28.07-28.07-28.07Zm0,54.89c-14.79,0-26.82-12.03-26.82-26.82S30.38,13.89,45.17,13.89s26.82,12.03,26.82,26.82-12.03,26.82-26.82,26.82Z"/><path class="at" d="M45.17,27.51c-7.28,0-13.21,5.92-13.21,13.21s5.92,13.21,13.21,13.21,13.21-5.92,13.21-13.21-5.92-13.21-13.21-13.21Z"/></g></g></g><g id="as"/></svg>