<?xml version="1.0" encoding="UTF-8"?><svg xmlns="http://www.w3.org/2000/svg" xmlns:xlink="http://www.w3.org/1999/xlink" viewBox="0 0 80 80"><defs><style>.at{fill:#fff;}.au{fill:url(#ar);opacity:.6;}.av{fill:url(#aq);opacity:.5;}</style><linearGradient id="aq" x1="18.95" y1="34.11" x2=".67" y2="49.76" gradientTransform="matrix(1, 0, 0, 1, 0, 0)" gradientUnits="userSpaceOnUse"><stop offset="0" stop-color="#975cff"/><stop offset="1" stop-color="#3e44fe"/></linearGradient><linearGradient id="ar" x1="72.58" y1="19.25" x2="20.02" y2="64.25" gradientTransform="matrix(1, 0, 0, 1, 0, 0)" gradientUnits="userSpaceOnUse"><stop offset="0" stop-color="#35c8ff"/><stop offset="1" stop-color="#3e44fe"/></linearGradient></defs><g id="a"/><g id="b"/><g id="c"><g id="d"/><g id="e"/><g id="f"/><g id="g"/><g id="h"/><g id="i"/><g id="j"/><g id="k"/><g id="l"/><g id="m"/><g id="n"/><g id="o"/><g id="p"/><g id="q"/><g id="r"/><g id="s"/><g id="t"/><g id="u"/><g id="v"/><g id="w"/><g id="x"/><g id="y"/><g id="a`"/><g id="aa"/><g id="ab"/><g id="ac"/><g id="ad"/><g id="ae"/><g id="af"/><g id="ag"/><g id="ah"/><g id="ai"/><g id="aj"/><g id="ak"/><g id="al"/><g id="am"/><g id="an"/><g id="ao"/><g id="ap"/><g><circle class="av" cx="11.47" cy="40.51" r="9.3"/><circle class="au" cx="51.09" cy="37.65" r="26.73"/><g><path class="at" d="M37.97,11.3c-16.1,0-29.2,13.1-29.2,29.2s13.1,29.2,29.2,29.2,29.2-13.1,29.2-29.2-13.1-29.2-29.2-29.2Zm0,57.16c-15.41,0-27.95-12.54-27.95-27.95S22.55,12.55,37.97,12.55s27.95,12.54,27.95,27.95-12.54,27.95-27.95,27.95Z"/><path class="at" d="M46.87,42.25c.16-.31,.04-.68-.27-.84-2.56-1.33-5.46-2.04-8.37-2.04-9.97,0-18.09,8.07-18.09,17.99,0,.34,.28,.62,.62,.62h24.59c.35,0,.62-.28,.62-.62s-.28-.62-.62-.62H21.41c.33-8.94,7.75-16.11,16.83-16.11,2.71,0,5.4,.66,7.79,1.9,.31,.16,.68,.04,.84-.27Z"/><path class="at" d="M38.24,36.83c5.5,0,9.98-4.48,9.98-9.98s-4.48-9.98-9.98-9.98-9.98,4.48-9.98,9.98,4.48,9.98,9.98,9.98Zm0-18.71c4.81,0,8.73,3.92,8.73,8.73s-3.92,8.73-8.73,8.73-8.73-3.92-8.73-8.73,3.92-8.73,8.73-8.73Z"/><path class="at" d="M55.79,47.18c0-2.57-2.09-4.66-4.66-4.66s-4.66,2.09-4.66,4.66c0,1.36,.6,2.58,1.54,3.44l-.35,7.16c-.01,.21,.09,.42,.26,.54,.11,.08,.23,.11,.36,.11,.08,0,.16-.02,.24-.05l2.6-1.07,2.53,1.07c.2,.08,.42,.06,.6-.06,.18-.12,.28-.33,.27-.54l-.27-7.16c.94-.85,1.54-2.07,1.54-3.44Zm-2.55,9.67l-1.87-.79c-.15-.06-.33-.07-.48,0l-1.94,.8,.26-5.43c.58,.26,1.23,.42,1.91,.42s1.32-.15,1.9-.42l.21,5.42Z"/></g></g></g><g id="as"/></svg>