<?xml version="1.0" encoding="utf-8"?>
<!-- Generator: Adobe Illustrator 26.2.1, SVG Export Plug-In . SVG Version: 6.00 Build 0)  -->
<svg version="1.1" id="Layer_1" xmlns="http://www.w3.org/2000/svg" xmlns:xlink="http://www.w3.org/1999/xlink" x="0px" y="0px"
	 viewBox="0 0 24 24" style="enable-background:new 0 0 24 24;" xml:space="preserve">
<style type="text/css">
	.st0{fill:#FFFFFF;}
</style>
<g>
	<g>
		<path class="st0" d="M13.5,12c0,3.8-3,6.8-6.8,6.8S0,15.7,0,12s3-6.8,6.8-6.8S13.5,8.2,13.5,12"/>
		<path class="st0" d="M21,12c0,3.5-1.5,6.4-3.4,6.4c-1.9,0-3.4-2.9-3.4-6.4s1.5-6.4,3.4-6.4C19.4,5.6,21,8.4,21,12"/>
		<path class="st0" d="M24,12c0,3.2-0.5,5.7-1.2,5.7c-0.7,0-1.2-2.6-1.2-5.7s0.5-5.7,1.2-5.7C23.5,6.2,24,8.8,24,12"/>
	</g>
</g>
</svg>
