<?xml version="1.0" encoding="utf-8"?>
<!-- Generator: Adobe Illustrator 26.2.1, SVG Export Plug-In . SVG Version: 6.00 Build 0)  -->
<svg version="1.1" id="Layer_1" xmlns="http://www.w3.org/2000/svg" xmlns:xlink="http://www.w3.org/1999/xlink" x="0px" y="0px"
	 viewBox="0 0 48 48" style="enable-background:new 0 0 48 48;" xml:space="preserve">
<style type="text/css">
	.st0{fill:#FFFFFF;}
</style>
<g id="a">
</g>
<g id="b">
</g>
<g id="c">
</g>
<g id="d">
</g>
<g id="e">
</g>
<g id="f">
</g>
<g id="g">
</g>
<g id="i">
</g>
<g>
	<path class="st0" d="M45.1,19.9c0,0,0-0.1,0-0.1c-0.1-0.4-0.3-0.8-0.4-1.3c-1.2-3.8-2.9-9.1-8-9.1c-2.8,0-5.1,1.3-5.9,1.8H17.2
		c-0.8-0.5-3.1-1.8-5.9-1.8c-5.1,0-6.8,5.3-8.1,9.1c-0.1,0.4-0.3,0.8-0.4,1.2C1.6,23.5,1,25.9,1,29.4c0,5.7,2.4,9.2,6.2,9.2
		c5.8,0,9.9-8.4,11-10.8h11.5c1.1,2.4,5.2,10.8,11,10.8c3.9,0,6.2-3.5,6.2-9.2C47,26,46.4,23.6,45.1,19.9z M40.7,36.6
		c-4.4,0-8.3-7.4-9.4-10.2c-0.2-0.4-0.5-0.6-0.9-0.6H17.6c-0.4,0-0.8,0.3-0.9,0.6c-1.1,2.8-5,10.2-9.4,10.2c-3.9,0-4.2-5.5-4.2-7.2
		c0-3.2,0.6-5.3,1.8-9C5,20,5.1,19.5,5.2,19.1c1.4-4.4,2.8-7.7,6.1-7.7c2.7,0,4.9,1.6,5,1.6c0.2,0.1,0.4,0.2,0.6,0.2h14.1
		c0.2,0,0.4-0.1,0.6-0.2c0,0,2.3-1.6,5-1.6c3.4,0,4.7,3.3,6.1,7.7c0.1,0.4,0.3,0.8,0.4,1.2c0,0,0,0.1,0,0.1c1.3,3.7,1.8,5.8,1.8,9
		C45,31.1,44.7,36.6,40.7,36.6z"/>
	<path class="st0" d="M16.5,18.7h-2.2v-2.3c0-0.6-0.4-1-1-1s-1,0.4-1,1v2.3H9.9c-0.6,0-1,0.4-1,1s0.4,1,1,1h2.3V23c0,0.6,0.4,1,1,1
		s1-0.4,1-1v-2.2h2.2c0.6,0,1-0.4,1-1S17,18.7,16.5,18.7z"/>
	<path class="st0" d="M32.3,18.6c-0.7,0-1.2,0.5-1.2,1.2c0,0.7,0.5,1.2,1.2,1.2c0.7,0,1.2-0.5,1.2-1.2
		C33.5,19.1,32.9,18.6,32.3,18.6z"/>
	<path class="st0" d="M39.2,18.6c-0.7,0-1.2,0.5-1.2,1.2c0,0.7,0.5,1.2,1.2,1.2s1.2-0.5,1.2-1.2C40.4,19.1,39.9,18.6,39.2,18.6z"/>
	<path class="st0" d="M35.8,22c-0.7,0-1.2,0.5-1.2,1.2s0.5,1.2,1.2,1.2c0.7,0,1.2-0.5,1.2-1.2S36.4,22,35.8,22z"/>
	<path class="st0" d="M35.8,15.1c-0.7,0-1.2,0.5-1.2,1.2c0,0.7,0.5,1.2,1.2,1.2c0.7,0,1.2-0.5,1.2-1.2
		C36.9,15.6,36.4,15.1,35.8,15.1z"/>
</g>
<g id="j">
</g>
</svg>
