<?xml version="1.0" encoding="utf-8"?>
<!-- Generator: Adobe Illustrator 26.2.1, SVG Export Plug-In . SVG Version: 6.00 Build 0)  -->
<svg version="1.1" id="Layer_1" xmlns="http://www.w3.org/2000/svg" xmlns:xlink="http://www.w3.org/1999/xlink" x="0px" y="0px"
	 viewBox="0 0 48 48" style="enable-background:new 0 0 48 48;" xml:space="preserve">
<style type="text/css">
	.st0{fill:#FFFFFF;}
</style>
<g id="a">
</g>
<g id="b">
</g>
<g id="c">
</g>
<g id="d">
</g>
<g id="e">
</g>
<g id="f">
</g>
<g id="g">
</g>
<g id="h">
	<g id="i">
	</g>
</g>
<g>
	<path class="st0" d="M37.9,8.1h0.2c0.6,0,1-0.4,1-1s-0.4-1-1-1h-0.2c-0.6,0-1,0.4-1,1S37.4,8.1,37.9,8.1z"/>
	<path class="st0" d="M44.3,6.1h-2.8c-0.6,0-1,0.4-1,1s0.4,1,1,1h2.8c0.4,0,0.7,0.3,0.7,0.7v4.9H5V8.8c0-0.4,0.3-0.7,0.7-0.7h26.1
		c0.6,0,1-0.4,1-1s-0.4-1-1-1H5.7C4.2,6.1,3,7.3,3,8.8v5.9c0,0,0,0,0,0.1s0,0,0,0.1v24.4c0,1.5,1.2,2.7,2.7,2.7h38.7
		c1.5,0,2.7-1.2,2.7-2.7V8.8C47,7.3,45.8,6.1,44.3,6.1z M9.5,26.6H5v-5.5h4.5V26.6z M5,28.6h4.5v5.5H5V28.6z M11.5,15.7h27.2v24.1
		H11.5V15.7z M40.7,21.1H45v5.5h-4.3V21.1z M40.7,28.6H45v5.5h-4.3V28.6z M45,19.1h-4.3v-3.3H45V19.1z M9.5,15.7v3.3H5v-3.3H9.5z
		 M5,39.2v-3.1h4.5v3.7H5.7C5.3,39.8,5,39.6,5,39.2z M44.3,39.8h-3.7v-3.7H45v3.1C45,39.6,44.7,39.8,44.3,39.8z"/>
	<path class="st0" d="M7.2,10.9c0,0.6,0.5,1.2,1.2,1.2s1.2-0.5,1.2-1.2S9,9.8,8.3,9.8S7.2,10.3,7.2,10.9z"/>
	<path class="st0" d="M10.6,10.9c0,0.6,0.5,1.2,1.2,1.2s1.2-0.5,1.2-1.2s-0.5-1.2-1.2-1.2S10.6,10.3,10.6,10.9z"/>
	<path class="st0" d="M14.1,10.9c0,0.6,0.5,1.2,1.2,1.2s1.2-0.5,1.2-1.2s-0.5-1.2-1.2-1.2S14.1,10.3,14.1,10.9z"/>
	<path class="st0" d="M30.6,26.7l-8.4-4.8c-0.3-0.2-0.7-0.2-1,0s-0.5,0.5-0.5,0.9v9.7c0,0.4,0.2,0.7,0.5,0.9
		c0.2,0.1,0.3,0.1,0.5,0.1s0.3,0,0.5-0.1l8.4-4.8c0.3-0.2,0.5-0.5,0.5-0.9S30.9,26.9,30.6,26.7z M22.8,30.7v-6.2l5.4,3.1L22.8,30.7z
		"/>
</g>
</svg>
