<?xml version="1.0" encoding="utf-8"?>
<!-- Generator: Adobe Illustrator 26.2.1, SVG Export Plug-In . SVG Version: 6.00 Build 0)  -->
<svg version="1.1" id="Layer_1" xmlns="http://www.w3.org/2000/svg" xmlns:xlink="http://www.w3.org/1999/xlink" x="0px" y="0px"
	 viewBox="0 0 48 48" style="enable-background:new 0 0 48 48;" xml:space="preserve">
<style type="text/css">
	.st0{fill:#FFFFFF;}
</style>
<g id="a">
</g>
<g id="b">
</g>
<g id="c">
</g>
<g id="d">
</g>
<g id="e">
</g>
<g id="f">
</g>
<g id="g">
</g>
<g id="h">
	<g id="i">
	</g>
</g>
<g>
	<path class="st0" d="M46.5,18.8c0-0.1,0-0.2,0-0.2c0-0.1-0.1-0.1-0.1-0.2c0,0,0-0.1-0.1-0.1c0,0,0,0,0,0c-0.1-0.1-0.2-0.1-0.3-0.2
		c0,0,0,0-0.1,0c0,0-0.1,0-0.1,0c-0.1,0-0.2-0.1-0.3-0.1c0,0,0,0,0,0h-5c-0.6,0-1,0.4-1,1s0.4,1,1,1H43l-7.5,7.2l-2.4-2.9
		C33,24.1,32.7,24,32.4,24c-0.3,0-0.5,0.1-0.7,0.2l-8.3,7.2L19.8,26c3-2,4.9-5.4,4.9-9.1c0-6.1-4.9-11-11-11c-6,0-11,5-11,11
		c0,5.1,3.5,9.4,8.3,10.6l-6.8,5.8c0,0,0,0,0,0c-0.1,0-0.1,0.1-0.1,0.2c0,0-0.1,0.1-0.1,0.1c0,0.1,0,0.1,0,0.2c0,0.1,0,0.1,0,0.2
		c0,0,0,0,0,0v6H2.5c-0.6,0-1,0.4-1,1s0.4,1,1,1h41.4c0.6,0,1-0.4,1-1s-0.4-1-1-1h-1.4V23.3l2.1-2V24c0,0.6,0.4,1,1,1s1-0.4,1-1v-5
		C46.5,18.9,46.5,18.9,46.5,18.8z M32.2,26.4l2.2,2.6v11.1h-4.1v-12L32.2,26.4z M16.1,25.9v14.2h-4.2V29.4L16.1,25.9z M18.1,27
		l4.2,6.4v6.7h-4.2V27z M24.3,33.3l4-3.4v10.3h-4V33.3z M4.7,16.9c0-4.9,4.1-9,9-9c5,0,9,4,9,9c0,3-1.5,5.8-4,7.4L18,23.1
		c0-0.1-0.1-0.1-0.1-0.1c0,0,0,0-0.1-0.1c-0.1-0.1-0.1-0.1-0.2-0.2c0,0-0.1,0-0.1-0.1c0,0-0.1,0-0.1,0c0,0-0.1,0-0.1,0
		c0,0-0.1,0-0.1,0c-0.1,0-0.1,0-0.2,0c0,0-0.1,0-0.1,0c-0.1,0-0.2,0.1-0.3,0.2c0,0,0,0,0,0l0,0c0,0-0.1,0-0.1,0.1L13,25.9
		C8.4,25.5,4.7,21.6,4.7,16.9z M5.9,34.5l4.1-3.4v9H5.9V34.5z M40.5,40.1h-4v-11l4-3.9V40.1z"/>
	<path class="st0" d="M16.9,18.9c0-0.8-0.4-2.3-2.9-3.1c-1.4-0.5-1.4-0.9-1.4-1c0-0.4,0.4-0.9,1.1-0.9c0.7,0,1.1,0.3,1.1,0.3
		c0.3,0.4,1,0.5,1.4,0.2c0.4-0.3,0.5-1,0.2-1.4c-0.1-0.1-0.6-0.7-1.6-1v-0.6c0-0.6-0.4-1-1-1s-1,0.4-1,1v0.7
		c-1.3,0.4-2.1,1.6-2.1,2.7c0,2,2.1,2.7,2.8,2.9c0.6,0.2,1.5,0.6,1.5,1.2c0,0.6-0.5,0.9-1.2,0.9c-0.8,0-1.3-0.5-1.3-0.6
		c-0.3-0.4-1-0.5-1.4-0.1c-0.4,0.3-0.5,1-0.2,1.4c0.1,0.1,0.7,0.9,1.9,1.2v0.6c0,0.6,0.4,1,1,1s1-0.4,1-1v-0.7
		C16,21.3,16.9,20.3,16.9,18.9z"/>
</g>
</svg>
