<?xml version="1.0" encoding="utf-8"?>
<!-- Generator: Adobe Illustrator 26.2.1, SVG Export Plug-In . SVG Version: 6.00 Build 0)  -->
<svg version="1.1" id="Layer_1" xmlns="http://www.w3.org/2000/svg" xmlns:xlink="http://www.w3.org/1999/xlink" x="0px" y="0px"
	 viewBox="0 0 48 48" style="enable-background:new 0 0 48 48;" xml:space="preserve">
<style type="text/css">
	.st0{fill:#FFFFFF;}
</style>
<g id="a">
</g>
<g id="b">
</g>
<g id="c">
</g>
<g id="d">
</g>
<g id="e">
</g>
<g>
	<path class="st0" d="M19.3,25.2c0.6,0,1.2-0.2,1.7-0.6c0.1,0.3,0.2,0.5,0.3,0.8c0,0,0,0,0,0c0,0,0,0.1,0,0.1c0,0.1,0.1,0.1,0.1,0.2
		c0,0,0,0,0,0.1l1.5,1.5c-0.1,0.3-0.2,0.5-0.2,0.8c0,0.6,0.3,1.2,0.7,1.7s1.1,0.7,1.7,0.7c0.6,0,1.2-0.3,1.7-0.7l9.1-9.1
		c0.9-0.9,0.9-2.5,0-3.4c-0.7-0.7-1.7-0.9-2.5-0.5l-1.5-1.5c-0.1-0.1-0.3-0.2-0.4-0.3c-1.8-0.6-3.3-1.6-4.6-2.9
		c-1.3-1.3-2.3-2.9-2.9-4.6c0,0,0,0,0,0c0,0,0-0.1,0-0.1c0-0.1-0.1-0.2-0.1-0.2c0,0,0,0,0,0l-1.5-1.5c0.3-0.9,0.1-1.9-0.5-2.5
		c-0.9-0.9-2.5-0.9-3.4,0l-9.1,9.1c-0.5,0.5-0.7,1.1-0.7,1.7c0,0.6,0.3,1.2,0.7,1.7c0.5,0.5,1.1,0.7,1.7,0.7c0.3,0,0.6-0.1,0.8-0.2
		l1.5,1.5c0.1,0.1,0.3,0.2,0.4,0.3c0.3,0.1,0.5,0.2,0.8,0.3c-0.6,0.7-0.8,1.7-0.5,2.5L2.9,31.8C2.3,32.4,2,33.2,2,34
		c0,0.8,0.3,1.6,0.9,2.2c0.6,0.6,1.4,0.9,2.2,0.9s1.6-0.3,2.2-0.9l11.1-11.1C18.7,25.2,19,25.2,19.3,25.2z M32,18l-7.7,7.7L23.7,25
		l7.7-7.7L32,18z M34.7,19.3l-9.1,9.1c-0.2,0.2-0.4,0.2-0.6,0c-0.1-0.1-0.1-0.2-0.1-0.3c0-0.1,0-0.2,0.1-0.3c0,0,0,0,0,0l9.1-9.1
		c0.1-0.1,0.2-0.1,0.3-0.1c0.1,0,0.2,0,0.3,0.1C34.9,18.9,34.9,19.2,34.7,19.3z M29.6,16.3l-7,7c-0.1-0.2-0.3-0.5-0.4-0.7
		c0,0,0,0,0,0c-0.6-1.2-1.4-2.2-2.4-3.2c-1.1-1.2-2.5-2.1-3.9-2.8l7-7c0.7,1.5,1.7,2.8,2.8,3.9C26.8,14.6,28.1,15.6,29.6,16.3z
		 M13.4,14.8l7.7-7.7l0.7,0.7l-7.7,7.7L13.4,14.8z M10.7,14.1c-0.1-0.1-0.1-0.2-0.1-0.3c0-0.1,0-0.2,0.1-0.3l9.1-9.1
		c0.1-0.1,0.2-0.1,0.3-0.1s0.2,0,0.3,0.1c0.2,0.2,0.2,0.4,0,0.6l-9.1,9.1C11.2,14.2,10.9,14.2,10.7,14.1z M18.4,20.7
		C18.4,20.7,18.4,20.7,18.4,20.7c0.6,0.6,1.1,1.3,1.6,2l-0.3,0.3c-0.2,0.2-0.6,0.2-0.8,0l-2.8-2.8c-0.2-0.2-0.2-0.6,0-0.8l0.3-0.3
		C17.1,19.6,17.8,20.1,18.4,20.7z M5.9,34.8c-0.4,0.4-1.1,0.4-1.6,0c0,0,0,0,0,0C4.1,34.6,4,34.3,4,34s0.1-0.6,0.3-0.8l11-11
		l1.6,1.6L5.9,34.8z"/>
	<path class="st0" d="M42.8,37.2v-2.4c0-0.6-0.4-1-1-1H20.4c-0.6,0-1,0.4-1,1v2.4c-1.8,0.1-3.2,1.5-3.2,3.4v4.2c0,0.6,0.4,1,1,1h2.5
		c0.6,0,1-0.4,1-1s-0.4-1-1-1h-1.5v-3.2c0-0.8,0.6-1.4,1.4-1.4h23.1c0.8,0,1.4,0.6,1.4,1.4v3.2H29c-0.6,0-1,0.4-1,1s0.4,1,1,1h16
		c0.6,0,1-0.4,1-1v-4.2C46,38.7,44.6,37.2,42.8,37.2z M21.4,35.8h19.4v1.4H21.4V35.8z"/>
	<path class="st0" d="M23.1,43.7H23c-0.6,0-1,0.4-1,1s0.4,1,1,1h0.1c0.6,0,1-0.4,1-1S23.6,43.7,23.1,43.7z"/>
</g>
<g id="g">
</g>
<g id="h">
	<g id="i">
	</g>
</g>
<g id="j">
</g>
</svg>
