<?xml version="1.0" encoding="utf-8"?>
<!-- Generator: Adobe Illustrator 26.2.1, SVG Export Plug-In . SVG Version: 6.00 Build 0)  -->
<svg version="1.1" id="Layer_1" xmlns="http://www.w3.org/2000/svg" xmlns:xlink="http://www.w3.org/1999/xlink" x="0px" y="0px"
	 viewBox="0 0 48 48" style="enable-background:new 0 0 48 48;" xml:space="preserve">
<style type="text/css">
	.st0{fill:#FFFFFF;}
</style>
<g id="a">
</g>
<g id="b">
</g>
<g id="c">
</g>
<g id="d">
</g>
<g id="e">
</g>
<g>
	<path class="st0" d="M9.9,12.8l3.3,1.8v5.2c0,0.2,0.1,0.5,0.2,0.6C13.6,20.5,16.7,24,24,24c1.6,0,3-0.2,4.4-0.5
		c0.5-0.1,0.9-0.7,0.8-1.2c-0.1-0.5-0.7-0.9-1.2-0.8c-1.2,0.3-2.6,0.4-4,0.4c-5.3,0-8-2-8.7-2.7v-3.7l8.3,4.4
		c0.1,0.1,0.3,0.1,0.5,0.1c0.2,0,0.3,0,0.5-0.1l4.2-2.2c0.5-0.3,0.7-0.9,0.4-1.4c-0.3-0.5-0.9-0.7-1.4-0.4L24,18l-11.5-6.1L24,5.9
		l11.5,6.1l-4.7,2.5l-6.3-3.3c-0.5-0.3-1.1-0.1-1.4,0.4c-0.3,0.5-0.1,1.1,0.4,1.4l6.2,3.3v9c0,0.6,0.4,1,1,1s1-0.4,1-1v-2.8
		c1.7-0.9,2.6-1.8,2.7-1.8c0.2-0.2,0.3-0.4,0.3-0.7v-5.2l3.3-1.8c0.3-0.2,0.5-0.5,0.5-0.9c0-0.4-0.2-0.7-0.5-0.9L24.5,3.8
		c-0.3-0.2-0.6-0.2-0.9,0L9.9,11c-0.3,0.2-0.5,0.5-0.5,0.9C9.4,12.3,9.6,12.6,9.9,12.8z M32.7,19.3c-0.2,0.2-0.5,0.4-0.9,0.7v-3.8
		l0.9-0.5V19.3z"/>
	<path class="st0" d="M45,10.7h-3c-0.6,0-1,0.4-1,1s0.4,1,1,1h2v17.8H16.3c-0.6,0-1,0.4-1,1s0.4,1,1,1H44v1.8H27.9h-7.8H4v-1.8h2.2
		c0.6,0,1-0.4,1-1s-0.4-1-1-1H4V12.7h2c0.6,0,1-0.4,1-1s-0.4-1-1-1H3c-0.6,0-1,0.4-1,1v23.6c0,0.6,0.4,1,1,1h16.1v2.6
		c0,0.8-0.2,1.5-0.6,2l-0.6,0.9c-0.3,0.5-0.4,1.2-0.1,1.8c0.2,0.5,0.7,0.8,1.2,0.8h10c0.5,0,0.9-0.3,1.2-0.8
		c0.3-0.6,0.2-1.3-0.1-1.7l-0.6-0.9c-0.4-0.5-0.6-1.2-0.6-2v-2.6H45c0.6,0,1-0.4,1-1V11.7C46,11.1,45.6,10.7,45,10.7z M27.9,42
		l0.2,0.3h-8l0.2-0.3c0.6-0.9,0.9-2,0.9-3.2v-2.6h5.8v2.6C26.9,40,27.3,41.2,27.9,42z"/>
	<path class="st0" d="M9.8,32.5h0.5c0.6,0,1-0.4,1-1s-0.4-1-1-1H9.8c-0.6,0-1,0.4-1,1S9.2,32.5,9.8,32.5z"/>
</g>
<g id="g">
</g>
<g id="h">
	<g id="i">
	</g>
</g>
<g id="j">
</g>
</svg>
