<?xml version="1.0" encoding="utf-8"?>
<!-- Generator: Adobe Illustrator 17.1.0, SVG Export Plug-In . SVG Version: 6.00 Build 0)  -->
<!DOCTYPE svg PUBLIC "-//W3C//DTD SVG 1.1//EN" "http://www.w3.org/Graphics/SVG/1.1/DTD/svg11.dtd">
<svg version="1.1" id="Layer_1" xmlns="http://www.w3.org/2000/svg" xmlns:xlink="http://www.w3.org/1999/xlink" x="0px" y="0px"
	 viewBox="70 94.2 159.9 138.7" enable-background="new 70 94.2 159.9 138.7" xml:space="preserve">
<g>
	<path fill="#FFFFFF" d="M202.8,94.7c-15,0-27.2,11.1-27.2,24.7c0,4.9,1.6,9.4,4.2,13.2l-4.2,11.5l12.7-3.8
		c4.2,2.4,9.2,3.8,14.5,3.8c15,0,27.2-11.1,27.2-24.7C230,105.8,217.8,94.7,202.8,94.7z M202.8,133.9l-3.8-3.4
		c2.1-1.9,5.5-1.9,7.6,0L202.8,133.9z M210.3,127.1c-4.2-3.8-10.9-3.8-15.1,0l-3.8-3.4c6.3-5.7,16.4-5.7,22.7,0L210.3,127.1z
		 M217.9,120.2c-8.4-7.6-21.9-7.6-30.2,0l-3.8-3.4c10.4-9.5,27.4-9.5,37.8,0L217.9,120.2z"/>
	<path fill="#FFFFFF" d="M112.7,94.3C89,95.4,69.8,114,70,135.6c0.1,8.7,3.1,16.9,8.8,23.9c9.7,11.9,14.8,25.3,14.8,38.8v0.4h8.3
		v-0.4c0-15.1-5.7-30.1-16.4-43.3c-4.6-5.7-7.1-12.4-7.2-19.5c-0.2-17.7,15.4-32.8,34.8-33.8c10.2-0.5,20,2.8,27.4,9.1
		c7.4,6.4,11.5,15,11.5,24.3c0,7.3-2.5,14.2-7.3,20c-10.6,12.8-16.2,27.7-16.2,43.1v0.4h8.3v-0.4c0-13.7,5-27,14.5-38.5
		c5.9-7.1,9-15.6,9-24.6c0-11.4-5-21.9-14.1-29.8C137.2,97.6,125.3,93.7,112.7,94.3z"/>
	<path fill="#FFFFFF" d="M115.9,232.9c3.6,0,6.9-2.3,8.9-6H107C109,230.6,112.2,232.9,115.9,232.9z"/>
	<path fill="#FFFFFF" d="M94.5,214.4c0,3.9,3.4,7,7.7,7h27.5c4.2,0,7.7-3.1,7.7-7v-10H94.5L94.5,214.4L94.5,214.4z"/>
	<polygon fill="#FFFFFF" points="118.3,199 118.3,138.3 130,138.3 130,132.7 100.4,132.7 100.4,138.3 112.1,138.3 112.1,199 	"/>
</g>
</svg>
