<?xml version="1.0" encoding="utf-8"?>
<!-- Generator: Adobe Illustrator 17.1.0, SVG Export Plug-In . SVG Version: 6.00 Build 0)  -->
<!DOCTYPE svg PUBLIC "-//W3C//DTD SVG 1.1//EN" "http://www.w3.org/Graphics/SVG/1.1/DTD/svg11.dtd" [
	<!ENTITY ns_extend "http://ns.adobe.com/Extensibility/1.0/">
	<!ENTITY ns_ai "http://ns.adobe.com/AdobeIllustrator/10.0/">
	<!ENTITY ns_graphs "http://ns.adobe.com/Graphs/1.0/">
	<!ENTITY ns_vars "http://ns.adobe.com/Variables/1.0/">
	<!ENTITY ns_imrep "http://ns.adobe.com/ImageReplacement/1.0/">
	<!ENTITY ns_sfw "http://ns.adobe.com/SaveForWeb/1.0/">
	<!ENTITY ns_custom "http://ns.adobe.com/GenericCustomNamespace/1.0/">
	<!ENTITY ns_adobe_xpath "http://ns.adobe.com/XPath/1.0/">
]>
<svg version="1.1"
	 id="Layer_1" xmlns:x="&ns_extend;" xmlns:i="&ns_ai;" xmlns:graph="&ns_graphs;" xmlns:rdf="http://www.w3.org/1999/02/22-rdf-syntax-ns#" xmlns:inkscape="http://www.inkscape.org/namespaces/inkscape" xmlns:cc="http://creativecommons.org/ns#" xmlns:sodipodi="http://sodipodi.sourceforge.net/DTD/sodipodi-0.dtd" xmlns:svg="http://www.w3.org/2000/svg" xmlns:dc="http://purl.org/dc/elements/1.1/"
	 xmlns="http://www.w3.org/2000/svg" xmlns:xlink="http://www.w3.org/1999/xlink" x="0px" y="0px" viewBox="0 0 432 432"
	 enable-background="new 0 0 432 432" xml:space="preserve">
<metadata>
	<sfw  xmlns="&ns_sfw;">
		<slices></slices>
		<sliceSourceBounds  width="317.3" height="432" bottomLeftOrigin="true" y="0" x="56.5"></sliceSourceBounds>
	</sfw>
</metadata>
<g transform="translate(0,-952.36218)">
	<path fill="#B2B2B2" d="M253.9,952.5c-1.5,0.3-2.9,1-3.7,2.1l-192.6,231c-1.9,2.2-1.3,5.4,1.2,7c1,0.7,2.2,1,3.4,1h146.2
		L170,1378.5c-0.5,2.7,1.5,5.3,4.5,5.8c2.1,0.3,4.3-0.4,5.6-1.9l192.6-231c1.9-2.2,1.3-5.4-1.2-7c-1-0.7-2.2-1-3.4-1H221.9l38.4-185
		c0.5-2.7-1.6-5.3-4.6-5.8C255.1,952.4,254.5,952.4,253.9,952.5L253.9,952.5z M244.9,977.9l-35.2,169.6c-0.5,2.7,1.4,5.3,4.5,5.9
		c0.4,0.1,0.7,0.1,1,0.1h141.6L185.4,1359l35.2-169.7c0.4-2.7-1.6-5.3-4.7-5.7c-0.3,0-0.5-0.1-0.8-0.1H73.6L244.9,977.9z"/>
</g>
</svg>
