<?xml version="1.0" encoding="utf-8"?>
<!-- Generator: Adobe Illustrator 17.1.0, SVG Export Plug-In . SVG Version: 6.00 Build 0)  -->
<!DOCTYPE svg PUBLIC "-//W3C//DTD SVG 1.1//EN" "http://www.w3.org/Graphics/SVG/1.1/DTD/svg11.dtd" [
	<!ENTITY ns_extend "http://ns.adobe.com/Extensibility/1.0/">
	<!ENTITY ns_ai "http://ns.adobe.com/AdobeIllustrator/10.0/">
	<!ENTITY ns_graphs "http://ns.adobe.com/Graphs/1.0/">
	<!ENTITY ns_vars "http://ns.adobe.com/Variables/1.0/">
	<!ENTITY ns_imrep "http://ns.adobe.com/ImageReplacement/1.0/">
	<!ENTITY ns_sfw "http://ns.adobe.com/SaveForWeb/1.0/">
	<!ENTITY ns_custom "http://ns.adobe.com/GenericCustomNamespace/1.0/">
	<!ENTITY ns_adobe_xpath "http://ns.adobe.com/XPath/1.0/">
]>
<svg version="1.1" id="Layer_1" xmlns:x="&ns_extend;" xmlns:i="&ns_ai;" xmlns:graph="&ns_graphs;"
	 xmlns="http://www.w3.org/2000/svg" xmlns:xlink="http://www.w3.org/1999/xlink" x="0px" y="0px" viewBox="0 0 110.5 110.5"
	 style="enable-background:new 0 0 110.5 110.5;" xml:space="preserve">
<metadata>
	<sfw  xmlns="&ns_sfw;">
		<slices></slices>
		<sliceSourceBounds  width="107" height="107" bottomLeftOrigin="true" x="47" y="-151"></sliceSourceBounds>
	</sfw>
</metadata>
<circle style="fill:#414399;" cx="55.5" cy="55.2" r="53.5"/>
<g>
	<path style="fill:#FFFFFF;stroke:#FFFFFF;stroke-width:2;stroke-miterlimit:10;" d="M41.1,80.1v-2.7C49.3,70.5,55.9,64,60.7,58
		c4.9-6,7.3-11.1,7.3-15.1c0-4.1-1-6.8-2.9-8.4c-1.9-1.5-4.9-2.3-8.8-2.3s-7.9,0.7-12,2.2l-0.8-2.8c4.6-1.6,9-2.4,13.4-2.4
		c4.4,0,7.9,1,10.7,3.1c2.8,2.1,4.1,5.5,4.1,10.1c0,4.6-2.3,10-6.9,15.9c-4.6,6-10.7,12.3-18.4,18.8h27.9v2.9H41.1z"/>
</g>
</svg>
