<?xml version="1.0" encoding="utf-8"?>
<!-- Generator: Adobe Illustrator 17.1.0, SVG Export Plug-In . SVG Version: 6.00 Build 0)  -->
<!DOCTYPE svg PUBLIC "-//W3C//DTD SVG 1.1//EN" "http://www.w3.org/Graphics/SVG/1.1/DTD/svg11.dtd">
<svg version="1.1" id="Layer_1" xmlns="http://www.w3.org/2000/svg" xmlns:xlink="http://www.w3.org/1999/xlink" x="0px" y="0px"
	 viewBox="0 0 422.2 117.3" enable-background="new 0 0 422.2 117.3" xml:space="preserve">
<g>
	<path fill-rule="evenodd" clip-rule="evenodd" fill="#DEDDDD" d="M57.4,47.1l3.4,11.4l-6.6,22l9.5-5.5l5-16.5L67,52.6l10.3,5.9
		l-0.7,0.4l-3.2,10.6l19-11C73.7,47.7,55,36.9,36.3,26.1L46,58.5l-9.7,32.4l9.6-5.5l8.1-26.9L49,42.2L57.4,47.1z"/>
	<path fill-rule="evenodd" clip-rule="evenodd" fill="#DEDDDD" d="M58.2,5.8c29.1,0,52.7,23.6,52.7,52.7c0,29.1-23.6,52.7-52.7,52.7
		c-29.1,0-52.7-23.6-52.7-52.7C5.6,29.4,29.1,5.8,58.2,5.8L58.2,5.8z M58.2,14.5c-24.3,0-44,19.7-44,44c0,24.3,19.7,44,44,44
		c24.3,0,44-19.7,44-44C102.2,34.2,82.5,14.5,58.2,14.5z"/>
</g>
<g>
	<path fill="#DEDDDD" d="M143.6,60v19.5h-7.6V43.4h7.6V50c1.1-2.2,2.7-4,4.9-5.2c2.2-1.3,4.6-1.9,7.1-1.9c5.7,0,9.6,2.4,11.6,7.1
		c3.6-4.7,8-7.1,13.4-7.1c4.1,0,7.4,1.2,9.9,3.7c2.5,2.5,3.8,6.1,3.8,10.8v22.1h-7.6V59.7c0-6.6-2.8-10-8.3-10
		c-2.6,0-4.8,0.8-6.7,2.5c-1.9,1.7-2.9,4.1-3,7.2v20.1H161V59.7c0-3.4-0.6-6-1.8-7.6c-1.2-1.6-3.1-2.4-5.8-2.4
		c-2.6,0-4.9,0.9-6.9,2.6C144.6,54.1,143.6,56.6,143.6,60z"/>
	<path fill="#DEDDDD" d="M205.3,36.2c-0.9-0.9-1.4-2.1-1.4-3.4c0-1.3,0.5-2.4,1.4-3.4c0.9-0.9,2.1-1.4,3.4-1.4
		c1.3,0,2.4,0.5,3.4,1.4c0.9,0.9,1.4,2.1,1.4,3.4c0,1.3-0.5,2.4-1.4,3.4c-0.9,0.9-2.1,1.4-3.4,1.4C207.4,37.7,206.2,37.2,205.3,36.2
		z M212.4,79.5h-7.6V43.4h7.6V79.5z"/>
	<path fill="#DEDDDD" d="M231,79.5h-7.6V29.2h7.6V79.5z"/>
	<path fill="#DEDDDD" d="M249.6,79.5H242V29.2h7.6V79.5z"/>
	<path fill="#DEDDDD" d="M261,36.2c-1-0.9-1.4-2.1-1.4-3.4c0-1.3,0.5-2.4,1.4-3.4c0.9-0.9,2.1-1.4,3.4-1.4c1.3,0,2.4,0.5,3.4,1.4
		c0.9,0.9,1.4,2.1,1.4,3.4c0,1.3-0.5,2.4-1.4,3.4c-1,0.9-2.1,1.4-3.4,1.4C263.1,37.7,262,37.2,261,36.2z M268.2,79.5h-7.6V43.4h7.6
		V79.5z"/>
	<path fill="#DEDDDD" d="M295.2,80.1c-5,0-9.3-1.7-13-5.1c-3.6-3.4-5.4-7.9-5.4-13.4c0-5.5,1.9-10,5.7-13.5
		c3.8-3.5,8.4-5.2,13.8-5.2s10,1.9,13.8,5.6l-4.5,5.5c-3.1-2.7-6.3-4.1-9.4-4.1c-3.2,0-5.9,1.1-8.2,3.2c-2.3,2.1-3.5,4.8-3.5,8.1
		c0,3.3,1.2,6.1,3.5,8.4s5.1,3.5,8.5,3.5c3.4,0,6.5-1.5,9.5-4.6l4.5,4.9C306,77.8,300.9,80.1,295.2,80.1z"/>
	<path fill="#DEDDDD" d="M347.2,79.5h-6.9v-4.8c-3,3.6-7,5.4-12,5.4c-3.8,0-6.9-1.1-9.3-3.2c-2.5-2.1-3.7-5-3.7-8.5
		c0-3.5,1.3-6.2,3.9-8c2.6-1.8,6.2-2.6,10.6-2.6h9.8v-1.4c0-4.8-2.7-7.2-8-7.2c-3.3,0-6.8,1.2-10.4,3.7l-3.4-4.7
		c4.4-3.5,9.4-5.2,14.9-5.2c4.2,0,7.7,1.1,10.4,3.2c2.7,2.1,4,5.5,4,10.1V79.5z M339.6,66.1V63H331c-5.5,0-8.2,1.7-8.2,5.2
		c0,1.8,0.7,3.1,2,4c1.4,0.9,3.2,1.4,5.7,1.4s4.5-0.7,6.3-2C338.7,70.2,339.6,68.4,339.6,66.1z"/>
	<path fill="#DEDDDD" d="M383.5,68.7c0,3.4-1.2,6.2-3.7,8.2c-2.5,2.1-5.7,3.1-9.6,3.1c-2.6,0-5.3-0.5-8.2-1.4
		c-2.8-0.9-5.3-2.3-7.5-4l3.7-5.9c4.2,3.2,8.3,4.7,12.2,4.7c1.7,0,3.1-0.4,4.1-1.2c1-0.8,1.5-1.8,1.5-3c0-1.8-2.4-3.4-7.2-4.9
		c-0.4-0.1-0.6-0.2-0.8-0.3c-7.5-2-11.3-5.4-11.3-10.2c0-3.3,1.3-6,3.9-8c2.6-2,6-3,10.1-3s8.1,1.2,11.8,3.7l-2.8,5.6
		c-2.9-1.9-6.1-2.9-9.6-2.9c-1.8,0-3.3,0.3-4.4,1c-1.1,0.7-1.7,1.6-1.7,3c0,1.2,0.6,2,1.8,2.6c0.8,0.4,2,0.8,3.4,1.2
		c1.5,0.4,2.8,0.7,3.9,1.1c1.1,0.4,2.2,0.8,3.3,1.2c1.1,0.5,2.2,1.1,3.4,1.9C382.2,62.8,383.5,65.3,383.5,68.7z"/>
	<path fill="#DEDDDD" d="M401.4,49.5v18.3c0,1.7,0.5,3.1,1.4,4.1c0.9,1,2.2,1.5,3.8,1.5s3.2-0.8,4.7-2.4l3.1,5.4
		c-2.7,2.4-5.6,3.6-8.9,3.6c-3.2,0-6-1.1-8.3-3.4s-3.4-5.3-3.4-9.1V49.5h-4.5v-6.1h4.5V32.1h7.6v11.3h9.5v6.1H401.4z"/>
</g>
</svg>
