<?xml version="1.0" encoding="utf-8"?>
<!-- Generator: Adobe Illustrator 17.1.0, SVG Export Plug-In . SVG Version: 6.00 Build 0)  -->
<!DOCTYPE svg PUBLIC "-//W3C//DTD SVG 1.1//EN" "http://www.w3.org/Graphics/SVG/1.1/DTD/svg11.dtd" [
	<!ENTITY ns_extend "http://ns.adobe.com/Extensibility/1.0/">
	<!ENTITY ns_ai "http://ns.adobe.com/AdobeIllustrator/10.0/">
	<!ENTITY ns_graphs "http://ns.adobe.com/Graphs/1.0/">
	<!ENTITY ns_vars "http://ns.adobe.com/Variables/1.0/">
	<!ENTITY ns_imrep "http://ns.adobe.com/ImageReplacement/1.0/">
	<!ENTITY ns_sfw "http://ns.adobe.com/SaveForWeb/1.0/">
	<!ENTITY ns_custom "http://ns.adobe.com/GenericCustomNamespace/1.0/">
	<!ENTITY ns_adobe_xpath "http://ns.adobe.com/XPath/1.0/">
]>
<svg version="1.1" id="Layer_1" xmlns:x="&ns_extend;" xmlns:i="&ns_ai;" xmlns:graph="&ns_graphs;"
	 xmlns="http://www.w3.org/2000/svg" xmlns:xlink="http://www.w3.org/1999/xlink" x="0px" y="0px" viewBox="0 0 110.5 110.5"
	 style="enable-background:new 0 0 110.5 110.5;" xml:space="preserve">
<metadata>
	<sfw  xmlns="&ns_sfw;">
		<slices></slices>
		<sliceSourceBounds  width="107" height="107" bottomLeftOrigin="true" x="47" y="-151"></sliceSourceBounds>
	</sfw>
</metadata>
<circle style="fill:#414399;" cx="55.5" cy="55.2" r="53.5"/>
<g>
	<path style="fill:#FFFFFF;stroke:#FFFFFF;stroke-width:2;stroke-miterlimit:10;" d="M44.4,33.7c4.6-1.7,8.8-2.6,12.7-2.6
		c3.9,0,7.1,0.9,9.5,2.8c2.4,1.8,3.6,4.1,3.6,6.9c0,2.8-0.9,5.2-2.7,7.5c-1.8,2.2-4,4-6.5,5.4c3.5,0.9,6.3,2.5,8.5,4.7
		c2.2,2.2,3.4,5.1,3.4,8.6c0,4.6-1.7,8.5-5.2,11.5c-3.5,3.1-7.6,4.6-12.5,4.6c-4.9,0-9.3-1-13.2-2.9l1.1-2.6c3.2,1.6,7,2.5,11.5,2.5
		s8.1-1.2,10.7-3.7s4-5.6,4-9.4c0-2.5-0.9-4.6-2.7-6.4c-1.8-1.8-3.9-3.1-6.3-3.9c-2.4-0.8-4.7-1.2-7-1.2c-0.1,0-0.3,0-0.4,0V53
		c3.4-0.2,6.6-1.5,9.5-4c2.9-2.5,4.3-5.1,4.3-7.9c0-2.1-0.9-3.7-2.6-5c-1.8-1.3-4.3-1.9-7.7-1.9c-3.4,0-7.1,0.7-11.1,2.1L44.4,33.7z
		"/>
</g>
</svg>
