<?xml version="1.0" encoding="utf-8"?>
<!-- Generator: Adobe Illustrator 17.1.0, SVG Export Plug-In . SVG Version: 6.00 Build 0)  -->
<!DOCTYPE svg PUBLIC "-//W3C//DTD SVG 1.1//EN" "http://www.w3.org/Graphics/SVG/1.1/DTD/svg11.dtd">
<svg version="1.1" id="Layer_1" xmlns="http://www.w3.org/2000/svg" xmlns:xlink="http://www.w3.org/1999/xlink" x="0px" y="0px"
	 viewBox="0 0 172.6 172.6" enable-background="new 0 0 172.6 172.6" xml:space="preserve">
<g>
	<path fill="#220370" d="M86.3,0c47.7,0,86.3,38.8,86.2,86.4c-0.1,47.6-38.7,86.2-86.3,86.2c-47.7,0-86.3-38.8-86.2-86.4
		C0.1,38.5,38.7,0,86.3,0z M161.6,86.3C161.6,44.7,128,11,86.3,11C44.7,11,11,44.6,11,86.2c0,41.7,33.6,75.4,75.3,75.4
		C127.9,161.6,161.6,127.9,161.6,86.3z"/>
	<path fill="#220370" d="M65.6,52.8c18.5,18.5,36.9,36.9,55.2,55.2c-8.1,7.7-17.7,12.1-29.1,12.3c-7.9,0.1-15.7,0.1-23.6,0
		c-1.1,0-2,0.3-2.8,1.1c-2.1,2.2-4.3,4.4-6.5,6.5c-3.8,3.7-9.4,3.7-13.1,0c-3.6-3.6-3.6-9.1,0.1-13c2.1-2.2,4.3-4.4,6.5-6.5
		c0.9-0.8,1.2-1.7,1.2-2.9c0-8.5-0.1-16.9,0.2-25.4c0.2-5.3,1.3-10.5,3.4-15.4c0.8-2,2.1-3.8,3.3-5.5C62,57,63.9,54.9,65.6,52.8z"/>
	<path fill="#220370" d="M89.6,68.1c-3.8-3.8-7.5-7.6-11.5-11.5c1.6-1.5,3.3-3.1,5-4.7c4.7-4.7,9.5-9.4,14.2-14.2
		c1.6-1.7,3.4-2.1,5.6-1.6c3.6,0.9,7.3,4.8,7.6,8.6c0.1,1.2-0.3,2.9-1.1,3.7c-6.4,6.7-13,13.2-19.6,19.7
		C89.7,68.1,89.6,68.1,89.6,68.1z"/>
	<path fill="#220370" d="M116.5,95.1c-3.8-3.8-7.5-7.5-11.4-11.3c0.3-0.4,0.6-0.8,1-1.1c6.1-6.1,12.2-12.1,18.2-18.2
		c1.7-1.7,3.6-2.1,5.8-1.4c3.8,1.3,6.3,3.9,7.3,7.9c0.4,1.7,0,3.2-1.2,4.5c-6.4,6.4-12.8,12.8-19.2,19.2
		C116.8,94.9,116.6,95,116.5,95.1z"/>
	
		<rect x="81.1" y="0.5" transform="matrix(-0.7071 0.7071 -0.7071 -0.7071 209.9073 81.7108)" fill="#220370" width="13.9" height="167.7"/>
</g>
</svg>
