<?xml version="1.0" encoding="utf-8"?>
<!-- Generator: Adobe Illustrator 17.1.0, SVG Export Plug-In . SVG Version: 6.00 Build 0)  -->
<!DOCTYPE svg PUBLIC "-//W3C//DTD SVG 1.1//EN" "http://www.w3.org/Graphics/SVG/1.1/DTD/svg11.dtd">
<svg version="1.1" id="Layer_1" xmlns="http://www.w3.org/2000/svg" xmlns:xlink="http://www.w3.org/1999/xlink" x="0px" y="0px"
	 viewBox="0 0 110.5 109.6" enable-background="new 0 0 110.5 109.6" xml:space="preserve">
<g>
	<path fill="#2A246B" d="M60.1-0.7c3,0.6,6,1,8.9,1.8c15.7,4.2,27.5,13.3,35.1,27.7c5.8,11,7.6,22.8,5.6,35
		c-0.6,3.6-1.8,7.1-2.7,10.6c-0.2,0-0.5-0.1-0.7-0.1c0-0.8-0.1-1.7,0-2.5c0.9-7.6,0-15-3.3-22C98.6,40.4,91.4,34,82,29.9
		c-1.1-0.5-1.6-0.1-2,1C76.6,42.1,68.9,48,57.6,49.1c-6.6,0.6-12.5-1.9-17.8-6.1c-10.1-8.1-11.4-25.3-1.4-35.4
		c3.8-3.8,8.2-6.2,13.1-7.9c0.3-0.1,0.6-0.3,0.9-0.4C55-0.7,57.6-0.7,60.1-0.7z"/>
	<path fill="#2A246B" d="M0.5,47.5c0.6-2.4,1-4.8,1.7-7.1c4.6-17,14.9-29.2,31-36.3c3.8-1.7,8-2.7,12-3.9c0.6-0.2,1.3-0.2,2.2,0.1
		c-0.5,0.3-1,0.6-1.5,1C41.8,4,37.3,6.4,33.6,9.7c-6.8,5.8-10.6,13.6-11.7,22.5c-0.4,3.5-0.1,7.1-0.1,10.6c0,1.6,0.8,1.8,2.2,1.6
		c9.8-1.4,18.3,1.3,24.4,9.3c8.5,11.1,6.4,29.4-9.4,36.6c-10.9,5-22.6,1.4-30.3-7.6C4.6,77.8,3,71.9,1.5,66
		c-0.4-1.5-0.7-3.1-1.1-4.7C-0.2,56.6-0.1,52.2,0.5,47.5z"/>
	<path fill="#2A246B" d="M10.7,86.3c2.4,1.7,4.6,3.5,7.1,5c13.8,8.5,31.7,7.6,44.6-2.3c0.5-0.3,0.9-0.8,1.3-1.1c0.8-0.7,0.8-1.3,0-2
		c-5.7-5.7-8.1-12.6-6.9-20.5c1-6.9,4.3-12.7,10.3-16.6c14.7-9.8,32.2-3.7,37.6,12.2c2.3,6.8,2.4,14.1-1.3,20.8
		c-3.9,7.2-9.4,13-16,17.7c-7.7,5.6-16.4,9-25.9,9.9c-14.2,1.3-27.2-2-38.7-10.6c-3.1-2.3-5.8-5-8.6-7.7c-1.4-1.3-2.4-3-3.6-4.5
		C10.6,86.5,10.6,86.4,10.7,86.3z"/>
</g>
</svg>
