<?xml version="1.0" encoding="utf-8"?>
<!-- Generator: Adobe Illustrator 17.1.0, SVG Export Plug-In . SVG Version: 6.00 Build 0)  -->
<!DOCTYPE svg PUBLIC "-//W3C//DTD SVG 1.1//EN" "http://www.w3.org/Graphics/SVG/1.1/DTD/svg11.dtd" [
	<!ENTITY ns_extend "http://ns.adobe.com/Extensibility/1.0/">
	<!ENTITY ns_ai "http://ns.adobe.com/AdobeIllustrator/10.0/">
	<!ENTITY ns_graphs "http://ns.adobe.com/Graphs/1.0/">
	<!ENTITY ns_vars "http://ns.adobe.com/Variables/1.0/">
	<!ENTITY ns_imrep "http://ns.adobe.com/ImageReplacement/1.0/">
	<!ENTITY ns_sfw "http://ns.adobe.com/SaveForWeb/1.0/">
	<!ENTITY ns_custom "http://ns.adobe.com/GenericCustomNamespace/1.0/">
	<!ENTITY ns_adobe_xpath "http://ns.adobe.com/XPath/1.0/">
]>
<svg version="1.1"
	 id="Layer_1" xmlns:x="&ns_extend;" xmlns:i="&ns_ai;" xmlns:graph="&ns_graphs;" xmlns:sodipodi="http://sodipodi.sourceforge.net/DTD/sodipodi-0.dtd" xmlns:inkscape="http://www.inkscape.org/namespaces/inkscape" xmlns:dc="http://purl.org/dc/elements/1.1/" xmlns:cc="http://creativecommons.org/ns#" xmlns:rdf="http://www.w3.org/1999/02/22-rdf-syntax-ns#" xmlns:svg="http://www.w3.org/2000/svg"
	 xmlns="http://www.w3.org/2000/svg" xmlns:xlink="http://www.w3.org/1999/xlink" x="0px" y="0px" viewBox="0 0 100 100"
	 enable-background="new 0 0 100 100" xml:space="preserve">
<metadata>
	<sfw  xmlns="&ns_sfw;">
		<slices></slices>
		<sliceSourceBounds  x="72" y="47" width="88" height="88" bottomLeftOrigin="true"></sliceSourceBounds>
	</sfw>
</metadata>
<g transform="translate(0,-952.36218)">
	<path fill="#40308E" d="M50,958.4c-24.3,0-44,19.7-44,44c0,24.3,19.7,44,44,44s44-19.7,44-44C94,978.1,74.3,958.4,50,958.4z
		 M38.2,962.1l2.3,8.7c-5,1.5-9.4,4.1-13.1,7.6L21,972C25.8,967.4,31.6,964,38.2,962.1L38.2,962.1z M61.8,962.1
		c6.5,1.9,12.3,5.3,17.1,9.9l-6.4,6.4c-3.7-3.5-8.1-6.1-13.1-7.6L61.8,962.1z M50,971.4c17.1,0,31,13.9,31,31c0,17.1-13.9,31-31,31
		s-31-13.9-31-31C19,985.3,32.9,971.4,50,971.4L50,971.4z M50,982.4c-6.7,6-20,12-20,22c0,6,11.1,10,17.8,8c0,4,0,6-2.2,10h8.9
		c-2.2-4-2.2-6-2.2-10c6.7,2,17.8-2,17.8-8C70,994.4,56.7,988.4,50,982.4z M9.2,992.4l8.7,2.3c-0.6,2.4-0.9,5-0.9,7.6
		c0,2.6,0.3,5.1,0.9,7.6l-8.7,2.3c-0.8-3.2-1.2-6.5-1.2-9.9C8,999,8.4,995.6,9.2,992.4z M90.8,992.4c0.8,3.2,1.2,6.5,1.2,9.9
		c0,3.4-0.4,6.7-1.2,9.9l-8.7-2.3c0.6-2.4,0.9-5,0.9-7.6c0-2.6-0.3-5.2-0.9-7.6L90.8,992.4z M27.4,1026.4c3.7,3.5,8.2,6.1,13.1,7.6
		l-2.3,8.7c-6.5-1.9-12.4-5.3-17.2-9.9L27.4,1026.4z M72.6,1026.4l6.4,6.4c-4.8,4.6-10.6,8-17.1,9.9l-2.3-8.7
		C64.5,1032.5,68.9,1029.8,72.6,1026.4L72.6,1026.4z"/>
</g>
</svg>
