<?xml version="1.0" encoding="utf-8"?>
<!-- Generator: Adobe Illustrator 17.1.0, SVG Export Plug-In . SVG Version: 6.00 Build 0)  -->
<!DOCTYPE svg PUBLIC "-//W3C//DTD SVG 1.1//EN" "http://www.w3.org/Graphics/SVG/1.1/DTD/svg11.dtd">
<svg version="1.1" id="Layer_1" xmlns="http://www.w3.org/2000/svg" xmlns:xlink="http://www.w3.org/1999/xlink" x="0px" y="0px"
	 viewBox="85.7 189.2 611.6 611.9" enable-background="new 85.7 189.2 611.6 611.9" xml:space="preserve">
<path fill="#CCCCCC" d="M480.9,428.8c-5.4-4.4-13.4-3.6-17.9,1.8L385.5,526L335,483.8c-5.4-4.4-13.4-3.7-17.9,1.7
	c-4.4,5.4-3.7,13.4,1.7,17.9l60.5,50.3c2.6,2.2,6,3.2,9.4,2.9c3.3-0.3,6.5-1.9,8.6-4.6l85.7-105.4
	C487.1,441.3,486.3,433.2,480.9,428.8z"/>
<path fill="#CCCCCC" d="M392.3,270.9c-124.2,0-224.9,100.7-224.9,224.9S268,720.7,392.3,720.7S617.2,620,617.2,495.8
	S516.5,270.9,392.3,270.9z M392.3,695.1c-109.9,0-199.4-89.4-199.4-199.4s89.4-199.4,199.4-199.4s199.4,89.4,199.4,199.4
	S502.2,695.1,392.3,695.1z"/>
<path fill="#CCCCCC" d="M695.8,581l-14.3-58c-1.9-7.8-3.2-19.5-3.1-31.1c0-10.8,1-21.6,2.8-28.8l13.6-58.1l0,0
	c1-3.9,1.4-7.9,1.4-11.9c0-10.4-2.8-20.7-7.6-29.7c-4.9-9.2-11.8-17.2-20.8-22.7l-51.2-30.9c-6.7-4-15.5-11.1-23.4-19
	c-7.9-7.8-15.3-16.5-19.3-23.2l-31.5-50.7c-5.5-8.9-13.6-15.7-22.6-20.4c-9-4.7-19.1-7.3-29.4-7.3c-4.2,0-8.5,0.4-12.6,1.5l-58,14.4
	c-7.9,1.9-19.5,3.2-31.2,3.1c-10.8,0-21.6-1-28.8-2.8l-58.2-13.6c-4-1-8-1.4-11.9-1.4c-10.4,0-20.7,2.8-29.7,7.6
	c-9.2,4.9-17.2,11.8-22.7,20.8L206.3,270c-4,6.7-11.1,15.5-19,23.4c-7.8,7.9-16.5,15.3-23.2,19.3l-50.7,31.5
	c-8.9,5.5-15.7,13.6-20.4,22.6c-4.7,9-7.3,19.1-7.3,29.4c0,4.2,0.4,8.5,1.5,12.6l14.4,58c1.9,7.8,3.2,19.5,3.1,31.1
	c0,10.8-1,21.6-2.8,29l-13.6,58.1l0,0c-1,4-1.4,8-1.4,12.1c0,10.4,2.8,20.7,7.6,29.8c4.9,9.2,11.8,17.2,20.8,22.7l51.2,30.9
	c6.7,4,15.5,11.1,23.4,19c7.9,7.8,15.3,16.5,19.3,23.2l31.5,50.7c5.5,8.9,13.6,15.7,22.6,20.4c9,4.7,19.1,7.3,29.4,7.3
	c4.2,0,8.5-0.4,12.6-1.5l58-14.3c7.8-1.9,19.5-3.2,31.1-3.1c10.8,0,21.6,1,28.8,2.8l58.1,13.6c4,1,7.9,1.4,11.9,1.4
	c10.4,0,20.7-2.8,29.8-7.6c9-4.9,17.2-11.8,22.7-20.8l30.9-51.2c4-6.7,11.1-15.5,19-23.4c7.8-7.9,16.5-15.3,23.2-19.3l50.7-31.5
	c8.9-5.5,15.7-13.6,20.4-22.6c4.7-9,7.3-19.1,7.3-29.4C697.3,589.5,695.8,581,695.8,581z M667.4,611.3c-2.9,5.5-7.1,10.1-11.2,12.8
	l-50.7,31.5c-9.3,5.7-18.9,14-27.9,23c-9,9.2-17.1,18.9-22.7,28.1l-30.9,51.2c-2.6,4.3-7.2,8.6-12.9,11.5
	c-5.5,3.1-12.1,4.7-17.7,4.7c-2.2,0-4.3-0.3-6.1-0.7L429,759.8c-10.3-2.4-22.5-3.3-34.7-3.5c-13.2,0-26.3,1.2-37.3,3.9l-58,14.3
	c-1.9,0.6-4.2,0.7-6.5,0.7c-5.7,0-12.1-1.7-17.6-4.6s-10.1-7.1-12.8-11.2l-31.8-50.6c-5.7-9.3-14-18.9-23-27.9
	c-9.2-9-18.9-17.1-28.1-22.7l-51.2-30.9c-4.3-2.6-8.6-7.2-11.5-12.9c-3.1-5.5-4.7-12.1-4.7-17.7c0-2.2,0.3-4.3,0.7-6.1l0,0
	l13.6-58.1c2.4-10.3,3.3-22.5,3.5-34.7c0-13.2-1.2-26.3-3.9-37.3l-14.4-58c-0.6-1.9-0.7-4.2-0.7-6.5c0-5.7,1.7-12.1,4.6-17.6
	c2.9-5.5,7.1-10.1,11.2-12.8l50.7-31.5c9.3-5.7,18.9-14,27.9-23c9-9.2,17.1-18.9,22.7-28.1l30.9-51.2c2.6-4.3,7.2-8.6,12.9-11.5
	c5.5-3.1,12.1-4.7,17.7-4.7c2.2,0,4.3,0.3,6.1,0.7l58.2,13.6c10.3,2.4,22.3,3.3,34.7,3.5c13.2,0,26.3-1.2,37.3-3.9l58-14.4
	c1.9-0.6,4.2-0.7,6.5-0.7c5.7,0,12.1,1.7,17.6,4.6c5.5,2.9,10.1,7.1,12.8,11.2l31.5,50.7c5.7,9.3,14,18.9,23,27.9
	c9.2,9,18.9,17.1,28.1,22.7l51.2,30.9c4.3,2.6,8.6,7.2,11.5,12.9c3.1,5.5,4.7,12.1,4.7,17.7c0,2.2-0.3,4.3-0.7,6.1l0,0l-13.6,58.1
	c-2.4,10.3-3.5,22.3-3.5,34.7c0,13.2,1.2,26.3,3.9,37.3l14.4,58l0,0c0.6,1.9,0.7,4.2,0.7,6.5C671.9,599.3,670.3,605.7,667.4,611.3z"
	/>
</svg>
