<?xml version="1.0" encoding="utf-8"?>
<!-- Generator: Adobe Illustrator 17.1.0, SVG Export Plug-In . SVG Version: 6.00 Build 0)  -->
<!DOCTYPE svg PUBLIC "-//W3C//DTD SVG 1.1//EN" "http://www.w3.org/Graphics/SVG/1.1/DTD/svg11.dtd">
<svg version="1.1" id="Layer_1" xmlns="http://www.w3.org/2000/svg" xmlns:xlink="http://www.w3.org/1999/xlink" x="0px" y="0px"
	 viewBox="105.2 118.7 131 131" enable-background="new 105.2 118.7 131 131" xml:space="preserve">
<g>
	<g>
		<path fill="#220370" d="M170.7,118.7c-36.2,0-65.5,29.3-65.5,65.5s29.3,65.5,65.5,65.5s65.5-29.3,65.5-65.5
			S206.8,118.7,170.7,118.7z M170.7,245.5c-33.9,0-61.3-27.4-61.3-61.3s27.4-61.3,61.3-61.3s61.3,27.4,61.3,61.3
			S204.5,245.5,170.7,245.5z"/>
		<path fill="#220370" d="M170.7,156.9c-15,0-27.2,12.3-27.2,27.2c0,15,12.3,27.2,27.2,27.2s27.2-12.3,27.2-27.2
			S185.6,156.9,170.7,156.9z"/>
	</g>
</g>
</svg>
