<?xml version="1.0" encoding="utf-8"?>
<!-- Generator: Adobe Illustrator 17.1.0, SVG Export Plug-In . SVG Version: 6.00 Build 0)  -->
<!DOCTYPE svg PUBLIC "-//W3C//DTD SVG 1.1//EN" "http://www.w3.org/Graphics/SVG/1.1/DTD/svg11.dtd">
<svg version="1.1" id="Layer_1" xmlns="http://www.w3.org/2000/svg" xmlns:xlink="http://www.w3.org/1999/xlink" x="0px" y="0px"
	 viewBox="30.6 134.1 612 611.9" enable-background="new 30.6 134.1 612 611.9" xml:space="preserve">
<path fill="#CCCCCC" d="M457.3,280H214.5c-21.1,0-38,17-38,38v242.8c0,21.1,17,38,38,38h242.9c21.1,0,38-17,38-38V318
	C495.4,297,478.4,280,457.3,280L457.3,280z M468.2,560.8c0,6.1-4.8,10.9-10.9,10.9H214.5c-6.1,0-10.9-4.8-10.9-10.9V318
	c0-6.1,4.8-10.9,10.9-10.9h242.9c6.1,0,10.9,4.8,10.9,10.9L468.2,560.8L468.2,560.8z M57.8,698.6v-59.1c0-7.4-6.1-13.5-13.5-13.5
	s-13.5,6.1-13.5,13.5v95.7c0,0.7,0,0.7,0.7,1.3c0,0.7,0.7,0.7,0.7,1.3c0,0.7,0.7,0.7,0.7,1.3c0.7,1.3,2,2.7,4.1,4.1
	c0,0,0.7,0.7,1.3,0.7c0.7,0,0.7,0.7,1.3,0.7c0.7,0,0.7,0,1.3,0.7c0.7,0,0.7,0,1.3,0.7h94.4c7.4,0,13.5-6.1,13.5-13.5
	c0-7.4-6.1-13.5-13.5-13.5H77.4l86.8-86.8c2.7-2.7,4.1-6.1,4.1-9.5s-1.3-6.8-4.1-9.5c-5.4-5.4-13.5-5.4-19,0L57.8,698.6z
	 M633.2,135.4c-0.7,0-0.7,0-1.3-0.7c-0.7,0-0.7,0-1.3-0.7h-94.3c-7.4,0-13.5,6.1-13.5,13.5c0,7.4,6.1,13.5,13.5,13.5h59L508.3,248
	c-5.4,5.4-5.4,13.5,0,19c5.4,5.4,13.5,5.4,19,0l86.8-86.8v59.2c0,7.4,6.1,13.5,13.5,13.5s13.5-6.1,13.5-13.5v-91.7V145
	c0-0.7,0-0.7-0.7-1.3c0-0.7,0-0.7-0.7-1.3c0-0.7-0.7-0.7-0.7-1.3c0,0,0-0.7-0.7-0.7c-0.7-1.3-2-2.7-4.1-4.1l-0.7-0.7L633.2,135.4
	L633.2,135.4z M595.1,717.6h-59c-7.4,0-13.5,6.1-13.5,13.5s6.1,13.5,13.5,13.5h95.7c0.7,0,0.7,0,1.3-0.7c0.7,0,0.7-0.7,1.3-0.7
	s0.7-0.7,1.3-0.7c1.3-0.7,2.7-2,4.1-4.1c0,0,0.7-0.7,0.7-1.3c0-0.7,0.7-0.7,0.7-1.3c0-0.7,0-0.7,0.7-1.3c0-0.7,0-0.7,0.7-1.3v-93.7
	c0-7.4-6.1-13.5-13.5-13.5s-13.5,6.1-13.5,13.5v59l-88.3-86.8c-2.7-2.7-6.1-4.1-9.5-4.1c-3.4,0-6.8,1.3-9.5,4.1
	c-5.4,5.4-5.4,13.5,0,19L595.1,717.6z M31.9,142.2c0,0.7,0,0.7-0.7,1.3c0,0.7,0,0.7-0.7,1.3v94.5c0,7.4,6.1,13.5,13.5,13.5
	s13.5-6.1,13.5-13.5v-59.1l86.8,86.8c5.4,5.4,13.5,5.4,19,0c5.4-5.4,5.4-13.5,0-19l-86.7-86.8h59c7.4,0,13.5-6.1,13.5-13.5
	c0-7.4-6.1-13.5-13.5-13.5H41.5c-0.7,0-0.7,0-1.3,0.7c-0.7,0-0.7,0-1.3,0.7c0,0-0.7,0-1.3,0.7c0,0-0.7,0-0.7,0.7
	c-1.3,0.7-2.7,2-4.1,3.4L32,141C31.9,140.9,31.9,142.2,31.9,142.2z"/>
</svg>
