<?xml version="1.0" encoding="utf-8"?>
<!-- Generator: Adobe Illustrator 17.1.0, SVG Export Plug-In . SVG Version: 6.00 Build 0)  -->
<!DOCTYPE svg PUBLIC "-//W3C//DTD SVG 1.1//EN" "http://www.w3.org/Graphics/SVG/1.1/DTD/svg11.dtd">
<svg version="1.1" id="Layer_1" xmlns="http://www.w3.org/2000/svg" xmlns:xlink="http://www.w3.org/1999/xlink" x="0px" y="0px"
	 viewBox="111 279.7 137.8 137.8" enable-background="new 111 279.7 137.8 137.8" xml:space="preserve">
<g display="none">
	<g display="inline">
		<rect x="0" y="13.5" fill="none" stroke="#000000" stroke-width="0.1" stroke-miterlimit="10" width="612" height="612"/>
		<line fill="none" stroke="#000000" stroke-width="0.1" stroke-miterlimit="10" x1="0" y1="606.4" x2="612" y2="606.4"/>
		<line fill="none" stroke="#000000" stroke-width="0.1" stroke-miterlimit="10" x1="0" y1="587.2" x2="612" y2="587.2"/>
		<line fill="none" stroke="#000000" stroke-width="0.1" stroke-miterlimit="10" x1="0" y1="568.1" x2="612" y2="568.1"/>
		<line fill="none" stroke="#000000" stroke-width="0.1" stroke-miterlimit="10" x1="0" y1="549" x2="612" y2="549"/>
		<line fill="none" stroke="#000000" stroke-width="0.1" stroke-miterlimit="10" x1="0" y1="529.9" x2="612" y2="529.9"/>
		<line fill="none" stroke="#000000" stroke-width="0.1" stroke-miterlimit="10" x1="0" y1="510.8" x2="612" y2="510.8"/>
		<line fill="none" stroke="#000000" stroke-width="0.1" stroke-miterlimit="10" x1="0" y1="491.6" x2="612" y2="491.6"/>
		<line fill="none" stroke="#000000" stroke-width="0.1" stroke-miterlimit="10" x1="0" y1="472.5" x2="612" y2="472.5"/>
		<line fill="none" stroke="#000000" stroke-width="0.1" stroke-miterlimit="10" x1="0" y1="453.4" x2="612" y2="453.4"/>
		<line fill="none" stroke="#000000" stroke-width="0.1" stroke-miterlimit="10" x1="0" y1="434.2" x2="612" y2="434.2"/>
		<line fill="none" stroke="#000000" stroke-width="0.1" stroke-miterlimit="10" x1="0" y1="415.1" x2="612" y2="415.1"/>
		<line fill="none" stroke="#000000" stroke-width="0.1" stroke-miterlimit="10" x1="0" y1="396" x2="612" y2="396"/>
		<line fill="none" stroke="#000000" stroke-width="0.1" stroke-miterlimit="10" x1="0" y1="376.9" x2="612" y2="376.9"/>
		<line fill="none" stroke="#000000" stroke-width="0.1" stroke-miterlimit="10" x1="0" y1="357.8" x2="612" y2="357.8"/>
		<line fill="none" stroke="#000000" stroke-width="0.1" stroke-miterlimit="10" x1="0" y1="338.6" x2="612" y2="338.6"/>
		<line fill="none" stroke="#000000" stroke-width="0.1" stroke-miterlimit="10" x1="0" y1="319.5" x2="612" y2="319.5"/>
		<line fill="none" stroke="#000000" stroke-width="0.1" stroke-miterlimit="10" x1="0" y1="300.4" x2="612" y2="300.4"/>
		<line fill="none" stroke="#000000" stroke-width="0.1" stroke-miterlimit="10" x1="0" y1="281.2" x2="612" y2="281.2"/>
		<line fill="none" stroke="#000000" stroke-width="0.1" stroke-miterlimit="10" x1="0" y1="262.1" x2="612" y2="262.1"/>
		<line fill="none" stroke="#000000" stroke-width="0.1" stroke-miterlimit="10" x1="0" y1="243" x2="612" y2="243"/>
		<line fill="none" stroke="#000000" stroke-width="0.1" stroke-miterlimit="10" x1="0" y1="223.9" x2="612" y2="223.9"/>
		<line fill="none" stroke="#000000" stroke-width="0.1" stroke-miterlimit="10" x1="0" y1="204.8" x2="612" y2="204.8"/>
		<line fill="none" stroke="#000000" stroke-width="0.1" stroke-miterlimit="10" x1="0" y1="185.6" x2="612" y2="185.6"/>
		<line fill="none" stroke="#000000" stroke-width="0.1" stroke-miterlimit="10" x1="0" y1="166.5" x2="612" y2="166.5"/>
		<line fill="none" stroke="#000000" stroke-width="0.1" stroke-miterlimit="10" x1="0" y1="147.4" x2="612" y2="147.4"/>
		<line fill="none" stroke="#000000" stroke-width="0.1" stroke-miterlimit="10" x1="0" y1="128.2" x2="612" y2="128.2"/>
		<line fill="none" stroke="#000000" stroke-width="0.1" stroke-miterlimit="10" x1="0" y1="109.1" x2="612" y2="109.1"/>
		<line fill="none" stroke="#000000" stroke-width="0.1" stroke-miterlimit="10" x1="0" y1="90" x2="612" y2="90"/>
		<line fill="none" stroke="#000000" stroke-width="0.1" stroke-miterlimit="10" x1="0" y1="70.9" x2="612" y2="70.9"/>
		<line fill="none" stroke="#000000" stroke-width="0.1" stroke-miterlimit="10" x1="0" y1="51.8" x2="612" y2="51.8"/>
		<line fill="none" stroke="#000000" stroke-width="0.1" stroke-miterlimit="10" x1="0" y1="32.6" x2="612" y2="32.6"/>
		<line fill="none" stroke="#000000" stroke-width="0.1" stroke-miterlimit="10" x1="592.9" y1="13.5" x2="592.9" y2="625.5"/>
		<line fill="none" stroke="#000000" stroke-width="0.1" stroke-miterlimit="10" x1="573.8" y1="13.5" x2="573.8" y2="625.5"/>
		<line fill="none" stroke="#000000" stroke-width="0.1" stroke-miterlimit="10" x1="554.6" y1="13.5" x2="554.6" y2="625.5"/>
		<line fill="none" stroke="#000000" stroke-width="0.1" stroke-miterlimit="10" x1="535.5" y1="13.5" x2="535.5" y2="625.5"/>
		<line fill="none" stroke="#000000" stroke-width="0.1" stroke-miterlimit="10" x1="516.4" y1="13.5" x2="516.4" y2="625.5"/>
		<line fill="none" stroke="#000000" stroke-width="0.1" stroke-miterlimit="10" x1="497.2" y1="13.5" x2="497.2" y2="625.5"/>
		<line fill="none" stroke="#000000" stroke-width="0.1" stroke-miterlimit="10" x1="478.1" y1="13.5" x2="478.1" y2="625.5"/>
		<line fill="none" stroke="#000000" stroke-width="0.1" stroke-miterlimit="10" x1="459" y1="13.5" x2="459" y2="625.5"/>
		<line fill="none" stroke="#000000" stroke-width="0.1" stroke-miterlimit="10" x1="439.9" y1="13.5" x2="439.9" y2="625.5"/>
		<line fill="none" stroke="#000000" stroke-width="0.1" stroke-miterlimit="10" x1="420.8" y1="13.5" x2="420.8" y2="625.5"/>
		<line fill="none" stroke="#000000" stroke-width="0.1" stroke-miterlimit="10" x1="401.6" y1="13.5" x2="401.6" y2="625.5"/>
		<line fill="none" stroke="#000000" stroke-width="0.1" stroke-miterlimit="10" x1="382.5" y1="13.5" x2="382.5" y2="625.5"/>
		<line fill="none" stroke="#000000" stroke-width="0.1" stroke-miterlimit="10" x1="363.4" y1="13.5" x2="363.4" y2="625.5"/>
		<line fill="none" stroke="#000000" stroke-width="0.1" stroke-miterlimit="10" x1="344.2" y1="13.5" x2="344.2" y2="625.5"/>
		<line fill="none" stroke="#000000" stroke-width="0.1" stroke-miterlimit="10" x1="325.1" y1="13.5" x2="325.1" y2="625.5"/>
		<line fill="none" stroke="#000000" stroke-width="0.1" stroke-miterlimit="10" x1="306" y1="13.5" x2="306" y2="625.5"/>
		<line fill="none" stroke="#000000" stroke-width="0.1" stroke-miterlimit="10" x1="286.9" y1="13.5" x2="286.9" y2="625.5"/>
		<line fill="none" stroke="#000000" stroke-width="0.1" stroke-miterlimit="10" x1="267.8" y1="13.5" x2="267.8" y2="625.5"/>
		<line fill="none" stroke="#000000" stroke-width="0.1" stroke-miterlimit="10" x1="248.6" y1="13.5" x2="248.6" y2="625.5"/>
		<line fill="none" stroke="#000000" stroke-width="0.1" stroke-miterlimit="10" x1="229.5" y1="13.5" x2="229.5" y2="625.5"/>
		<line fill="none" stroke="#000000" stroke-width="0.1" stroke-miterlimit="10" x1="210.4" y1="13.5" x2="210.4" y2="625.5"/>
		<line fill="none" stroke="#000000" stroke-width="0.1" stroke-miterlimit="10" x1="191.2" y1="13.5" x2="191.2" y2="625.5"/>
		<line fill="none" stroke="#000000" stroke-width="0.1" stroke-miterlimit="10" x1="172.1" y1="13.5" x2="172.1" y2="625.5"/>
		<line fill="none" stroke="#000000" stroke-width="0.1" stroke-miterlimit="10" x1="153" y1="13.5" x2="153" y2="625.5"/>
		<line fill="none" stroke="#000000" stroke-width="0.1" stroke-miterlimit="10" x1="133.9" y1="13.5" x2="133.9" y2="625.5"/>
		<line fill="none" stroke="#000000" stroke-width="0.1" stroke-miterlimit="10" x1="114.8" y1="13.5" x2="114.8" y2="625.5"/>
		<line fill="none" stroke="#000000" stroke-width="0.1" stroke-miterlimit="10" x1="95.6" y1="13.5" x2="95.6" y2="625.5"/>
		<line fill="none" stroke="#000000" stroke-width="0.1" stroke-miterlimit="10" x1="76.5" y1="13.5" x2="76.5" y2="625.5"/>
		<line fill="none" stroke="#000000" stroke-width="0.1" stroke-miterlimit="10" x1="57.4" y1="13.5" x2="57.4" y2="625.5"/>
		<line fill="none" stroke="#000000" stroke-width="0.1" stroke-miterlimit="10" x1="38.2" y1="13.5" x2="38.2" y2="625.5"/>
		<line fill="none" stroke="#000000" stroke-width="0.1" stroke-miterlimit="10" x1="19.1" y1="13.5" x2="19.1" y2="625.5"/>
	</g>
</g>
<g>
	<g>
		<path fill="#220370" d="M183.8,360.3c0-2.1-1.7-3.8-3.8-3.8c-2.1,0-3.8,1.7-3.8,3.8c0,1.2,0.5,2.2,1.3,2.9l-1.9,7.8h8.9l-1.9-7.8
			C183.3,362.6,183.8,361.5,183.8,360.3z"/>
		<path fill="#220370" d="M200.3,336.1h-3.7v-7.5c0.1-4.6-1.5-8.9-4.7-12.3c-3.1-3.3-7.2-5.2-11.6-5.3c-4.5-0.1-8.9,1.7-12.2,5
			c-3.4,3.4-5.1,7.9-5,12.6v0.1v7.4h-3.7v-7.4c-0.2-5.7,2-11.2,6.1-15.3c4-4,9.4-6.2,14.9-6.1c5.4,0.1,10.4,2.4,14.1,6.5
			c3.8,4.1,5.8,9.4,5.7,14.9L200.3,336.1L200.3,336.1L200.3,336.1z"/>
		<path fill="#220370" d="M206.5,337.6h-53.2l-3.8,3.8v45l3.6,3.6h53.3l4.1-4.1v-44.4L206.5,337.6z M179.9,375.5
			c-6.5,0-11.7-5.2-11.7-11.7c0-6.5,5.2-11.7,11.7-11.7c6.5,0,11.7,5.2,11.7,11.7C191.6,370.2,186.4,375.5,179.9,375.5z"/>
	</g>
</g>
<path fill="#220370" d="M179.9,417.5c-18.4,0-35.7-7.2-48.7-20.2c-13-13-20.2-30.3-20.2-48.7c0-18.4,7.2-35.7,20.2-48.7
	c13-13,30.3-20.2,48.7-20.2s35.7,7.2,48.7,20.2c13,13,20.2,30.3,20.2,48.7c0,18.4-7.2,35.7-20.2,48.7
	C215.6,410.3,198.3,417.5,179.9,417.5z M179.9,284.1c-35.6,0-64.5,28.9-64.5,64.5s28.9,64.5,64.5,64.5s64.5-28.9,64.5-64.5
	S215.5,284.1,179.9,284.1z"/>
</svg>
