<?xml version="1.0" encoding="utf-8"?>
<!-- Generator: Adobe Illustrator 17.1.0, SVG Export Plug-In . SVG Version: 6.00 Build 0)  -->
<!DOCTYPE svg PUBLIC "-//W3C//DTD SVG 1.1//EN" "http://www.w3.org/Graphics/SVG/1.1/DTD/svg11.dtd">
<svg version="1.1" id="Layer_1" xmlns="http://www.w3.org/2000/svg" xmlns:xlink="http://www.w3.org/1999/xlink" x="0px" y="0px"
	 viewBox="117.9 389.7 151.6 145.9" enable-background="new 117.9 389.7 151.6 145.9" xml:space="preserve">
<path display="none" d="M526.3,499.1h66.6V114.2h-66.6c-6.9,0-12.3-4.2-12.3-9.9V64c0-5.7,5.4-10.8,12.3-10.8h60.1
	C574.7,26.9,548.4,9,517.9,9H72.5C42,9,15.7,26.9,4,53.2h60.1c6.9,0,12.3,5.1,12.3,10.8v40.2c0,5.7-5.4,9.9-12.3,9.9H-2.4v384.9
	h66.6c6.9,0,12.3,4.6,12.3,10.4v40.2c0,5.7-5.4,10.4-12.3,10.4H4c11.7,26.3,37.9,44.2,68.4,44.2h445.4c30.5,0,56.8-17.9,68.4-44.2
	h-60.1c-6.9,0-12.3-4.6-12.3-10.4v-40.2C513.9,503.7,519.3,499.1,526.3,499.1z M256.3,103.8c0,5.7-5.6,10.4-12.5,10.4h-76.6
	c-6.9,0-12.5-4.7-12.5-10.4V63.6c0-5.7,5.6-10.4,12.5-10.4h76.6c6.9,0,12.5,4.7,12.5,10.4V103.8z M386.1,294.4
	c18.3,13.3,1.6,28.2,1.6,28.2l-159.3,91.2c-31.5,16.6-32.4-14.1-32.4-14.1V215.6c0.6-32.4,30.8-15.8,30.8-15.8L386.1,294.4z
	 M256.3,549.6c0,5.7-5.6,10.4-12.5,10.4h-76.6c-6.9,0-12.5-4.7-12.5-10.4v-40.1c0-5.7,5.6-10.4,12.5-10.4h76.6
	c6.9,0,12.5,4.7,12.5,10.4V549.6z M436.2,549.6c0,5.7-5.6,10.4-12.5,10.4h-76.6c-6.9,0-12.5-4.7-12.5-10.4v-40.1
	c0-5.7,5.6-10.4,12.5-10.4h76.6c6.9,0,12.5,4.7,12.5,10.4V549.6z M436.2,103.8c0,5.7-5.6,10.4-12.5,10.4h-76.6
	c-6.9,0-12.5-4.7-12.5-10.4V63.6c0-5.7,5.6-10.4,12.5-10.4h76.6c6.9,0,12.5,4.7,12.5,10.4V103.8z"/>
<path display="none" d="M595.2,76.3c0-26.6-21.6-48.2-48.2-48.2H43.3c-26.6,0-48.2,21.6-48.2,48.2V537c0,26.6,21.6,48.2,48.2,48.2
	h503.7c26.6,0,48.2-21.6,48.2-48.2V76.3z M544.2,60c10.9,0,19.8,8.8,19.8,19.8c0,10.9-8.8,19.8-19.8,19.8
	c-10.9,0-19.8-8.8-19.8-19.8C524.5,68.9,533.3,60,544.2,60z M477.6,60c10.9,0,19.8,8.8,19.8,19.8c0,10.9-8.8,19.8-19.8,19.8
	c-10.9,0-19.8-8.8-19.8-19.8C457.8,68.9,466.7,60,477.6,60z M410.9,60c10.9,0,19.8,8.8,19.8,19.8c0,10.9-8.8,19.8-19.8,19.8
	c-10.9,0-19.8-8.8-19.8-19.8C391.1,68.9,400,60,410.9,60z M564.1,533.1c0,11.3-9.1,20.4-20.4,20.4H47.2c-11.3,0-20.4-9.1-20.4-20.4
	V151.3c0-11.3,9.1-20.4,20.4-20.4h496.5c11.3,0,20.4,9.1,20.4,20.4L564.1,533.1L564.1,533.1z"/>
<path display="none" d="M391,380.3l-164.5,94.3C193.9,491.7,193,460,193,460V269.8c0.6-33.4,31.7-16.3,31.7-16.3l164.5,97.7
	C408.1,364.9,391,380.3,391,380.3z"/>
<path display="none" d="M526.7,499.1h66.2V114.2h-66.2c-6.9,0-12.7-4.2-12.7-9.9V64c0-5.7,5.8-10.8,12.7-10.8h60.1
	C575.1,26.9,548.8,9,518.3,9H72.9C42.4,9,16.1,26.9,4.5,53.2h60.1c6.9,0,11.9,5.1,11.9,10.8v40.2c0,5.7-5,9.9-11.9,9.9h-67v384.9h67
	c6.9,0,11.9,4.6,11.9,10.4v40.2c0,5.7-5,10.4-11.9,10.4H4.5c11.7,26.3,37.9,44.2,68.4,44.2h445.4c30.5,0,56.8-17.9,68.4-44.2h-60.1
	c-6.9,0-12.7-4.6-12.7-10.4v-40.2C513.9,503.7,519.8,499.1,526.7,499.1z M436.2,103.8c0,5.7-5.6,10.4-12.5,10.4h-76.6
	c-6.9,0-12.5-4.7-12.5-10.4V63.6c0-5.7,5.6-10.4,12.5-10.4h76.6c6.9,0,12.5,4.7,12.5,10.4L436.2,103.8L436.2,103.8z M256.3,103.8
	c0,5.7-5.6,10.4-12.5,10.4h-76.6c-6.9,0-12.5-4.7-12.5-10.4V63.6c0-5.7,5.6-10.4,12.5-10.4h76.6c6.9,0,12.5,4.7,12.5,10.4V103.8z
	 M390.2,424.4c0,10.9-8.8,19.7-19.7,19.7H53.7c-10.9,0-19.7-8.8-19.7-19.7V188.9c0-10.9,8.8-19.7,19.7-19.7h316.8
	c10.9,0,19.7,8.8,19.7,19.7V424.4z M256.3,549.6c0,5.7-5.6,10.4-12.5,10.4h-76.6c-6.9,0-12.5-4.7-12.5-10.4v-40.2
	c0-5.7,5.6-10.4,12.5-10.4h76.6c6.9,0,12.5,4.7,12.5,10.4V549.6z M436.2,549.6c0,5.7-5.6,10.4-12.5,10.4h-76.6
	c-6.9,0-12.5-4.7-12.5-10.4v-40.2c0-5.7,5.6-10.4,12.5-10.4h76.6c6.9,0,12.5,4.7,12.5,10.4L436.2,549.6L436.2,549.6z M557,424.4
	c0,10.9-8.8,19.7-19.7,19.7h-92c-10.9,0-19.7-8.8-19.7-19.7V188.9c0-10.9,8.8-19.7,19.7-19.7h92c10.9,0,19.7,8.8,19.7,19.7V424.4z"
	/>
<path display="none" d="M591,80.9c0-38.4-31.1-69.5-69.5-69.5H69.5C31.1,11.4,0,42.5,0,80.9v452.1c0,38.4,31.1,69.5,69.5,69.5h452.1
	c38.4,0,69.5-31.1,69.5-69.5V80.9z M547.4,525.2c0,17.6-14.2,31.8-31.8,31.8H76c-17.6,0-31.8-14.2-31.8-31.8v-436
	c0-17.6,14.2-31.8,31.8-31.8h439.6c17.6,0,31.8,14.2,31.8,31.8V525.2z"/>
<path display="none" d="M403.1,325.1L217.5,431.5c-36.8,19.4-37.6-16.4-37.6-16.4V200.3c0.6-37.7,35.7-18.4,35.7-18.4l185.7,110.3
	C422.5,307.7,403.1,325.1,403.1,325.1z"/>
<path display="none" d="M450.1,327.7L234.5,451.3c-42.7,22.5-43.8-19.1-43.8-19.1V182.8c1.2-43.8,41.6-21.4,41.6-21.4l215.7,128.1
	C472.6,307.5,450.1,327.7,450.1,327.7z"/>
<path display="none" d="M295.5,8.2C130.5,8.2-3.1,141.9-3.1,306.8c0,164.9,133.7,298.6,298.6,298.6s298.6-133.7,298.6-298.6
	C594.1,141.9,460.4,8.2,295.5,8.2z M295.5,566c-143.1,0-259.1-116-259.1-259.1s116-259.1,259.1-259.1c143.1,0,259.1,116,259.1,259.1
	C554.6,449.9,438.6,566,295.5,566z"/>
<path display="none" d="M295.5,8.2C130.5,8.2-3.1,141.9-3.1,306.8c0,164.9,133.7,298.6,298.6,298.6s298.6-133.7,298.6-298.6
	C594.1,141.9,460.4,8.2,295.5,8.2z M295.5,566c-143.1,0-259.1-116-259.1-259.1s116-259.1,259.1-259.1c143.1,0,259.1,116,259.1,259.1
	C554.6,449.9,438.6,566,295.5,566z"/>
<path display="none" d="M246.8,412.4c0,17.8-14.4,32.3-32.3,32.3l0,0c-17.8,0-32.3-14.4-32.3-32.3V200.8c0-17.8,14.4-32.3,32.3-32.3
	l0,0c17.8,0,32.3,14.4,32.3,32.3V412.4z"/>
<path display="none" d="M408.8,412.4c0,17.8-14.4,32.3-32.3,32.3l0,0c-17.8,0-32.3-14.4-32.3-32.3V200.8c0-17.8,14.4-32.3,32.3-32.3
	l0,0c17.8,0,32.3,14.4,32.3,32.3V412.4z"/>
<path display="none" d="M295.5,10C131.5,10-1.3,142.9-1.3,306.8c0,163.9,132.9,296.8,296.8,296.8c163.9,0,296.8-132.9,296.8-296.8
	C592.3,142.9,459.4,10,295.5,10z M445.8,131.3c44.2,0,80,35.8,80,80s-35.8,80-80,80c-44.2,0-80-35.8-80-80
	C365.8,167.2,401.6,131.3,445.8,131.3z M47.1,308.1c0-44.2,35.8-80,80-80c44.2,0,80,35.8,80,80c0,44.2-35.8,80-80,80
	C82.9,388.1,47.1,352.3,47.1,308.1z M241.9,557.2c-44.2,0-80-35.8-80-80c0-44.2,35.8-80,80-80c44.2,0,80,35.8,80,80
	C321.9,521.4,286.1,557.2,241.9,557.2z M295.5,333.9c-15,0-27.1-12.1-27.1-27.1c0-15,12.1-27.1,27.1-27.1c15,0,27.1,12.1,27.1,27.1
	C322.6,321.8,310.4,333.9,295.5,333.9z M248.4,220.4c-44.2,0-80-35.8-80-80s35.8-80,80-80c44.2,0,80,35.8,80,80
	S292.5,220.4,248.4,220.4z M443.2,492.7c-44.2,0-80-35.8-80-80s35.8-80,80-80c44.2,0,80,35.8,80,80S487.4,492.7,443.2,492.7z"/>
<g display="none">
	<g display="inline">
		<path d="M314.3,603.5c19.4,0,38.8,0,58.2,0c38.3,0,76.6,0,114.9,0c27.3,0,54.6,0,82,0c1.6,0,3.2,0,4.9,0c9.8,0,18-8,18.1-17.8
			c0.1-9.7-8-18.1-17.8-18.1c-19.4,0-38.8,0-58.2,0c-38.3,0-76.6,0-114.9,0c-27.3,0-54.6,0-82,0c-1.6,0-3.2,0-4.9,0
			c-9.8,0-18,8-18.1,17.8C296.4,595.1,304.5,603.5,314.3,603.5L314.3,603.5z"/>
	</g>
</g>
<path display="none" d="M84.4,102.5l40.8,58.1l-95.6,21L21.3,144c-3.2-14.6,6.8-29.2,22.4-32.6L84.4,102.5z"/>
<polygon display="none" points="232.5,70 273.3,128.1 187.9,146.8 147.1,88.7 "/>
<polygon display="none" points="380.6,37.5 421.4,95.6 336,114.3 295.2,56.2 "/>
<path display="none" d="M545.4,29l8.2,37.6l-69.5,15.2l-40.8-58.1l68-14.9C526.9,5.4,542.2,14.4,545.4,29z"/>
<polygon display="none" points="29.8,198.4 128.1,198.4 100.6,263.6 29.8,263.6 "/>
<polygon display="none" points="192.9,198.4 281.1,198.4 253.6,263.6 165.4,263.6 "/>
<polygon display="none" points="345.9,198.4 434.1,198.4 406.6,263.6 318.4,263.6 "/>
<polygon display="none" points="570.1,198.4 570.1,263.6 471.5,263.6 498.9,198.4 "/>
<path display="none" d="M29.2,282.7v252.7c0,38.7,31.4,70.1,70.2,70.1h400.3c38.7,0,70.4-31.3,70.4-70.1V282.7H29.2z M391.7,459.5
	l-158.1,90.6c-31.3,16.5-32.2-14-32.2-14V353.2c0.6-32.1,30.5-15.7,30.5-15.7L390,431.4C408.1,444.6,391.7,459.5,391.7,459.5z"/>
<path display="none" d="M411.5,218.1c0.5-53.5-42.6-97.3-96.1-97.7l-213.4-1.8c-53.5-0.5-97.3,42.6-97.7,96.1l-1.5,181
	c-0.5,53.5,42.6,97.3,96.1,97.7l213.4,1.8c53.5,0.5,97.3-42.6,97.7-96.1L411.5,218.1z M307.2,321l-135,76
	c-26.8,13.8-27-12.1-27-12.1l1.3-155.6c1-27.3,25.8-13.1,25.8-13.1l133.8,81.1C321.4,308.5,307.2,321,307.2,321z"/>
<path display="none" d="M433.6,386.5L543,451.6c41.7,22.4,43.1-18.4,43.1-18.4l2.1-244.5c-0.4-43-40.6-21.3-40.6-21.3L435,234.3
	L433.6,386.5z"/>
<circle display="none" fill="none" stroke="#000000" stroke-width="60" stroke-miterlimit="10" cx="106.5" cy="148.4" r="78.9"/>
<circle display="none" fill="none" stroke="#000000" stroke-width="60" stroke-miterlimit="10" cx="310.9" cy="148.4" r="78.9"/>
<path display="none" d="M8.8,471.7c0,3.9,0.1,7.8,0.7,11.6v-98.7L8.8,471.7z"/>
<path display="none" d="M431,474.7l108.6,63c41.4,21.6,42.4-18.6,42.4-18.6l-0.6-241.4c-0.9-42.4-40.3-20.6-40.3-20.6l-110.4,67.2
	L431,474.7z"/>
<path display="none" d="M407.6,309c0-31-25.2-56.2-56.2-56.2H65.7c-31,0-56.2,25.2-56.2,56.2v177.5c0,31,25.2,56.2,56.2,56.2h285.7
	c31,0,56.2-25.2,56.2-56.2V309z M291.9,409.8l-111.4,62.7c-22.1,11.4-22.3-10-22.3-10l1.1-128.5c0.8-22.6,21.3-10.8,21.3-10.8
	L291,390.1C303.6,399.4,291.9,409.8,291.9,409.8z"/>
<path fill="#220370" d="M249.9,535.6H137.4c-10.8,0-19.6-8.8-19.6-19.6v-76.8c0-10.8,8.8-19.6,19.6-19.6h112.5
	c10.8,0,19.6,8.8,19.6,19.6v76.8C269.5,526.9,260.7,535.6,249.9,535.6z M137.4,429.7c-5.3,0-9.6,4.3-9.6,9.6v76.8
	c0,5.3,4.3,9.6,9.6,9.6h112.5c5.3,0,9.6-4.3,9.6-9.6v-76.8c0-5.3-4.3-9.6-9.6-9.6H137.4z"/>
<path fill="#220370" d="M220.8,481.8l-42.4,24.3c-8.4,4.4-8.6-3.8-8.6-3.8v-49c0.2-8.6,8.2-4.2,8.2-4.2l42.4,25.2
	C225.2,477.8,220.8,481.8,220.8,481.8z"/>
<path fill="#220370" d="M146.6,416.7h-8c0-8,6.5-14.6,14.5-14.6h81.2c8,0,14.5,6.5,14.5,14.5h-8c0-3.6-2.9-6.6-6.5-6.6h-81.2
	C149.6,410.1,146.6,413,146.6,416.7z"/>
<path fill="#220370" d="M162.7,399h-7.2c0-5.1,4.7-9.2,10.5-9.2h53.4c5.8,0,10.5,4.1,10.5,9.2h-7.2c0-1-1.4-2-3.3-2H166
	C164.1,396.9,162.7,398,162.7,399z"/>
<path display="none" d="M318.8,218.8H163.7v-67.5c0-20.9-16.7-37.7-37.6-37.7H35c-20.9,0-38,16.8-38,37.7v285
	c0,35.3,28.8,63.9,64.1,63.9h257.8c35.3,0,63.6-28.7,63.6-63.9V282.5C382.5,247.3,354.1,218.8,318.8,218.8z M307.1,416.8
	c0,10.1-8.2,18.3-18.3,18.3h-197c-10.1,0-18.3-8.2-18.3-18.3V302.2c0-10.1,8.2-18.3,18.3-18.3h197c10.1,0,18.3,8.2,18.3,18.3V416.8z
	"/>
<path display="none" d="M488.8,151.3v2.6c0,20.9-16.6,38-37.4,38H261.1v-22.7H184v-31.7h77.1v-23.9h190.3
	C472.3,113.6,488.8,130.4,488.8,151.3z"/>
<path display="none" d="M593.7,466.6c0,0-0.9,36.9-38.8,17.1l-99.6-57.8v-0.3h-53.8V288.1h53.2V288l101.4-61.6c0,0,36.2-20,37,18.9
	L593.7,466.6z"/>
</svg>
