<?xml version="1.0" encoding="utf-8"?>
<!-- Generator: Adobe Illustrator 17.1.0, SVG Export Plug-In . SVG Version: 6.00 Build 0)  -->
<!DOCTYPE svg PUBLIC "-//W3C//DTD SVG 1.1//EN" "http://www.w3.org/Graphics/SVG/1.1/DTD/svg11.dtd" [
	<!ENTITY ns_extend "http://ns.adobe.com/Extensibility/1.0/">
	<!ENTITY ns_ai "http://ns.adobe.com/AdobeIllustrator/10.0/">
	<!ENTITY ns_graphs "http://ns.adobe.com/Graphs/1.0/">
	<!ENTITY ns_vars "http://ns.adobe.com/Variables/1.0/">
	<!ENTITY ns_imrep "http://ns.adobe.com/ImageReplacement/1.0/">
	<!ENTITY ns_sfw "http://ns.adobe.com/SaveForWeb/1.0/">
	<!ENTITY ns_custom "http://ns.adobe.com/GenericCustomNamespace/1.0/">
	<!ENTITY ns_adobe_xpath "http://ns.adobe.com/XPath/1.0/">
]>
<svg version="1.1" id="Layer_1" xmlns:x="&ns_extend;" xmlns:i="&ns_ai;" xmlns:graph="&ns_graphs;"
	 xmlns="http://www.w3.org/2000/svg" xmlns:xlink="http://www.w3.org/1999/xlink" x="0px" y="0px" viewBox="0 0 168.7 180"
	 enable-background="new 0 0 168.7 180" xml:space="preserve">
<metadata>
	<sfw  xmlns="&ns_sfw;">
		<slices></slices>
		<sliceSourceBounds  x="0" y="0" width="168.7" height="180" bottomLeftOrigin="true"></sliceSourceBounds>
	</sfw>
</metadata>
<g>
	<ellipse fill="#40308E" cx="150.8" cy="160.1" rx="17.9" ry="16.2"/>
	<path fill="#40308E" d="M41.9,36c0,0-8.9,1.9-11.6,3.1C27.6,40.1,12.8,52,7,59C4.9,66.7,1,85.2,0,92.7c-0.6,4.8,4.6,6,6.2,6.2
		c0.4,0,6.7,0.2,7.5-5.2c0.8-5.4,5.8-27.9,5.8-27.9l20.4-11.6c0,0-1.7,4.4-6,7.3c-4.2,2.9,24.3,50.9,24.3,50.9s27.4,31.4,27.8,31.8
		c0.4,0.4,22.7,33.3,22.7,33.3s3.9,5,11.2,1c5.6-3.1,1-10.2,1-10.2l-17.7-31l-21.4-32.8c0,0-1.2-45.5-10-68.6
		C71.5,36,60,46.4,41.9,36z"/>
	<path fill="#40308E" d="M35.1,160.1c0,0-10.8-9.8-1.5-15.4l28.7-16.6l11.6,13.7L35.1,160.1z"/>
	<path fill="#40308E" d="M88.9,101l0.4,6.9l12.5,17.7C101.8,125.6,108.7,123.5,88.9,101z"/>
	<path fill="#40308E" d="M79.4,39.9c0,0,3.9,6.6,4.6,21.2l10.8,7.5l19.9,3.3c0,0,6.4-0.4,6.9-6.2c0.4-5-5.6-5.8-6.9-6.2
		c-0.4-0.2-14.3-2.7-14.3-2.7L79.4,39.9z"/>
	<path fill="#40308E" d="M57.1,0c-2.3,0-13.5,1.2-13.5,12.1s5.2,21.8,13.5,21.8s13.5-11.6,13.5-21.8C70.6,2.1,60.2,0,57.1,0z"/>
</g>
</svg>
