<?xml version="1.0" encoding="utf-8"?>
<!-- Generator: Adobe Illustrator 17.1.0, SVG Export Plug-In . SVG Version: 6.00 Build 0)  -->
<!DOCTYPE svg PUBLIC "-//W3C//DTD SVG 1.1//EN" "http://www.w3.org/Graphics/SVG/1.1/DTD/svg11.dtd">
<svg version="1.1" id="Layer_1" xmlns="http://www.w3.org/2000/svg" xmlns:xlink="http://www.w3.org/1999/xlink" x="0px" y="0px"
	 viewBox="117.8 97.3 87.5 93.4" enable-background="new 117.8 97.3 87.5 93.4" xml:space="preserve">
<g>
	<ellipse fill="#FFFFFF" cx="196.1" cy="180.4" rx="9.3" ry="8.4"/>
	<path fill="#FFFFFF" d="M139.6,116c0,0-4.6,1-6,1.6c-1.4,0.5-9.1,6.7-12.1,10.3c-1.1,4-3.1,13.6-3.6,17.5c-0.3,2.5,2.4,3.1,3.2,3.2
		c0.2,0,3.5,0.1,3.9-2.7c0.4-2.8,3-14.5,3-14.5l10.6-6c0,0-0.9,2.3-3.1,3.8c-2.2,1.5,12.6,26.4,12.6,26.4s14.2,16.3,14.4,16.5
		c0.2,0.2,11.8,17.3,11.8,17.3s2,2.6,5.8,0.5c2.9-1.6,0.5-5.3,0.5-5.3l-9.2-16.1l-11.1-17c0,0-0.6-23.6-5.2-35.6
		C155,116,149,121.4,139.6,116z"/>
	<path fill="#FFFFFF" d="M136.1,180.4c0,0-5.6-5.1-0.8-8l14.9-8.6l6,7.1L136.1,180.4z"/>
	<path fill="#FFFFFF" d="M164,149.7l0.2,3.6l6.5,9.2C170.7,162.5,174.3,161.4,164,149.7z"/>
	<path fill="#FFFFFF" d="M159.1,118c0,0,2,3.4,2.4,11l5.6,3.9l10.3,1.7c0,0,3.3-0.2,3.6-3.2c0.2-2.6-2.9-3-3.6-3.2
		c-0.2-0.1-7.4-1.4-7.4-1.4L159.1,118z"/>
	<path fill="#FFFFFF" d="M147.5,97.3c-1.2,0-7,0.6-7,6.3s2.7,11.3,7,11.3s7-6,7-11.3C154.5,98.4,149.1,97.3,147.5,97.3z"/>
</g>
</svg>
