<?xml version="1.0" encoding="utf-8"?>
<!-- Generator: Adobe Illustrator 17.1.0, SVG Export Plug-In . SVG Version: 6.00 Build 0)  -->
<!DOCTYPE svg PUBLIC "-//W3C//DTD SVG 1.1//EN" "http://www.w3.org/Graphics/SVG/1.1/DTD/svg11.dtd">
<svg version="1.1" id="Layer_1" xmlns="http://www.w3.org/2000/svg" xmlns:xlink="http://www.w3.org/1999/xlink" x="0px" y="0px"
	 viewBox="63.1 36.6 101.9 105.6" enable-background="new 63.1 36.6 101.9 105.6" xml:space="preserve">
<g>
	<polygon fill="#FFFFFF" points="109.4,61.5 112.8,91.9 120.6,85.2 117.8,65.3 	"/>
	<path fill="#FFFFFF" d="M130.4,82.4c2.3-0.6,3.9-2.4,3.9-4.6v-4.3c0-0.2,0.1-0.4,0.1-0.5l0-2.6c0-2.6-2.4-4.7-5.2-4.7h-8.6
		l2.6,18.5L130.4,82.4z"/>
	<path fill="#FFFFFF" d="M158.2,90.1c-2.1,1.1-4.6,2-7.4,2.5c-0.1,0-0.2,0-0.2,0c-0.6,0-1.2-0.4-1.3-1c-0.1-0.6,0.3-1.3,1-1.4
		c0.4-0.1,0.7-0.1,1.1-0.2c0.4-0.1,0.7-0.2,1.1-0.3c0,0,0,0,0,0c2.3-0.6,4.6-1.6,6.5-3.2l0,0l0,0c2.7-2.2,4.7-5.7,4.7-10.9
		c0-0.7-0.2-1.3-0.7-1.7c-0.5-0.5-1.4-0.7-2.4-0.6c-0.2,0-0.5,0-0.7,0.1c-1.8,0.3-3.7,1.3-5.6,3.1l0,0c-0.2,0.2-0.5,0.4-0.7,0.7
		c-0.5,0.5-1.3,0.5-1.8,0.1c-0.1-0.1-0.2-0.2-0.3-0.4l-14.6,1.6c-0.3,2.9-2.5,5.4-5.8,6.2l-8.4,2l-10.3,8.8c-0.2,0.4-0.4,0.7-0.7,1
		c-1,1.1-2.4,1.6-3.9,1.7l-12.8,0.2c0.8,4.8,2.4,9.5,3.4,12.5c0.3,1,0.6,1.9,0.8,2.5c0.3,1,0.4,2.1,0.6,3.3c0.4,2.9,0.9,6.2,3,7.3
		c4.2,2.1,8.1,2.1,11.9,2.1l1,0c10,0,18-5.2,25.7-16.7c0.4-0.6,1.2-0.7,1.8-0.4c0.6,0.3,0.8,1.1,0.4,1.6
		c-8.2,12.3-16.7,17.8-27.6,17.9c0,6.5,0,6.5,0,13c17,1.9,34.6,0.2,49.1-13.2C153.3,113.1,154.6,106.5,158.2,90.1z M111.3,110.2
		c-1,0.5-2.1,0.8-3.2,0.8c-1.2,0-2.5-0.3-3.9-1c-0.6-0.3-0.9-1-0.5-1.6c0.4-0.6,1.1-0.8,1.8-0.5c1.7,0.8,3.1,0.9,4.5,0.2
		c0.6-0.3,1.4-0.1,1.8,0.5C112.1,109.1,111.9,109.8,111.3,110.2z M115.3,106.1c-0.2,0.5-0.7,0.8-1.3,0.8c-0.1,0-0.3,0-0.4-0.1
		l-3.1-0.8c-0.1,0-0.5,0.1-0.8,0.2c-0.6,0.2-1.4,0.5-2.3,0.5c-1,0-1.7-0.4-2.2-0.6c-0.4-0.2-0.6-0.3-0.8-0.3c-0.5,0-1.3,0.3-2,0.5
		c-0.2,0.1-0.4,0.2-0.6,0.2c-0.7,0.2-1.4-0.1-1.7-0.7c-0.3-0.6,0.1-1.3,0.8-1.5c0.2-0.1,0.4-0.1,0.6-0.2c0.9-0.3,2-0.7,3.1-0.7
		c0.8,0,1.4,0.3,1.9,0.5c0.4,0.2,0.7,0.3,1.1,0.4c0.3,0,0.7-0.1,1.2-0.3c0.7-0.3,1.5-0.6,2.5-0.3l3.1,0.8
		C115.1,104.8,115.5,105.5,115.3,106.1z"/>
	<path fill="#FFFFFF" d="M136.8,76.2l16.2-1.8c2.5-2.1,4.9-3.1,7.3-3.3c0.7-0.1,1.4,0,2,0.1c0.4-1.4,0.7-2.8,0.9-4.2L137,70
		c0,0.1,0,0.3,0,0.4l0,5.1c0,0.2-0.1,0.4-0.2,0.5L136.8,76.2L136.8,76.2z"/>
	<path fill="#FFFFFF" d="M105.8,57.2c0.1,0,0.1,0,0.2,0l0.2,0.1c0.2,0.1,0.4,0.2,0.6,0.3l12.6,5.7h9.8c3.2,0,6,1.8,7.2,4.3l28.4-3.1
		c0.1,0,0.2,0,0.3,0c0.3-3.1-1.5-6.1-2.3-9.5c-6.5-13.4-18.2-21.6-38.8-17.4c-15.9,3.2-28.8,8.9-31.6,20.6l11-1.3
		C104.2,56.9,105,57,105.8,57.2z"/>
	<path fill="#FFFFFF" d="M109.6,95c0.5-0.5,0.7-1.2,0.7-1.9l-3.5-31.5c-0.1-0.7-0.4-1.3-1-1.7c-0.5-0.4-1.1-0.5-1.7-0.5
		c-0.1,0-0.3,0-0.4,0l-38.2,4.4c-1.5,0.2-2.5,1.4-2.4,2.7l3.5,27.9c0.2,1.3,1.4,2.2,2.8,2.2l0.1,0l38.1-0.7
		C108.4,95.8,109.1,95.5,109.6,95z M102.4,67.7l-0.2-1.5c-0.1-0.5-0.3-0.9-0.7-1.2c-0.4-0.3-0.7-0.4-1.1-0.4c-0.1,0-0.2,0-0.3,0
		l-30,3.4c-1,0.1-1.7,1-1.6,1.9l0.2,1.4L66,71.7l-0.2-1.4c-0.3-2.2,1.5-4.2,3.9-4.5l30-3.4c1.3-0.1,2.4,0.1,3.4,0.8
		c1,0.7,1.6,1.7,1.7,2.8l0.2,1.4L102.4,67.7z"/>
</g>
</svg>
