<?xml version="1.0" encoding="utf-8"?>
<!-- Generator: Adobe Illustrator 17.1.0, SVG Export Plug-In . SVG Version: 6.00 Build 0)  -->
<!DOCTYPE svg PUBLIC "-//W3C//DTD SVG 1.1//EN" "http://www.w3.org/Graphics/SVG/1.1/DTD/svg11.dtd">
<svg version="1.1" id="Layer_1" xmlns="http://www.w3.org/2000/svg" xmlns:xlink="http://www.w3.org/1999/xlink" x="0px" y="0px"
	 viewBox="166.9 239.3 278.2 179.9" enable-background="new 166.9 239.3 278.2 179.9" xml:space="preserve">
<path fill="#220370" d="M292.9,307.9c56.9-84.7,113.4-37,113.4-37s-62.1-79.7-129.7,14c-64.3,87.7-109.6,36.7-109.6,36.7
	S228.9,398.5,292.9,307.9z"/>
<path fill="#220370" d="M310.9,342.2c56.9-84.7,113.4-37,113.4-37s-62.1-79.7-129.7,14C230.3,407,185,355.9,185,355.9
	S246.9,432.8,310.9,342.2z"/>
<path fill="#220370" d="M315.4,352.1c-64.3,87.7-109.6,36.7-109.6,36.7s62,76.9,125.9-13.7c56.9-84.7,113.4-37,113.4-37
	S383,258.4,315.4,352.1z"/>
</svg>
