<?xml version="1.0" encoding="UTF-8"?><svg xmlns="http://www.w3.org/2000/svg" viewBox="0 0 2778.88 310.73"><defs><style>.d{fill:#fff;}</style></defs><g id="a"/><g id="b"><g id="c"><path class="d" d="M999.3,237.27c0,3.4-1.13,6.31-3.38,8.73-2.26,2.42-5.18,3.62-8.79,3.62s-6.54-1.21-8.79-3.62c-2.26-2.42-3.38-5.32-3.38-8.73,0-3.04,1.12-5.81,3.38-8.32,2.25-2.5,5.18-3.76,8.79-3.76s6.53,1.25,8.79,3.76c2.25,2.51,3.38,5.28,3.38,8.32Zm49.78-118.51h-14.88V249.99h14.88V118.76Zm156.42,65.52c0,9.45-1.62,18.18-4.85,26.2-3.23,8.02-7.77,14.97-13.6,20.85-5.84,5.88-12.84,10.47-21.01,13.77-8.17,3.3-17.1,4.95-26.8,4.95s-18.58-1.65-26.66-4.95-15.04-7.89-20.87-13.77c-5.84-5.88-10.37-12.83-13.6-20.85-3.23-8.02-4.85-16.75-4.85-26.2s1.62-18.18,4.85-26.2c3.23-8.02,7.76-14.92,13.6-20.72,5.83-5.79,12.79-10.33,20.87-13.63,8.08-3.3,16.97-4.95,26.66-4.95s18.63,1.65,26.8,4.95c8.17,3.3,15.17,7.84,21.01,13.63,5.83,5.79,10.37,12.7,13.6,20.72,3.23,8.02,4.85,16.75,4.85,26.2Zm-15.08,0c0-7.48-1.17-14.43-3.5-20.85-2.34-6.42-5.75-11.98-10.23-16.71-4.49-4.72-9.88-8.46-16.16-11.23-6.29-2.76-13.38-4.14-21.28-4.14s-14.95,1.38-21.14,4.14c-6.19,2.77-11.54,6.51-16.02,11.23-4.49,4.72-7.9,10.29-10.23,16.71-2.34,6.42-3.5,13.37-3.5,20.85s1.16,14.44,3.5,20.85c2.33,6.42,5.74,11.99,10.23,16.71,4.49,4.72,9.83,8.42,16.02,11.09,6.2,2.67,13.24,4.01,21.14,4.01s14.99-1.34,21.28-4.01c6.28-2.67,11.67-6.37,16.16-11.09,4.48-4.72,7.9-10.29,10.23-16.71,2.33-6.42,3.5-13.37,3.5-20.85Zm-536.57,65.73h28.69V60.76h-28.69V250.01Zm-84.15-130.99c-36.17,0-65.58,29.42-65.58,65.58s29.42,65.58,65.58,65.58,65.58-29.42,65.58-65.58-29.42-65.58-65.58-65.58Zm0,104.89c-21.94,0-39.54-17.84-39.54-39.54s17.84-39.54,39.54-39.54,39.54,17.84,39.54,39.54-17.84,39.54-39.54,39.54ZM269.23,60.73h-27.92c-52.14,0-94.64,42.5-94.64,94.64s42.5,94.64,94.64,94.64h27.92V60.73ZM0,250.01H27.92c52.14,0,94.64-42.5,94.64-94.64S80.06,60.73,27.92,60.73H0V250.01ZM772.91,119.03c-13.94,0-26.87,4.38-37.5,11.82V60.76h-28.75V250.01h28.75v-11.63c10.64,7.44,23.56,11.82,37.5,11.82,36.17,0,65.58-29.42,65.58-65.58s-29.42-65.58-65.58-65.58Zm0,104.89c-17.55,0-32.29-11.42-37.5-27.09-1.31-3.93-2.04-8.11-2.04-12.46s.74-8.56,2.04-12.48c5.25-15.76,20.13-27.06,37.5-27.06,21.7,0,39.54,17.84,39.54,39.54s-17.84,39.54-39.54,39.54ZM394.91,60.72h-68.36V250.01h68.36c52.19,0,94.64-42.46,94.64-94.64s-42.46-94.64-94.64-94.64Zm0,160.59h-39.67V89.42h39.67c36.33,0,65.95,29.62,65.95,65.95s-29.62,65.95-65.95,65.95ZM943.62,119.14l-37.38,84.04-37.38-84.04h-31.35l53.05,119.25s-12.98,29.21-13.01,29.28c-3.44,7.71-12.51,11.2-20.2,7.77l-4.12-1.84-11.58,26h0l.05,.02,9.94,4.43c18.65,8.32,40.66-.14,49-18.84,.07-.15,67.94-151.82,74.31-166.07h-31.34Zm110.2-46.3c0,3.4-1.13,6.31-3.38,8.73-2.26,2.42-5.18,3.62-8.79,3.62s-6.54-1.21-8.79-3.62c-2.26-2.42-3.38-5.32-3.38-8.73,0-3.04,1.12-5.81,3.38-8.32,2.25-2.5,5.18-3.76,8.79-3.76s6.53,1.25,8.79,3.76c2.25,2.51,3.38,5.28,3.38,8.32Zm363.81,61.65l-6.99-6.99-21.2,21.2-21.2-21.2-6.99,6.99,21.2,21.2-21.2,21.2,6.99,6.99,21.2-21.2,21.2,21.2,6.99-6.99-21.2-21.2,21.2-21.2Zm308.78-13.03l10.02,33.61-19.46,64.86,28.01-16.21,14.74-48.64-5.31-17.39,30.37,17.39-2.06,1.47-9.43,31.25,56.01-32.43c-55.13-31.84-110.26-63.68-165.39-95.52l28.6,95.52-28.6,95.22,28.3-16.21,23.88-79.3-14.45-48.05,24.76,14.45Zm2.36-121.46c85.79,0,155.37,69.58,155.37,155.37s-69.58,155.37-155.37,155.37c-85.79-.29-155.37-69.87-155.37-155.37S1642.97,0,1728.76,0h0Zm0,25.35c-71.64,0-129.72,58.08-129.72,129.72s58.08,129.72,129.72,129.72,129.72-58.08,129.72-129.72-58.08-129.72-129.72-129.72Zm260.61,118.81c5.9-5.01,12.68-7.67,20.34-7.67s13.56,2.36,17.1,7.08c3.54,4.72,5.31,12.38,5.31,22.41v58.37h22.41v-59.26c.29-9.14,3.24-16.21,8.84-21.23s12.09-7.37,19.75-7.37c16.21,0,24.47,10.02,24.47,29.48v58.37h22.41v-65.15c0-13.86-3.83-24.47-11.2-31.84-7.37-7.37-17.1-10.91-29.19-10.91-15.92,0-28.89,7.08-39.5,20.93-5.9-13.86-17.39-20.93-34.2-20.93-7.37,0-14.45,1.77-20.93,5.6-6.49,3.54-11.2,8.84-14.45,15.33v-19.46h-22.41v106.43h22.41v-57.49c0-10.02,2.95-17.39,8.84-22.7Zm172.76-47.17c-2.65-2.65-4.13-6.19-4.13-10.02s1.47-7.08,4.13-10.02c2.65-2.65,6.19-4.13,10.02-4.13s7.08,1.47,10.02,4.13c2.65,2.65,4.13,6.19,4.13,10.02s-1.47,7.08-4.13,10.02c-2.65,2.65-6.19,4.13-10.02,4.13-3.83,0-7.08-1.47-10.02-4.13Zm21.23,127.36h-22.41V117.92h22.41v106.43Zm54.54-148.29h-22.41V224.35h22.41V76.06Zm54.83,0h-22.41V224.35h22.41V76.06Zm33.9,20.93c-2.95-2.65-4.13-6.19-4.13-10.02s1.47-7.08,4.13-10.02c2.65-2.65,6.19-4.13,10.02-4.13s7.08,1.47,10.02,4.13c2.65,2.65,4.13,6.19,4.13,10.02s-1.47,7.08-4.13,10.02c-2.95,2.65-6.19,4.13-10.02,4.13-3.83,0-7.37-1.47-10.02-4.13Zm20.93,127.36h-22.41V117.92h22.41v106.43Zm124.71-17.98l-13.27-14.45c-8.84,9.14-17.98,13.56-28.01,13.56s-18.28-3.54-25.06-10.32c-6.78-6.78-10.32-15.04-10.32-24.76s3.54-17.69,10.32-23.88c6.78-6.19,14.74-9.43,24.17-9.43s18.57,4.13,27.71,12.09l13.27-16.21c-11.2-10.91-24.76-16.51-40.68-16.51s-29.48,5.01-40.68,15.33c-11.2,10.32-16.8,23.58-16.8,39.8s5.31,29.48,15.92,39.5c10.91,10.02,23.58,15.04,38.33,15.04,16.8,0,31.84-6.49,45.11-19.75Zm108.2,17.98h-20.34v-14.15c-8.84,10.61-20.64,15.92-35.38,15.92-11.2,0-20.34-3.24-27.42-9.43-7.37-6.19-10.91-14.74-10.91-25.06s3.83-18.28,11.5-23.58c7.67-5.31,18.28-7.67,31.25-7.67h28.89v-4.13c0-14.15-7.96-21.23-23.58-21.23-9.73,0-20.05,3.54-30.66,10.91l-10.02-13.86c12.97-10.32,27.71-15.33,43.93-15.33,12.38,0,22.7,3.24,30.66,9.43,7.96,6.19,11.79,16.21,11.79,29.78v68.4h.29Zm-22.41-39.5v-9.14h-25.06c-16.21,0-24.17,5.01-24.17,15.33,0,5.31,2.06,9.14,5.9,11.79,4.13,2.65,9.43,4.13,16.8,4.13s13.27-2.06,18.57-5.9c5.31-4.13,7.96-9.43,7.96-16.21Zm118.51-14.45c-3.54-2.36-6.78-4.13-10.02-5.6-3.24-1.18-6.49-2.36-9.73-3.54-3.24-1.18-7.08-2.06-11.5-3.24-4.13-1.18-7.67-2.36-10.02-3.54-3.54-1.77-5.31-4.13-5.31-7.67,0-4.13,1.77-6.78,5.01-8.84s7.67-2.95,12.97-2.95c10.32,0,19.75,2.95,28.3,8.55l8.25-16.51c-10.91-7.37-22.7-10.91-34.79-10.91s-22.11,2.95-29.78,8.84c-7.67,5.9-11.5,13.86-11.5,23.58,0,14.15,11.2,24.17,33.31,30.07,.59,.29,1.18,.59,2.36,.88,14.15,4.42,21.23,9.14,21.23,14.45,0,3.54-1.47,6.49-4.42,8.84-2.95,2.36-7.08,3.54-12.09,3.54-11.5,0-23.58-4.42-35.97-13.86l-10.91,17.39c6.49,5.01,13.86,9.14,22.11,11.79,8.55,2.65,16.51,4.13,24.17,4.13,11.5,0,20.93-2.95,28.3-9.14,7.37-5.9,10.91-14.15,10.91-24.17s-3.54-17.39-10.91-22.11Zm63.97-34.49h28.01v-17.98h-28.01v-33.31h-22.41v33.31h-13.27v18.28h13.27v53.07c0,11.2,3.24,20.05,10.02,26.83,6.78,6.78,15.04,10.02,24.47,10.02s18.28-3.54,26.24-10.61l-9.14-15.92c-4.42,4.72-9.14,7.08-13.86,7.08s-8.55-1.47-11.2-4.42c-2.65-2.95-4.13-7.08-4.13-12.09v-54.25Z"/></g></g></svg>