<?xml version="1.0" encoding="utf-8"?>
<!-- Generator: Adobe Illustrator 17.1.0, SVG Export Plug-In . SVG Version: 6.00 Build 0)  -->
<!DOCTYPE svg PUBLIC "-//W3C//DTD SVG 1.1//EN" "http://www.w3.org/Graphics/SVG/1.1/DTD/svg11.dtd">
<svg version="1.1" id="Layer_1" xmlns="http://www.w3.org/2000/svg" xmlns:xlink="http://www.w3.org/1999/xlink" x="0px" y="0px"
	 viewBox="-11.4 242.1 613.5 300" enable-background="new -11.4 242.1 613.5 300" xml:space="preserve">
<g id="Layer_1_1_">
	<path fill="#E6E7E8" stroke="#939598" stroke-width="0.5" stroke-miterlimit="10" d="M409,257.6c-1.3-0.3-3.1-1.3-4.2-0.3
		c0-0.4-0.1-0.4,0-0.8c-0.9-0.1-1.4,0-2,0.1c-0.3,0.9,0,1.1-0.3,2C404.5,258.3,407.3,258.6,409,257.6L409,257.6z M575.9,505.4
		c0.1-0.4,0.4-0.7,0.6-1c-0.1,0-0.4,0-0.4-0.1c0.1-0.4,0.6-0.4,0.8-0.4c-2.3-0.3-2.4,2.4-4.5,2.5c-3.1,3.8-9.6,4.2-13.2,7.6
		c-0.3-0.1-0.1,0-0.4,0c-0.3,0.3-0.6,0.7-0.6,1c-0.4,0-0.6,0.1-0.8,0.1c-0.1,0.4,0,0.4-0.1,0.8c0.6,0.1,1.1,0.1,1.6-0.1
		c0.1,0.3,0,0.1,0,0.4c0.3,0,0.4,0,0.7,0c0,0.3-0.1,0.3-0.1,0.4c6.1,0.4,7.5-6,12.9-6c0.1-0.4-0.3-0.3-0.3-0.4
		c2.1-1.8,5.2-3.1,6.7-5.4C577.4,504.2,576.7,505.2,575.9,505.4L575.9,505.4z M367.8,443.3c0.4,0.1,0.3-0.7,0-0.6
		c-0.1,0.6-0.4,1.1-1,1.1c0.7,0.4,0.1,1.1,0.1,1.8c-0.4,0.3-0.9,0.3-1,1c-0.3-0.1-0.1-0.7-0.6-0.6c-0.3,0.3-0.1,1,0.1,1.3
		c-0.4,0-0.4,0.4-0.7,0.6c0.3,0.6-0.1,1.1-0.4,1.4c0-0.1,0.3-0.7,0-0.9c-0.4,0.6-0.6,1-0.7,1.4c0,0.1,0,0.1-0.1,0.3
		c0-0.1,0-0.1,0.1-0.3c0-0.1-0.1-0.3-0.3-0.3c-0.6,0.4-1.4,1-1,1.7c-0.4,0,0-0.7-0.4-0.6c-0.3,0.1-0.1,0.3-0.3,0.3
		c-0.3-0.6-0.9,0.3-1.3,0.4c0-0.1,0-0.3-0.1-0.3c-0.3,0.4-1,0.6-1.7,0.7c0.3,1.3-0.9,1.8-1,3c0.6,2.8,1.1,5.4-0.4,7.6
		c-0.1,0.1-0.6,0.1-0.7,0.3c-0.9,1.6-0.6,3.3,0.3,4.7c-0.9,2.4,0.9,4,2.5,4.5c1-0.6,2.3-0.9,3.4-1.3c1.8-5.4,4.4-10.8,5.4-16.6
		c0.3-0.3,0.1-0.9,0.7-0.9c0.6-1-0.7-2.3,0.3-3c0,0.6,0.1,1,0.6,1.1C370.2,449.1,369.3,444.7,367.8,443.3L367.8,443.3z M490.6,434.8
		c0.4,0.6,1.4,1,1.3,1.4c0.3-0.4,0.6-0.7,1-0.9c0-0.7-0.6-0.6-0.9-1c-0.6,0.4-1,0.3-1.6,0c0-0.3,0.1-0.3,0.1-0.4
		c-0.7-1-2.5,0.6-3.1-0.7c0-0.1,0-0.4,0.3-0.6c1,0.1,1.8,0,2.3-0.7c-0.7,0-2.3-0.1-2.8,0.3c-0.6-0.6-1.8-0.7-2.8-0.9
		c0-0.3-0.1-0.6-0.4-0.6c-0.7,0-0.4,1-1,1.1c-1-0.3-2.1-0.3-3.3-0.3c-0.1-0.6-0.4-0.7-0.6-1.1c-1,0.4-1.4-0.4-2.4-0.7
		c-0.1,0.7-1.7,0.1-1.8-0.1c-0.4,0.9-0.6,1.4-1.1,2c0-0.4-0.3,0-0.4-0.1c0.6,0.7,1.8,0,2.4,0.7c0,0.3-0.4,0.3-0.3,0.6
		c5.4,1.4,10.2,1.7,15.4,3.1C490.7,435.7,490.2,435.2,490.6,434.8L490.6,434.8z M472.5,429c0.3,0.3,0.6,0.6,1,0.6
		c0-0.3,0-0.6,0.3-0.7c0.3,0.4,0.4,0.7,0.9,1c0.7-2.4,0-4.2,0.9-6.2c-0.4-0.3-0.7-0.7-0.9-1.3c-0.4-0.1-1-0.1-1.6-0.3
		c0.1-0.1,0.1-0.3,0.1-0.6c-0.3,0-0.4-0.1-0.7-0.4c0.3-0.4-0.1-1-0.1-1.7c-1,0-1.6-0.1-2-0.9c0.1-0.3,0.4-0.3,0.4-0.6
		c-0.1,0-0.3,0-0.3-0.1c0.1,0,0.1-0.3,0.1-0.4c0.3-0.1,0.6,0,0.7-0.3c-0.1-0.4-0.4-0.9-0.9-1c-0.4-0.1-0.6,0.6-0.7,0.3
		c-0.9-0.6-1.7-2.3-3-2.7c-0.3-0.6-0.3-1.3-1.1-1.3c-0.3-0.1,0.1,0.6-0.3,0.4c-0.4-0.3-0.7-0.9-1-1.4c-0.3,0-0.3,0.1-0.4,0
		c-0.6-1.7-2.4-2-3.4-3.1c-0.1-2.6-4.1-2.3-5.8-3c0.3,3.5,4.2,3.5,4.8,6.9c0.9,0.4,1.7,0.9,2.3,1.6c-0.3,0.6,0.7,1.7,0.6,3
		c3.3,1.7,2.5,6.5,5.7,8.4c1.1,2.1,3.3,3.1,4.5,5C472.7,429.6,472,429.3,472.5,429L472.5,429z M507.5,398.5c-0.4,0-0.3,0.7-1,0.4
		c-0.1,0.6,0.1,0.7-0.3,0.9c-1.7,0-1.3,1.3-1.7,2.4c0.3,0,0.1,0.3,0.6,0.3c0.3-0.9,0.1-1.7,1-1.8c0,0.3,0,0.4,0,0.7
		c0.6,0.1,0.3-0.4,0.7-0.4c-0.3,0.4,0.3,0.3,0.6,0.6c-0.3-0.4-0.1-0.4,0.1-1c0.6,0.3,1.1,0.4,1.3,1.1c-1.4,1.1,1,4,2.1,2.6
		c0,0.6-0.1,0.9,0.3,1c0.9-0.6,0.6-1.8-0.1-2.4c0-0.3,0.1-0.6,0.3-0.7c0.3,0,0.1,0.3,0.3,0.3c0.3-0.6-0.6-0.7,0-1
		c0.4,0.6,0.4,1.7,1,2.3c0.6-2.1,0.6-2.8,0-4.8c0-0.1-0.6,0-0.6-0.3c0.1-0.1,0.4-0.3,0.4-0.6c-0.1-0.1-0.4-0.4-0.3-0.9
		c-0.9-0.1-0.9-1-1.7-1.1c-0.1,0.7,0.4,1,0.3,1.7c-0.6-0.1-0.7-0.1-0.9,0.3c-0.1-0.1-0.3-0.4-0.6-0.3c-0.1,0.3,0.1,1-0.1,1
		c-0.3,0-0.3-0.3-0.6-0.3c-0.1,0.3-0.1,0.7-0.3,1c-0.1,0-0.4,0-0.4,0.1C508.4,399,507.7,398.8,507.5,398.5L507.5,398.5z
		 M502.5,377.7c0,0.3-0.1,0.4-0.3,0.4c-1.1-0.1-1.6-1-2.7-0.6c-0.3,1.8,0.4,4,0.3,5.4c-0.6,0-0.6-0.6-1-0.7c-0.1,1.4,0.7,2,1,3.5
		c0.3,0,0.3-0.1,0.3-0.3c0,0.6,0.1,1,0.7,1c0.3-0.3-0.3-0.4-0.1-0.9c0.4,0.1,0.9,0.1,0.9,0.7c-0.4,0-0.3,0.4-0.7,0.4
		c0.1,0.4,0.1,0.8,0.3,1c0-0.1,0.1-0.3,0.3-0.3c0,0.6,0.6,0.1,0.4,0.7c0.4,0,0.6-0.1,0.9-0.1c0-0.1,0-0.4,0.1-0.4
		c1-0.1,1.6,1,2.3,1.6c0.3-0.6-0.4-1-0.4-1.7c0.6,0.7,1.4,0.7,1.7,2c1-0.1,1,0.9,1.7,1c0.1-0.4,0.1-1,0-1.3
		c-0.1,0.3-0.6-0.4-0.7,0.1c0.3-0.7-0.3-0.9-0.6-1.3c0.1-0.1,0.6-0.1,0.9-0.1c-0.3-0.6-1-0.4-1.4-0.9c-0.3,0.3,0.1,0.3,0.1,0.7
		c-0.1,0-0.3,0-0.4,0c0.3-1.1-1.3-1.6-1.7-1c0,0.3,0.4,0.4,0,0.6c-1.4-0.7-0.9-2-1.7-3c0.1-0.3,0.6-0.9,0.1-1c0-0.3,1-1,0.7-0.4
		C504.5,381.4,502.6,379.1,502.5,377.7L502.5,377.7z M131.8,374.9c2.4-0.6,5.2,0.4,6.9-1c-1-0.6-2.1-1.3-3-1
		c0.4-0.3,0.3-0.1,0.3-0.7c-2.6,0.1-3.3-2.8-5.4-3c1,0.1,1.6,1.1,1.8,1.6c-0.8-0.4-1.3-1.6-3-1.3c-0.1-1.1-1.6-1-2.3-1.7
		c-2.4,0-6.5-0.1-7.2,2.3c-0.4,0.1-1,0-1,0.6c0.4,0.1,0.3-0.3,0.8-0.3c0,0.1-0.1,0.1-0.1,0.3c1.7-0.4,3.4-2.8,5.7-1.7
		c-0.1,0.1-0.7,0.1-1,0.1c0.3,0.6,1.6,1,1.8,0.6c1.4,0.4,2.7,1.7,4.3,1.1c0,1.4,0.8,2.4,2.3,2C133.6,374,131.9,374,131.8,374.9
		L131.8,374.9z M262.1,308c2.4-0.1,4-1.4,6-1.7c0.3-0.7,1-2.6,0.3-3.5c0.6,0.1,1.3-0.6,1.7-1c-0.3-0.6-0.7-0.6-0.9-1.4
		c-0.9-0.3-1.4,0.4-1.8-0.3c-1.3,0.3-2,0.6-2.7,1.6c0.1,0.1,0.7,0,0.9,0.3c-0.4,0.3-1.1,0.4-1.6,0.7c0-0.7-1-0.3-1.4-0.3
		c-0.1,0.1-0.1,0.6-0.3,0.7c0.4,0.3,0.7,0,1,0.3c-0.4,0.1-0.7,0.4-1,0.7c0.1,0,0.1,0.1,0,0.3c0.7,0,1.1,0.4,1.7,0.3
		c-0.7,0.3-1,1.1-1.7,1.4c0.3,0.1,0.4-0.3,0.4,0c-0.6,0-0.1,0.4-0.6,0.6c0.1-0.4-1.3,0-0.7,0.3c0-0.1,0.7-0.1,0.7,0
		c-0.4,0-0.6,0.3-0.9,0.4c0.3,0,0.3,0.3,0.7,0.1c0,0.1-0.1,0.1-0.3,0.3c0.3,0.1,0.6-0.3,0.7,0C262.1,307.6,262.2,307.9,262.1,308
		L262.1,308z M268.5,296c0.6,0,1.1,0.9,1.6,0.6c-0.1,0.6-0.9,0.4-1,1.1c0.1,0,0.3,0,0.3,0.1c-0.1,0.3-0.4,0-0.4,0.3
		c0.9,0.1,1-0.3,1.6-0.6c-0.1,0.6-0.4,0.4-0.3,1c-0.6,0-1.1,0.3-1.6,0.9c0.4-0.1,0.4-0.1,0.3,0.3c0.6,0,0.6-0.7,1-0.8
		c0.3,0.6-0.1,0.7-0.3,1.4c0.9-0.1,0.6-1.3,1.1-1.3c0.4,0.1,0.4,0.7,0.7,1c-0.6,0.1-0.6,0.8-1,1c0,0.3,0.4,0.8,0.6,0.6
		c-0.3-0.4,0.6,0,0.7,0.1c0.3-0.4,1.1-0.3,1.7-0.7c-0.1,0.4-0.6,0.6-0.6,1c0.3,0.3,0.3,0.7,0.7,1c0.1-0.3,0.4-0.1,0.4-0.1
		c-0.3,1.4-1.4,2-3,1.6c-0.1,0.4,0.3,0.3,0.3,0.7c-0.3,0.1-0.6,0.1-0.6,0.4c0.4,0,0.7-0.1,1-0.3c0.6,1.3-1,1.6-2,2
		c0,0.4,0.3,0.1,0.1,0.6c0.6,0.3,0.9-0.1,1.4-0.1c0,0.1,0.1,0.1,0,0.3c0.4,0,0.6-0.1,0.9-0.1c0.3,1,1.4,0,1.8,0.1
		c-0.4,0-0.6,0.6-0.9,0.7c-1-0.3-1.6,0-2.3,0.3c-0.1,1.3-1.6,1.1-2.1,2.1c0.4-0.4,0.7,0.1,1,0c0.3-0.6,1.7-1,2.3-0.3
		c0.1-0.9,1.4-1.6,2.1-0.7c0.4-0.3,1.3-0.3,2.1-0.1c0.1-0.1,0-0.4,0.3-0.4c1.1,0.3,2.8,0,4-0.6c-0.1-0.4,0.1-0.4,0.1-0.7
		c-0.3,0.1-0.9,0.3-1-0.1c0.3-0.1,0.3-0.4,0.3-0.6c0.9-0.3,1.4-0.9,1.3-2c-0.4-0.6-1.8-0.7-2.3-0.1c-0.1,0-0.1-0.1-0.3-0.3
		c0-0.3,0.6-0.1,0.4-0.6c-0.4-0.9-0.7-1-0.7-2c-2.1-0.6-2-4.4-4.7-3.7c0.3-0.3,0.9-0.3,1.1-0.6c-0.1,0-0.3-0.1-0.3-0.3
		c0.9-0.4,1.3-1.4,1.7-2.3c-0.9-0.7-2.3-0.3-3.4-0.1c0.3-0.3,0.4-0.4,0-0.6c0.7-0.4,1.6-0.9,1.7-1.6c-1.1,0-2.3,0.4-3,0
		c-0.3,0.1-0.1,0.9-0.7,0.9c0.3,0.6-0.6,0.3,0,0.6c-0.3,0.1-0.6,0-0.9,0.3c-0.1,0.4,0,1-0.1,1.1c-0.1,0-0.3-0.1-0.3-0.3
		c0-0.4-0.1-0.6-0.3-0.7C269,295.8,268.5,295.3,268.5,296L268.5,296z M159.9,283.7c0.8-0.1,1.3,0.3,1.8,0.4c0.4-0.3,1-0.6,1.7-0.6
		c0-0.4-0.4-0.4-0.4-0.9c-0.4,0.1-1,0.3-1.6,0.1c1.8-0.8-0.7-1.3-1-2.1c-0.3,0-0.6,0-0.8,0c0.3-0.3-0.3-0.4-0.3-0.7
		c0.4,0,0.3-0.4,0.3-0.9c-0.7,0-0.7,0.7-1.3,0.1c-1.4,0.9-2.6,2.1-3.5,3.5c-0.8,0.1-1.8,0.3-2.1,1c0.9-0.1,1.7-0.3,2.3-0.3
		c0,0.6-0.6,0.4-0.6,1c2.1,0,3.4-1.7,5.1-1.8c-0.1,0-0.3,0.1-0.4,0.3c0.1,0.3,1-0.3,1,0.3C160.1,283.4,159.9,283.4,159.9,283.7
		L159.9,283.7z M246.9,283c-0.1,0.1-0.1,0.3-0.1,0.6c2.6-1,5,2,7.1,0.1c2.7-0.4,5-1,6.8-2.7c-0.4-0.1,0-0.4-0.1-0.9
		c-0.3,0-0.6-0.1-1-0.1c0.1-0.7-0.4,0-0.6-0.3c0.3,0,0.4-0.1,0.3-0.3c-0.1-0.3-0.7,0-0.7-0.3c0.3-0.1,0.6-0.3,0.9-0.4
		c-1,0-1.6,0.7-1.7-0.3c-0.3,0-0.7,0-1,0c0,0.3,0.3,0.3,0.1,0.6c-0.7,0.1-1.3,0-1.7,0.4c-0.1-0.3-0.4-0.6-1-0.4
		c-0.3,0.1,0.3,0.4-0.3,0.4c-0.1-0.1-0.1-0.4-0.3-0.4c-0.6-0.1-0.4,0.4-1,0.3c-0.1,0.1,0,0.6-0.3,0.6c-0.6,0-0.3-0.9-1-0.7
		c-0.3,0.1,0.1,1.1-0.4,1c-0.1,0-0.1-0.3-0.3-0.3c-0.3,0.3-0.6,0.6-0.7,0.9c-0.1-0.6,0-0.4-0.3-0.9c0.3,0,0.3-0.3,0.3-0.6
		c-0.7-0.1-1.6-1.3-2.4-0.6c0.3,0.1,0.3,0.4,0.4,0.4c-0.3,0.3-0.4-0.4-1-0.3c-0.4,0.1-0.7,0.6-0.7,0.8c-0.1,0-0.1-0.1-0.3-0.1
		c0,0.1,0,0.3,0,0.4c-0.3-0.3-0.6,0-0.7,0.3c1.4,0.3,2.7-0.4,3.7,0.1c-0.4,0-0.6,0.3-1,0.3c0,0.3,0.1,0.3,0.3,0.3
		c-0.9,0-1.8,0.3-2.6,0.3c0.4,0.7,1.3,0,2.3,0.3c-0.4,0.6,0.3,0.6,0.4,0.6c-0.6,0.1,0,0.4,0.1,0.6
		C247.8,282.8,247.4,283.2,246.9,283L246.9,283z M116.3,269.1c0.1,0.4-0.3,0.6-0.3,1c4.5,0,7.4-2.8,11.9-3.1c-1,0.3-2,0.6-3,0.8
		c-0.1,0.4,0.4,0,0.3,0.3c-1.1,0.1-2.3,0.3-2.6,1.1c0.3-0.1,0.8-0.1,1,0.1c-0.3,0-0.4,0-0.4,0.3c1.1,0.1,2.4-0.3,3.1-0.1
		c-1.3,0.4-3.4,0.1-4.2,1c0,0.1,0.4,0.1,0.3,0.4c2.6,0.3,5.5-0.7,7.2,0.4c-2.5,0.3-9.2-0.7-8.1,1.7c1.3,0.4,2.3-0.1,3.3,0.3
		c0,0.4-0.6,0.3-0.6,0.7c0,0.6,0.3,0.3-0.1,0.6c4,0,7.8-0.6,11.2-1.7c0,0.3-0.4,0.1-0.4,0.4c0.6,0,1.3,0,1.7,0.3
		c-0.3,0-0.4,0-0.4,0.3c1.7,0.1,3.8,0.3,5.2-0.4c-0.4-0.4,0-0.1,0.3-0.6c-0.4-0.3-0.8,0.1-1.3,0.1c-0.1-0.1-0.3-0.3-0.4-0.4
		c0.4,0,0.6,0.4,1.1,0.3c0.1-0.3,0.6-0.4,1-0.6c0.4,0.6,0.6,0.1,1.4,0.3c0.4-0.1,0.6-0.6,0.9-1c-0.6-0.1-1,0.4-0.7-0.3
		c-0.7,0.1-0.8-0.4-1.3-0.7c-0.3,0.1-0.1,0.3-0.3,0.3c-0.4-0.1-0.7-0.6-1-1c0.6-0.1,0.9-0.6,1.3-0.8c-0.3-1,0.7-1.4,1-2.3
		c-0.3-0.3-0.7-0.3-0.8-0.7c-2.7-1.1-3.1,3.3-5,2.7c0.4-0.4,0.6-0.9,1-1.4c-0.4-0.4-1.1-1-1.8-0.7c0.3,0.6,0,0.3,0.3,0.8
		c-0.3-0.1-0.4,0.3-0.4,0c0.1,0,0.3,0,0.3-0.1c-0.9-0.1-1.6,0.4-1.8,0.3c0.1-0.3,0.7-0.3,0.7-0.7c-1.6-0.9-2.7,0.1-4.1,0.1
		c0.7-0.1,1.3-0.4,1.6-1c-1.3-0.6-3.4,0.7-4.8,0.3c1.3-0.1,2.6-0.4,3.7-0.7c-0.1-1.4-2.3-1.7-3.5-1c-1-0.9-6.8-1.4-7.1,0.6
		c-0.8,0.4-2.6,0.7-2.8,1.4c-1.6,0.4-2.7,1.1-4,1.7C115.3,268.4,115.6,268.9,116.3,269.1L116.3,269.1z M149.6,265.8
		c0,0.6,0.6,0.3,0.9,0.6c-0.3,0.1-0.3,0.6-0.6,0.7c-0.6-0.1-0.7,0.1-1.1,0.1c-0.1-0.3-0.3-0.4-0.3-0.7c-0.9,0-1.4,0.3-1.7,0.9
		c0.3,0.3,0.6,0.3,0.4,0.7c0.4,0.1,0.4-0.1,0.7-0.1c0.4,0.4,1.3,0.9,0.9,1.7c0.6,0.1,1.1,0,1.8-0.3c0.1-0.3-0.3-0.4,0-0.6
		c1.6,0.7,3.8-0.4,4.1-1.7c-0.3,0.4-0.8-0.1-0.3-0.3c-0.3-0.1-0.7,0-1-0.3c0.7,0,1-0.4,1.8-0.3c-0.4-0.6,0.9-0.3,1-0.7
		c0-0.4-0.7-0.1-0.9-0.3c0.3,0,0.6,0,0.6-0.3c-1,0.1-2.8,0.1-2.6,0.7c-0.9-0.6-1.8-0.3-2.7,0.1c0.1,0.1,0.4,0.1,0.3,0.3
		C150.6,265.5,149.9,265.8,149.6,265.8L149.6,265.8z M352.9,270.1c-0.1,0-0.4,0-0.4,0.1c0.6,0,0.3,0.3,0,0.3
		c0.6,0.1,1.3,0.3,1.8,0.1c0.6,0.4,3.1,0.7,4,0c-3.5-0.4-5.5-3.5-2.1-5.1c0.1-0.3-0.4-0.4-0.1-0.4c0.1,0.3,0.7-0.3,0.9-0.4
		c-0.1,0-0.6-0.3-0.3-0.3c0.7,0.4,0.4-0.6,1.3-0.1c0.1-0.3,0.4-0.4,0.9-0.4c1.6-2,6.5-1,8.6-3c-0.9-1-2.8-0.7-4-0.3
		c0,0.3,0.1,0.3,0.3,0.3c-1.6,0-3.5,0.9-5.7,0.3c-0.3,0.1,0.1,0.4-0.1,0.4c-1-0.1-3.5,0.4-3.4,1.1c-0.3-0.3-1.6-0.1-0.9,0.3
		c-0.3,0.3-0.7-0.1-1.3,0c-0.1,0.6,0.7,0.1,0.9,0.4c-0.3,0-0.4,0.1-0.4,0.3c0.3,0,0.7-0.1,0.9,0.1c-0.3,0-0.7,0-1,0
		c-0.1,0.4,0.4,0.1,0.3,0.4c-0.7,0.3-1.1,1-2,1.1c0.3,0.3,0.9,0.1,1,0.3c-0.1,0-0.1,0.1,0,0.3c-0.4,0-0.6,0.3-1,0.3
		c0,0.4-0.1,0.6-0.9,0.7c-0.1,0.6,0.6,0.3,0.7,0.6c-0.1,0.1-0.3,0.4-0.4,0.7c-0.4,0-0.6-0.1-1,0
		C349.4,270.5,351.8,268.8,352.9,270.1L352.9,270.1z M162.8,260.6c-0.4,0-0.6-0.3-0.7,0.1c0.7,0,0.8,0.4,1,0.9c1.1-0.1,2.1,0,3-0.3
		c0.1,0.3-0.1,0.6,0.3,0.9c-0.8,0.6-1.8,0.7-1.8,1.8c1.1,0.3,3.4,0.4,4.4-0.1c0,0.3-0.6,0-0.4,0.4c1.7,0,5.4,0.4,7.2-0.6
		c0,0.3-0.1,0.3-0.1,0.4c1.8,0.6,3.8-0.3,5.2-0.6c-0.1-0.1-0.3-0.3-0.3-0.3c0.6,0,1-0.1,1-0.6c-0.4-0.1-0.8-0.6-1.6-0.3
		c0-0.1,0.1-0.1,0.1-0.3c-2.6,0-5.4,0-6.8,0.7c-1.1-0.1-1.7-0.4-2.6-0.1c0-0.3-0.1-0.3-0.3-0.3c-0.4-0.1-0.6,0.6-1,0.3
		c0-0.3,0.6,0,0.4-0.4c-0.6,0-0.7-0.3-0.9-0.4c0.6,0,1.6,0.1,1.7-0.3c-0.6,0.1-0.7-0.1-1.1-0.1c0-0.1,0.1-0.1,0.1-0.3
		c-1-0.3-2,0.1-3,0C166.7,259.9,162.5,259.7,162.8,260.6L162.8,260.6z M458.3,261.6h-0.1C458.1,261.6,458.1,261.6,458.3,261.6
		s-0.3,0-0.3,0.1c0.3,0.3,0.6,0.4,1,0.6c-1.7-0.3-4-1.7-5.1-0.4c0.7,1.3,3.1,1.8,5.5,2.1c0.1-0.3-0.3-0.4,0-0.4
		c1.7-0.1,4.4,0.8,5.7-0.6c0.1-0.3-0.6,0.1-0.4-0.3c-0.1-0.3,0.6,0.1,0.4-0.3C462.7,262,460.3,261.8,458.3,261.6L458.3,261.6z
		 M139.8,261c-2.1-0.1-4,0.7-5.7,1.6c0.4,0.1,1.1-0.1,1.3,0.1c-1,0-2.3-0.1-2.7,0.4c0.3,0.1,1.3,0.1,1.6,0c0,0.1-0.1,0.1-0.1,0.3
		c0.6,0.1,0.7,0,1-0.3c0.3,0.9,1.8-0.3,2.3-0.1c-0.3,0.6,2-0.3,3,0.3c-1.7,0.1-3.4,0.3-4.8,0.6c2.1,1.4,5.7-0.4,8.2-0.6
		c1.6,0.7,4.8-0.1,5.8-1.4c-0.6-0.6-1.6-0.1-2.1,0.3c0-0.3-0.6-0.3-0.7-0.7c0.6-0.1,0.6-0.7,1-1c-1.4,0-2.4,0.4-3.4,1
		c0.1,0.1,0.7,0,0.7,0.3c-0.4,0.1-1.1,0-1.3,0.3c0.3,0.1,0.8,0,1,0.3c-0.7,0.4-2.1-0.1-3.1,0.1c0-0.3,0.3-0.3,0.3-0.4
		c-0.3-0.1-0.4-0.4-0.7-0.7c-0.6,0-1.1,0-1.6,0.1C139.7,261.3,140.4,261,139.8,261L139.8,261z M152.1,262.5c1.1,0,2.6-0.4,3.7-0.1
		c-0.8,0-1.6,0.1-1.7,1c0.9,0.1,2-0.1,3.1,0c0-0.7,0.1,0,0.4-0.1c0-1.1,1.7-0.3,1.3-1.1c0.9-0.3,1.1-0.7,1.6-1.3
		c-0.4,0.1-0.6-0.1-0.8-0.3c-0.4,0-0.7,0.3-1,0.3c-0.3-0.6-2.4-0.6-2.8-0.1c0.1,0,0.4,0,0.6,0c0,0.6,0.3,0.7,0.1,1
		c-0.3-0.3-0.6-0.3-0.6-0.9c-1.3-0.4-1.7,0.6-1.7,1c-0.4-0.7-1.6-0.1-2.4-0.1C152.3,262.5,152.7,262,152.1,262.5L152.1,262.5z
		 M160.1,258.4c-0.1,0.3,0,0.1,0,0.4c0.9,0,1.8,0,2.3-0.3c0-0.3-0.1-0.4-0.3-0.6c0.1-0.1,0.6-0.1,0.7-0.3c-0.3-0.4-1-0.3-1.3-0.3
		c0.1,0,0.3-0.1,0.3-0.3c-0.4-0.1-1.3-0.3-1.7,0c0-0.1,0-0.3,0-0.4c-1.1-0.1-3-0.3-3.7,0.4c0.1,0,0.7-0.1,0.7,0.1
		c-0.3,0-0.6,0-0.6,0.3c0.6,0.1,1-0.6,1.4-0.1c-0.1,0-0.4,0-0.4,0.1c0.1,0,0.4,0,0.4,0.1c-0.7,0-0.6,0-0.1,0.3
		c-0.9,0.1-1.8-0.4-2.1,0.3C157,258.4,158.9,257.7,160.1,258.4L160.1,258.4z M303.7,255.8c0.6,0.3,1.6,0.1,2.3,0.3
		c-0.1,0-0.3,0-0.3,0.1c2.5,0.3,6.4,1.1,8.9-0.6c-1.8-0.7-3.4-0.6-5-0.4c0.1,0,0.3,0,0.3-0.1c-0.1-0.4-1-0.1-1.3,0
		c0.4,0,0.1,0.4,0.1,0.4c-0.9-0.4-2.3-0.4-3.4-0.7c-0.1,0.4,0.4,0,0.3,0.3c-0.4,0.1-0.9-0.4-1,0c0.1,0,0.7,0.1,0.3,0.3
		c-0.3-0.1-1.4-0.3-1.7,0c0.4,0,0.7,0,1,0.3C304,255.6,303.7,255.6,303.7,255.8L303.7,255.8z M392.6,255.9c0-0.1-0.1-0.3,0-0.3
		c0.3,0,0.7-0.3,1,0c-0.6,0-0.4,0.3-0.1,0.3c-0.6,0-0.7,0.3-1,0.4c2,0,6,1.7,9.1,0.7c-1.4-0.6-1.4-1.8-3.7-1.7c0,0.1,0.1,0.3,0,0.3
		c-0.1-0.3-0.6,0-0.6,0.1c0-0.1,0-0.4,0.1-0.4c-0.4-0.1-0.9-0.1-1.4-0.1c0.4-0.4-0.7-0.3-0.7-0.7c0.3,0,0.7,0.1,0.9-0.1
		c-2.3-0.4-4.5-1.4-6.4,0c0.1,0,0.6-0.1,0.6,0.1c-0.1,0-0.1,0.1,0,0.3c-0.6,0-1,0-1.1,0.3c0.3,0.1,1-0.1,1,0.1
		c-0.1,0.3-1-0.1-1.1,0.3C390,255.9,391.4,256.3,392.6,255.9L392.6,255.9z M169.7,256.2c-0.3,0-0.6,0-0.6,0.3c0.1,0,0.4,0,0.3,0.3
		c0.6,0,1-0.1,1.4-0.3c0,0.1-0.1,0.1-0.1,0.3c0.8,0,1.3-0.4,2.1-0.1c-0.1,0-0.3,0-0.3,0.1c0.1,0,0.3,0,0.3,0.1c-1.1,0-2.1-0.1-3,0.3
		c0.3,0.3,0.6,0.6,0.6,1c1.3,0.6,2.7,0,3.7,0.3c0-0.1-0.1-0.6,0.1-0.6c0.3,0.1,0.1,0.6,0.6,0.6c0.4-0.1,0.8-0.3,1-0.7
		c0.1,0.1,0.3,0.3,0.7,0.3c0.3-0.1,0.3-0.6,0.6-0.7c0,0.1-0.1,0.3-0.1,0.4c1.6-0.4,2.7-0.7,4.7-1c0.1-0.4-0.3-0.3-0.3-0.6
		c-0.7,0-0.6,0.4-0.7-0.1c0.7,0,1.4,0,1.6,0.6c0,0.4-1,0-1,0.4c0.6,0.3,1.7-0.1,2.3,0.3c-2.4,0-5.8-0.4-7.2,1.1c1.1,0,1.7,0,2.6,0.1
		c-0.3,0-0.7,0-0.7,0.3c0,0,0.1,0.1,0,0.1c-0.1,0.7,1,0.3,1.4,0.6c-1,0-1.6,0.1-2.3-0.1c0.1-0.1,0.1-0.4,0-0.6
		c-0.8-0.1-2.3-0.3-2.7,0.4c0.4,0,0,0.1,0,0.3c0.1,0,0.6-0.1,0.4,0.3c-1.6,0.1-3.3,0.1-4.2,1c0-0.1,0.1-0.1,0.1-0.3
		c-0.4,0-1.1-0.1-1.1,0.3c2.1,0.3,5.1,1,7.8,0c1.3,1,2.3-0.3,3.7,0.3c-0.1,0.3-0.6,0.1-0.6,0.4c2.3-0.6,4.2,0,5.2-1.6
		c-0.6-0.1-1,0.4-1.3,0.3c-0.3-0.3,0.6-0.3,0-0.6c1,0,1.8-0.1,2.7-0.6c-0.1-0.1,0.1-0.4-0.3-0.4c2.8,0.3,4.2-0.3,5.8-1.4
		c-0.4-0.3-1.1,0-1.6-0.3c0.7-0.3,2,0.6,2.6-0.3c-0.4-0.3-1.4,0.3-1.8-0.1c0.6,0.1,0.1-0.1,0.3-0.3c1.4,0.3,2.3-0.1,3.7,0
		c0.1-0.1,0-0.4,0.3-0.4c4.2,0,8.6-1.8,12.9-2.6c-0.3,0-0.7,0.1-0.9-0.1c2.1-0.1,4.2-0.3,5.8-1c-0.4-0.4-2.1,0.1-2-0.6
		c-3,0.3-5.8-0.7-8.9-0.1c-1.6-0.3-4.1-0.1-6.5,0c0.3,0.1,0.7,0.1,0.9,0.3c-1.1-0.3-3.5-0.7-4,0c-0.1-0.3-1.3-0.3-1.7-0.1
		c0.1,0,0.3,0.1,0.3,0.3c-1.1-0.4-2.6,0.1-3,0.6c-3.4-0.8-7.4,0.3-11.2,0.7c0.7,0.1,1.4,0.4,1.8,0.3c-0.3,0.3-1.1-0.1-1,0.4
		c1,0.1,2.1,1,3.4,0.3c0,0.1-0.1,0.1-0.3,0.3c1,0.1,3.1,0.4,3.8-0.3c0.7,0.8,3.3-0.3,4.5,0.1c-1.4,0.4-3.4,0.1-4.8,0.6
		c0.3,0.3,0.7,0.3,1,0.6c0,0.1-0.1,0.3-0.3,0.3c-0.7-1.3-5.1-1.6-5.5-0.1c-0.4-0.1-0.7,0.3-1,0c0.3,0,0.6-0.1,0.7-0.4
		c-0.6-0.1,0-0.1,0-0.6c-1.1-0.6-1.3,0.8-2,0.3c0.1-0.1,0.4-0.1,0.4-0.3c-0.9,0-2-0.1-1.8-1c-1-0.1-2-0.4-2.7,0
		c0.1,0,0.3,0.1,0.1,0.3c-0.4,0.1-1.8-0.1-2.3,0.4c0.3,0,0.8-0.1,0.7,0.3c-1-0.4-2.1,0.4-3,0.3c-0.1,0.6,0.7,0.1,0.8,0.4
		c-0.6,0.1-1-0.1-1.6-0.1c0.1,0.4-0.3,0.3-0.3,0.6C169.3,256,169.6,256,169.7,256.2L169.7,256.2z M244.9,271.5
		c0.1-0.6,1-0.3,1.8-0.6c-0.7-0.9,0.6-1-0.1-1.4c1.8-0.4,1.4,2.4,3.7,1.7c0.1-0.1,0.1-0.4,0.3-0.7c0.3,0.1-0.1,0.3,0,0.6
		c0.3,0.1,0.9,0.3,1.1,0.1c0.1-0.6,0.1-0.8,0.3-1.7c-0.3-0.1-1-0.1-1,0.3c-0.6-0.6,0.9-0.4,0.9-0.9c-0.3-0.1-0.6,0-0.7,0.1
		c-0.1,0.1-0.1,0,0,0l0,0c-0.1-0.1-0.6-0.3,0-0.3c-1.3-0.6-2.4-1.1-3.1-1.7c-0.1-0.4,0.6,0,0.4-0.3c0.1-0.6-0.9,0-1-0.3
		c0.9-0.7,2.1,0.1,3.4,0c-0.3-0.4-1.3-0.3-1.7-0.4c0.4,0,0.4-0.4,0.9-0.4c0.6,1.1,3.4,0.6,4.8,0.4c-0.3-0.3,0.1-0.6,0.3-0.6
		c-0.4-0.1-1.6-0.6-2.4-0.3c0.4-0.7,1.8,0.3,2.8-0.3c0-0.3-0.4-0.1-0.3-0.4c0.4,0.6,1.7,0.4,2-0.1c-0.3-0.4-0.6-0.3-1.3-0.3
		c0.1-0.1,0.4-0.3,0.6-0.3c-0.1-0.4-1.1-0.3-1-0.4c0.1-0.7,1,0.3,1.7-0.1c0.6-0.6-0.1-1.1-0.3-1.4c0.1,0,0.4,0,0.4-0.1
		c-1.6-0.3-2.4-0.4-3.1-1c1.1-0.6,4.5,0.4,5.7-0.8c-0.9-0.4-2.1-0.1-2.8-0.7c0.7-0.4,1.3,0.3,2.1,0.1c-0.7-1.4-2.7-0.4-3.5-0.3
		c1.3-1.3,2.7-2.1,4.4-2.3c0-0.4-0.7,0-0.7-0.4c1.8-0.3,3-0.8,4.8-1.3c0-0.6-1,0-1.3-0.3c2.1,0,4.2-0.6,6.5-1.3
		c-3-1.3-7.1,0.3-9.5,0c0.1,0,0.3,0,0.3,0c-1.6-0.1-3,0.9-4.5,1c0.9-0.4,2.1-0.4,2.4-1.4c-1.4-0.9-2.7,0.4-4.1,0.3
		c0.1-0.1,0.4-0.1,0.4-0.4c-2.1,0-4.2,0-6.2,0.1c3.4-0.6,7.9,0.1,10.9-0.9c-1.4-0.3-3.5-0.6-4.8-0.7c0.4-0.7-2.8-0.1-3.7-0.6
		c-2.7,0-5.4,0-8.1,0c-3.3,1.3-7.9,0.1-11.8,0.7c0.3,0.3,1,0.3,1.6,0.4c-0.9,0.1-1.8-0.1-3,0c0.6,0.7,2.3,0.3,2.7,1.1
		c-2.1-0.4-4-1.1-6.7-1c0,0.4,0.3,0.7,0.9,0.7c-1.6,0.6-1.8-0.3-3.4-0.4c-0.6,0.3,0.1,0.6-0.6,0.8c-0.9,0,0.4-0.4-0.3-0.7
		c-3-0.1-5.8,0.4-8.9,0.6c-0.1,0.4-0.1,0.4-0.6,1c-3-0.3-5.9,0.6-8.9,1.3c0.6,0.7,1.6,0.1,2.6,0.3c-2.8,2.4-9.2,1-12.3,2.8
		c2.4,1.4,4.4,1,7.2,1c-1.7,0.6-5.2,0-7.1,1c0.7,0.4,1.4,0.3,2.4,0.6c-0.1,0.3-1,0.1-1.3,0.3c0.7,0.7,2,0.7,3.3,0.9
		c0-0.4-0.6,0-0.4-0.4c0.7,0,0.9,0.1,1.7-0.1c0,0.3-0.3,0.1-0.3,0.3c3.4-0.6,6.1-0.4,8.9,0.9c-0.1,0.1-0.6,0.1-0.9,0.3
		c0.4,0.6,0.9,0.7,1.6,1c-0.7,0.1,0.1,0.1,0.3,0.3c-0.7,0.1-0.6,0.7-1.7,0.7c0.3,0.4,1.7-0.4,1.3,0.1c0.3,0.4-0.4,0.7,0.3,1.3
		c-0.4,0-0.3,0.6-0.9,0.3c0.3,0.1,0.6,0.3,1,0.3c-0.1,0.7-0.9,0.9-1.7,1c0.3,0.1,0.6,0.1,0.9,0.1c-1.3,0.4-0.9,1-2,1.1
		c0.7,1.4,2.4,0.1,3.5-0.1c-1,0.6,0.3,0.4,1,0.3c-0.3,0.3-1.1,0.3-1.3,0.7c0.9,0.3,1.3,0.1,2.1,0.6c-0.3,0.4-0.4,0.4-0.1,1
		c-1.3-0.4-2.8-1-4.4-0.7c0.3,0.9,2.8,1.4,3.7,1.3c0.3,0.3-0.6,0.4-0.4,1c0.1,0.1,0.6,0,0.6-0.3c0.3,0.4-1.7,1.6-1.1,2
		c-1.3,0-2.1,0.3-3.5,0.4c0.3,1-1.7,1.1-2,2.4c0.1,0.4,0.9,0.1,1.3,0.3c-0.6,0.3-1.1,0.7-1.7,1c-0.1,0.8,0.4,0.8,0,1.7
		c1.1-0.6,0.3,0.6,1,0.6c-0.1,0.6-0.4,0.9-0.6,1.8c0,0,0.9,0.1,0.6,0.3c-0.3,0-0.7,1.8,0.6,1.7c-0.4,0.4,0.3,0.9-0.3,1.4
		c0.9,0.6,1,1,0.7,1.7c0.9,0.3,0.6,0.6,1.3,0.9c-0.7,0.1-0.1,0.1-0.3,0.9c1.6-0.9,2.4,0.3,3.5-0.1c0,0.3-0.1,0.3-0.3,0.3
		c0.1,0.3,1.1,0.3,1.3,0.3c0.3,0.4-0.7-0.1-0.7,0.4c0.3,0.3,1.4,0.6,1.7,0.9c0.7,0.1,0.9-0.7,1.6-0.3c0.9-2.1,2.8-3.3,3.4-5
		c-0.1-0.1-0.4-0.3-0.9-0.3c3.1-0.4,3.4-2.4,5.2-3.5c-0.4-0.9-0.6-0.9-1-0.9c0.1-0.7,1.4,0.1,2-0.6c0.3-0.3-0.1-0.6,0-0.6
		c1-0.3,1.4,0,2.7-0.3c-0.3-0.6,1-1,1.3-1.3c0.7,0.1-1.3,0.9-1,1.4c4.2-0.6,6.4-2.4,10.1-4.5c0.3-0.6-0.9-0.7-0.3-0.8
		c0.1,0.3,0.6,0.4,0.7,0.8c5.1-0.1,10.5-2.1,14.3-3.7C248.5,271.9,246.5,271,244.9,271.5L244.9,271.5z M528,504.2
		c0.6-0.1-0.4-0.1,0-0.6C527.4,503.5,527.8,503.9,528,504.2c-1.6,0.9-1.8,4.4-1.7,6c0.6,0,0.9,0,1.1,0.3c0.6-0.1,0.7-0.6,1-1
		c0.1,0.4-0.3,0.4-0.3,0.6c0.7,0.4,0.4-0.9,1-0.4c0.1-1,0.3-0.1,0.7-0.9c0.1,0,0.3,0.1,0.3,0.3c-0.1,0-0.1-0.1-0.3-0.3
		c-0.3,0.3-0.1,0.3-0.3,0.6c0.1,0,0.4,0,0.6,0c0-0.4,0.4-0.4,0.3-1c0.3-0.1,0.4,0,0.6-0.3c-0.1,0-0.3,0.1-0.3,0c0.6-0.1,0.6-1,1.1-1
		c0.1,0.3-0.3,0.4,0.1,0.3c0.3-1.3,1.6-2,1.4-3.3C531.5,504.9,529.1,505.2,528,504.2L528,504.2z M556.2,472.4c0.6-0.6,1.4-1.6,1-2.3
		c-0.1,0.6-0.6,1-1,1.7c0-0.7-0.7-0.6-0.4-1.6c-0.7-0.1-0.6-1.3-1-1.7c-0.4,0.1-0.3,0.1-0.6,0c-0.3-0.4-0.1-0.4-0.1-1
		c-0.4-0.1-0.1,0-0.6,0.1c-0.3-1,0.9-2.4-0.3-2.8c0.1,0.4,0,0.3,0.1,0.7c-0.3-0.3-0.7-0.3-0.7-1c-0.3,0-0.4,0.3-0.3-0.1
		c-0.6-0.1,0,0.9-0.3,0.9c-0.6-0.3-0.6-1.4-0.3-2c-0.3-0.7-0.7-1.4-1-2.1c0.3-0.1,0.1,0,0.4,0c0-0.6-0.6-1.4-1-0.9
		c-0.1-0.6-1-1.3-1-0.7c-0.1-0.3-0.1-1-0.3-1.1c0.1,0.4-0.4,0.1-0.6,0.3c0-0.1,0-0.4-0.1-0.4c-0.1,0-0.9,0.1-1.1-0.9
		c0.1-0.4,0.6-1,0.1-1.3c0,0.1-0.4,0.4-0.3,0.1c0.7-0.7,0.1-2.3,0.4-3c-1.3-0.6-0.6-3.1-0.4-4.2c-0.4-0.4-1.3-0.6-1.1-1.6
		c-0.4-0.3-0.9,0.6-1.4,0.6c-0.6-0.9-0.3-2.4-0.1-3.5c-0.3-0.3-1-1.4-0.3-1.8c0-0.1-0.6,0-0.6-0.3c0.1-1.1-0.3-2-0.3-2.4
		c-0.4,0-0.4,0.4-1,0.4c0,1.6-1,2.3-1.4,3.5c0.3,0,0.4,0,0.4,0.3c-1.8,3.1-0.7,9.4-5,10.8c-0.4-0.6-1.6-0.4-1.4-1.6
		c-1.6-0.4-2.4-1.6-3.7-2.4c0.3,0,0.3-0.6,0-0.6c0,0.3-0.1,1.1-0.6,0.4c0.1,0,0.7-0.7,0.3-0.4c-0.1,0.1-0.3,0.3-0.6,0.3
		c-0.6-0.6-1.1-1.1-1.7-1.7c0.4-1.1,1.4-2.3,1.8-2.5c-0.1-0.3-0.4,0.1-0.7-0.1c0-0.7,0.3-0.9,1-1c0,0.1-0.1,0.3,0,0.3
		c0.3-0.3,0.3-0.6,0.6-0.9c-0.1,0-0.3-0.1-0.3-0.3c0.3,0,0.8-0.7,1-1.1c-0.4,0-0.8-0.4-0.6-0.7c-0.4,0.3-0.6,0-1,0.3
		c0.4,0-0.1,0.4,0.3,0.4c-0.1,0.3-0.3,0.4-0.6,0.3c0.1-0.3,0-0.6,0-0.7c-0.1,0.1-0.4,0.6-0.6,0.3c0.3-0.4,0.7-0.7,0.7-1.1
		c-0.4,0.6-1.1,1-1.8,1.3c-0.1-0.3-0.4-0.3-0.4-0.6c-0.6,0.3-1.7-0.1-1.6-0.6c-0.9,0.4-1.6-0.1-1.8-0.9c-0.1,0.1-0.1,0.4-0.4,0.3
		s0.3-0.9-0.1-1c-0.1,0.9-1.3,0-1.6,0.7c0.3,0,0.4,0.1,0.4,0.4c0.3,0,0.4-0.1,0.8-0.1c0.7,1.3-0.7,1.8-2,1.7c-0.3,0-0.3-0.4-0.4-0.6
		c0.1,0.6-0.1,0.3-0.4,0.3c0.1,0.6-0.6,0.7-0.9,0.4c-0.1,0.9-1.7,1.3-0.8,2.1c-0.4,0.3-0.6,0.3-1,0.3c0,1-1,1.1-1.1,2
		c0.3,0.1,0.4,0.4,0.6,0.9c-0.3,0-0.1,0.4-0.3,0.4c-0.1-0.3-0.3-0.3-0.6-0.4c0,0.1,0.1,0.7-0.1,0.7c0.1-0.9-0.7-0.7-1.4-0.9
		c0,0.1,0.1,0.6-0.1,0.6c0-0.1,0-0.3-0.3-0.3c-0.1,0.1,0,0.6-0.3,0.6c0-0.4,0.3-0.7,0.4-1c-0.8-0.6-1.1-1.8-2.3-2.1
		c-0.4,0.1-0.1,0.9-0.7,1c0-0.1,0-0.4,0.1-0.4c-0.4,0-0.6,0.3-0.7,0.6c0-0.3,0-0.7-0.3-0.7c-0.3,0.6,0,1.1-0.6,1.6
		c-0.3-0.4,0-0.7-0.4-0.9c0.3,1-0.7,0.6-1,0.6c0.3,0.6-0.1,0.9,0.3,1.4c-0.3-0.3-0.6-0.3-1-0.4c0.4,0.4-0.3,0.3,0,1
		c-0.4-0.4-0.4,0.1-0.9-0.3c-0.1,0.7-0.6,1.3,0,1.7c-0.4-0.1-0.3,0.4-0.7,0.7c-0.1-0.4-0.4-0.4-0.9-0.1c0-0.3,0-0.6-0.3-0.4
		c-0.1,0.4-0.1,0.6-0.1,0.9c-0.1-0.1-0.3-0.1-0.3,0.1c0.3,0.1,0.3,0.6,0.7,0.9c-0.3,0.1-0.3,0.3-0.6,0.1c0,0.4,0,0.7-0.3,0.9
		c-0.4-0.6-0.7-1.6-0.6-2.1c-0.9,0.9-2.7,2-1.8,3.7c-1.8,1.6-3.3,4.7-6.7,4c-0.9,0.7-2.7,1.7-3.7,1.4c-0.4,0-0.4,0.1-0.7,0.3
		c0-0.1,0-0.3,0.1-0.3c-2,1.1-4.4,2.7-5.7,4.1c0.1-0.3,0.1-0.9,0.1-1.1c0-0.1,0.1-0.1,0.1-0.3c0,0-0.1,0.1-0.1,0.3
		c-1.4,2.3-3,5.5-1.4,8.5c-0.3,0.3-0.1,1.1-0.6,1.1c-0.1-0.3,0-0.9-0.3-1c0.1,0.3-0.1,0.7-0.3,0.3c0.3-0.4,0.1-1-0.3-1.3
		c-0.6,0.6,0.1,1.4,0.3,1.8c0,0.3-0.3,0.4-0.4,0.4c0-0.7-0.4-1.3-0.7-1.8c0-0.3-0.1-0.4-0.1-0.7c0,0.3,0.1,0.4,0.1,0.7
		c1.1,4.4,2,10.2,0.7,14.6c-0.1,1.1-0.4,2-1.4,2.3c-0.1-0.1-0.3-0.3-0.3-0.3c-0.1,0.6-0.6,1-0.4,1.8c1.4,0.7,2.7,2,4.7,1.6
		c2.3-1.1,4.7-3.1,8.2-2.6c0.1,0.3-0.3,0.4,0.1,0.3c0.4-0.1,1.6-0.6,1.8,0c3.8-3.8,10.2-4.2,16.1-5.5c0.7,0.3,1.1,0.9,1.7,1.3
		c0.1-0.1,0.6-0.3,1-0.3c0.1,0.6,1,0.7,1.4,0.3c-0.1,0.3,0.3,0.3,0.3,0.4c0,0.3-0.3,0.1-0.3,0.4c0.3,0,0.6-0.4,0.7,0
		c-0.4,0.6-0.7,0.7-0.4,1.4c1.1-0.1,1.1,2,0.7,3c0-0.3-0.1-0.4-0.3-0.3c0.1,0.4,0.6,0.4,0.4,1c0.3,0.1,0.3-0.3,0.4-0.3
		c0,0.6,0.3,0.1,0.6,0.4c-0.3-0.4-0.1-0.4-0.3-1c1.8-1.6,3.7-2.3,5.2-4.1c-0.4,2.1-2.3,2.7-2.8,4.7c-0.3,0-0.6,0-0.9,0
		c-0.1,0.4-0.4,0.6-0.6,0.9c0.7,0,1.1-0.4,1.7-0.3c0.6-0.7,1-1.4,1.6-2.1c0.7,1.6-0.6,2.3-1.3,3.1c0.7,0.1,0.8-0.1,1.4-0.3
		c1.3,0.7,0.6,2.8-0.1,3.7c0.4,0.4,0.3,1.4,0.7,1.7c0.9-0.3,0.9,0.4,1.3,0.7c2,0.3,4.7,1.3,5.7-0.7c0.4,0,0.4-0.4,1-0.3
		c0,0.6-0.4,1.1-1,0.9c0,0.3,0.1,0.3,0.1,0.4c0.6-0.3,1.3,0,1.4,0.9c0.4-0.1,0.6,0,0.4,0.4c0.4,0,0.4-0.4,0.6-0.7
		c-0.3-0.1-0.4,0.3-0.3-0.1c0.1-0.4,0.4,0.4,0.7,0c1.4-0.4,2.4-1.8,4.2-2c0.6,0,1.1,0.1,1.7,0c2.7-0.6,2.8-5.5,5.2-5.7
		c3.8-5,10.3-9.8,11.6-16.6c-0.4-0.1-0.1,0.6-0.4,0.6C554.9,475,556.6,473.8,556.2,472.4L556.2,472.4z M547.7,425.3
		c-2.3-0.4-4.8-2.1-6.9-2.5c0.1,0,0.1-0.1,0.1-0.3c-2.3-0.1-3.5-1.4-5.5-2.1c-0.6,0.1-0.8,0.6-1.4,0.7c0,0.3,0.1,0.3,0.1,0.6
		c-0.6,0.1-0.9,0.6-1.6,0.3c-0.6,1.1-1,2.4-2.7,2.4c-0.4-0.9-0.6-1.3-0.9-2.3c0,0.4,0,0.9-0.3,1c-0.4-0.9-0.3-2-0.4-2.3
		c0.1-0.3,0.3-0.6,0.3-1c-0.4-0.3-0.3-0.9-0.3-1.1c-1.6,0-2-1-3.4-1c-0.6,0.4-1.1,1-2,1c-0.1,0.1,0.1,0.9-0.3,1
		c0.1-0.6-0.3-0.6-0.3-1c-0.3,0-0.6,0.1-1,0.1c0.9,1.8,2.8,1,3.5,3.1c0.6-0.1,2.4,0,3-0.3c-0.4,0.1,0,0.1,0,0.4
		c-0.6-0.1-0.1,0.1-0.3,0.3c-0.6,0.1-0.7-0.3-1.1-0.3c-0.3,0.1-0.4,0.6-0.7,0.9c-0.3-0.3-1.3-0.3-1.6,0c0.1,0,0.1,0.1,0.1,0.3
		c1-0.3,1,1,1.6,0.9c-0.4,0.1,0.3,0.3,0.1,0.6c-0.1,0-0.3,0-0.3,0c0.1,0.4,0.1,1,0.4,1.1c0.4-0.6,0.9,0.4,1,0.1
		c-0.1-0.1-0.4-0.1-0.4-0.3c0.4-0.3,0.4-1,0.7-1.3c0,0.9,1,0.7,1.3,1.3c0-0.7,0.3,0.3,0.6-0.1c1.4,1.8,5,1.4,6.2,3.4
		c0.1,0.7,0.6,1.8,1.1,2.7c-0.1,0-0.3,0.1-0.4,0.1c0.3,0.6,0.3,0.7,0.4,1.1c-1.1-0.7-2.4,1.1-2.3,2.3c0.7-0.1,1.6-0.1,2.3-0.1
		c0.3-0.9,1.1-0.4,2.1-0.6c0.9,2,2.7,2.4,5,2.5c0.4-0.3,1-0.6,1.6-0.9c0-0.9-0.7-1-1.1-1.4c0.6,0.3,1-0.1,1.7-0.1
		c-0.3-0.7,0.3-0.3,0.6-0.4c0.3-0.3-0.1-0.4-0.1-0.9c0.6,0.4,0.9,0,1.3,0.3c0-0.1-0.1-0.3,0-0.3c1.7,0.7,3.4,0.6,3.7,3
		c1.6,2,2.7,2.8,5.8,3c0,0.7,1,0.9,1.7,0.4c0-0.4-0.4-0.3-0.6-0.6c0.3,0,0.9,0.1,1-0.3c-0.6,0-1.8-0.1-2-1c0.3,0,0.6,0,0.6-0.3
		c-0.7,0-1.1,0-1.6-0.4c0-0.4,0.6-0.6,0.3-0.9c-0.4-0.3-0.7,0.1-1.3,0.1c-0.1-2.3-2.4-2.6-2.7-5c0.1,0,0.1-0.1,0.3-0.1
		c0.4,0.3,1.1,0,1.6-0.1c-0.3-2.1-2.3-1.8-3.8-2.7C550.5,426.7,548.2,426.6,547.7,425.3L547.7,425.3z M498.1,415.3
		c0.3,0.3,1.8,0.6,1.7-0.3c-0.9-0.6-1.7-1.1-2.3-2c0.1-0.3,0.4-0.3,0.4-0.7c-0.4-0.4-1-1-1-1.7c-0.4,0-0.4-0.1-0.6-0.3
		c0.3,0,0.1-0.4,0.3-0.3c0,0.4,0.1,0.6,0.3,0.3c0-0.4-0.6-0.4-0.7-0.7c0.3,0,0.7,0,0.9-0.1c-0.3-0.7-0.1-0.7,0.3-1
		c0-0.3-0.7,0-0.6-0.4c0.6,0.4,1.1,0.1,1.8,0c0-0.6-0.4-0.3-0.1-0.7c-0.6,0.1-0.7-0.1-0.9-0.4c0.6-0.3,2,0.3,2.1-1
		c-1.1,0.1-1.6-1.4-2.5-0.7c0.3-0.1,0.4-0.4,0.1-0.7c-0.4,0-0.3,0.4-0.7,0.3c0.1-0.9,0-1-0.3-1.7c-0.7,0.6-0.1-0.4-0.9-0.4
		c-0.1,0.1-0.3,1-0.6,0.7c0.3-0.1,0.1-0.9-0.1-0.9c-0.6,1.4-1.1,2.1-1.7,3.3c0-0.1-0.3-0.1-0.3-0.3c0,0.4-0.4,0.3-0.3,0.7
		c0.1,0.1,0.3,0.1,0.4,0.3c-0.3,0.6-0.6,0.4-1,0.6c-0.1-0.3,0.3-0.4,0-0.4c-0.6,0.4-1.1,1.1-2,1c-0.3,2.5-3,3.8-5,3.8
		c0,0.4,0.1,0.6,0.1,0.9c-0.3,0.1-0.3,1.7-0.6,2c0-0.4-1.3-0.1-0.9-0.6c-0.6,0-1.7,0.4-1.7-0.7c-0.3,0-0.4,0.3-0.7,0.3
		c-1.3,2-0.7,4.2,0.1,5.7c-0.3-0.1-0.1,0.3-0.3,0.4c0.3,0.3,0.6-0.3,0.7,0.3c-0.6-0.1-0.3,0.4-0.3,0.7c0.4,0,0.4-0.4,1-0.4
		c0.3,0.6,0.3,1.1-0.1,1.7c0.7,0.4,0.4,1.4,0.6,2.4c0.4,0,0.3-0.4,0.7-0.3c0.4,0.9,1.7,0.1,2.3-0.1c0,0.7,0.1,1,0,1.6
		c0.4,0.1,0.9-0.9,1.6-0.3c0.4-0.3,0.9-0.4,1-1c0.3,0.6,0.7,0.6,1,0.4c0,0.4-0.3,0.4,0,0.6c0.4,0,0.6-0.3,1-0.3
		c0.7,0.1,0.9,0.9,0.7,1.7c0.9-0.4,1.8-0.9,2.7-1.3c0,0.4,0.1,0.6,0,1c0.7,0.1,0.4-1.1,0.9-0.9c0-0.7-0.3-0.6-0.4-1
		c0.4,0,0-0.3,0-0.4c0.3,0.3,0.3,0,0.4-0.1c0-0.3,0-0.7-0.1-0.9c0.3,0,0.3,0.1,0.4,0c-0.1-0.4,0.1-0.3,0.1-0.7
		c-0.3-0.1-0.4,0-0.4-0.1c0.1-0.1,0.3-0.3,0.3-0.6c-0.1-0.3-0.4-0.1-0.4-0.3c1-0.6,1.4-1.7,2.7-2C496.7,418,497,415.7,498.1,415.3
		L498.1,415.3z M428.1,399.1c-0.3-0.9-1.6-3.4-2.7-2.4c1,0,0.1,2.4-0.3,3.3c0.6,1.6,0.3,3.4,1.3,4.7c3.3,0.4,3.5-3.4,2-5.5
		C428.3,399,428.1,399.3,428.1,399.1L428.1,399.1z M520.5,343.4c0.6-0.1,1.6-0.3,2.1,0c0-0.9,0-1.3,0.7-1c-0.3,0.3,0.1,0.7,0.3,1
		c0.4,0,0.4-0.3,0.4-0.6c0-0.4-0.4-0.3-0.3-0.9c0.1,0,0.1-0.1,0.3-0.1c0.4-0.3,0.6,0.7,0.7,0.1c-0.3,0-0.4-0.7-0.1-0.8
		c0.3,0,0.4,0,0.4,0.3c-0.6,0.3-0.1,1,0.3,1.3c0.1-0.3,0.6-0.4,0.7-0.7c-0.4-0.4-0.1-1,0.3-1c-1.7-1.1-1.1-3.8-2.3-5.5
		c0.1,0,0.1-0.1,0.3-0.1c0.4-0.1,0.4,0.1,0.6,0.3c0.1-3.1-2.3-4.1-3.7-6.7c-0.6,0.1-0.7-0.3-1.1-0.3c0,0.4,0,0.7,0.1,1
		c0.3,0,0.4-0.3,0.8-0.3c0.1,0.3,0.1,0.4,0.3,0.7c-0.4-0.1-0.7-0.3-0.7,0.1c-0.3-0.4-0.6-0.8-1.1-1c0,0.6,0.4,0.4,0.3,1
		c-0.1,0-0.4,0-0.3,0.3c0,0.6,1.3,1.1,0.3,1.6c1.7,0.4,1.1,2.4,1.6,3.8c-0.1,0.3-0.6,0.4-0.7,0.7c0.6,1.4-1.1,1.4-1.7,2.3
		c-0.6,0-0.6-0.6-1-0.9c0,0,0,0-0.1,0c0,0,0,0,0.1,0c0.3,0.1,0.6-0.6,0.4-0.7c-0.4,0-0.6,0.3-1,0.3c1.1,1.1-0.4,2.5,0.3,3.5
		c-0.1,0.6-0.9,0.4-1.1,0.4c-0.1-0.1-0.1-0.4-0.3-0.6c-1.4,0.9-3.4,0.3-4.4,0.9c-0.1,0.9-1,2.1-2.1,2.1c0,0.4,0.1,0.9,0.3,1
		c-0.6-0.1-0.9,0.1-0.7,0.7c-0.6-0.4-0.1,0.6-0.9,0.1c0.3,0.6-0.4,0.1-0.3,0.6c0.4,0.4,0.7,1,1,1.6c0.1-0.1,0.1-0.6,0.4-0.4
		c0.1,0.6,0,0.3-0.1,0.7c0,0.3,0.1,0.6,0.3,0.6c0.4-0.4-0.1-0.7,0.3-1.3c-0.1-0.3-0.4-0.1-0.6-0.3c0.4-0.1-0.4-0.4,0-0.6
		c0.6,0.3,0.7,1,1,1.3c-0.7,1.1,0.4,1.8,0,2.6c0.4,0.1,0.7,0.4,1.1,0.4c0-0.6-0.6-0.4-0.4-1c0.6,0.1,0.6,0.8,0.7,1.3
		c0.3-0.3,0.7-0.6,0.3-1c0.3,0,0.4,0.3,0.6,0.1c-0.1-0.9-0.6-2.4,0-3.3c-0.3-0.1-0.7-0.4-0.4-0.7c-0.3,0-0.6,0-0.8,0
		c0.1-0.1,0.3-0.3,0.3-0.7c-0.3,0-0.1-0.3-0.4-0.3c-0.4,0.6-1.3-0.1-1.3-0.7c0.7,0.3,2-0.1,2.3,0.6c0.1-0.4-0.4-0.8,0-1.1
		c1,0.6,1.7-0.6,2.5-0.3c0.3-1,2.1-0.7,2.7-0.3c-0.1,0.1-0.3,0.4-0.4,0.6c0.4,0.8,1,1.6,2.1,1.7c0.1-0.7,0.3-1.1,0.3-1.7
		c0.4-0.1,0.3-0.3,0.8-0.1c0.1-0.7-0.7-0.6-1-1c0-0.3-0.1-0.9,0.3-0.9c0,1.4,0.6,0.3,1,0.9C520.6,343.2,520.5,343.3,520.5,343.4
		L520.5,343.4z M190.3,313.7c-0.4,0-0.7,0.1-1.1,0.3c0-0.1-0.1-0.1-0.3-0.3c0.7,0,0.1-0.3,0-0.3c0.1,0,0.1-0.1,0-0.3
		c0.6-0.1,0.9-0.4,1-0.8c-0.6-0.4-1.1-0.6-1.7-0.1c0.1-0.1,0.3-0.7,0-0.7c-0.3,0.4-0.6,0-0.6,0.4c0.3,0.1,0.6-0.4,0.6-0.1
		c-0.6,0.3-0.6,0.4-1.3,0.4c0-0.3,0.4-0.3,0.3-0.6c-0.4-0.1-0.3,0.3-0.4,0.3c0-0.6-1,0.3-0.7-0.7c0.4-0.1,0.9-0.1,1-0.6
		c-0.4,0.3-0.9,0-1-0.3c-0.4,0.3-0.9,1.1-1.4,0.9c1-1,2.1-1.8,3-3c-0.1-0.3-0.4,0.1-0.4-0.1c0.4-0.1,1.1-0.1,1.3-0.7
		c-0.4-0.1-0.6,0.1-0.9,0.3c0-0.1,0-0.3,0.1-0.3c-1.6,0.3-2.1,1.4-3.3,1.8c-0.4,1.3-2.4,2.3-2.3,3.3c-0.1,0.1-0.4,0.1-0.6,0
		c-0.4,0.4-0.6,1-1.1,1.1c0-0.1,0.4-0.3,0.1-0.3c-0.1,0.3-1.1,0.3-0.7,0.7c0.3-0.1,1.1-0.4,1.1,0c-0.8,0.1-1.3,0.7-2,1
		c0,0.3,0,0.6,0,0.9c1.8-0.4,4.4,0.3,5.7-0.3c0,0.3-0.9,0.3-0.4,0.6c0.3-0.1,0.6,0,1,0c0.1-0.1,0-0.4,0.3-0.4c0.1,0.1,0.6,0,0.7,0.3
		c-0.9,0.4-1.7,0.7-2.3,1.4c1.6,0,2.6-1.1,3.7-2c0.4,1-0.7,1.3-0.9,2.1c0.4,0.4,0.7-0.7,1-0.3c-0.3,0.3-0.1,0.3-0.3,0.9
		c0.4-0.1,0.6-0.4,0.9,0c0.6-0.7,1.8-2,1.3-2.6c-0.1,0.3-0.3,0.7-0.7,0.7c-0.1-0.6,0.7-0.9,1-1.4c-0.9,0.1-1.3,0.7-1.7,1.3
		c0-0.1,0-0.3-0.1-0.3C188.7,314.5,189.7,314.5,190.3,313.7L190.3,313.7z M193.9,278.3c0-0.6-0.6-0.6-0.7-1c-0.4,0-0.6,0.3-0.9,0.4
		c0.1-0.6-0.9,0-0.9-0.3c0-0.4,0.7-0.1,0.6-0.6c-0.7,0.1-1,0.1-1.4,0.3c0.1-0.1,0.3-0.4,0.3-0.9c-0.1,0-0.3-0.1-0.3-0.3
		c-0.3-0.1-0.6,0.4-0.7,0c0.1-0.1,0.6,0,0.6-0.3c-0.9,0-1.4,0.1-1.7,0.3c0-0.1,0.6-0.3,0.3-0.4c-0.3,0.7-0.7-0.3-1,0.1
		c0.1-0.4-0.1-0.3-0.3-0.4c0.3,0,0.7,0.1,0.6-0.3c-0.7,0-1.3,0-1.7-0.3c0.6,0-0.1-0.3-0.3-0.3c0.4-0.1,0.7,0.4,1,0
		c-0.4-0.3,0.4-0.1,0.3-0.4c-0.3,0-0.4-0.1-0.4-0.3c0.6-0.1,1.3,0.3,2.3,0.1c0-1.1-1.6-0.3-2-0.9c0.4-0.4,1.6-0.1,2.1-0.3
		c0-1.7-1.6-0.4-2-0.4c0.3-0.1,0.4-0.1,0.3-0.4c0.4,0,0.7-0.1,1-0.3c-0.3-0.6-1.3-0.9-1.8-0.4c0-0.1,0.3-0.1,0.3-0.3
		c-0.4,0-1.1,0.4-1.4,0.3c0.3-0.1,0.7,0,0.6-0.6c-1-0.1-1.6,0.9-2.4,0.3c0.7-0.4,1.4-0.1,2.1-0.6c-0.4-1.1-2.1-0.6-2.7,0
		c0-0.3-0.3-0.3-0.3-0.4c0.1-0.1,0.1-0.4,0.3-0.4c-0.1,0-0.7,0.1-0.7-0.1c0.1-0.1,0.4-0.1,0.3-0.4c-0.3,0-0.7,0.1-0.9-0.1
		c0.1-0.1,0.1-0.3,0.1-0.6c-0.7-0.3-1.4,0.1-1.7-0.4c0.6,0,1,0,1.3-0.3c-0.1-1.7-3.1-1.1-4.8-1.6c-0.4,0.3-0.8,0.4-1,1
		c0.6,0,0.6,0.3,0.4,0.8c1.1,0.3,2.6-0.4,3.7,0c-1,0-1.8,0.1-2.6,0.4c0,0.1,0.1,0.3,0,0.3c-0.4-0.4-0.7,0.3-1,0.3
		c0-0.3,0.3-0.3,0.1-0.4c-0.4-0.1-0.4,0.1-0.7,0.1c0-0.1,0-0.3,0.1-0.3c-0.9,0.3-1.1,0.4-1.7,0.8c0-0.1-0.1-0.1-0.1-0.3
		c0.7,0,0.8-0.7,1.6-0.9c-0.3-0.6,0.1-0.4,0.3-0.8c-0.3,0-0.4,0-0.6-0.3c0.4,0,0.4-0.3,0.3-0.7c-2.1,0-5.1,0.3-5.4,1
		c-0.7-0.1-1.7,0.1-2,1.1c0.1,0.3,0.7,0,0.7,0.3c-0.1,0-0.1,0.1,0,0.3c-0.7-0.4-1.6,0.1-2.1,0.3c0.6,0.1,0.3,0.3,0.4,0.6
		c0.1,0,0.7-0.1,0.7,0.1c-0.1,0.3-0.6,0.3-0.7,0.4c-0.1-0.6-1-0.4-1-1.1c0.3-0.3,0.4-0.6,1-0.7c0-0.3-0.1-0.4-0.3-0.6
		c1.3-0.8,2.8-1.1,4.2-1.8c-5.1-0.4-8.6,1.6-10.6,4.2c0.8,0,1.8,0.3,2.4,0.1c-0.1,0.4,0.4,0.1,0.3,0.4c-1,0.1-2.1-0.3-2.8-0.1
		c0.3,0,0,0.3-0.3,0.3c0,0.4,0.4,0.3,0.3,0.9c0.4,0.1,0.6-0.1,0.7,0.3c0.7-0.1,1.7,0.1,1.7-0.3c1.3,1.3,5,1,6.5,0.9
		c0.6,0.4,1.1,0.7,1.7,1c0.7-0.3,1.1-0.9,2.3-0.7c0.1-0.3,0.4-0.4,0.3-0.9c-0.1-0.1-0.6,0.1-0.7-0.3c0.6,0.1,1-0.4,1.1,0.4
		c0.4,0.1,0.8-0.3,1,0c-0.1,0.3-0.4,0.4-0.6,0.9c0.4-0.1,0.7-0.4,1,0c-0.3,0-0.6,0-0.6,0.3c0.7,0.1,1.3,0.3,1.7,0.7
		c-0.6,0.4-0.8,0.3-1.7,0.3c-0.1,0.3-0.4,0.4-0.6,0.7c1,0,1.6-0.1,2.1-0.6c0,0.4,0.6,0,0.6,0.3c-0.1,0.1,0.3,0.7,0.9,0.7
		c-0.4,0.4,0.6,0.4,0.8,0.6c0,0.9,0,0.7-0.1,1.7c-1.6,0.7-3.1,1.4-4.5,2.1c0.3,0.3,0.8,0.7,0.4,1.1c-1.7-0.1-3.3,0.7-5.5-0.1
		c-0.1,1.1-2.3,0.4-2.3,2.1c1.1,0.6,1.7,0.3,3.3,0.1c0.1-0.3,0.1-0.3,0.3-0.4c0.9,0.6,1.3,0.4,2.3,0c0.1,0.3-0.3,0.3-0.3,0.4
		c0.6-0.1,0.8-0.3,1.1-0.6c0,0.4-0.4,1,0.3,0.7c0,0.7,0.6,1.6,1.3,1c0,0.3,0.1,0.3,0.1,0.6c-0.3,0.3-0.7-0.3-1,0.1
		c0.3,0,0.4,0.1,0.3,0.6c0.4,0,0.7,0.1,1,0.4c-0.3,0-0.4,0-0.6-0.1c0.3,0.4,0.3,0.4,0.3,0.9c0.3,0,0.7,0,0.8-0.1
		c0-0.4-0.3-0.3-0.4-0.6c0.4,0.3,1.1,0.3,1.6,0.3c0.3,1.3,3,1.1,4.2,1.7c0-0.4,0.4-0.4,0.4-0.8c-0.7-1.1-2.1-1.4-2.6-2.8
		c0.8-0.1,0.8,0.6,1.4,0.7c0-0.1-0.1-0.6,0.3-0.4c0.7,1.6,1.4,1,2.4,1.6c0,0.1-0.1,0.3-0.1,0.4c0.1,0,0.3,0,0.4,0
		c0.3-0.1-0.1-0.6,0.1-0.7c0.1,0.1,0.7,0.3,0.7,0c0-0.4-0.1-1,0.3-1.4c0.1,0.4-0.3,0.6,0,0.9c0.4-0.1,0.6-0.6,0.7-1
		c-0.1-0.1-0.4,0-0.4-0.3c0.3,0,0.6-0.1,0.7-0.3c-0.6,0.1-0.7-0.1-0.9-0.4c0.4,0,0.6-0.1,0.6-0.4c-0.1,0-0.7,0.1-0.7-0.1
		c0.3,0,0.4-0.1,0.3-0.4c-0.6,0.1-1.1-0.6-1.4-0.3c0.6-0.6-0.4-0.3,0.1-1c-0.4-0.1-0.3,0-0.1-0.4c-0.3,0.1-0.7,0.1-1,0.3
		c0.4-0.4,0.3-0.3,0-0.7c0.1,0,0.1-0.1,0.3-0.1c0.1,0.6,0.6,0.1,1.1,0.3c0-0.1,0-0.3,0.1-0.3c0-0.3-0.6-0.6-0.3-0.9
		c0.1,0.1,0.4,0.4,0.9,0.3c0.1-0.3,0-0.4,0.1-0.4c0,0.3,0.1-0.1,0.4,0c-0.1,0.4,0.4,0.3,0.1,0.6c0.1,0,0.3,0,0.3-0.1
		c0,0.4,0.4,0.3,0.1,0.6c0.3,0,0.7-0.1,0.9,0.1c-0.9,0.4,0.1,1,0.1,1.6c0.6-0.3,0.9,0,1.1,0.3c1-0.3,0.9-1,1.4-1.6
		c0.3,0.4,0.4,0.1,1,0.3c0-0.4,0.3-0.4,0.6-0.3c0.1-0.3,0-0.4,0.1-0.4c0,0.3,0.6,0,0.6,0c0.1-0.4-0.4-0.1-0.3-0.4
		c0.6,0.1-0.1-0.3,0.3-0.3c0.1,0.4,1,0.1,1.3,0c-0.1,0-0.1-0.3-0.1-0.4l0,0l0,0C193.4,278.4,193.7,278.4,193.9,278.3L193.9,278.3z
		 M162.6,289.2C162.6,289.2,162.6,289.3,162.6,289.2C162.6,289.3,162.6,289.2,162.6,289.2c0.1-0.1,0.3,0.1,0.3,0.1
		c-0.4,0.4-0.1,0.8-0.6,1.3c0.1,0,0.4,0,0.4,0.1c-1.1,0.9-2.8,1.4-3.5,2.8c4.1,3.3-3.3,7.2-6.8,7.8c0.4,0.3-0.1,0.6,0,1
		c0.1,0,0.3,0,0.3,0.1c-0.1,0.4-1.4,2.4-1,3.4c-0.7,0.9-1.6,1.3-1.8,2.3c0,0.1,0,0.1-0.1,0.3c0-0.1,0-0.1,0.1-0.3
		c0-0.3-0.1-0.3-0.3-0.7c-0.7,0.1-1,0.6-1.3,1c-0.3-0.1-0.6-0.6-1-0.3c0.7-0.9-0.3-1.7-1-2c0.3,0,0.6,0,0.4-0.3
		c-0.3-0.3-0.3-0.7-0.4-1.1c1.1-1.3,1.4-2.8,2.4-4.2c-1.3-0.1-3.1-0.7-4.2-0.1c-0.1-1.4-1.8-1.1-2.8-1.7c-0.7-2.3-3.7-2.5-6.2-2
		c0.8-0.7,0.8-2.3,1.3-3.4c-0.4,0.1-1.4-0.3-1.8,0.1c-0.3-1.1,1-1.7,1.3-2.5c-0.3,0-0.6,0-0.7-0.3c0.7,0.1,1-0.1,1.6-0.3
		c0.7-1.1,2.6-2.1,4-2.8c-0.3-0.7,1.6-0.4,1.3-1.1c0.4-0.1,0.1,0.4,0.6,0.3c-0.1-1,1.1-0.6,1.6-1c-0.1,0-0.3,0-0.3-0.1
		c1.1-0.3,3.1,0.1,3.1-1.3c-0.4-0.4-1.6,0-2.1-0.3c0.7,0.1,0.3-0.4,0.4-0.4c1.6,0.6,3.5,0.6,4.1-0.6c1.6,1.1,4.2-0.9,5.7-2
		c0-0.1-0.3,0-0.3-0.3c1.3-0.4,2.4-0.9,3.3-1.7c-0.3-0.1-0.7-0.1-0.9-0.3c0.3,0,0.3-0.1,0.3-0.3c0.7,0,1.1,0.1,1.7-0.1
		c0,0.3,0,0.4-0.1,0.6c0.4,0,0.7,0,1,0.3c-0.3,0.3,0.3,0.4,0,0.8c0.4,0.1,0.8,0.3,1.1,0.1c-0.1-0.4-0.7,0-0.3-0.7
		c-0.4,0-1-0.6-0.4-0.7c0.1,0.4,0.6,0.4,1,0.4c0.1-0.4-0.4-1,0.1-1c0,0.4,0.4,0.3,0.3,0.7c1.8-0.4,3.5-1,5-2c0-0.4-0.3-0.7-0.6-1
		c0-0.3,0.6-0.3,0.6-0.6c-0.3-0.1-0.4,0.3-0.4,0c0.1,0,0.1-0.1,0.1-0.3c0.9,0,1.8,0,2.3-0.7c-0.1-0.1-0.4,0-0.4-0.3
		c0.4-0.1,0.9-0.1,1-0.4c-0.3-0.1-0.6-0.1-1-0.1c0.1-0.3-0.1-0.3-0.1-0.6c0.1,0,0.4,0,0.4-0.1c-1.4-0.1-2.8-0.4-4.2-0.3
		c-0.1,0.6-0.7,0.6-0.7,1.3c0.3,0,0.6,0,0.7,0.3c-0.6,0-1.1,0.1-0.6,0.4c-1.7-0.6-2,1.4-3.3,1.4c0-0.3,0.3-0.3,0.3-0.6
		c-0.9,0-0.9,0.6-1.3,0.7c-0.1,0.4,0.3,0.3,0.3,0.4c-0.4,0.6-1.6,0.7-1.8,0.8c0.3-0.4-0.4-0.6-0.3-1c0.1-0.4,0.4-0.6,0.7-1
		c0.3,0,0.1,0.3,0.4,0.3c0.4-0.3,0.6-0.7,0.7-1.1c0-0.4-0.7-0.3-0.6-0.9c-1.6,0-2.1,1.6-3.3,1.7c-0.1-0.7,0.7-0.6,0.6-1.3
		c0-0.1-0.7-0.3-0.3-0.4c0.4,0.3,1,0,1.4-0.3c-0.4,0-1.3,0.1-0.7-0.3c-0.4,0-0.8,0.1-1.3,0.3c-0.1-0.3-0.4-0.3-0.6-0.4
		c0.6,0,1.7-0.4,1-0.7c0.4,0.1,1.3,0.3,1.3-0.3c-0.6,0.4-0.1-0.7-0.7-0.7c0.1-0.4,0.3-1,0.4-1.4c-0.3-0.1-0.7-0.1-1-0.3
		c0-0.1,0.1-0.3,0.3-0.3c1-0.3,2.3-0.6,2.3-1.4c3,0.6,4.5-1.1,6.7-2c-2.6-0.1-4.2-0.7-6.5-0.1c-0.3,0.3,0,0.3,0,0.6
		c-1.8-0.4-2.7,2.3-3.5,3.3c-0.6,0.1-1.3,0.1-1.6,0.4c0.6,0.3-0.7,0.4-1.3,0.3c-0.1,0.4-0.6,0.7-1,1c0.1,0,0.4,0,0.3,0.3
		c-0.9,0-1,0.9-1.6,1.3c0.6,0.1,1.1,0.7,1.7,0.3c-0.1,0.4,0.4,0.1,0.3,0.6c-0.7,0.4-1.3,0.6-1.7,1c0.9,0.1,1.1-0.4,1.4-0.3
		c-1.4,1.7-4.5,1-5.2,3.3c0-0.3-0.1-0.4-0.1-0.6c-0.1,0.1-0.4,0.3-0.7,0.3c0.1-0.3,0.7-0.4,0.1-0.6c0.8-0.3,1.4-0.9,2-1.4
		c-0.7,0-1.3,0.3-1.7-0.3c1,0.1,2.6-0.1,3.5-0.7c-0.1,0-0.7,0.1-0.7-0.1c-0.1-0.3,0.3-0.3,0.3-0.4c-0.6-0.9-2.3-1.8-2.6-0.4
		c0-0.1-0.1-0.3-0.4-0.3c0.1,1-2,0.3-2.3,1.3c0.3,0.3,0.6,0,0.9-0.1c0,0.1-0.1,0.1-0.1,0.3c0.6,0,0.8,0.1,1.1,0.3
		c-0.3,0.4-1.3,0.1-1.7,0.3c-0.1,0.6,0,0.4,0.1,0.8c0.3,0,0.9-0.1,1,0.1c0,0.1-0.1,0.3-0.3,0.3c-0.7,0-0.9-0.6-1.7-0.6
		c-1.4,0.1-5.1,1-6.2-0.3c-0.7-0.1-1,0.1-1.7,0.1c0.1-0.7-0.3-0.4-0.4-0.6c0.1-0.3,0.3-0.4,0.3-0.8c-1.8-0.6-3.8,0.6-5.1,1.3
		c0.1,0,0.4-0.3,0.6,0c0,0.1-0.1,0.3-0.1,0.4c-0.3,0-0.4,0-0.6,0.1c0.1,0.7-0.7,0.9-0.1,1.3c-0.4-0.1,0,0.4-0.3,0.3
		c-0.1,0-0.4,0-0.4,0.1c0-0.1,0-0.3,0.1-0.3c-0.6,0-0.6,0.8-1,0.4c0.1-0.3,0.3-0.3,0.1-0.6c0.3,0,0.7,0,0.8-0.3
		c-0.7-0.1,0-0.6-0.3-0.7c-0.1,0.1-0.4,0.3-0.7,0.4c0-0.3,0-0.4,0-0.7c-2-0.4-5.2,0.4-7.9-0.1c0.7-0.6,2-0.7,2.8-1
		c-1.3-1.4-5.1-1-6.8-1.1c0-0.3,0.4-0.3,0.3-0.6c-1.7-1.7-3.8,0.1-5.9-0.1c0.4-0.1,1-0.1,1.1-0.4c-0.1,0-0.4,0-0.4-0.1
		c0.4-0.1,0.8-0.3,1-0.9c-0.6,0.4-1.1,0.1-1.6,0.6c0.3,0.1,0.4-0.3,0.4,0c-1.3,0.1-1.4,0.7-2.4,1c-0.1-0.1-0.4-0.1-0.3-0.4
		c0.4-0.7,0.7-2-0.6-1.6c-0.1,0.4-0.1,0.3,0.1,0.4c-1.1,0-2,1-2.8,0.9c0.3,0,0.6-0.1,0.6-0.3c-0.4-0.1-0.7,0.3-0.8,0
		c0.3,0,0.6-0.1,0.4-0.4c-2.6,0.4-5,1-7.4,1.4c-0.1,0-0.3,0.1-0.4,0.1c0.1,0,0.3,0,0.4-0.1c0.1,0,0.3-0.1,0.3-0.3
		c-0.3,0-0.4,0.3-0.3-0.3c-1.3,0.6-3.7,0.6-4.2,1.6c0.1,0,0.6-0.1,0.6,0.1c-0.1,0-0.1,0.1-0.1,0.3c-2.4-0.3-3.3-2.1-5.7-1.6
		c-2.8-1.6-8.4-1.4-12.3-1.7c0.6-0.1-0.3,0-0.3-0.3c0.3,0,0.3-0.3,0.3-0.4c-0.7,0.1-2.3,0.4-3,0.1c0.4-0.1,0-0.3,0-0.4
		c-0.1,0.1-0.4,0.3-0.7,0.3c-0.8-1-4.1,0-5.8,0.3c-5.5,0.6-11.6,3.7-16.9,4.7c1.7,0,1.1,1.6,1.4,2.5c0.8-0.3,1.3-0.3,2.1,0.1
		c-0.6,0.1-0.8,0.6-1.4,0.6c0.1-0.3,0.6-0.4,0.3-0.9c-0.7,0-1,1-1,1.3c0-0.3,0.8-0.3,1-0.1c0.1,0.1,0.1,0.3-0.1,0.3
		c-0.8-0.4-2.8,0.7-4.1-0.3c0.6,0,0.8-0.4,1.3-0.4h0.1h-0.1c-2.7-0.8-6,1.1-8.8,1.1c0.1,0.7,1.3,0.6,1.8,0.8c-0.4-0.1-1,0.3-1.3,0.1
		l0,0c0.1,0,0.1,0,0.1-0.1c0,0-0.1,0-0.1,0.1l0,0l0,0c-0.3,0.3-0.3,0.8-0.7,1c1.6,0.4,4.2,0.4,4.7,0c0.1,0.4-0.6,0.6,0,0.6
		c1.1-0.6,2.4-0.7,3.5-1c-0.3,0.6-1.1,0.7-1.7,1c0.1,0,0.3,0,0.3,0.1c-1.4,1.8-4.1,1.7-6.7,2.3c0-0.3-0.1-0.3-0.3-0.3
		c-2.8,1-5.4,2.4-7.7,3.5c0.4,0,0,0.1,0.1,0.3c0.4,0.1,0.7-0.4,1-0.1c-0.3,1.1-2.1,0.6-2.3,1.7c0.1,0.4,0.4,1,0.1,1.4
		c2-0.3,3.4-1.7,5-1.8c-0.4,0.4-1.8,0.4-1.8,1l0,0l0,0c0-0.1,0.6-0.1,0.4,0c-0.4,0.8-2.1,1.6-2,2.3c-0.7,0.1-0.8,0.7-1.7,0.9
		c0.9,0.4,1.4-0.6,2-0.3c-0.3,0-0.6,0.1-0.6,0.3c1,0,1.1-0.9,2.3-1c-0.3,0.3,0,0.3,0.1,0.4c0.4,0.1,0.4-0.4,0.6-0.1
		c0.3,0.3-0.1,0.6-0.1,1c1-0.3,1.1-1.1,2.3-1.1c-0.1,0.3-0.3,0.6-0.3,1c0.8-0.1,1.8-1,2.5-1c-1.7,0.9-3.4,1.6-4.4,3
		c-2.3,1-6.7,1.6-8.1,3.4c-0.3-0.3-0.4-0.1-0.9,0c-1.4-1-4.2,1.3-5.9,1.7c-1-0.3-3,0.3-3.5,1.1c1.4-0.1,2.3-0.7,3.4-0.4
		c0.3-0.4,0.6-0.7,1-1c0,0.9,0.7-0.1,1-0.1c0.9,0.7,1.7-1,3-0.9c-0.1,0-0.4,0-0.4,0.1c1.3,0,2.3-0.1,3.3-0.6c0,0.3-0.3,0.3-0.3,0.4
		c2.7-1.3,6.4-2.1,9.1-3.7c3-0.9,6.1-1.7,8.4-3.1c-0.3,0-0.7,0-0.9-0.3c2.4-1.3,4.8-2.3,7.7-3.1c-0.8,0.6-2.1,1.3-2.3,2.1
		c0.1-0.1,0.6-0.4,0.6-0.1c-0.7,0.4-1.8,0.3-2.3,1c2.3,0,4-1,6.1-1.7c2.1,0.6,4-1.8,6.2-1.7c-0.1,0-0.3,0.1-0.3,0.3
		c0.3,0,0.3,0.4,0.7,0.3c-0.3,0.3-0.6,0.4-0.6,0.7c0.7,0,1.1-0.7,1.6-0.4c-0.4,0.1-0.6,0.3-0.8,0.6c0.1,0.1,0.8,0.1,0.6,0.4
		c1.6,0.1,3-0.4,4.2-0.1c-0.1,0.3-0.4,0.3-0.6,0.4c1.1,0.7,2.3,0.1,3.3-0.3c0,0.3,0.3,0.1,0.3,0.4c-0.7,0-1.1,0.3-1.6,0.4
		c0.7,0.7,1.4,1.7,1.7,2.7c0.7-0.4,1.4,0,1.7-0.8c-0.4,0.1-0.1-0.4-0.1-0.4c-0.3-0.1-0.6,0-0.7-0.3c0.7,0,1,0.6,1.6,0.3
		c-0.1,0.4-0.6,0.4-0.7,1c1.3,0.1,1.7-0.4,1.8-1.4c0.7,0.1,0.4-0.6,1-0.6c-1.1,0.9-0.7,2.3-0.7,3c0.1,0,0.4,0,0.4,0.1
		c-0.4,0,0.1,0.6-0.1,0.4c-0.4,0.1-1.1-0.1-1.3,0.1c0.1,0.1,0.6,0,0.7,0.3c0,0.4-0.7,0-0.7,0.4c0.4,0,0.7,0,0.8,0.3
		c-0.3,0.4-0.4,1.3,0.3,1.7c-0.6,0.3-1.4,0.6-1.7,1.1c0.7-0.1,1.1-1.1,2-0.7c-0.1,0.4-1,0.7-0.6,1.3c-0.3,0.1-1.1,0.1-0.6,0.4
		c-0.3,0-0.4,0-0.6,0.3c0.3,0,0.4,0,0.3,0.3c0.4,0.1,0.7-0.1,1-0.1c-0.3,0.6-1.8,0.4-1.3,1.4c0-0.1,0.7-0.1,0.7,0
		c-0.7,0-1.4,0.7-0.7,1.6c0.6-0.6,1.4-1,1.8-1c-0.7,0-0.4,1.1-1.1,0.7c-0.3,0.6,0,1-0.4,1.4c0.1,0,0.6-0.1,0.6,0.1
		c-0.4,0.3-1,0.6-1.3,1c0.4,0,0.8-0.4,0.6,0.1c0.6-0.1,1-0.4,1.6-0.6c-0.1,0.4,0.1,0.3,0.3,0.4c-1.8,0-2.3,1.1-3.3,2.1
		c0,0.6,0.3,0.9,0.8,1c0-0.3,1-0.4,1-0.3c-0.3,0.4,0.1,0.1,0.3,0.3c-0.1,0.3-0.3,0.4-0.6,0.6c0.7,0,0.8,0.1,1.3-0.1
		c0.1,0.7,1.1-0.4,1.7-0.6c-0.1,0.6-0.8,0.6-1,1c0,0.4,0.4-0.3,0.3,0.1c-0.3,0.3-0.7,0.6-0.4,1c0.7,0.4,1.4-0.6,1.7-0.4
		c-0.4,0.4-1,0.6-1,1.3c0.3,0.4,0.8-0.3,1,0c-0.3,0.3-0.4,0.6-0.4,1c0.7-0.1,0.1,0.6,0.6,0.7c-0.4,0-0.4,0.3-0.7,0.4
		c0.6,0.6-0.4,1.6-0.8,1.8c0.1-0.3,0.4-0.4,0.4-0.9c-0.1-0.4-0.4,0.4-0.7,0c-0.1-0.6,0.3,0.1,0.3-0.3c-0.7-0.3-1.7-0.3-2.7-0.6
		c-0.4,1.3-0.8,2.7-1.3,3.8c0,0,0-0.1-0.1-0.1c-0.1,0.3-0.4,0.6-0.4,0.9c0.1,0,0.3,0,0.3,0.1c-3.3,3.8-6.4,7.9-8.6,12.9
		c0.1,0.1,0.3,0.3,0.3,0.6c-0.3,0.7-0.6,1.3-0.8,2c1.8,1.1,2.1,3.8,0.4,5.5c0.4,1.3,1.6,2.5,0.4,3.7c1.4,0.4,2.8,0.6,3.3,1.8
		c2.4,0.7,0.7,5.5,1.8,7.4c-0.8,1.7,1.8,2.1,1.8,4c-0.3,0.3-0.3,0.8-0.7,1c0,0.3,0.4,0.6,0.1,0.7c-0.3-0.1,0-0.4-0.3-0.4
		c-0.3,0.3-0.8,0-1.3,0c-0.1,0.7,0.8,0.6,0.7,1.4c0.6,0.1,1,0.4,1.1,1c0.4,0,0.4-0.1,1-0.1c1.3,1,1.8,2.8,0.6,4.2
		c0.4,0-0.1,0.3,0.3,0.3c0-0.1,0-0.4,0.3-0.3c0.8,1.4,2.7,1.8,2.8,4c1.6-0.1,1.1-1.6,1-2.4c-0.3,0-0.4-0.3-0.7-0.7
		c-0.4-0.1,0,0.6-0.4,0.3c-0.7-0.4-0.1-1.7,0.3-1.7c-0.3,0-0.1-0.4-0.3-0.3c0,0.1,0,0.3-0.1,0.3c-0.3-0.6,0-1.1-0.4-1.7
		c0.1-0.3,0.4-0.4,0.4-0.7c-0.4-0.1-0.4,0.7-0.6,0.3c0.3-0.8,0-2.4-0.6-2.3c-0.1-3.3-4.4-7.1-1.6-10.2c0.8,0.7,1.6,0.4,2.3,1.3
		c-0.6,1.1-0.3,3.3,0.1,4.1c-0.7-0.1-1,0.7-0.6,1c0.4,0.1,0.3-0.6,0.7-0.4c0.1,1,0.8,1.3,1,2.3c0.4,0.1,0.7-0.1,1,0.3
		c-0.8,1.1,1,1.3,0.8,2.4c0.3,0,0.4,0,0.6-0.1c0,0.3,0.3,0.3,0.3,0.7c-0.7,0.9-1,2.1,0.3,1.8c0,0.7,0.8,0.6,1.1,1
		c0,0.4-0.1,0.4-0.1,1c2.3,1.4,3,4.4,3.8,6.7c0,0.7-0.6,1-0.8,1.6c0.4-0.1,0.4,0.1,0.3,0.4c-0.4,0-0.6,0.1-0.8,0.3
		c-0.1,2.7,2.7,2.5,3.3,4.5c1,0.1,1.7,1,2.8,0.7c1.1,1.7,3.1,2.5,5.5,3c1.8,2,5,2.3,7.4,0.7c-0.1-0.1-0.4,0-0.4-0.3
		c0.4-0.1,0.4,0.1,0.8,0.1c-0.1,0-0.3,0-0.3,0.3c0.4,0,0.6,0,0.7-0.3c-0.3,0.6,0.6,0.7,0.7,0.3c1.6,2.6,3.8,4.5,6.9,5.7
		c1.4,0,2,0.9,3.5,0.9c0.1-0.1,0.1-0.4,0.3-0.6c0.1,0.4,0.1,0.3,0.4,0.1c-0.1,0.4,0.3,0.3,0.3,0.7c-0.3,0.3-0.4-0.4-0.7,0
		c1.1,1.4,2.3,2.8,3.4,4.2c-0.1,0.3-0.3,0-0.4,0.3c0.3,0,0.6,0,0.4,0.3c-0.1,0.6-0.3,0.4-0.4,1c0,1,1,0.9,1.4,1.6
		c0.1-0.3,0.4-0.3,0.4-0.6c-0.1-0.3-0.6-0.3-0.6-0.7c0.6,0.3,1,0.4,1,1.3c1.1,0.3,2.4,1.1,1.6,2.1c0.3,0.1,0.6,0.4,1,0.4
		c0.1-0.4-0.4-0.6-0.1-0.7c0.4,0.1,0.4,1.6,1,1.3c-0.3,0,0-0.4,0.1-0.4c0.4,0.1,0.4,0.1,1,0c-0.3,0.4,0.7,0.3,1,0.3
		c-0.3,0.6,0.7,1.7,1.1,0.9c0.3,0.4-0.6,0.4-0.3,0.6c0-0.1,0.3-0.1,0.3-0.3c0.1,0.4,0,0.6,0.1,0.9c0.7,0.3,1-0.6,1.7-0.4
		c0-0.9-0.7-0.9-0.8-1.6c1-0.7,3.1-3.1,3.7-0.4c0.3,0.1,0.4-0.3,0.4,0c-0.3,0.1,0,0.7-0.4,0.6c0.4,1.4,1.3,2.3,1.8,3.1
		c-0.1,1-0.1,1,0.1,1.8c0,0.4-0.6,0-0.4,0.4c0.6,0.7,0,2.3,0.3,2.8c-0.3,0-0.4,0.1-0.3,0.3c0.1,0.3,0.4,0.4,0.6,0.6
		c-0.4,0.4-0.4,1.3-1.1,1.6c0,0.4,0,0.9-0.3,1c-0.3-0.3-0.7,0.1-1.4,0.3c-0.3,0.6-0.1,0.9,0,1.4c-0.4-0.3-0.8,0-1,0.4
		c0.3,0,0.4,0.1,0.4,0.3c-0.4,0.9-1.7,0.7-2.4,1.3c0.3,1.1,0,2.1-0.8,2.4c0.4,0.6,0,1.1-0.7,1.4c0,0.9,0.7,2.1-0.1,2.7
		c0.4,0.6,1.6,0.6,1.4,1.7c0.6,0,0-0.6,0.7-0.6c0-0.3-0.1-0.3-0.3-0.3c0.1,0,0.4-0.6,0.4-0.3c0,2.4-4,2.8-2.3,5.4
		c-0.1,0-0.3,0.1-0.3,0.3c0.3,0.4,0.8,0.6,0.7,1.3c-0.3,0.3-0.4-0.1-0.6,0.1c0,0.1,0,0.4,0,0.6c4.1,1.8,5.5,7.2,7.2,11.1
		c1.3,1.3,3.1,3.7,3,5.2c1.6,4.7,7.5,5,10.2,8.4c3.5,1.6,3.3,7.6,3.3,11.5c-0.1,0-0.1-0.1-0.3-0.1c0,0.3,0,0.7,0,1
		c0.1,0.3,0.3-0.1,0.4,0.1c0.1,3.3,0.4,5.5,0.4,8.8c-1.4,2.1,0.8,4.2-0.3,5.7c2.1,5,1.6,8.9,1.3,13.7c-0.1,0-0.1-0.1-0.3-0.3
		c0,0.6,0.3,0.7,0.3,1.3c-0.4,0.1-0.4-0.1-0.7-0.1c0,2.1,3,4.2,1.7,6.1c0.3,1.6,0.3,3,1.7,3.8c-0.6,0.1-0.3-0.1-0.8-0.1
		c0.1,1.1,0.6,1.7,0.6,3.1c0.3,0.1,0.7,0.3,1.3,0.3c-0.3-0.6-0.1-0.4,0.3-0.6c-0.4-0.3-0.6-0.3-0.3-0.7c-0.3,0-0.6-0.1-0.7-0.4
		c0.4,0,0-0.1,0-0.3c0.1,0,0.3-0.1,0.4-0.1c0-0.4-0.6-0.4-0.6-1c0.9,0.1,0.3-0.6,0.7-0.7c0.3,0.1,0.6,0.1,0.6,0.4s-0.3,0.4-0.1,0.6
		c0.1,0.1,0.6,0.1,0.7,0c-0.1,0.4,0.1,0.4,0.3,0.6c-0.3-0.3-0.3-0.1-0.7-0.1c0.3,1,0.8,1.4,0.4,2.6c0.4,0.3,0.3,0.4,0.6,0.9
		c-0.1,0.1-0.1,0.6-0.3,0.7c0.3,0.1,0.6,0.3,0.8,0.4c-0.7-0.1-0.1,0.4-0.6,0.4c0.4,0.6,0.4,1.6,1,1.6c-0.4,0.4-0.6,0.3-1.4,0.3
		c0,0.3,0.1,0.6,0.4,0.6c0.1,0,0-0.3,0.3-0.3c-0.1,0.6,0.4,0.3,0.6,0.6c-0.1,0.4,0.1,0.6,0.1,1c-0.7-0.1-0.9-1.1-1.6-1
		c0.1-0.4-0.1-1.1-0.6-1.3c-0.3,0.6,0.3,0.6,0.3,1c-0.1-0.1-0.4-0.1-0.3,0.3c0.3,0.3,0.3,0,0.4-0.1c0,0.3,0.1,0.4,0.3,0.6
		c-0.1-0.3-1-0.3-1.1,0c0.1,0.6,0.6,0.4,0.7,0.3c-0.3,0.4-0.9,0.7-1,1.3c0.3,0.3,0.4,0.6,0.9,0.6c0.4-0.3-0.6-0.6-0.3-0.7
		c0.1,0,0.4,0,0.4-0.1c0.1,0.6,0.8,0.4,1.3,0.7c0-0.1-0.1-0.3,0-0.3c0.3,0.1,0.6,0.4,1,0.6c-0.7,0.7-0.3,0.7-0.7,1.4
		c0.1,0.1,0.6,0.1,0.9,0.1c-0.1,0.3-0.4,0.3-0.3,0.7c0.6,0.1,1,0.4,1.4,0.8c-0.7-0.3-0.1,0.6-0.4,0.7c-0.3-0.7-0.7-1.4-1.3-1.6
		c0.3-0.3,0-0.1,0-0.6c-0.1,0.1-1,0.1-0.6,0.6c-0.3-0.1-0.3-0.3-0.6-0.1c0.6,0.4,0,0.9,0.6,1.4c0.6-0.3,0.6,0.1,1-0.3
		c0,0.3,0.1,0.6,0.1,0.9c-0.3,0.3-0.3-0.6-1-0.3c0.3,0.7,0.4,0.4,0.3,1c0.3-0.3,0.7-0.4,1,0c-0.3,0-0.4-0.3-0.6,0
		c0,0.4,0.6,0.3,0.6,0.7c-0.1,0-0.6-0.1-0.4,0.3c0.3,0.3,0.9,0.6,1.4,0.1c-0.4,0.4,0.3,0.3,0.3,0.7c-0.3,0-0.7-0.4-1-0.1
		c0.3,0,0,0.4,0.1,0.6c0.7,0,0,0.8,0.8,1c-0.1-0.4,0.1-0.6-0.3-0.8c0.4-0.6,0.4-0.6,0.8-1.1c-0.1,0.3,0.3,0.3,0.3,0.4
		c-0.1,0-0.6-0.1-0.4,0.3c0.3,0.3,0.7,0.3,1,0.6c-0.3,0.1-0.3-0.1-0.6-0.1c-0.1,0.4,0.4,0,0.3,0.3c-0.1,0-0.1,0.1,0,0.3
		c-0.3,0.3-0.3-0.1-0.6-0.1c0,0.7,0.6,1.1,1.3,0.7c-0.3,0-0.3-0.3,0-0.3c0,0.9,1.1,0.7,1.4,1.3c-0.1,0-0.1-0.1-0.3-0.1
		c0,0.6,0.7,0.8,1,0.8c0,0.4,0.3,0.6,0.4,0.7c-0.4-0.3-1-0.4-1.4-0.7c0.1,0,0.3,0,0.3,0.1c0-0.3-0.3-0.4-0.4-0.6
		c0,0.6,0,0.3-0.4,0.4c0.6,0.4,1.6,0.6,2,1.1c-0.1,0.3-0.6,0.1-0.4,0.6c0.4-0.1,0.3,0.3,0.6,0.3c0.3-0.1-0.3-0.4,0.1-0.6
		c-0.1,0.3,0.1,0.3,0.1,0.6c0.3,0,0.4-0.4,0.6,0c-0.6,0.1,0.4,0.3,0.3,0.7c0.3,0.1,0.8-0.1,0.8,0c-0.3,0.1-0.4,0.1-0.4,0.3
		c-0.7-0.6-2.1-0.6-2.8-1.1c0.6,1.1,2.4,0.9,3.3,1.7c-0.3,0.1-0.4-0.3-0.4,0c0.1,0,0.1,0.1-0.1,0.1c0.1,0.4,0.3,0.6,0.7,0.3
		c0,0.4,0.1,0.4,0.1,0.9c0.1,0,0.3,0,0.4,0c0.1-0.4,0.1-0.3-0.1-0.4c0.3,0.1,0.4-0.3,0.4,0c0.1,0.3-0.3,0.3-0.3,0.4
		c0.6,0,0.6,0,1-0.1c-0.3,0.7,0.4,0.1,0.1,0.7c0.6,0,0-0.4,0.3-0.6c0.3,0.1,0.3,0.4,0.7,0.4c0-0.4,0.6-0.4,0.7-0.1
		c0,0.3-0.3,0.3-0.4,0.4c0.3-0.3,0-0.3-0.3-0.3c0,0.4,0,0.7,0.3,0.7c1-0.7,1.4,0.3,2.7,0.3c-0.7,0.3-1-0.1-1.7-0.1
		c0.6,0.3,1.3,0.7,2.1,0.7c0-0.6-0.4,0-0.4-0.4c0.4-0.1,0.7-0.4,1.1-0.1c-0.8,0.4,1,1.6,1.6,1.1c-0.3,0-0.7-0.4-0.4-0.4
		c0.1,0.1,0.4,0.1,0.6,0c0,0.3,0,0.4,0.1,0.6c0.9-0.3,1.1,0.3,1.7,0.4c-0.3-0.7-0.8-1-1.6-1.3c0.4,0.1,0.3-0.1,0.4-0.3
		c0.1,0.6,0.8,0.7,1.3,0.3c0.1,0.1,0.3,0.4,0.6,0.3c0.4-0.3-0.4-0.7-0.1-0.8c1,0.4,1.7,0,2.7,0c0-0.3,0.1-0.3,0.1-0.6
		c-2.8-0.1-5.1-1.7-6.9-3.3c0.1,0,0.3,0,0.3,0.1c-0.3-0.6-1-0.8-1.6-1.1c-0.3,0.6-1.3,0-1.1-0.6c0.7,0,1.1,0.3,1.7,0.3
		c-1-1.4-2.7-2-2.8-4.2c1.3-0.3,1.8-1.3,1-2.4c0.3-1.3,1.7-1.7,2.1-2.6c-0.3-2.8-5.9-1.7-4.2-5.7c0.8-0.1,1.1-0.9,2.3-0.4
		c0.1-0.6-0.4-0.3-0.3-0.7c0.8-0.6,0.1-1.4-0.3-2.3c0-0.9,0.9-1,1.1-1.6c-0.6,0-1.1-0.1-1.3-0.6c0.3,0,0.4-0.4,1-0.3
		c0.3,0.1,0.3,0.6,0.4,0.7c0.3,0,0.7,0,1-0.1c0-0.9-0.3-1.3-0.8-1.7c-0.1,0.3-0.6,0.1-0.7,0.4c0.3,0,0.6,0,0.4,0.3
		c-0.3,0-0.6,0-0.9,0c0-0.3,0.1-0.3,0-0.4c-1.3-0.1-2.1-2.4-1.7-3.1c0.6,0.7,4.1,1.8,4.5-0.1c-0.1-0.4-0.6-0.4-0.7-0.7
		c0.1-0.4,0-0.6,0-1c0.1,0.1,0.3,0.1,0.3-0.1c0-1-1.1-1.4-1-2.1c2.6,1.1,6.1-0.1,7.9-1.3c0-1.6,1.7-2.8,0.3-4.1
		c-0.9,0.3-1.6-1.1-1-1.8c-0.8-1.3-3.5-1.4-3-3.1c0.3,0.6,0.8,0.7,1.1,1.1c0.4,0,0.9,0,1.3,0c0.3,0.4,1.1,0.4,1.6,1
		c1.1-0.1,1.8-0.3,2.8,0.1c0.6-0.3,1.1-0.7,1.7-1.1c0.7-1.8,1.7-3.4,2.3-5.4c2.8-1,1.8-5.9,4.4-7.1c0-0.9,0.3-1.7,0.3-2.6
		c-0.6,0-0.1,0.4-0.3,0.6c0-0.4-0.3-0.9,0.1-1c-0.7-0.9-0.4-2.6-0.3-3.4l0,0l0,0c0,0.1-0.4,0-0.4-0.1c0.6,0.1,0.3-0.3,0.4-0.3
		c0.1,0.1,0.3,0.3,0.3,0.3c0.7-1.3,2.3-2.8,3.3-3c0.1-0.3,0.4-0.4,0.7-0.6c0.4,0.1,0.9,0.3,1.1,0.4c0.1-0.7-0.4-0.3-0.3-0.7
		c0.4-0.3,0.9-0.6,1.6-0.7c0.1-0.4-0.4-0.1-0.3-0.6c0.6,0,0.4-0.4,0.9-0.1c0,0.4-0.4,0.6,0.3,0.4c-0.1-0.3,0.1-0.9,0.7-0.4
		c-0.1,0-0.6-0.1-0.4,0.3c1.3-0.1,2.3-0.6,3.7-0.3c-0.1-0.4,0.1-0.4,0.3-0.6c-0.7-0.7,1-1.1,1.6-1.6c-0.3-1-0.1-1.4,0.1-2.3
		c2.3-1.3,1-5,2.7-6.9c-0.1-3.1,0.1-6.5-0.4-9.1c0.7-0.4,0.3-1,0.7-1.6c0.4,0,0.1,0.7,0.3,0.9c1.8-1.3,1.6-4.5,3.7-5.5
		c1-1.6,3.1-4.1,2.8-6.9c-0.1-2-1-5.7-3.7-4.5c-0.3-0.1-0.4-0.4-1-0.3c-0.7-1-1.8-1.4-2.3-2.5c-1.7-1.7-4.5-1.8-6.7-2.1
		c-1.3,0.4-1.7-1-3-0.9c0,0.1,0.1,0.3,0,0.3c-0.3-0.4-1.1,0.4-1.3,0.4c0-0.3,0.4-0.3,0.3-0.7c-1-0.1-0.6,1.1-1.1,1.4
		c-0.3-0.6,0.3-1.3,0.4-1.7c-0.1-0.7-0.7-1.4-1-1.8c0,0.3-0.4,0-0.6,0.1c-0.1,0.3,0.1,0.4-0.3,0.4c-0.1-0.4,0.3-0.7,0-0.9
		c0,0.1-0.1,0.1-0.3,0.3c0.4-0.6-0.9,0-0.3-0.6c-0.3,0-0.3,0.1-0.3,0.3c0-0.6-0.9,0-0.6-0.7c-0.9,0.4-1.4-0.4-2-0.7
		c-1.6,0-2.1,0.4-2.4,2c-0.9-0.1-1.3,1.1-1.8,1.7c0.3-0.4,0.3-0.9,0.4-1.3c-0.9,0.4-1.7,0.3-2.3,0.3c2.1,0,3.8-1,3.8-3.4
		c-1.4-0.6-2.4,0-4.1-0.3c-0.1,0.3-0.4,0.4-0.3,1c-0.4,0-0.6,0.3-0.8,0.4c0-0.3,0-0.4-0.1-0.6c-0.4-0.1-0.7,0.6-0.9,0.3
		c1-0.4,1.3-1.7,2.3-2.4c0,0.6-0.4,0.7-0.3,1c-0.4,0-0.7,0.1-0.7,0.6c0.7,0,0.7-0.6,1.3-0.7c0.1,0.1,0.6,0.1,0.9,0.3
		c0.1-0.4,0.6-0.4,0.6-0.9c-0.7-0.1-1,0.1-1.4,0.3c0.1-0.4,1-0.7,0.4-1c-0.3,0.3-0.6,0.3-0.7,0.1c0.3-0.4,0.6-0.1,1-0.4
		c0-0.3-0.1-0.3-0.3-0.3c0.6-0.3,0.4-0.7,0.4-1.6c-0.3-0.1-0.4-0.4-1-0.3c0.1-0.1,0.1-0.9-0.3-0.9s0.3,0.6-0.1,0.6
		c-1.1-1.6-0.3-4.4-1.8-5.1c0,0.1,0,0.4-0.1,0.4c0-0.4-0.1-0.7-0.3-1c-1.6-1-3.7-3.4-6.4-2.7c-0.3-0.4-1.4-0.3-1.4,0.3
		c-0.4-0.3-1.4-0.6-2.1-0.3c-0.6-0.9-1.7-2.3-2.7-1.8c0.6-2.1-1.8-3.8-3.8-3.7c0.1-0.1-0.1-1-0.1-1.1l0,0c0-0.1,0,0,0,0
		c-0.1,0.1,0,0.6-0.3,0.6c-0.3-0.1-0.4,0.3-0.4,0c0.1-0.4,0.6-0.7,0.7-1.1c-0.1-0.6-1.3-0.3-1.3-1c-0.6,0.3-0.8-0.1-1.3-0.3
		c-0.1,0.1,0,0.6-0.3,0.4c0-0.9-0.7-0.9-0.8-1.6c0.7,0,1.6,0,1.8-0.4c-1.7,0.1-3.3-0.1-4.5,0.4c0,0.3,0.9-0.3,1,0.1
		c-1.7,0.4-3.5,1.7-4.4-0.3c-1.6-0.1-2.4,0.3-3.7,0.3c-0.1-1.1-0.8-2.6-2.7-2.1c-0.3-0.3-0.1-1.1-0.4-1.6c-0.7-0.3-1,1-0.4,1.3
		c0,0.1,0.3-0.3,0.6-0.3c0,0.3,0.1,0.3,0.1,0.4c-1.3,0.1-3,0.9-3.7,1.6c0.1-0.7-0.4-0.8-0.4-1.7c0.7-0.3,1.4-0.4,1.7-1.1
		c-0.1-0.4-0.4-0.7-1-0.7c-0.3,0.3-0.4,0.3-1,0.4c-0.7,1.3-2,2.3-3.8,1.8c-0.4,0.4-0.3,0.9-0.6,1.3c-0.1-0.1-0.1-0.4,0-0.6
		c-0.4,0.1-0.4-0.3-0.9-0.3c-1.4,1.3-1.7,2-1.7,3.7c-1.4,0-1.3,1.7-2.6,1.7c0,0.3,0.4,0.7,0.1,1c-1.1-1.1-1.6-3-4-2.8
		c0.3-0.4-0.7-0.3-1-0.3c-1,0.9-2,1.6-3.7,1.7c-0.1-0.3-0.4-0.6-0.7-0.9c-0.4,0.1,0.3,0.4,0,0.4c-0.3,0-0.6,0-0.7-0.3
		c0.1-0.1,0.4-0.3,0.3-0.6c-1.7-0.7-2.4-2.4-3-4.2c0.1-0.3,0.8-0.9,0.3-1.3c0.7-1.8,1.4-4.4,1.4-6.2c0.3,0.3,0.3-0.1,0.4-0.3
		c-0.7-0.6-1.7-2-2.6-1.7c-0.4-1-1.7,0.1-2.4-0.6c-0.6,0.9-2.4,0.6-3.4,0.3c-0.3,0.1-0.4,0.4-0.8,0.4c-0.3-0.1-0.4-0.3-0.7-0.4
		c0,0.1,0,0.3-0.1,0.3c-0.1-0.1-0.3-0.1-0.4-0.3c1.7-1,1.6-3.4,2.3-5.1c-0.1,0-0.4,0-0.4-0.1c0.3-0.1,0.3-0.6,0.6-0.7
		c-0.3,0.6,0.1,0.6,0.1,1.1c0.6-0.6,0.8-1.6,1.1-2.4c-0.1,0-0.3,0.1-0.3,0c0.3,0,0.8-0.3,0.4-0.6c0,0.3-0.6,0.1-0.4-0.1
		c0.6-1.4,3-2.5,1.8-4.2c-2.6,0.4-7.2-0.3-6.9,3.7c-0.7,0.7-0.8,2.1-2.3,2.3c-0.1,0.4,0.3,0.3,0.3,0.4c-0.3,0.3-0.8,0.7-1.1,0.3
		c0.3-0.1,0.6-0.1,0.7-0.4c-0.4,0-0.4,0.3-0.7,0.3c-1.4-0.3-3.4,0.9-5.1,1c0-1.3-1.6-1-2.3-1.6c-0.1-2.1-2.1-3.5-1.7-5.7
		c-0.1-0.3-0.3-0.6-0.4-0.7c0,0.4,0.6,0.7,0.1,1c-1-2.3,1.1-5.1,0.4-6.7c0.3,0,0.3-0.1,0.4,0c-0.1-0.4-0.1-0.6,0.1-0.3
		c0.8-1.6,1.3-2.7,1.4-4.4c0,0,0-0.1-0.1-0.1c0-0.1,0.1-0.3,0.1-0.4c0-0.1,0-0.3,0-0.3c0,0.1,0,0.3,0,0.3c0,0.1,0,0.4,0,0.6
		c0,0,0,0.1,0,0.3c0,2,0.1-1.3,0.1-1.6c0,0.1-0.3-0.1-0.4-0.3c0.4,0.1,0.4,0,0.7,0.1c0.3-0.9,1.1-1.4,0.7-1.8c0.1,0,0.3,0,0.4,0
		c0,0.1-0.6,0.4-0.3,0.6c0.3-0.6,0.8-0.7,1.3-1c0.1-0.1-0.4-0.4-0.1-0.7c0.3,0.3,0.4,0,0.8,0.3c1-0.4,1.8-1,2.6-1.7
		c0,0.1-0.6,0.4-0.3,0.4c0-0.3,0.3-0.3,0.4-0.3c0-0.4-0.3-0.4-0.3-0.9c0.3,0,0.3-0.3,0.6-0.1c0,0.3-0.3,0.1-0.3,0.4
		c0.6,0,0.3,0.1,0.1,0.3c1.7-0.7,2.8-1.3,4.8-0.4c0-0.3,0.1-0.4,0.4-0.6c-0.1,0.3,0.3,0.1,0.4,0.3c-0.1,0.6,0.3,0.4,0.4,0.6
		c0,0.3-0.1,0.3-0.3,0.3c0.6,0.1,1.1,0.6,1.7,0c0.3,0,0.1,0.4,0.3,0.4c0.3-0.3,0.4-0.7,0.4-1c0.1,0.4,1.1,0.4,0.8,1.1
		c0.3,0,0.6-0.1,0.8-0.3c0-0.7-1-0.4-1-1.1c0.4,0.1,0.4,0.1,0.3-0.3c0.1,0,0.3,0,0.4,0c0-0.1,0-0.4,0-0.6c-0.4,0-0.4,0.4-0.7,0.1
		c0-0.1,0.1-0.1,0.3-0.3c-0.6-0.1-1,0.3-1.1-0.1c0.1-0.1,0.4-0.3,0.6-0.3c1.3,0.6,3,0.1,4-0.6c0.1,0.6,0.1,0.8-0.3,1
		c0.8-0.1,1.3-0.7,2-0.6c-0.3,0-0.4,0-0.6,0.3c0.7,0.1,1.4-0.4,1.8-0.3c-0.1,0-0.3,0-0.3,0.1c0.4,0.1,0.8,0.6,1.3,0.3
		c-0.1,0.9,0.6,0.6,0.1,1.1c3.7-2,5,1.6,4.1,4.2c0,0-0.1,0.1-0.1,0.3c0-0.1,0-0.1,0.1-0.3c0.1-0.1,0.1-0.1,0.3-0.3
		c0.1,0.3-0.1,0.7-0.4,0.7c0.3,0.4,0.1,1.4,0.7,1.7c0.1-0.1,0-0.4,0.3-0.3c-0.6,0.4,0,1-0.4,1c0,0.4,0.1,0,0.4,0.1
		c0,0.4,0,0.9,0.1,1.1c0.3,0,0.4,0,0.6,0.1c0,0.6,0.4,0.9,0.6,1.3c-0.3,0-0.1-0.3-0.4-0.3c-0.1,0.9,0.8,0.4,1.3,0.3
		c0.1,0.3-0.4,0.4-0.1,0.4c3.7-3.4-1.7-13.2,3.1-15.7c0.4-0.1,1.4-0.4,1.8-1c1.6-0.1,2.1-3,4.1-2.3c0.1-1.1,2.3-2.1,3-1.7
		c0-0.4,0.7-0.4,0.4-0.7c-0.1-0.4-0.7,0.3-0.8-0.1c0.6,0.1,0.4-0.4,0.8-0.6c-0.1,0-0.3-0.1-0.3-0.3c0.9,0.3,1.8-0.3,2-1
		c-0.3-0.4-0.6,0.6-0.7,0.3c0-0.3,0.3-0.3,0.1-0.4c-0.3-0.1-0.6,0.3-0.6,0c0.6-0.4,0.6-0.4,1.3-0.3c0,0.3,0,0.7,0.3,0.7
		c0-1,0-1.8-0.3-2.4c-0.4-0.1-0.3,0.1-0.7,0.1c0.1-0.4-0.7-0.6-0.3-0.7c0.3,0.1,0.3,0.7,0.8,0.4c0.1-0.4-0.4-0.4-0.1-0.6
		c0.3-0.3,0.1-0.3,0.3,0c0.1-0.6,0.3-1,0.4-1.4c-0.3-0.1-0.6-0.1-0.6-0.4c0.1,0,0.4,0.4,0.6,0.1c-0.3-1.4,0.7-2.8,1.7-3
		c-0.4,0.7-0.8,0.7-1.1,1.4c0.1,0,0.3-0.1,0.3,0c-0.3,0.1-0.4,0.3-0.1,0.4c-0.4-0.1-0.4,0.3-0.4,0.6c1,0,0.1,0.7,0.7,1
		c-0.4,0.4-1,0.7-1,1.6c1-0.6,1.3-1.7,2.1-2.3c0,0.3-0.7,0.4-0.3,0.7c0.4-0.6,0.9-1.3,1-1.7c-0.1-0.6-0.4-0.7-0.3-1.6
		c0.4,0.3,1.1,0.4,0.6,1c1.1-0.9,3-2.3,2.7-3.7c1.4,0.3,3.3-0.3,4.2-1c-0.3,0.1-1.1,0.3-0.6-0.1c-0.9,0.4-2.4,0.4-3,0.6
		c1.1-0.9,3-0.9,4.2-1c0.3-0.3,0.3-0.7,0.6-0.8c0.3,0.3,0.3,0.1,0.1,0.4c0.4,0,0.7-0.3,1-0.4c0,0.1-0.1,0.1-0.1,0.3
		c0.6,0,1-0.3,1.4-0.4c-0.1-0.3,0.1-0.8-0.3-0.7c0.1,0.4,0,0.7-0.4,0.8c0-0.1-0.1-0.1-0.3-0.3c0.1-0.7-0.3-1.1-0.4-1
		c1-0.6,1.4-3,3.1-3c0.1-0.1,0-0.6,0.3-0.6c0,0.1,0,0.3,0.1,0.3c0.3-0.4,0.6-0.3,1-0.3c0.3-0.4,0.4-1,1-1c0,0.1-0.1,0.1-0.3,0.3
		c0.3-0.1,0.3,0.1,0.6,0.1c0-0.1,0-0.3,0.1-0.3c0,0.1,0,0.4,0.3,0.3c0.3-0.1,0.1-0.4,0.3-0.4c0.4,0.4,1.6-0.6,2.3-0.6
		c-0.1-0.3,0-0.6,0.3-0.8c1.7,0.3,3.5-0.7,4.7-1.4c-0.1,0.6-1,0.4-1,1c0.7-0.1,1.4-0.4,2,0c-0.4,0-0.7,0.3-1,0.4
		c-0.1,0,0-0.6-0.3-0.6c-1,0.9-2.6,1.1-3.7,2c0.1,0,0.3,0,0.3-0.1c-0.4,0.4-0.8,1-0.8,1.6c0.6,0,0.4,0.4,1,0.6
		c0.9-0.7,2.3-1.1,2.8-2.3c0.4,0,0.6,0,1,0.3c1.3-1,3.8-1.3,5.1-1.8c-0.1-0.1-0.6,0-0.6-0.3c0.4,0.1,0-0.4,0.3-0.3
		c0.8,0.3,1.7-0.3,2.6-0.7c-0.1-0.3,0.1-0.3,0.1-0.6c-0.4,0-0.7-0.1-1-0.3c0.3-0.3,0.6-0.6,0.7-1c-0.4,0,0-0.1-0.1-0.3
		c-1.3,0.7-2.4,1.4-2.8,3c-0.4,0-0.7,0-0.6-0.4c-1.1,0.4-2.4,0.3-3.4-0.3c0.3,0,0.6,0,0.4-0.3c-0.6,0-1.1,0-1.3-0.3
		c0.3-0.4-0.1-1.1,0.3-1.6c-0.3-0.1-0.6,0.3-0.6,0c0.6-0.6,1.6-1.3,1.7-1.7c-0.1,0.1-0.4,0.3-0.4,0.4c-0.1-0.1-0.4-0.1-0.4-0.3
		c-0.3,0.1-0.6,0.3-1,0.3c-0.3-0.3-0.6-0.7-1-0.9c1.4,0.3,2.7-0.1,4-0.7c0-0.6,0.3-0.7,0.3-1.3c-5.2-1.4-9.4,2.8-12.9,4.2
		c1.1-0.7,2.7-1.6,3-2.5c2.1-1.3,5.4-2.4,7.4-4.2c2.6,0.1,5.7-0.4,7.8,0.3c2.1-0.1,3.1-0.6,4.8-1.4c1.1-1.8,5.1-1,6.5-3
		c-0.3-0.6-0.1-0.4,0.3-0.6c-0.1-0.3-0.7,0-0.7-0.3c0.3-0.3,0.4,0,0.7-0.3c-0.6-0.1,0.6-0.4-0.3-0.7c0.4,0,0.6-0.1,0.7-0.4
		c0-0.6-1.1-0.7-0.7-1c-0.6-0.1-1.3,0.4-1.6,0.4c0-0.1-0.1-0.1-0.1-0.3c0.4,0,0.4-0.1,0.7-0.3c0.1-0.4-0.1-0.4-0.1-0.8
		c-0.3-0.1-0.9,0-1.1-0.3c0.6-0.1,1.4,0,1.6-0.7c-0.3,0-0.3-0.1-0.7-0.1c0.1-0.3-0.1-0.3,0.1-0.4c-0.4,0.1-1.3,0.4-1.6,0
		c0-0.3,0.1-0.3,0.1-0.4c-0.3,0-0.4,0.3-0.3-0.1c-0.9,0.4-0.4,0.1-1.1,0c0.1,0,0.3-0.1,0.3-0.3c-0.3,0-0.9,0.3-1,0
		c0.6,0,0.1-0.9,0.6-1c-0.6,0-1.1-0.1-1.4-0.4c0.1-0.1,0-0.1,0.1-0.4c-0.1,0-0.4,0.3-0.6,0c0.6,0,0-0.4-0.1-0.4
		c0.7,0.3,0.6-0.3,0.7-0.6c0.1,0.1,0,0.4,0.4,0.3c0-0.4,0.4-0.6,0.4-1c-0.1-0.3-0.9,0-1-0.3c0.9,0,0-0.4-0.1-0.6
		c0.4,0,0.6-0.1,0.7-0.3c-0.4,0,0.1-0.6-0.1-0.4c-0.4,0.1-0.1-0.4-0.4-0.6c0.3,0,0.3-0.3,0.3-0.4c-0.1-0.3-0.7,0.3-0.9,0
		c0.7,0,0.4-0.4,0.7-0.7c-0.3-0.1-0.4-0.3-0.1-0.4c-0.1,0-0.4,0-0.4-0.1c0.3,0.1,0.4-0.4,0.3-0.3c0,0.1-0.4-0.1-0.6-0.3
		c0.3,0,0.4,0,0.4-0.3c-0.6,0-0.1-0.1-0.4-0.3c0.4-0.1,0-0.6-0.1-0.6c0.1-0.1,0.4-0.3,0.3-0.7c-0.1,0-0.1-0.4-0.4-0.3
		c-0.4,0.7-1.1,1.3-2,1.6c-0.1,0.4,0.4,0.4,0.1,0.6c-0.8,0.1-1.1,1.1-2,1.4c-0.7-0.4-1.6,1-2.8,1c0-0.1,0-0.3,0.1-0.3
		c-0.7,0.3-0.6,0.4-0.3-0.3c-0.7,0.3-0.4-0.4-0.6-0.7c-0.4,0-1.1-0.1-1.4,0.1c0.3-0.1,0.1-0.9,0.8-0.7c0.1-0.4-0.6,0-0.6-0.3
		c0.1-0.4,1-0.7,0.6-1.3c0.6-0.7,1.3-1.3,1.7-2.1c-0.4,0.1-0.6,0.4-1,0.4c0-0.3,0.1-0.3,0.1-0.4c-0.7,0.1-1.6,0.1-2-0.3
		c0.1-0.3,0-0.1,0-0.4c0.1,0,0.3,0,0.4,0c-0.1-0.6-1.3-0.6-1-1.1c-0.7,0-0.8-0.4-1.1-0.7c-2.4,1.7-6.1-1.8-7.4,1.3
		c0,0.4,0.3,0.3,0.3,0.6C163.9,288.3,162.8,288.8,162.6,289.2L162.6,289.2z M133.6,328.3L133.6,328.3c0-0.4,0.4-0.4,0.4-0.7
		c2.1,0.6,3.1-1.8,5.8-1c0-0.1-0.3-0.1-0.4-0.1c0.4-0.6,1.8-0.3,2.6-0.7C140.4,327,136,329.6,133.6,328.3L133.6,328.3z M137,318.6
		L137,318.6c1.7,0.1,3.1,0.6,4.7,0.7c-0.1,0.3,0.3,1.3,0.4,1.1c0.1,0.4-0.1,0.4,0.1,1.1c-0.4-0.3-0.7,0-0.6,0.6
		c-0.6,0-0.8-0.1-1-0.4c-0.1,0-0.1,0.4-0.4,0.3c0.3-0.6-0.3-0.7-0.3-1.4c-0.3,0-0.3,0.1-0.6,0.1c0.1,2-1.7,3.7-3.1,4.7
		c-0.1-0.4,0.4-1,0.3-1.8c-0.7-0.9-1.4,0.4-2.1,0.6c0.3-1.1,2.3-1.7,2.3-3.3c-0.4-0.7-1.3-1-2.1-1.1c-0.4,0.7-1.7,1.3-1.8,1.8
		c-0.6,0.3,0.1-0.4,0.3-0.7c-3.8,1.1-2.6,6.7-6.5,7.7c-0.1-3.5,2.3-5.7,4.2-7.7c-0.6,0-1.3,1-2,1.1c0.3-0.7,1.7-1.4,2.3-2.3
		c0,0.4,0.3,0.1,0.7,0c0,0.1-0.1,0.1-0.1,0.3c2.3-1.3,5.5-0.7,7.9,0.3c0.4-0.1,0.6-0.3,0.7-0.7c0-0.3-0.4,0.4-0.3-0.3
		c-0.6,0.3-0.9-0.1-1.6,0.3c0-0.1,0-0.3,0-0.3c-0.8,0.6-1.1-0.4-1.7,0C136.7,318.9,137,318.9,137,318.6L137,318.6z M130.6,314
		L130.6,314c0,0.1-0.1,0.1-0.1,0.3c0.7,0,0.7-0.7,1.3-1c0.3-0.1-0.4,0.4-0.6,0.7c0.7-0.3,1-0.4,1.7-0.9c-0.1-0.4-0.7,0.3-0.7,0
		c0.4-0.7,1.7,0.4,2.8,0.3c-0.4,1.4,0.3,1.8,1.7,1.6c0,0.4-0.3,0.4-0.4,0.7c0,0.4,0.4,0.3,0.3,0.7c-0.3,0.1-0.3,0.6-0.6,0.7
		c0,0.1,0.3,0.1,0.4,0.1c-0.4,0.3,0,0.6-0.6,0.7c0,0.3,0.4,0,0.6,0.1c0,0.9-0.3,1-0.1,0.1c-0.4,0-1,0.1-1.1-0.1
		c0-0.4,0.3-0.3,0.3-0.6c-1.7-0.1-4,1.6-4.7-0.3c-0.7,0.1-0.7-0.3-1,0.3c0-0.6,1.1-1,1.7-1.3c-2.1-0.1-3.7,1.8-5.9,1.7
		c-0.3-0.3,0.8-0.3,0.7-0.7c-0.7,0.3-1.7,0.3-2.7,0.6C125.5,316.1,128.8,315.7,130.6,314L130.6,314z M119.8,304.9L119.8,304.9
		c0.3-0.1,0.7,0,1-0.3c-0.1-0.3-0.8,0-1-0.3c0.3-0.6,1-1,1.4-1.6c0.3,0.1,0.8,0.1,1.1,0.3c0.6,1.4-0.7,2.8-0.4,4
		c-0.3,0.4-1,0.1-1.1,0.7c-0.3-0.3,0.4-0.6,0.4-1s-0.3-0.4-0.3-0.4c-0.4,0-0.4,0.8-0.8,0.4C120.3,306,119.7,305.9,119.8,304.9
		L119.8,304.9z M118.6,285.6L118.6,285.6c-0.1,0.4-2.4,0.1-1.4,0.4c-3.7,0.6-8.2,4.2-12.6,2.3c2.3,0.3,3.5-0.9,5.5-1.3
		c-0.3-0.3-0.1-0.7,0-1c-0.1-0.1-0.8-0.3-0.4-0.4c0.4,0.3,1.8,0.6,2.3,1.3C114.8,287.2,116.2,285.4,118.6,285.6L118.6,285.6z
		 M112.6,277.6L112.6,277.6c-0.6,0.6-2,0.4-2.6,1c0.7,0.8,5.2-0.7,3.7-0.1c0.6,0.6-1.1,0.6-1.6,1c0,0.1,0.1,0.3,0.3,0.3
		c-1.8-0.1-3.4-0.1-4.1,1.7c-0.3-0.1,0.1-0.4,0.3-0.7c-0.7,0.1-1.4,0.4-2.3,0.6c0.6-0.4,1.4-0.6,2.1-0.8c-1.7-1.1-3,1.7-5,0.4
		c0.7-0.6,2.7-0.7,2.8-1.4c0.4-0.4,1.7,0.1,1.8-0.3c-1.3-1-3.3,0.1-5,0.1C105.3,278,109.9,278.3,112.6,277.6L112.6,277.6z
		 M69.8,318.2L69.8,318.2c0,0,0-0.1,0.1-0.1C70,318.1,69.8,318.2,69.8,318.2L69.8,318.2z M504.5,304.1c4.5,4.5,8.1,10.1,11.8,15.6
		c0.1-0.7-0.6-1.3-0.3-1.7c1,0.1,1.8,0.6,2.3,1.4c-1.1-2.7-5-2.8-5-6.7c1.3-0.6,2.5,0.9,3.4,1c-1.8-1.4-5-4.2-6.9-6
		c-0.7-0.6-2.3-3.4-2.3-2.7c-0.7-0.7-1.8-2-3.4-3c0.1,0.4-0.6,0-0.4,0.3c1,0.1,1.4,0.9,1.7,1.7C505.2,303.8,504.8,303.5,504.5,304.1
		L504.5,304.1z M246.6,366.5C246.6,366.5,246.8,366.4,246.6,366.5c0.1,0,0.1,0,0.1,0c-0.9,2.1-2.8,3.5-2.6,6.4c0-0.3,0-0.7,0.3-0.7
		c-0.1,0.4,0.3,0.4,0.3,1c0.3,0.3,0.4-0.1,0.6,0.1c0.3,0.6,0.3,1.4,0,2c0-0.1,0-0.3-0.1-0.3c0.9,3.1,0.3,8.9-2.4,10.9
		c0.3,0.3,0.1,0,0.6,0c0.4,0.7,0.7,1.7,1.1,2.6c-0.4-0.1-0.4,0.1-0.6,0.3c0.1,1,0.1,1.4,0,2.1c0.6,0.3,1,0.9,1.3,1.4
		c0.7,0.1,0.9-0.3,1.4-0.3c-0.3,0.3-0.1,0.4-0.4,0.9c0.3,0.1,0.6-0.6,0.7-0.3c-0.1,0.1-0.6,0.1-0.4,0.6c0.4,0.3,0.9,0.9,0.9,1.3
		c0.4,0.1,0-0.7,0.4-0.4c0.4,2.1,2.7,2.7,3,4.5c-0.4-0.1-0.1,0.4-0.3,0.6c0.1,0.3,0.3-0.1,0.4,0.1c-0.3,0.3-0.6-0.1-0.6,0.3
		c0.7,0.4,0.6,1.3,1.3,1.7c-0.3,0-0.7-0.1-0.6,0.3c4.2,1.4,5.8,5.5,10.2,6.9c2.4-1.8,7.4-2.5,10.3-1c1.8-0.9,3.3-2,5.7-2.3
		c1.6-2,7.8-2,8.2,1c-0.4,2,2.4,3.1,3.5,1.7c0.4,0.3,1,0.1,2.1,0.1c0-0.1-0.1-0.6,0.1-0.6c0.3,0.3,0,0.4,0.3,0.7
		c0.4,0.1,0.3-0.1,0.7-0.1c-0.1,0.4,0.1,0.6,0.1,1c0.3,0,0.6,0.1,0.7,0.3c0.4,0.1,0.1-0.4,0.4-0.3c0.7,1.3,0.7,4.4-0.4,6.2
		c0.7,0,0.3,0.3,0.4,1c-0.3-0.3-0.1,0-0.6,0c0.1,0.6,0.4,0.7,0.9,1c-0.6,0.1-0.6-0.3-0.7-0.4c0,0.9-0.1,2-0.7,2.4
		c0-0.1-0.4-0.3-0.6-0.3c0.3,0.4,0.7,0.9,0.7,1.7c0.1,0.3,0.3-0.1,0.4,0.1c0.7,3.5,5.2,5.8,5.9,9.8c-0.1,0-0.3,0-0.3,0
		c0.7,1.8,1.8,3.7,2.1,5.7c-0.3,0.1-0.6,0.3-0.7,0.6c0.7,2.3,3,6.5-0.1,7.9c-1.1,1.4-1,5-2.3,6.5c-0.6,7.1,3.8,9.8,5.1,15.3
		c-0.1,0-0.1-0.1-0.3-0.1c0.1,2.8,0.7,5.4,1.3,7.8c1,4.4,5.5,8.2,5.2,13.2c-0.1,0-0.4,0-0.4-0.1c0,0.3-0.1,0.3-0.1,0.7
		c0.7,0.3,1,1.8,1,3c0.3-0.1-0.1-0.4,0.1-0.6c0.1,0,0.3,0,0.4,0c0,0.1,0,0.4,0,0.6c0.4-0.1,0.6,0.1,1,0.1c0,1,0.9,0.6,1.3,1
		c0.6-1,2-1.1,3.1-1c1.3-1.3,3.5-0.9,5.4-0.4c0.1-0.6,1-0.6,1.6-0.3c0.3-0.3,0-0.1,0-0.6c0.6-0.3,1-0.1,1.7-0.1
		c4.4-2.4,7.2-6.2,9.9-10.2c1.8-1,2.3-3.8,2.3-6.2c0,0,0-0.1,0-0.3c0,0.1,0,0.1,0,0.3s-0.1,0.3-0.3,0.4c-0.1-0.1-0.3-0.3-0.3-0.6
		c1-2.4,5.2-1.6,5.7-4.5c-0.1-0.3-0.3,0.1-0.3-0.1c0.3-0.9,0.7-3.4,0.1-3.4c-0.3-1.6-0.3-2.8-1.1-3.8c0.4-0.1,0.1-1,0.3-1.3
		c0,0.1,0,0.3,0.1,0.3c1.1-0.4,1.1-2,2.7-2.1c2.1-4.2,8.5-3.8,8.9-9.6c-0.1-0.3-0.3,0.1-0.3-0.1c0.3-0.1,0.1-0.6-0.3-0.3
		c0.4-0.4-0.1-1.8,0.3-2.7c-0.1,0-0.3,0.1-0.3,0c0.1-0.1,0.4-0.1,0.4-0.4c-1-2.4,0.4-3.8-0.3-5.2c-0.3,0.1-0.7-0.4-1.3-0.7
		c-0.1-2-1.1-4.4-0.3-6.5c-3.3-2.5,1.3-5.5,1.4-8.9c0.7-0.1,1.1-0.7,1.6-1c-0.1,0-0.1-0.3-0.3-0.3c0.3,0,0.4-0.3,0.9-0.3
		c4.4-7.9,13.7-11,15.9-21.2c1-1.3,1.8-2.7,1.8-5c1-0.9-0.1-2.1,0.6-3.3c-2.1-0.1-4.4,2-7.2,1.4c-1.7,1.3-3.7,0.9-5.7,1.7
		c-1-0.6-1.6-1.7-2.3-2.5c-0.3,0-0.7,0.3-1,0c0.6-0.3,0.9-0.7,1.4-0.9c-1.1-2.7-3.5-4.4-5.7-6.4c-0.4-0.1-0.3,0.1-0.7,0.1
		c-0.3-0.4-0.1-1-0.7-1.1c-0.4,0.3,0.3,0.7-0.1,1c-1.4-2.8-1.7-6.9-4.5-8.1c-0.6-1.4-0.7-3.4-0.7-5c0,0.1,0,0.3,0.1,0.3
		c0-0.7-1-1.1-0.9-2.4c-1.1-1-2.8-1.6-2.7-3.8c0.1,0,0.6,0.1,0.6-0.1c-3.3-3.5-4.4-8.5-6.9-12.2c0.3,0,0.1-0.6,0.3-0.6
		c0.9,1.8,1.6,3.8,3.4,4.7c0.6-1,0.3-2.8,1-3.7c-0.3,0.6-0.1,2.3-0.6,3c0.1,0.1,0.6-0.1,1,0c1.8,2.8,3.7,5,4.8,8.2
		c4.1,1.3,2,6.4,4.7,8.5c2.8,0.9,2.5,4.8,5,6.2c0,0.1,0,0.4,0,0.6c1.3,0.6,0.9,2.7,1,3.8c-0.3-0.3-0.3,0-0.3,0.3c1.4,1,0.9,4,2,5.4
		c0.9,0.4,2-0.3,2.8-0.1c1.6-1.7,4.7-2.1,6.9-2.8c1-2.1,4.4-2,6.2-3.3c0.1-0.4-0.1-0.6-0.1-1c1.4-2.4,5.8-0.9,6.1-3.8
		c2.4,0.4,1.7-3,4.1-2.3c-0.4-1-0.6-3,0.4-3.5c0,0.1,0,0.4-0.1,0.4c0.3,0,0.4,0,0.6,0.1c0.3-2,2.1-2.4,2.3-4.7
		c-1.7-3-7.1-2.3-7.1-6.9c0.1-0.4,0.6-1,0-1.4c-1.1,1.3-2.5,4-4,4.7l0,0c0,0.1-0.1,0.1-0.3,0.1c0.1,0,0.3-0.1,0.3-0.1
		c-0.4-0.3-0.7,0.1-0.6,0.3c-0.6-0.1-1.6,0-2.1-0.3c-0.1,0.4-0.7,0.4-1.3,0.4c-0.1-0.1,0-0.6-0.3-0.7c0,0.1-0.1,0.1-0.1-0.1
		c-0.3,0-0.3,0.1-0.7,0.1c0.7-0.7,0.1-2.1,0.3-3.3c-0.3-0.1-0.4-0.6-0.9-0.7c-0.9,0.6-0.6,2.1-0.6,3c-0.3-1.3-1.1-2-1.7-3
		c0.1,0,0.1,0.1,0.3,0.3c0.6-0.7-0.9-1-0.1-1.4c-0.7-0.3-1-1-1.7-1c0-0.4-0.1-0.6-0.3-0.8c-0.4,0-0.6-0.1-0.9-0.3
		c-0.1-1.1-1.3-2-1.7-3.7c-0.4,0-0.4,0.3-0.6-0.1c0.1-0.6,0.7-0.1,1-0.4c0.1-0.3-0.6-0.6-0.3-0.7c0.3,0.4,0.7,0,1.1-0.1
		c0.1-0.4-0.1-0.4-0.1-0.7c0.3,0.4,1,0.3,1.1,0.9c0.4,0,0.4-0.4,1-0.4c0.1,1.1,1.4,1.1,1.3,2.3c0.7-0.1,0.4,0.1,0.3,0.6
		c1.3,2.4,4,2.8,5.8,4.7c0.9-0.4,1,0.1,1.8,0.3c0.4,0,0.9-0.9,1.4-0.4c-0.3,0-0.6,0-0.4,0.3c0.9-0.3,1.4-0.1,1.8-1
		c-0.3-0.4-0.7,0.4-1,0c2.3-1.4,2.4,1.7,3,2.7c1.7,0.3,4.4,1,6,0.7c0.4,0.6,1.6,0.8,2.3,0.4c0,0.1,0,0.3,0,0.3
		c1.1-0.3,1.6-0.6,3.3-0.3c0.4-0.7,1.6-0.1,2.3,0.1c0.4-0.7,2.1-0.3,3-0.7c0.6,0.1,0.9,0.6,0.7,1.4c0.4-0.1,0.7,0.1,1,0.1
		c0.7,2.4,2.7,3,5,4.2c0.1-0.3,0.9-0.7,1.1-0.3c-0.3,1.1-1.4,0.9-2,1.3c0-0.6-0.1-0.1-0.3-0.4c0.3,2.3,4.8,5.8,6.2,1.8
		c0-0.3-0.4-0.3-0.6-0.4c0.6,0.1,0.3-0.7,1-0.9c-0.3,0.4,0.3,0.7,0,1.1c0.1,0.3,0.4-0.1,0.6,0.3c-0.4,0-0.4,0.3-0.3,0.6
		c0.3,0.3,0.3,0.1,0.1,0.4c1.1,1,0,3.4,0.7,4.7c0.1,0,0.3,0,0.3,0.1c0.7,2.8,1.1,5.5,2.5,7.7c1.4,3.3,4,8.6,5.2,12.8
		c0.3,0.7,1.4,2.7,2.3,2.7c1.7,0.1,1.1-3.4,3.7-2.4c-0.3-0.3-0.9,0-1-0.6c0.3-0.4,0.4-1.1,0.9-1.7c0.3-0.1,0.4,0,1,0
		c-0.3-3.1,0.4-6.4,0-9.2c-0.1-1.1-0.7-2.4,0.7-2.8c0,0.1,0.1,0.3,0.3,0.3c0.4-0.1,0.6-0.7,0.9-1.3c1,0.3,2.3-0.4,1.7-1.4
		c2.8-1.6,3.5-5.2,6.9-6.2c0.3-0.7,0.7-1,1-1.7c-0.1-0.4-0.4-0.6-0.3-1.1c0.1-1,1.7-0.6,2-1.4c0.3,0.3,0,0.1,0,0.6
		c0.9,0.1,1.1,0.1,1.7,0.1c-0.3-0.1,0,0,0.3,0c0-0.4-0.1-0.4-0.3-0.7c0.3,0,0.3,0.6,0.6,0.6c0-0.6,0.9,0.1,1.1-0.7
		c0.1,0.1,0.1,0.4,0.6,0.3c0.1-0.4,0.3-0.7,0.6-1c0,0.1-0.1,0.6,0.1,0.6c0.7-0.4,0.1-1.3-0.1-1.7c-0.3-0.1-0.4,0.3-0.4,0
		c0.3-0.3-0.3-0.6,0.3-0.7c0.4,0.7,0.1,0.7,0.9,1.1c0.4,0-0.3-0.4,0.1-0.4c2.3,0.9,1.8,4.5,3.8,5.7c0.3,0,0.3-0.1,0.3-0.3
		c-0.1,0.3-0.1,0.6,0.1,0.7c0-0.4,0.4,0.4,0.4,0c-0.1,0-0.4-0.3-0.1-0.3c0.9,0.3,1,0.9,1.6,1.6c-0.4,0.4-0.4-0.1-0.9-0.3
		c1.7,1.4,2.7,4,2.3,7.5c0.1-0.1,0.3-0.4,0.4-0.7c0.3,0.3,0,0.6,0,0.9c0.4,0.1,0.4,0,0.9,0.3c0.3-0.3,0.6-0.1,0.9,0.1
		c0.4-1.6,3-1.4,2.4-3.5c1.8,2.1,2.1,5.4,3.3,8.1c0-0.1,0-0.3,0.1-0.3c0.4,1,1.3,2.3,0.7,3.3c0.1,0,0.3,0,0.3-0.1
		c0,0.6-0.1,0.6-0.1,1.1c0.3,0.1,0.4-0.3,0.4,0c-0.4,2.4-0.7,5.2-0.6,8.4c0.7-0.1-0.1-1.1,0.6-1.3c0.1,0.9,1,0.6,0.9,1.4
		c0.6,0,0.9,0.7,0.7,1c1,0.4,2.7,2.7,1.7,4.1c0.1,0.4,0.4-0.4,0.4,0c0,1,0.9,2.3,0.6,3c1.3,2.4,3.3,3.8,5.7,5.7
		c0.3-0.9,1-0.1,1.4-0.3c-0.3-1.4-0.9-2.4-1.7-3.3c0.7-4.1-1.7-6.4-4.1-8.6c-1,0.4-1.4-0.6-2-0.6c0.3-1.6-1-3-1.4-4.5
		c-0.4,0-0.6,0.3-1,0.3c-0.9-3,1.6-5.9,0.9-8.9c0.4-0.1,1.4-0.3,1.7,0.1c0,0.6,0,1.1,0,1.7c0.6-0.1,1.3,0.1,1.8-0.1
		c0.4,0.4,0.7,1,1.1,1.6c0.4-0.1-0.6-0.4-0.1-0.4c0.9,0,1.3,1.6,1.7,2.8c0.4-0.1,0.3-0.1,0.6,0c0-0.3,0-0.4,0.3-0.6
		c0,0.3,0.3,0.3,0.3,0.7c-0.1,0.1-0.3,0.3-0.3,0.4c0.6,0.3,2-0.3,2.1,1c0.6-0.1,0.7,0.1,1,0.4c-1,0.3-0.1,2.3-0.4,3
		c1.6,0,1.1-1.7,2.7-1.7c0.1-0.4-0.4-0.6-0.1-0.7c0.1,0.1,0.4,0.6,0.7,0.3c0-0.4-0.1-0.7,0.4-1c0.1-0.4-0.4-0.3-0.4-0.4
		c0.7,0.1,0.1-0.3,0.6-0.6c0.1,0.1,0.1,0.4,0.4,0.4c1.3-0.6,2.1-1.6,3.4-2.3c0.3-0.8,0.3-2.1,0.1-3c0.3,0,0.1,0.3,0.3,0.3
		c-0.3-2.8-1.6-5.8-3-7.7c-0.4,0.4-0.4-0.8-1-0.3c-1.8-2-3.4-3.7-5-5.8c0.3-1.1,0.3-2.3,1.4-2.7c-0.3-1.1,0.4-1,0.7-1.1
		c0-0.1-0.3,0-0.3-0.3c1.4-1.3,3.3-1.7,5.4-1c-1,0.6,0.6,3.5,1.6,2.1c-0.1-0.6-0.7-0.6-0.9-1.1c2-0.9,3.3-2.3,5.8-2.6
		c0.1-0.7-0.3-0.8-0.4-1.3c0.4,0.1,0.3-0.1,0.7-0.1c0.1,0.3,0.1,0.7,0.3,1c0.4-0.1,0.6,0.1,1,0.1c0.1-0.4-0.4-0.4-0.1-0.6
		c0.1,0,0.1,0.1,0.3,0.3c0.1-0.1-0.3-0.7,0.3-0.7c-0.1,0.1-0.1,0.6,0.3,0.4c0.3-0.1,0.3-0.6,0.7-0.6c0.1,0.1,0.3,0.4,0.6,0.3
		c0-0.1,0-0.4,0.1-0.4c0.3,0,0.1,0.3,0.3,0.3c0.3-0.3,0.6-0.4,1.1-0.4c-0.1-0.4,0.1-0.9,0.4-0.6c-0.1-0.4,0-0.4,0-0.8
		c0.6,0.6,0.9-1,1.3-0.3c0-0.1-0.1-0.7,0.1-0.7c0,0.1,0,0.3,0.1,0.3c0.1-0.3,0.4-0.4,0.4-0.9c0-0.3-0.6,0-0.4-0.3
		c0.3,0,0.3-0.1,0.3-0.3c0.4,0.3,0.4-0.3,1,0c-0.1-1.1,0.9-1.1,0.9-2.1c0.1,0.1,0.4,0.4,0.6,0c-0.7,0,0.3-0.7-0.1-1
		c-0.4,0-0.7,0.3-1-0.1c1.7-0.3,1.8-3,1.8-4.1c0.6,0.1,0.3-0.6,0.6-0.7c0.1,0.1,0.1,0.6,0.4,0.4c-0.1-0.7,0.4,0,0.4-0.3
		c-0.3-0.4-0.6-0.6-1-1c0.1,0,0.4,0,0.6,0c0-0.1-0.1-0.3,0-0.3c0-0.4-0.4-0.4-0.6-0.6c0.4-0.1,0.6,0,1,0.3c-0.1-0.4,0-1.1-0.6-1.3
		c0,0.1,0,0.3-0.1,0.1c0-0.3,0.7-0.4,0.3-0.7c-1,0.1-0.9-0.7-1.7-0.9c-0.4,0-0.4,0.4-1,0.3c0-0.1-0.1-0.1-0.3-0.3
		c0.7-0.3,1-1.1,1.8-1.3c-0.9-1-2.4-2.4-3.8-2.1c1.1-0.9,2,0.6,3.4,0.4c-2.7-1.8-4.1-5.7-7.2-6.8c-0.1-0.9,0.6-1.8,1-2.4
		c-0.3,0-0.6-0.3-0.3-0.3c0.3-0.3,0.1,0.4,0.7,0.3c-0.1-0.6,0.7-0.8,0-1.1c1.4,0,1.6-1.3,2.7-0.4c-0.1-0.6,0-0.7-0.1-1.3
		c-0.6,0.1-0.9-0.1-1.1-0.3c-1,1-2.1-1.3-3.4-0.1c-0.6,2.4-2.3-0.3-3-1.1c0,0.1-0.1,0.3-0.3,0.3c-0.9-0.3-2.5-1-2.3-2.4
		c1,0.1,1.3,0.1,2.1,0c0.1-0.3,0.1-0.7,0-1c0.9-0.6,1.8-1.6,2-2.5c1.8-0.1,3,1.1,1.7,2.4c0.1,0.4,0.7,0.6,1,0.9
		c-0.4,0.1-0.1,0.3-0.1,0.6c-0.4,0.1-0.9,0.3-0.6,0.7c0.4,0,0.4-0.1,0.9-0.1c0.1-0.3,0-0.1,0-0.4c0.9-0.6,3-3,4.7-1.1
		c0-0.1,0-0.3,0.1-0.3c1.6,0.3,1.7,2.1,1.3,3.5c0.3,0,0.6,0,0.9,0c0,0.3-0.1,0.3,0,0.4c0.6-0.1,0.6,0.3,1,0.3c0.3,0,0.1-0.4,0.3-0.6
		c0.4,0.4,0.6,0.6,1.1,0.3c0.4,0.9,1.1,1.1,1.6,1.8c-0.7-0.3-0.3,0.3-0.9-0.1c0.3,0.6-0.3,0-0.3,0.6c0.1,0.3,0.4,0.4,0.9,0.3
		c0.7,1.4,1.4,2,0.9,3.4c0.4,0,0.4,0.6,0.7,0.9c-0.4-0.3,0,0.4-0.3,0.7c0.4,0.1,0.4-0.1,0.6-0.3c0.1,0.1,0.1,0.4,0.3,0.6
		c0.1-0.3,0.1-0.6,0.6-0.3c0-0.3,0-0.6,0.3-0.6c-0.3,0.3,0.1,0.4,0.3,0.6c-0.1-0.3,1-0.7,0.1-1c0.4-0.1,1,0,1.6,0.3
		c0-0.3,0-0.7,0.3-0.7c0,0.3,0.6,0,0.6,0.3c0.6-0.6,0.4-1.4,0.3-2.3c-1.7-3-4.1-5.2-6.9-6.9c0-0.3,0.1,0,0.3-0.1
		c-0.3-0.1-0.1-0.6-0.4-0.7c0.4-0.1,0.4-0.7,1.1-0.6c0.6-0.6,0.7-1.6,1.6-1.7c-0.3-0.7-0.6-1.1-1-1.7c0.1-0.7,0.3-1.6,1-1.4
		c0.1-0.3-0.1-0.3-0.1-0.6c0.1,0,0.4,0,0.6,0c-0.1-0.4,0.1-1,0.3-1.6c0.3,0.4,0.4,0.4,1,0.3c0.1,0.3,0.1,0.7,0.4,0.8
		c5.4,1.1,4.8-6.7,5.8-11.6c-0.7-3.1-3.7-5-3.4-7.9c-0.4,0-0.7-0.1-1-0.3c0-1-1.1-1-1.7-1.4c0.3,0,0.6,0.1,1,0.1
		c-1.6-1.3-3.8-2.8-6.2-2.4c0.3,0.1,0.3,0.4,0.4,0.6c-0.6-0.1-0.3,0.1-0.3,0.4c-0.3,0.1-0.9,0.6-1.3,0.3c0-0.3,0.4-0.3,0.3-0.6
		c-0.3-0.3-1.1-0.1-0.9-1c-0.4,0-0.6,0.1-0.9,0.3c-0.1,0.4,0.9,0.4,0.4,0.7c-0.1,0-0.3,0-0.3,0.1c-0.6-0.4-0.9-1.4-1.6-1.7
		c-0.7,0.6-2.3,0.1-2.7-0.4c2-1.6,1.6-4.1,3-6c-0.1-0.3-0.4-0.3-0.3-0.7c0.6-2.7,4.2-2.7,6.7-1.7c0.4-0.1-0.3-0.4,0-0.4
		c1.7,0.3,3,0.3,4,0c0-0.3-0.3-0.4-0.6-0.6c2.5,0.1,3.7,0.1,5.7,1c-0.6,0-0.9,0.1-1.4,0.1c0.6,1.1,2.3,0,3,0.3
		c-0.3-0.1,0.7-0.3,0.1-0.4c1,0.3,2,0,2.8,0.1c-0.1-0.6-1.6-1.1-1.7-0.6c-1.4-0.4-0.7-2.7-0.3-3.4c-1.4-1.4,2.5-1.4,3.5-1
		c0.1-0.1,0-0.6,0.3-0.4c0.6,0.4,0.7,1.4,1.4,1.8c0.4,0,0.3-0.4,0.7-0.3c0.1,0.4,0.3,0.6,0.4,1c0.3-0.1,0.6-0.3,0.9-0.4
		c-0.3-0.4,0.3-1.1,0.4-1.6c0.6,0,0.7-0.1,1.1,0c-0.6-0.6-1.4-1-1.8-1.7c0.7-0.4,2.4-0.3,3,0.3c-0.3-0.1-1-0.3-1.3,0
		c0.3,1.1,1.3,1.6,2,2.3c-0.4,0.3,0.3,0.6,0.3,0.7c-0.4,0.3-0.9,0.3-1.4,0.7c0,1.8-0.4,3.7-0.4,5c-0.3-0.1-0.7-0.1-1-0.3
		c0,0.4-0.3,0.7-0.8,0.4c0.3,0.7,1,0.7,1.1,1.6c-0.4-0.1-0.6,0.7-0.3,1.1c2.3,4.2,9.1,7.6,12,11.3c1-1.4,0.4-3.1-0.6-4.2
		c0.4,0.3,0.6-0.7,1.1-0.6c0.1,0.1,0.6,0.4,0.7,0.3c-0.7-0.6-2.5-1.6-1.4-2.8c0.7-0.1,1.1,0.3,1.6-0.1c-0.4-1.4-2.1-1.6-2.7-2.8
		c0.3-0.4,0.4-0.6,0-1c0.4,0.1,0.4-0.4,0.6-0.1c0.1,0.3-0.1,0.3-0.1,0.6c0.4,0.1,0.6,0.4,1.1,0.3c-0.1-1.8-3.4-1.3-3-3.3
		c-0.4-0.3-0.9-0.6-1.7-0.6c-0.3,0.1,0.1,0.3-0.1,0.3c-2.4-0.7-1.3-3.4-2.8-4.4c0.6-0.1,0.7,0.3,1,0.3c0.4,0-0.4-0.4,0-0.4
		c0.6,0.1,0.7,0.6,1.4,0.6c0-0.4-0.3-0.3-0.3-0.6c0.3-0.1,0.6-0.4,0.7-0.7c0.7,0.1,0.7,1.1,1.6,1.1c0.1-0.1,0.1-0.7,0.1-1
		c2.4-1,4.1,0.6,6,0.7c-0.1-0.3-0.7-0.4-0.8-0.9c0.8-0.3,0.4-0.7,1.3-1c0.1-0.4-0.4-0.1-0.3-0.4c0.6-0.1,0.6-1,1.7-1.1
		c-0.1,0-0.1-0.1-0.3-0.3c0.7,0,1-1,2.1-1c0.4-0.1-0.3-0.4,0-0.4c0.8,0.4,2.5,0.7,3.5,0.7c-1.7-2.4-6.2-3.1-8.2-4.4
		c1.4,0.4,2.4,0,3-1c-0.1-0.1-0.4-0.3-0.4-0.4c-0.3,0-0.4,0.3-0.7,0.3c-0.3-0.7-1.3-0.7-1.6-1.4c0.7,0.1,0-0.4,0.4-0.4
		c0.1,0.3,0.9,0.3,0.7,0c0.1,0.1,0.4,0.3,0.4,0.4c-0.1,0-0.3,0-0.3,0.1c4,1,8.9,2.5,12.2,2.8c0.3,0.1,0.7,0.7,1,0.3
		c-0.6-0.3-0.7-0.6-1.4-1c0.3,0,0.6-0.1,0.6-0.4c-0.7-0.3-1.3-0.7-2-1c0.7,0,1.6,0.7,2.3,0.3c-0.3-0.3-0.7-0.1-1-0.4
		c0.4,0,1,0.1,1.1-0.1c-1.4-1.4-4.5-1.8-7.2-2.3c-0.1,0.6,0.9,0,1,0.3c-1,0.3-1.8-1-3.1-0.3c0.7,0.6,2,0.4,2.3,1.4
		c-7.8-4.1-16.3-5.8-26.6-6.4c0.1,0,0.3,0,0.3-0.1c-1.6,0.3-2.8-0.6-4.5-0.4c0.9,1.1,2.3,1.6,3.7,2.1c-2,0.7-4.5-0.9-6.2-1.4
		c-3.3,0.7-7.5,0-10.9,0c-1.3-2.1-4.8-2.4-7.9-2.3c-3.8,0.1-6.7-0.3-8.2-0.4c-0.6-0.7-2-0.6-3-0.8c0.1-0.1,0.4,0.1,1,0
		c-1-0.7-4.4-1.8-5.1-0.3l0,0l0,0c0,0.1,0,0.1-0.1,0.3c-0.6-0.1-1.1,0.3-1.1-0.3c0.6,0.1,0.7-0.1,0.9-0.4c0,0.4,0.1,0.6,0.4,0.4l0,0
		c-1.3-2-6.5-1-9.5-1.7c0,0.4,0.7,0.3,1,0.6c-0.4,0.1-1,0.1-1.7,0.1c-0.1,0.6,0.3,0.7,0.7,0.7c0.1-0.3,0.4-0.3,0.9-0.3
		c-0.1,0.3-0.3,0.4-0.4,0.6c0.7,0,1,0.4,1.6,0.7c-1,0-1.7-0.3-2.3-0.1c-0.1,0.6,0.3,0.4,0.4,0.6c-0.4,0.1-0.7-0.1-1.4-0.3
		c0.4-0.1,0.9,0.4,0.9-0.3c-0.6,0-1.4-0.1-1.3,0.3c-0.7-0.1-1.1-0.4-2-0.4c-1.1,1.1-3.7-0.1-4.7-0.3c0,1,1.1,1.1,0.3,2
		c-1.7-0.4-3.4-0.8-4.7-1.7c0.1,0,0.6,0.1,0.6-0.1c-0.3,0-1.3-0.7-0.9-0.1c-0.7,0-1.3-0.3-1.7-0.6c0.4,0,1.3,0.6,1.7,0
		c-0.3-0.6-1.3-0.4-2-0.6c0.1-0.1,0.4-0.1,0.6-0.3c-0.7,0-0.7,0-0.3-0.3c-0.4-0.1-1,0.1-1.1-0.1c0.1,0,0.3-0.1,0.3-0.3
		c-2.5-1-6.7-1.1-8.6-1c0.3,0.6,1.1,0.4,1.1,1.1c-1.8-0.4-6.2,0.3-6.8-1c-2.3-0.1-5.1-0.7-6.9,0.1c-0.4-0.3-1.1-1-1.7-0.9
		c0.1,0.1,0.4,0.1,0.4,0.3c-0.7,0.3-2.3,0-2.3-0.4c-0.6,0.3-2.1-0.4-2.1,0.6c0.4,0.3,1.1-0.4,1.6,0c-1.4,0.4-2.7,0.8-5,1
		c0,0.3,0.1,0.3,0.3,0.3c-0.3,0-0.4,0.3-0.7,0.3c0.1-0.1,0.3-0.4,0.3-0.9c1.3-0.3,2.1-1.1,3.4-1.4c0.1-0.4-0.4-0.1-0.3-0.4
		c1.1-0.4,2.5-0.4,3-1.7c-0.6-0.3-0.4-0.4-0.9-1c-0.7,0.4-1.1-0.7-1.8-0.3c0.1-0.1,0.6,0.3,0.3,0.3c-1.1-1.1-6.2-1.7-7.4-0.9
		c-0.7,0-1,0.1-1.6,0c0.1-0.3,0.4-0.3,0.4-0.7c-1.1-0.3-2.4,0.1-3.3-0.3c0.1-0.3,1,0,1-0.3c-1.8-0.3-4-1-5.4,0.1
		c0.1,0.3-0.3,0.4-0.3,0.7c0.6,0.1,0.7,0.6,1.1,0.7c-1,0.1-2.1-0.1-2.8,0c0.3,0.1,0.7,0.1,0.9,0.3c-0.6,0-1.7,0-1.7,0.4
		c-0.9,0-1.1-0.1-2,0.1c0.1-0.1,0.1-0.3,0-0.4c-1.6,0.1-3-0.1-3.8,0.4c0.4,0.3,0.6-0.4,0.9,0.3c-3-0.1-5.2,0.8-6.9,1.1
		c0.1,0.1,0.7,0,0.6,0.4c-0.6-0.1,0.1,0.3-0.3,0.3c-0.4,0-0.6-0.4-1-0.3c0,0.3-0.1,0.3-0.1,0.4c0.4,0.1,1.1-0.1,1.3,0.3
		c-0.3,0-0.7,0-0.7,0.3c0.6,0.3,1.8,0.1,2.1,0.7c-2.5,0.3-5.4,0.3-8.1,0.4c0.1,0.4,0,0.1-0.1,0.6c1.4,1.1,3.4,1.7,5,2.5
		c-2.8,0.3-4.8-2.1-7.4-0.7c0.3,0.3,1,0.1,1.3,0.4c-0.9,0.3-1.7-0.6-2.7-0.1c0.6,1.6,3.1,0.7,3.8,1.7c-1.4-0.3-3.1-0.1-4.2-0.6
		c-0.4-0.6-0.6-3.1-2.3-2.4c0.3,0.3,1,0.3,1,0.9c-0.4,0.7-1.8,0.4-1.8,1.7c0.9,0.4,2.1,0.7,2.5,1.6c-0.7,4.2,6.1,1,7.6,4
		c-0.1,0.3-0.6,0.3-0.7,0.6c0.3,0.6,1.3,0.4,2,0.7c-0.9,0-1.6-0.1-2.1-0.3c0.3-1.8-3.4-2.8-4.5-1.4c0.1,0.7,1.1,0.6,1.3,1.3
		c-0.3,0.6-0.7,0.8-0.4,1.7c-0.6,0.3-1.1,0.4-1.7,0.7c0,0.1,0.3,0.4,0,0.6c-1.8-0.1-3.5-0.3-4.8-1c1.6,0,2.5,0.3,3.8-0.4
		c0-0.6,0.3-0.4,0.1-1c0.3-0.1,0.6-0.3,0.9-0.3c-0.1-0.4-0.6-1-0.1-1.4c-1.8-0.4-2.5-2-3.4-3.4c0.6-1-1.4-1.4-2-2.1
		c0.9-0.4,0.3-1.7-0.3-2.1c-1.4-0.1-3.1-0.3-4.5-0.3c0.3,1.8-1.4,2.6-1.7,3.8c0.6,0,0.6-0.1,1,0c0.1,0.6,0.4,1,0.6,1.4
		c-0.3,0-0.3-0.1-0.6-0.1c0,0.3,0.3,0.4,0.3,0.9c1.8-0.4,2.4,1.1,4,1.4c0,0.4-0.1,0.9-0.4,1c-1.1-0.7-2.4-1.4-4.2-1.4
		c0-0.1,0.1-0.1,0-0.3c-0.4-0.1-1.3,0.1-1.6-0.1c-0.4-1-4.8-1-6.5-0.8c0,1,1.3,0.7,1.4,1.6c-0.6,0.3-1,0.1-1.3,0.4
		c0.1,0.1,0.4,0,0.3,0.3c-0.4,0.1-1,0.1-1.1-0.3c0-0.3,0.3-0.3,0.1-0.4c-1.3-0.3-4.5,0.1-5.9,1c-0.6-0.3-1.3,0.3-1.6-0.3
		c0.9,0-0.1-0.4,0-0.9c0-0.3,0.6-0.1,0.6-0.3c-3,0.1-4.7,2.1-7.4,1.8c-0.1,0.4,0.4,0.1,0.3,0.4c-0.4,0-0.9,0.1-1.1,0.3
		c0,0.4,0,0.9,0,1.3c-1.6,0.3-2.5,0-4-1c0.4-0.6,1.3-0.6,2.3-0.6c-0.7-1.7-3.4-1.6-5.2-1.6c1.1,0.3,2.1,1.1,1.6,2.6
		c1.4,0.1,1,1.6,1,2.3c-0.4-0.9-2-0.7-3-1c-0.9,0.9-2.3,1-3,2c0.3,0.7,1.3,0.7,1.4,1.7c-1,0.1-2.1-0.6-3.3-0.3
		c0.4-0.6-1.3-0.9-2.1-1c0.1,0.4,0,0.6-0.4,0.4c0.3,0.7,1.1,1.4,2.3,1c0.1,0.3,0.4,0.6,0.4,0.9c-2.1,0.6-3.1-1-5-1.1
		c0.3-0.7-0.4-1.1-1-1.6c0.4,0,0.4-0.4,0.6-0.6c-0.3-0.9-1.1-1-2.1-1c0-1-1.6-0.6-2.1-1.7c3.1,0.8,10.5,3.8,12.9,0
		c-0.6-0.7-2.4-2-3-1.7c-2.8-0.9-5.7-3-9.1-2.1c0-0.1,0-0.3,0.1-0.3c-0.4,0-0.6,0.1-0.9,0.1c0.4-0.6-0.9,0-0.9-0.4c0.3,0,0.6,0,1,0
		c-0.7-0.7-1.7-0.6-2.3-0.1c-0.6-0.3-1.6-0.6-2-0.3c-0.4,0-0.4-0.3-0.7-0.4c1,0.1,1.1-0.4,2-0.3c-0.7-1-2.1-0.7-3.1-1.1
		c-0.4,0-0.3,0.6-0.7,0.7c-0.1-0.1,0.1-0.4-0.3-0.4c0.3,0,0.4-0.1,0.4-0.4c-0.7-0.1-1.4-0.3-1.8,0.3c0.1,0.3,0.3-0.1,0.3,0.1
		c-0.4,0-0.3,0.7-1,0.7c0-0.6,0.1-0.6,0-1c-1.1,0.1-1.4,1.4-2.1,1.4c0.3-0.6,0.4-0.9,1-1.3c-1-0.1-1,0-1.8-0.3
		c0.1,0.4,0,0.3-0.3,0.3c0.3,1-1.7,0.9-1.3,1.7c-0.6-0.7-2.4-0.7-2.8-0.3c0.4,0.1,0.9,0.1,1,0.4c-1.1-0.1-1.1-0.1-2,0.6
		c-0.3-0.1,0.1-0.3,0-0.7c-0.9,0.4-2,0.3-2.7,1c-0.3-0.4-1.4-0.4-2,0c0.1,0.6,0,0.3-0.1,0.7c0.6,0.1,0.6-0.3,1.1-0.3
		c-0.4,0.9-1.6,0.9-2,1.4c-0.1,0.3,0.6,0.4,0.3,0.6c-0.4,0.1-0.1-0.4-0.3-0.4c-0.3,0.4-0.9,0-1,0.6c0.1,0,0.7-0.3,0.9,0
		c-0.6,0.1-1.6-0.1-1.6,0.6c0.6,0.3,0.7-0.4,1-0.1c-0.9,0.1-1.4,0.7-1.7,1.3c-0.1-0.3-0.7,0.1-1,0.3c0.4,0,0,0.1,0.1,0.3
		c-0.4-0.4-0.4,0.3-0.9,0.3c0.3,0.1,0.3,0.9-0.3,0.7c0,0.3,0.1,0.3,0.3,0.3c-0.7,0.1-1,1.1-1.1,1.6c-0.4,0.3-1,0.3-1.1,0.8
		c0.4-0.3,0.6,0.3,0.3,0.4c-0.4,0-0.3-0.3-0.6-0.3c-1.4,0.7-1.7,2.3-3.4,2.3c-0.3,0.1,0.1,0.4-0.1,0.4c-1,0.6-2-0.1-2.3,0.8
		c0.1,0.1,0.7-0.1,0.9,0.3c-1-0.1-0.9,0-1.8,0c-0.1,0.4,0.1,0.3,0.3,0.4c-0.6-0.1-0.6,0.3-0.7,0.4c-0.6-0.1-1.1-0.3-1.3,0
		c0.1,0,0.3,0.1,0.3,0.3c-0.4,0-0.3,0.3-0.1,0.3c-0.3,0-0.3,0.1-0.4,0.1c-0.1,0.4,0.4,0.1,0.3,0.6c-0.7,0.7-0.1,1.4,0,2.4
		c0.3,0.4,0.6-0.3,0.6,0c0.1,0.3,0,0.7,0.3,1c-0.4,0-0.4-0.1-0.9,0c0,0.3-0.3,0.3-0.1,0.6c0.6,0.4,0.9,0,1.4,0.1
		c-0.3,0.3-0.4,0.6-0.3,0.7c-0.3,0.1-0.3-0.1-0.6-0.1c0.1,0.3-0.1,0.3-0.1,0.6c0.3,0.6,1.1,0.9,1.8,1c-0.1,0-0.3,0-0.3,0.3
		c2.1,0.6,4-0.9,4.8-2c0.4,0.4,0.7,0,1.1-0.1c0.3-0.3-0.1-0.7,0.3-0.9c0,0.3,0,0.4,0.3,0.9c0.3,0,0.4,0,0.7,0
		c-0.1,1.6,1,3.5,2.7,5.1c-0.6,0.1-0.3,0.4-0.3,0.6c-0.1,0-0.1-0.1-0.3-0.1c0,0.3,0.1,0.3,0.1,0.4c-0.6-0.3-1.4,0.4-2,0.3
		c0.1,0,0.3,0.1,0.3,0.3c-0.3,0.1-0.7,0.1-1,0.3c0.3,0.1,0.6,0.6,0.3,0.7c0.3,0.4,0.7,0.1,1,0.4c-0.1,0,0,0.1,0.1,0.3
		c-0.1,0-0.1,0.1-0.3,0.3c-0.3,0-0.7-0.6-1,0c0.1,0,0.1,0.1,0,0.3c0.4,0.3,1.1,0.1,1.7,0.3c0-0.4,0.3-0.7,0.9-0.7
		c0.1-0.6-0.7,0-0.6-0.3c-0.3-0.6,0.6-0.1,0.4-0.6c0-0.3-0.4-0.1-0.3-0.4c0.9,0,0.3-0.7,0.7-1c0.1,0.3,0.4,0.4,0.6,0.9
		c-0.4-0.1-0.1,0.4-0.3,0.4c0.7,0.1,1.8,0.1,2.4-0.3c0-0.4-0.4-0.3-0.3-0.9c0.3-0.1,0.4-0.3,0.9-0.1c0-0.1-0.1-0.3,0-0.3
		c0.6,0,1.3-0.1,1.7,0.1c0.7-1.1,1.3-2.7,1-3.7c0.4,0.1,0.4-0.7,0.1-1c0.6,0,0.3-0.1,0.1-0.3c0.7,0,1.1-0.9,1.7-0.3
		c0.3-0.7,0.9-0.4,1.1-1c-0.1-0.3-0.4-0.1-0.6-0.3c0.4-0.3,0.9-0.4,1-0.7c-0.4-1-1.1-0.9-1.7-1.7c-0.6,0.3-0.4-0.1-1.1-0.1
		c0.1-0.4-0.4-1.4-0.1-2c0.6,0.4,0.4,0,0.1-0.4c0.3,0,0.1-0.6,0.4-0.6c-0.3,0-0.4-0.1-0.4-0.4c0.3,0.3,0.4,0,0.9,0
		c0-0.4,0.3-0.4,0-0.6c0.3,0.3,0.4-0.3,0.9-0.1c1-1.6,3.1-1.3,4.2-3c-0.1-0.3-0.6-0.3-0.6-0.7c0.7-0.6,0.4-1.3,1.6-1.3
		c0-0.1-0.1-0.6,0.1-0.6c1.1,0.3,4.8-0.3,4.1,1.7c-1.6,0.6-3.5,2.3-4.1,3.1c-0.4-0.3-0.7,0.1-1-0.1c0.1,0.7-0.4,0.8-0.6,1.3
		c1,0.9,0.6,2.8,1,4.1c0.7-0.3,1.3,0.7,2.1,0.4c0.3,0.6,0.1,0.7,0.3,1c3.3-0.9,4.8-1.3,8.2-1.6c0,0.1-0.1,0.1-0.3,0.3
		c0.6,0.7,2.3,0.3,2.8,1c-0.6,0-1-0.1-1.7-0.3c-0.6,0.6-1,0.7-1.7,0.4c0,0.4,0.4,0.4,0.1,0.7c-3.1-0.4-5.5-0.6-7.4,1
		c0.9,0,0.7,0.8,1,1.3c0.6,0.1,0.9,0.1,1.3-0.1c-0.4,0.7-0.1,1.6,0,2.3c-1.1,1-2.1-0.3-2.8-1.1c-1.6,0-1.6,1.3-2.3,1.8
		c0,1.7,1,4-1.4,3.7c0.4,1.3-2.4,1.8-2.4,0.3c-3,0.1-6,2.8-7.9,1.3c0.3-0.3,0.6,0,0.7-0.3c-0.3,0-0.3-0.3-0.1-0.4
		c-0.4,0.1-0.4-0.3-0.7-0.3c-0.3,0.3,0,0.4-0.3,0.6c-0.7-0.3-2,0.4-2.7,1c-0.3-0.1-0.9,0-1-0.3c0.7,0,0.4-0.7,1-0.9
		c-0.6-0.1-1.1,0.4-2.1-0.1c0.1-0.6-0.3-0.6-0.4-0.7c0.1,0,0.4,0,0.6,0c0-0.7-0.9-0.1-1-0.6c0.7,0.1,0-0.4,0.3-0.6
		c0.3,0.7,0.7,1,1.7,0.7c0-0.6-0.1-0.9-0.3-1c-0.1,0.1-1-0.1-1.1,0.3c0-0.3-0.1-0.3-0.3-0.3c0.7,0,0.9-0.6,1-1c0.4,0.1,0.3,0,0.7,0
		c0-0.3,0.3-0.4,0.3-0.6c-0.1-0.1-0.4-0.3-1-0.3c-0.4-0.9,0.6-1.3,0.1-2.3c0.1,0,0.3-0.1,0.1-0.3c-1,1-2.8,1-3.7,2.1
		c0.1,0.1,0.4,0.1,0.4,0.3c-0.3-0.1-0.4-0.1-0.6-0.3c-0.1,0.3-0.1,0.8-0.1,1.3c0,0.1,0.4-0.1,0.3,0.3c-0.3,0-0.3,0.4-0.3,0.9
		c0.4,0.1,0.6,0,0.9,0.3c0,0.7,0,1.4,0.6,1.8c-0.3,0.1-0.6,0-0.7,0.3c0.7,0,0.6,0.6,0.6,1c-0.3,0-0.3-0.1-0.6-0.1
		c-0.3,0.1,0.1,0.7-0.1,0.7c-0.6-0.3-1.4-0.4-2-0.4c-0.1,0.3-0.3,0.6-0.4,1c0.1-0.8-1.4,0.1-1-0.4c-0.3,0.4-0.7,0-1,0.3
		c0.1,0,0.3,0,0.3,0.1c-0.7,0.1-0.9,0.9-1.7,1c0-0.1,0.3-0.4,0-0.6c-0.4,1.1-0.7,2.5-2,3c-0.1,0.4,0.6,0.1,0.4,0.4
		c-0.1-0.1-0.6-0.1-0.9-0.1c-0.6,1-2,1-3.1,1.4c0.4,1.8-1.1,2-2.4,2.4c-0.1,0.3,0,0.6-0.1,0.7c-0.6,0.3-1.3-0.1-2.1,0
		c-0.1-0.3,0.1-0.4-0.1-0.7c-0.4,0.3-1-0.1-1.1,0.1c0.3,0.3,0.7,1.4,0.6,2.1c-0.7,0-1.1-0.1-2,0.3c-0.1-0.3-0.3-0.7-0.7-0.7
		c-1,0.7-2.1,0-2.7,1c0.1,0.4,0.4,0.4,0.7,0.6c0,0.3-0.7-0.1-0.7,0.3c0.4,0,0.4,0.4,0.9,0.6c0.3-0.3,1.7,0,1.8,0.6
		c0.3-0.4,0.3,0.1,1,0c-0.3,0.6,0.4,0.3,0.6,0.6c-0.1,0.3,0.3,0.4,0,1c0.9,1,2.3,0.9,1.3,2.3c0.3,0.1,0.7,0.3,0.9,0.7
		c-0.3,0-0.6-0.9-0.6-0.3c-0.1,0.4-0.6,1.7-0.1,1.7c-0.4,1.4-1,3.8-3,2.6c-3.4,0.7-9.4-2-11,1.1c0.3,0.1,0.4,0.4,0.3,0.9
		c0.3,0.1,0.4-0.3,0.4,0c0.1,2.3-0.6,5.9-1.8,8.2c0.4-0.1,0.6,0.1,0.4,0.6c0.3,0.1,0.3-0.1,0.6-0.1c0.3,1-0.3,2.4-0.3,3.1
		c0.6-0.4,1.3-0.1,1.8,0c2.5-1.7,2.1,1.8,4.1,2.1c0.7-1.8,4.5-1.6,6.1-1.6c0.4-1.1,1.3-2,2.6-1.8c-0.6-0.9,1-2,1.7-2.6
		c-1.8-1.1,0.3-3.4,1.4-4.1c-0.1,0-0.3-0.1-0.3-0.3c1.4-0.9,3.3-1.3,4.4-2.3c0-0.6-0.1-0.6,0.1-1c-1-0.8,0.3-2.4,1.4-2.5
		c2.7,1.7,5.7,0.1,8.2-1.8c0.9,0.3,1.7,0.7,2.3,1.1c-0.1,0.9,0.6,1,0.4,2c0.6,0.1,1.1,0.7,1,1.1c1.6,0.3,2,1.7,3.3,2.4
		c0.6-0.1,0.7,0,1.4,0c0.1,0.4,0.3,0.6,0.4,1c0.1-0.1,0.3-0.1,0.6,0c0.1,0.3-0.3,0.4,0,0.4c0-0.3,0.6,0,0.7-0.3
		c0.1,0.3,0.3,0.6,0.3,1c0.6,0,0.6,0.6,1.3,0.3c0.3,0.9,0.9,2,1,2.7c0,0.3-0.6,0-0.6,0.3c0.1,0.4,0.1,0.9-0.3,1
		c-1.3-0.1-3.1,1.1-4.2,0c-0.3,0.1-0.4,0.3-0.7,0.4c-0.1-0.1,0-0.4-0.3-0.3c-0.1,0.3-0.4,0.6-0.4,1c1.7,0.4,3.1,2,5,2.1
		c-0.4-0.3,0.3-0.4,0.3-0.9c-0.7-0.7,0-1.8,0.4-2.3c0,0.3,0,0.4,0.1,0.6c0.3,0,0.6,0,0.9,0c0-0.7,0.6-0.7,0.9-1.1
		c0-0.3-0.1-0.3-0.1-0.7c0.3-0.1,0.6-0.3,1-0.3c0-0.3,0-0.7,0-1c-0.3-0.3-0.9-0.4-1.1-0.7c0.3-0.6,0.3-1.3,1-1.7
		c0.3,0.3,0.7,0.6,1.4,0.4c0.1,0.4,0.3,1,1,1c-0.1-0.4,0.3-0.4,0.3-0.8c-1-1.6-3.1-2-4.7-3c0-0.4,0.6-0.3,0.4-0.9
		c-2.6,0.3-4-1.4-4.4-3.5c-1-0.7-2.5-0.7-2.3-2.6c0.3,0.3,0.3-0.1,0.4-0.3c-0.4-0.1-0.6-0.4-0.6-0.8c0.1,0,0.1-0.1,0.1-0.3
		c0.6,0.3,1.1-0.3,1.6-0.6c0.4,0.4,0.7-0.3,1,0.3c-0.3,0-0.6,0-0.4,0.3c0.1,0.6,0.3,1.1,0.9,1.3c0.3-0.1,0.3-0.6,0.6-0.6
		c0.1,0.3-0.1,0.8,0.3,1c0.1-0.7-0.3-1.3-0.4-1.3c0.1,0,0.1-0.4,0.4-0.3c-0.1,0.6,0,0.7,0.4,0.9c0.1-0.3-0.3-0.4,0-0.4
		c0.1,0.3,0.3,1.1,0,1.1c0.6,0.8,1.4,1.6,2.1,2.3c0.4,0,0.7-0.1,1,0.1c-0.7,0,0.1,0.4-0.3,0.6c0.7,0.3,1.7-0.3,2,0.4
		c-0.3-0.3-1.1-0.3-1.6,0c0.4,0.3,1.7-0.4,1.1,0.3c0.4,0.1,1,0.1,0.3-0.1c1.6,0.3,2.3,1.6,3.7,2.3c-0.4,0.7,0,2.5-0.3,2.8
		c0.1,0.7,1,0.6,1.1,1.3c-0.3,0-0.4,0-0.6,0.3c0.4,0.1,0.4,0.9,1,0.9c0-0.4-0.6-0.3-0.4-0.9c0.6,0.6,1.3,1.1,1.7,1.8
		c-0.4,0-0.4,0.3-0.3,0.6c0.4,0.1,0.1-0.4,0.6-0.3c0.1,0.3,0.4,0.4,0.3,1c0.6-0.3,0.9,0,1.1,0c-0.4,0.3-1,0.4-1,1
		c0.3,0.4,0.9,0.6,1,1.1c-0.4,0.3,0,1.1,0.4,1.3c0.3-0.1-0.3-0.4,0.1-0.6c0.7,0.1,0.6,1,1,1.3c0-0.4,0-0.9,0.3-0.9
		c0.3,0.1,0.6,1,1,0.6c-0.4-0.6-0.4-1.6-1-2.3c0.4,0,0.4,0.3,0.9,0.6c0-0.3,0.6-0.1,0.6-0.4c-0.3-0.3-0.4-0.3-0.7-0.3
		c0.1-0.4-0.1-0.4-0.3-0.6c0.4,0.1,0.3-0.1,0.7-0.1c0,0.1,0.9,0.3,1.1,0.7c0.1-0.6-0.4-1,0-1.1c0-0.1-0.6-0.3-0.3-0.3
		c0.6,0.1,0.3,1,1.1,0.9c-0.1-0.7-1-0.6-0.9-1.6c-1.1,0.3-1.3-1.1-2-0.6c0-0.4-0.6-0.4-0.3-0.9c0.3,0.1,0.6,0.3,0.3,0.6
		c0,0,0,0-0.1,0h0.1c1-0.7-2.4-2.3-0.4-3.3c-0.7,0.7,1,0.6,0.9,1.4c0.3-0.1,0.3,0.1,0.6,0.1c0-0.4-0.7-0.1-0.6-0.8
		c0.6,0,0.6,0.6,1,0.7c0.4-0.4-0.4-0.4-0.4-0.9c0.7-0.1,0.7,0.4,1.1,0.4c-0.1-0.6-0.7-0.6-1-0.7c0.1-0.6-0.6-0.3-0.3-0.7
		c1.4-0.1,2-0.6,3.8-0.1c0.1,0.1,0.1,0.4,0.3,0.6c0.3,0,1-0.3,1.1-0.1c-0.3,0.3-0.6,0.4-1,0.4c0,0.3,0,0.6-0.1,0.7
		c0.1,0,0.3,0,0.3,0.1c-0.7-0.1-0.3,0.7-0.3,1.1c0.6,0.1,1-0.4,1.4-0.1c-0.1,0.3-0.4,0.3-0.4,0.6c0.7,0,0.1,0.7,0.7,0.9
		c0,0,0,0,0.1,0c0,0,0,0-0.1,0c-0.3,0-0.1,0.4-0.6,0.3c0,0.4,0.7,0.4,0.3,0.9c-0.6,0-0.3-0.6-1-0.7c-0.1,0.4,0.6,0.7-0.1,0.7
		c0.1,0.4,0.7,0.7,1,0.3c0,0.6,0.7,0.3,0.9,0.6c0.1,0.4-0.3,0.4-0.3,0.6c0.4,0.1,0.3,0.1,0.3,0.7c0.4-0.1,0.4,0,0.7,0.3
		c0,0.4-0.7-0.3-0.6,0.4c0.1,0.1,1.6-0.1,1.7,0c-0.3,0.4-1.3,0.3-1.6,0.7c0.6,0,0.9-0.1,1.3-0.3c-0.1,0.3,0,0.3-0.3,0.4
		c0.6,0,0.6-0.4,1-0.6c0.3,0.3,0.7,0.6,1,0.3c-0.3,0.4,0.3,0.3,0.1,0.9c0.4,0.1,0.7,0.3,1.1,0.4c0.3-0.3,0.9-0.4,1.3-0.3
		c0.3-0.3,0-1.1,0.3-1.4c2.5,0.1,3.5,2.7,6.1,1.4c0.1-0.6,0.6-1,1-1.1c0.7,0,0.9,0.6,1.6,0.4c0.3-0.3,0.4-0.7,1-0.7
		c0,0.1,0.1,0.1,0.1,0.3c0,0.4-0.7,0.4-0.7,1c0.6,1,0.1,2.3,0.7,3.7c-1.4,2.7-1.8,9.4-6.1,7.2c0,0,0,0-0.1,0c0,0,0,0,0.1,0
		c0.1,0.1-0.3,0.3-0.3,0.3c0.1-0.4-0.4-0.3-0.4-0.4c0-0.1,0.3-0.4,0-0.6c-0.4,0.6-1,0-1.4-0.1c-0.1,0,0.1,0.4-0.3,0.3
		c-0.3,0,0-0.1-0.1-0.3c-1,0.3-1.8,0.8-2.7,1.6c-2.7-0.3-4.4-2-7.4-1.4c-0.1-0.4-0.3-0.7-0.4-1c-1.1-0.1-3.3,0.1-3.4-1.3
		c-2.5-1.7-7.2,0.1-5.4,3.7c-0.4,0.6-0.9,1.3-1.8,1.4c-1.7-2.3-6.7-1.1-7.1-4.7c-1.6,0-2.1-1-3.5-1c-1.4,0.9-2.3-0.6-3.7-0.6
		c-0.1-0.6-0.1-1.3-0.7-1.6c-0.3,0-0.1,0.6-0.6,0.6c-0.4-0.3-0.9-0.6-0.9-1.1c1-0.7,2.1-1.4,1.8-3c-0.6-0.3-1.1-0.6-1-1.6
		c0.7,0,0.7-0.8,1.1-1c-0.1-0.1,0-0.6-0.3-0.6c-0.3,0.3-0.6,0.6-1.1,0.7c0.4-0.3-0.4-0.6,0-1c-1.7-1-2.5,0.9-4.4,0.7
		c-0.1-0.3-0.4-0.4-1-0.4c-0.1,0.7-1.1,0.1-1.4,0c-0.6,0.6-1.4,0.6-2.1,1c-3-1-7.4-0.1-9.5,1.7c-2-0.6-3.5,3.1-5.2,0.9
		c-1.3,0.9-4,0.9-4.2-1c-0.1,0.3-0.4,0.3-0.9,0.3c-1,5.5-7.6,5-7.8,11.1c0.7,2.7-2.7,5.2-5.8,5.7c-0.9,1.3-1.1,3.3-3,3.7
		C248.9,363.3,248.2,365.1,246.6,366.5C246.8,366.4,246.6,366.4,246.6,366.5c-0.1,0.1-0.1,0.1-0.3,0.3
		C246.5,366.8,246.6,366.7,246.6,366.5L246.6,366.5z M332.6,435.4L332.6,435.4c0.1-0.1,0.1-0.4,0.3-0.6c-0.4-2-3.1-3.3-2.3-5.5
		c-0.7-0.9-0.6-2.1-0.3-3.4c-0.1,0.1-0.3,0.3-0.3,0.6c-0.3-0.6,0.1-1.3,0-2.1c0.7,2,1.6,4.2,1,6.2c1.7,1,1.8,3.4,2.6,5.4
		C333.5,436.1,333.3,435.1,332.6,435.4L332.6,435.4z M341.4,448L341.4,448c-0.1-0.3-0.6-0.4-0.6-0.9c-0.3,0.1-0.1,0.6-0.6,0.4
		c-0.1-0.7,0.4-1.3-0.4-1.7c-0.6-2.8,0.4-5.7-0.4-8.4c1,1,2.3,5.2,1,5.2C340.7,444.4,340.6,446.4,341.4,448L341.4,448z M335.8,417.5
		L335.8,417.5c0.3-0.3,1.3,0,1.1-0.7c0.4,0.7,1.3,0,1.1-0.3c0.3-0.4,0.3,0.3,0.4,0.4c0.3,0,0.4-0.1,0.3-0.3c0.1,0.1,0.3,0.7,0.4,0.3
		c0.1,0.6,0.4,0.9,0.7,1.3c0.1,0,0.3-0.1,0.3-0.4c0.3,0.3,0.4-0.3,0.7,0c-0.1,0.4-0.6,0.4-1,0.6c-0.1,0.1-0.3,0.3-0.3,0.4
		c-0.1,0.4,0.3,0.3,0.3,0.6c-0.9,0.9-0.7,1.4-1.7,2.1c0,0.4,0.3-0.3,0.3,0.1c0.3,0.1-0.4-0.1-0.4,0.3c0.1,0.3,0.7,0.3,1,0.1
		c-0.7,1.3-1.3,0.3-2.6,0.7c0-0.1-0.1-0.3-0.3-0.4c-0.3,0-0.1,0.3-0.4,0.3c0.3,0.6-0.1,0.1-0.3,0.7c-0.3-0.1-0.1-1.1-0.4-1.4
		C335.8,420.2,335.2,418.5,335.8,417.5L335.8,417.5z M324,288.6L324,288.6c0.4-0.9,0.4-0.6,1-1.1c1.3,0.6,2.7,1,3.4,2
		c-0.1,0.4-0.4,0.6-0.4,1c-0.4,0-0.6-0.3-1-0.3c-0.3,0-0.3,0.4-0.3,0.7c-0.3,0.1-0.4-0.3-0.4,0C325.7,290,325,289.2,324,288.6
		L324,288.6z M339.7,329.1L339.7,329.1c-0.3-0.3-0.4-0.6-0.6-1c-0.6,0-0.9,0.1-1.4,0c-0.9-1.4-5.8-0.6-6.8,1.3
		c-3.3,0.1-5.8-0.7-6.8-3c0.3-0.1,0.3-0.6,0.7-0.4c-0.1-0.7,0-1.1,0.3-1.6c0.4,0.1,0.4,0.1,0.7-0.1c-0.3-1.8,0.4-2.1,0.3-3.1
		c0.3,0,0.1,0.3,0.1,0.6c0.4-0.1,0.9-0.3,1.1-0.3c0-0.9,0.1-1.1-0.3-1.7c0.7,0,1.7-0.9,1.7-1.8c0.3-0.1,0.9,0,1-0.3
		c0.4,0.4,0.4,0.4,1,0.4c-0.1,0.1-0.3,0.3-0.6,0.3c0.1,0.3,0.4,0,0.7,0c-0.4,0.4,2.1,0.3,2.7,0.3c0,0.1,0,0.3,0.1,0.3
		c-0.6,0.4-1.6,0.4-1.8,1.1c0.7,0,1.1,0.4,1.8,0.6c0.1,0.3,0.1,0.9-0.3,1c1,1.3,1.7-0.7,2.8-0.3c0.1-0.3,0.6-0.4,0.7-0.7
		c0.7,0.3,1,0.3,1.7,0.1c-0.1-0.4,0-0.6,0.3-0.7c-0.4-0.6-1.1,0.1-1.4-0.3c-0.3,0.6-0.7,0.3-1.3,0.3c0.4-1.1-1-0.6-1-1.7
		c0.3,0.1,0.3,0.6,0.4,0.7c0.3-0.1-0.3-0.4-0.1-0.9c2.4-1,3.8-1.8,7.1-2.1c-0.6,0.7-1.3,1-2.3,1.1c0.1,0.7,1,0.6,1.3,1
		c-0.6,0.1-1.6,0.7-1,1.7c-1-0.1-0.6,0.1-1.6-0.3c-0.1,0.1,0.3,0.4-0.3,0.6c3.3,1.3,5.7,3.7,8.9,5.1
		C350.6,331.3,342,329.6,339.7,329.1L339.7,329.1z M368.3,339.1L368.3,339.1c-1.6,0-2.3-1.1-3.4-1.7c-2-1-3.1-0.9-2.7-3.7
		c0.1,0.1,0.3,0.3,0.1,0.4c0.7,0.3,0.1-1.1,0.6-0.7c-0.4-0.6,0-1-0.1-1.8c0.3-0.3,1.1-0.6,1.6-0.1c-0.1-0.6-0.7-0.9-1.6-0.9
		c-1.3-2.6-4.7-3.4-4.5-6.8c-0.4-0.4-1.4-1-1.8-1.7c0.7-0.4,0.9-1.3,1.1-2.3c0.7,0.4,1-0.6,1.7-0.3c0.1-0.3-0.1-0.3-0.1-0.6
		c1.1-0.9,2.3-1.3,3.7-2.1c0.6,0.1,1,0.4,1.7,0.6c3-1.8,1,4.7,3.8,2.8c0.3,0.3,0.4,0.7,0.7,1c-0.4,0-0.4-0.1-0.9,0
		c0-0.3,0.4-0.1,0.3-0.3c-1.6-0.1-4.8-1.3-5.2,0.3c0,0.4,0.6,0.6,0.9,0.9c-0.4,0.4-1-0.4-1.8-0.1c-0.1,0.7,0.4,0.9,1,0.9
		c0.3,1,1.3,1.1,1.3,2.3c0.9-0.1,1,0.3,1.1,0.7c0.6-0.1,1.1,0,1.6,0.3c-0.7,2,1.3,3.7,1.4,6c0-0.3,0.4-0.1,1-0.1
		c-0.1,0.6,0.4,0.6,0.1,0.9c-0.3,0-0.3-0.1-0.3-0.3c-0.3,0.3-0.3,0.7-0.1,1c0.1,0,0.1-0.4,0.4-0.3c0.3,0.3,0.6,0.7,1,0.9
		c-0.3,1.6,0.4,3,0.7,4.2C370.6,338.2,369.6,339.1,368.3,339.1L368.3,339.1z M451.4,305.2L451.4,305.2c-0.6,0.3-1.3,0.3-1.3,1
		c-0.3,0-0.6-0.3-0.9,0c0,0.4,0.1,0.7,0.1,1.1c-1,0.6-2.4,0.7-3.5,0.3c2,0,2.5-1.3,3.5-2.3c0.6-1.4,1.4-4.2,0.6-5.8
		c0.1-0.1,0.4-0.1,0.7-0.1c0.4,1,2.1,4.7,1.1,3.7c-0.4,0-0.6,0.3-0.4,0.7c0,0.1,0.9-0.3,0.9,0.3
		C451.5,304.2,451.5,304.6,451.4,305.2L451.4,305.2z M296.5,256.6c0,0.4-0.7,0.3-1,0.4c1,0.7,2.8,1.7,4.2,0.7c-0.1,0-0.3,0-0.3-0.1
		c0.1,0,0.1-0.1,0.3-0.3c0.7,0.3,1.6,0.6,2.4,0c-0.1,0.1-0.1,0.3-0.3,0.4c-1.3,0.1-2.1,0.7-3.4,0.4c-0.3,1,1.4,0.3,1.7,0.9
		c-0.1,0.3-1.1-0.4-1.1,0.3c0.4,0.4,1.4,0.6,2.3,0.7c0,0.4,1.3,0.9,2,0.6c0-0.3-0.1-0.3-0.3-0.3c0.7-0.1,0.4-1.3,1.6-1
		c0.1-0.3,0-0.6,0.1-0.9c0.3,0,0.4,0,0.7,0c0-0.1-0.1-0.7,0.1-0.7c0.7,0,1.6-0.6,2.3-0.1c-0.3,0.1-1-0.1-1,0.1
		c0.7,0.3,1.1,0.7,1.8,1c-0.3,0.1-0.7,0.3-0.9,0.7c1,0,1.3,0,2.1-0.3c-0.1,0.1-0.1,0.3-0.1,0.6c1.1-0.1,2-0.6,3-1
		c-0.7-0.4-1.7,0.1-2.3-0.4c0.1,0,0.3,0,0.3-0.1c-0.3-0.3-1,0-1.6-0.1c0.3-0.9-0.9-0.4-1.1-0.7c0.1,0,0.3,0,0.3-0.3
		c-1.4-0.4-3.3-0.1-3.7-1.1c-0.6-0.3-0.9,0.4-1,0.3c-0.1-0.4,0.4-0.1,0.3-0.4c-1-0.4-1.4-0.1-2.4-0.4c0,0.1-0.1,0.3-0.3,0.3
		c0.1,0.6,1,1,1,1.4c-1-0.6-1.7-1.8-3-1c-0.1,0.3,0.4,0.4,0.1,0.4c-0.1-0.4-0.6-0.1-0.9-0.3c0.1-0.3,0.7-0.1,0.9-0.4
		c-0.6,0-2.3-0.1-2.3,0.3c-0.4-0.6-1,0.1-1.7,0.1C295.2,256.7,295.9,257.2,296.5,256.6L296.5,256.6z M586.1,497.6
		c0.6-0.6,0.4-1.6,1-1.8c-0.1-0.3-0.4,0.1-0.3-0.4c-0.6-0.3-0.3,1.4-1.1,1.6c0.4-0.4,0-0.7-0.4-0.9c0.7-1.1,0.7-2.3,1.1-3.4
		c-0.4-0.1-1.1-1-1.4-0.9c-0.6,0,0.1-0.9-0.1-1c-0.8,0.7-0.6,2.7-0.3,4.2c0.4,0.1,0-0.7,0.4-0.3c-0.1,0.3,0,1.1-0.3,0.4
		c-0.1,3.5-2.4,4.8-4.7,6.2c0.4,0.6,0.8,0.9,1.4,1.3c-0.3,1.4-1.7,1.8-2.7,2.7c0,0.7,1-0.1,0.6,0.7c3.5-0.6,5.5-5.2,8.1-5
		c1.1-1,2.3-2.1,3.4-3.1c0-0.1,0-0.1,0-0.3C588.9,497.1,587.5,499.1,586.1,497.6L586.1,497.6z M514.7,435.1c-2.3,0-4.7,0.4-5.8,2.3
		c-0.1-0.4-0.3,0-0.6-0.3c-0.4,0.3-1.3,1.3-0.6,1.7c-0.3,0-0.7,0.1-0.6,0.6C510,438.5,512.1,436.5,514.7,435.1L514.7,435.1z
		 M555.9,430.4c0.3,0,0.4-0.3,0.7-0.3c1,1.4,3.8-0.1,4.1-1c0.7,0.1,0.7,0,1.1-0.3c0.1-0.6-0.4-0.4-0.3-1c0.9,0.4,0.9-0.9,1-1.4
		c-0.3,0-0.4,0-0.3-0.3c-0.4,0-0.3,0.4-0.7,0.3c0-0.3-0.4-0.3-0.7-0.3c-0.1,0.7,0.3,0.9,0.3,1.7c-1-0.1-1.1,0.7-1.6,1.1
		c-0.4,0.1-0.7-0.1-1.4,0.1c-0.3-0.3,0-0.9,0.1-1c-0.6-0.3-0.4,1-0.7,1c-1.3,0.1-1.8-0.1-3-0.1c0,0.3,0,0.4,0,0.7
		C555.2,429.7,555.8,429.9,555.9,430.4L555.9,430.4z M507.5,419.1c0.1,0.1,0.1,0.4,0.4,0.4c0.1-0.3,0.3-0.6,0.3-1
		c-0.3-0.4-1.8-0.1-1.1,0.1h0.1H507c-1.1-0.4-1.6,0.9-2.4,0.1c-0.4,0.3-0.6,0.9-1,1.1c-0.4,0-0.4-0.1-0.9,0c-0.1-0.4,0-0.4-0.1-0.9
		c-1.4-0.3-1.1-2.6-0.3-3.1c2.7-0.1,5,0.6,7.6,0.1c0.3-1,1.4-1.6,1.3-2.7c-0.1,0-0.4,0-0.4-0.1c-0.4,0.3,0,0.7-0.9,0.7
		c-0.9,2.1-3.5,0.7-5.7,0.7c0-0.1,0-0.3,0-0.4c-0.6,0.3-0.6-0.3-1.3-0.1c0.1,0.7-0.3,0.9-0.6,1.1c-0.3,0-0.1-0.4-0.4-0.3
		c-0.4,0.4-0.6,1.1-1,1.6c-0.1,0.4,0.3,0.3,0.3,0.6c-0.1,0.4-0.4-0.4-0.4,0.1c0.4,0.1,0.1,1,0.3,1.4c-1.6,0.3-0.6,3.5-2.1,4.2
		c0.4,0.4-0.3,1.1,0.3,1.7c0.3,0,0.6-0.1,1-0.3c0.7,1.7-0.1,2.7-0.3,4.5c0.4,0,0.4,0.3,0.9,0.3c0.3-0.6,1-0.3,1.3-0.3
		c-0.7-1.7,0.7-3.7-0.3-5.7c0.4-0.3,1-1,1.6-0.4c0,0.4,0,1.3-0.4,1.7c0.4,0.6,0.9,1,1.4,1.3c-0.1,0.4-0.4,1-0.3,1.4
		c0.3,0.1,0.6,0.3,1.1,0.3c-0.4-1,1-0.9,1.6-1c0-0.3,0-0.6,0-0.9c-0.6,0.1-0.6-0.6-1.1-1c0.6-0.4-0.1-0.7,0.4-0.9
		c-0.4-1-1.6-2.3-2-3C505.3,421.8,506.5,419.7,507.5,419.1L507.5,419.1z M148.9,377.4c-0.6-1.1-1.6-0.6-2.3-1.3
		c0.1,0.1,1.1,0.3,0.8-0.3c-0.3,0.1-0.7,0.1-1.1,0.1c0-0.3,0-0.6-0.1-0.7c-1-0.1-2-0.6-3-0.6c-0.7,1.3-2.8-1-3.7,0.6
		c0.4,0.1,1.3,0.1,1.4,0.6c-0.4,0.1,0.1,0.7-0.3,0.6c0.1,0.6,0.7,0.6,0.8,1.1c-1.4,0.4-2.6-0.1-3.7-0.3c-0.1,0.3-0.4,0.4-0.3,0.9
		c0.7-0.1,0.6,0.6,1.1,0.6c0.4-0.7,4.8-0.6,4,1c0.6-0.3,1-0.9,1.1-1.7c0.3,0.3,0.6-0.1,0.8-0.3c0,0.1,0,0.3,0,0.4
		c1.1-0.1,1.4-0.9,3.1-0.4c0.3,0.1,0.1,0.7,0.6,0.7C147.9,378,148.9,378.1,148.9,377.4L148.9,377.4z M480.1,378c0.7-0.7,0.7-2,1.4-3
		c-0.4-1.6-1.7-0.3-2.7-0.7c-0.1,0.4-0.6,0.3-0.9,0.3c0.1,0.9-0.9,0.7-1,1.4c0.1,0.7,0.3,0.7,0.3,1.6c0.6,0.3,1.3,0.6,2.1,0.7
		C479.5,377.9,479.8,378,480.1,378L480.1,378z M498.8,370.4c0.3-1.3,1.1-5.1,0.9-6.7C496.4,362.6,496.3,369.6,498.8,370.4
		L498.8,370.4z M292,334.4c0-0.1,0.3-0.1,0.3,0c0.3-0.3,0.3-0.4,0.3-0.7c0.4,0,0.6,0.1,0.9,0.3c0.3-1.7,0.7-2.8,0-4.4
		c-0.3,0-0.4-0.3-0.7-0.3c-0.3,0.4-1.1,1.3-1.7,0.7c0,0.3-0.1,0.4-0.1,0.9c0.6,0.3,0.7,0.8,0.3,1.3c0,0.4,0.3,0,0.3,0.3
		c-0.4,0.7-0.1,1.1-0.3,1.8C291.8,333.8,291.5,334.1,292,334.4L292,334.4z M526,324.6c-0.4-0.1-0.3,0.3-0.4,0.3
		c-0.8-0.6-1.4-1.3-1.7-2.3c-0.1,0.3-0.1,0.7-0.4,1c-2.7-0.4-4.7-2.1-6.9-3.4c0.1,0.4-0.3,0.1-0.3,0.1c1.1,1.6,1.8,3,2.3,4.8
		c-0.4,0.3-1.1-0.4-1.7-0.3c0,0.4,0.6,0.4,0.7,0.7c-0.1,0.3-0.3,0.6-0.7,0.6c0.6,1.1,1.4,2,2.3,2.8c0.3-0.3,0.1-0.4,0.3-0.9
		c0.1,0,0.7,0.3,1-0.1c-0.6-0.7-2.1-0.4-2.3-1.6c0.6,0,0.8,0.1,1,0.4c0.6,0,0.4-0.6,1-0.6c1.3,0.4,2.4,1,3.7,1.4
		c-1.1-2.3,1.1-2.1,2.3-2.6C525.7,324.9,526,324.9,526,324.6L526,324.6z M68.7,310.7c0.4,0.1,0.3-0.1,0.7-0.1
		c-0.1,0.4,0.3,0.1,0.3,0.1c0,0.3-0.3,0.1-0.3,0.4c0.3,0.1,0.8-0.1,0.8,0c-0.1,0.1-0.1,0.3,0,0.4c-0.3,0-0.4,0.3-0.6,0.4
		c0.3,0.1,0.3,0,0.8,0c-0.1,0.4,0,0.3,0.3,0.4c0,0.1-0.3,0-0.3,0.3c0.4,0.6,0.7-0.1,1.1,0.3c-0.1,0-0.4,0-0.4,0.1
		c0.6,0.7,1.7,1.3,2.7,1c0-0.9,0-0.9,0-1.8c-0.3-0.1-0.7-0.1-1-0.4c0.3-0.4,0-1.1,0.3-1.7c-1.6,0.1-3.3-2-4.2-0.4
		c0,0.3,0.3,0.1,0.3,0.3C68.8,310.3,69.1,310.6,68.7,310.7L68.7,310.7z M130.9,261.7c0.1,0.4-0.4,0.1-0.3,0.4c1-0.1,1.8-0.4,2.3-1
		c0,0.3-0.3,0.4,0.1,0.4c1.1-0.4,1.8-1.1,3-1c-0.4,0.1-0.9,0.1-1,0.6c1.1,0.4,1.8-0.7,3.3-0.4c0.1-0.4,0.3-0.4,0.8-0.6
		c-0.1,0-0.1-0.1-0.3-0.3c0.6-0.1,1-0.1,1.7-0.3c-3.7-1-8.5,1.1-12.3,1.8c0.7,0-0.1,0-0.1,0.3C129.3,261.6,130.2,262,130.9,261.7
		L130.9,261.7z"/>
</g>
<g id="Layer_2">
	<circle fill="#39B54A" stroke="#FFFFFF" stroke-miterlimit="10" cx="139.8" cy="337.8" r="4.1"/>
	<circle fill="#39B54A" stroke="#FFFFFF" stroke-miterlimit="10" cx="275.4" cy="306.9" r="4.1"/>
	<circle fill="#39B54A" stroke="#FFFFFF" stroke-miterlimit="10" cx="63.5" cy="333.2" r="4.1"/>
	<circle fill="#39B54A" stroke="#FFFFFF" stroke-miterlimit="10" cx="467.1" cy="419.9" r="4.1"/>
	<circle fill="#39B54A" stroke="#FFFFFF" stroke-miterlimit="10" cx="406.4" cy="362.7" r="4.1"/>
	<circle fill="#39B54A" stroke="#FFFFFF" stroke-miterlimit="10" cx="142.8" cy="317.8" r="4.1"/>
	<circle fill="#39B54A" stroke="#FFFFFF" stroke-miterlimit="10" cx="294.4" cy="304.8" r="4.1"/>
</g>
<text transform="matrix(1 0 0 1 3.0022 336.3494)" fill="#848484" font-family="'Helvetica-Light'" font-size="8.5">San Francisco</text>
<text transform="matrix(1 0 0 1 150.9359 341.8835)" fill="#848484" font-family="'Helvetica-Light'" font-size="8.5">New York</text>
<text transform="matrix(1 0 0 1 192.9344 321.8675)" fill="#848484" font-family="'Helvetica-Light'" font-size="8.5">Toronto</text>
<text transform="matrix(1 0 0 1 229.936 308.7867)" fill="#848484" font-family="'Helvetica-Light'" font-size="8.5">London</text>
<text transform="matrix(1 0 0 1 312.001 305.8889)" fill="#6D6D6D" font-family="'Helvetica-Light'" font-size="8.5">Amsterdam</text>
<text transform="matrix(1 0 0 1 414.0002 364.8153)" fill="#6D6D6D" font-family="'Helvetica-Light'" font-size="8.5">Bangalore</text>
<text transform="matrix(1 0 0 1 418.3462 422.0481)" fill="#848484" font-family="'Helvetica-Light'" font-size="8.5">Singapore</text>
</svg>
